<?xml version="1.0" encoding="utf-8" standalone="no"?>
<!DOCTYPE svg PUBLIC "-//W3C//DTD SVG 1.1//EN"
  "http://www.w3.org/Graphics/SVG/1.1/DTD/svg11.dtd">
<svg xmlns:xlink="http://www.w3.org/1999/xlink" width="576pt" height="576pt" viewBox="0 0 576 576" xmlns="http://www.w3.org/2000/svg" version="1.1">
 <metadata>
  <rdf:RDF xmlns:dc="http://purl.org/dc/elements/1.1/" xmlns:cc="http://creativecommons.org/ns#" xmlns:rdf="http://www.w3.org/1999/02/22-rdf-syntax-ns#">
   <cc:Work>
    <dc:type rdf:resource="http://purl.org/dc/dcmitype/StillImage"/>
    <dc:date>2025-08-04T12:29:02.313505</dc:date>
    <dc:format>image/svg+xml</dc:format>
    <dc:creator>
     <cc:Agent>
      <dc:title>Matplotlib v3.10.1, https://matplotlib.org/</dc:title>
     </cc:Agent>
    </dc:creator>
   </cc:Work>
  </rdf:RDF>
 </metadata>
 <defs>
  <style type="text/css">*{stroke-linejoin: round; stroke-linecap: butt}</style>
 </defs>
 <g id="figure_1">
  <g id="patch_1">
   <path d="M 0 576 
L 576 576 
L 576 0 
L 0 0 
z
" style="fill: #ffffff"/>
  </g>
  <g id="axes_1">
   <g id="patch_2">
    <path d="M 67.52 526.96 
L 546.84 526.96 
L 546.84 47.64 
L 67.52 47.64 
z
" style="fill: #ffffff"/>
   </g>
   <g id="FillBetweenPolyCollection_1">
    <defs>
     <path id="m983b54950e" d="M 67.52 -505.535238 
L 67.52 -505.535238 
L 111.11786 -505.535238 
L 111.11786 -479.205977 
L 116.24702 -479.205977 
L 116.24702 -475.865365 
L 118.8116 -475.865365 
L 118.8116 -466.106823 
L 121.37618 -466.106823 
L 121.37618 -461.162541 
L 129.06992 -461.162541 
L 129.06992 -446.701247 
L 134.19908 -446.701247 
L 134.19908 -437.36084 
L 136.76366 -437.36084 
L 136.76366 -428.218224 
L 139.32824 -428.218224 
L 139.32824 -419.241997 
L 141.89282 -419.241997 
L 141.89282 -414.808492 
L 144.4574 -414.808492 
L 144.4574 -410.408004 
L 147.02198 -410.408004 
L 147.02198 -397.384305 
L 149.58656 -397.384305 
L 149.58656 -393.096676 
L 154.71572 -393.096676 
L 154.71572 -388.833478 
L 157.2803 -388.833478 
L 157.2803 -376.179045 
L 159.84488 -376.179045 
L 159.84488 -367.845818 
L 162.40946 -367.845818 
L 162.40946 -347.330282 
L 164.97404 -347.330282 
L 164.97404 -327.215011 
L 167.53862 -327.215011 
L 167.53862 -323.235525 
L 170.1032 -323.235525 
L 170.1032 -299.639407 
L 172.66778 -299.639407 
L 172.66778 -288.012294 
L 175.23236 -288.012294 
L 175.23236 -268.872551 
L 177.79694 -268.872551 
L 177.79694 -257.527507 
L 180.36152 -257.527507 
L 180.36152 -250.020866 
L 182.9261 -250.020866 
L 182.9261 -246.284443 
L 185.49068 -246.284443 
L 185.49068 -235.142534 
L 188.055259 -235.142534 
L 188.055259 -220.443966 
L 190.619839 -220.443966 
L 190.619839 -209.53903 
L 193.184419 -209.53903 
L 193.184419 -195.160948 
L 195.748999 -195.160948 
L 195.748999 -173.954534 
L 198.313579 -173.954534 
L 198.313579 -163.522842 
L 200.878159 -163.522842 
L 200.878159 -156.635832 
L 203.442739 -156.635832 
L 203.442739 -146.412123 
L 206.007319 -146.412123 
L 206.007319 -139.671512 
L 208.571899 -139.671512 
L 208.571899 -132.994879 
L 211.136479 -132.994879 
L 211.136479 -119.850011 
L 213.701059 -119.850011 
L 213.701059 -113.392014 
L 216.265639 -113.392014 
L 216.265639 -110.194369 
L 218.830219 -110.194369 
L 218.830219 -107.01889 
L 223.959379 -107.01889 
L 223.959379 -97.636835 
L 226.523959 -97.636835 
L 226.523959 -82.573572 
L 231.653119 -82.573572 
L 231.653119 -76.800477 
L 234.217699 -76.800477 
L 234.217699 -73.981034 
L 239.346859 -73.981034 
L 239.346859 -68.501048 
L 249.605179 -68.501048 
L 249.605179 -65.853803 
L 257.298919 -65.853803 
L 257.298919 -63.28012 
L 262.428079 -63.28012 
L 262.428079 -60.791997 
L 264.992659 -60.791997 
L 264.992659 -58.40542 
L 316.284259 -58.40542 
L 316.284259 -56.142523 
L 318.848839 -56.142523 
L 318.848839 -54.035522 
L 323.977999 -54.035522 
L 323.977999 -52.134617 
L 329.107159 -52.134617 
L 329.107159 -50.526095 
L 341.930059 -50.526095 
L 341.930059 -49.381774 
L 524.015238 -49.381774 
L 524.015238 -49.04 
L 524.015238 -49.04 
L 524.015238 -49.04 
L 524.015238 -67.936731 
L 341.930059 -67.936731 
L 341.930059 -73.490946 
L 329.107159 -73.490946 
L 329.107159 -78.965029 
L 323.977999 -78.965029 
L 323.977999 -84.253897 
L 318.848839 -84.253897 
L 318.848839 -89.386783 
L 316.284259 -89.386783 
L 316.284259 -94.39344 
L 264.992659 -94.39344 
L 264.992659 -99.296457 
L 262.428079 -99.296457 
L 262.428079 -104.112622 
L 257.298919 -104.112622 
L 257.298919 -108.854614 
L 249.605179 -108.854614 
L 249.605179 -113.532217 
L 239.346859 -113.532217 
L 239.346859 -122.72358 
L 234.217699 -122.72358 
L 234.217699 -127.248592 
L 231.653119 -127.248592 
L 231.653119 -136.178433 
L 226.523959 -136.178433 
L 226.523959 -157.934095 
L 223.959379 -157.934095 
L 223.959379 -170.674552 
L 218.830219 -170.674552 
L 218.830219 -174.877329 
L 216.265639 -174.877329 
L 216.265639 -179.059759 
L 213.701059 -179.059759 
L 213.701059 -187.366934 
L 211.136479 -187.366934 
L 211.136479 -203.769968 
L 208.571899 -203.769968 
L 208.571899 -211.874889 
L 206.007319 -211.874889 
L 206.007319 -219.920267 
L 203.442739 -219.920267 
L 203.442739 -231.883018 
L 200.878159 -231.883018 
L 200.878159 -239.79149 
L 198.313579 -239.79149 
L 198.313579 -251.559091 
L 195.748999 -251.559091 
L 195.748999 -274.770322 
L 193.184419 -274.770322 
L 193.184419 -290.01612 
L 190.619839 -290.01612 
L 190.619839 -301.334584 
L 188.055259 -301.334584 
L 188.055259 -316.273716 
L 185.49068 -316.273716 
L 185.49068 -327.364455 
L 182.9261 -327.364455 
L 182.9261 -331.039677 
L 180.36152 -331.039677 
L 180.36152 -338.357394 
L 177.79694 -338.357394 
L 177.79694 -349.251374 
L 175.23236 -349.251374 
L 175.23236 -367.182494 
L 172.66778 -367.182494 
L 172.66778 -377.80085 
L 170.1032 -377.80085 
L 170.1032 -398.700583 
L 167.53862 -398.700583 
L 167.53862 -402.137522 
L 164.97404 -402.137522 
L 164.97404 -419.105077 
L 162.40946 -419.105077 
L 162.40946 -435.670775 
L 159.84488 -435.670775 
L 159.84488 -442.168373 
L 157.2803 -442.168373 
L 157.2803 -451.756597 
L 154.71572 -451.756597 
L 154.71572 -454.906226 
L 149.58656 -454.906226 
L 149.58656 -458.03048 
L 147.02198 -458.03048 
L 147.02198 -467.23456 
L 144.4574 -467.23456 
L 144.4574 -470.239678 
L 141.89282 -470.239678 
L 141.89282 -473.209216 
L 139.32824 -473.209216 
L 139.32824 -479.028588 
L 136.76366 -479.028588 
L 136.76366 -484.660103 
L 134.19908 -484.660103 
L 134.19908 -490.055419 
L 129.06992 -490.055419 
L 129.06992 -497.520385 
L 121.37618 -497.520385 
L 121.37618 -499.763923 
L 118.8116 -499.763923 
L 118.8116 -503.620455 
L 116.24702 -503.620455 
L 116.24702 -504.99745 
L 111.11786 -504.99745 
L 111.11786 -505.535238 
L 67.52 -505.535238 
z
" style="stroke: #0000ff; stroke-opacity: 0.25"/>
    </defs>
    <g clip-path="url(#p061374a1f0)">
     <use xlink:href="#m983b54950e" x="0" y="576" style="fill: #0000ff; fill-opacity: 0.25; stroke: #0000ff; stroke-opacity: 0.25"/>
    </g>
   </g>
   <g id="FillBetweenPolyCollection_2">
    <defs>
     <path id="m830e46ea0b" d="M 67.52 -505.535238 
L 67.52 -505.535238 
L 93.1658 -505.535238 
L 93.1658 -496.825116 
L 103.42412 -496.825116 
L 103.42412 -495.72227 
L 105.9887 -495.72227 
L 105.9887 -494.125892 
L 108.55328 -494.125892 
L 108.55328 -492.46912 
L 121.37618 -492.46912 
L 121.37618 -490.815069 
L 123.94076 -490.815069 
L 123.94076 -489.177555 
L 126.50534 -489.177555 
L 126.50534 -484.376987 
L 129.06992 -484.376987 
L 129.06992 -473.669806 
L 131.6345 -473.669806 
L 131.6345 -469.225706 
L 134.19908 -469.225706 
L 134.19908 -467.758771 
L 136.76366 -467.758771 
L 136.76366 -460.513928 
L 139.32824 -460.513928 
L 139.32824 -446.367891 
L 141.89282 -446.367891 
L 141.89282 -440.806699 
L 144.4574 -440.806699 
L 144.4574 -435.290092 
L 147.02198 -435.290092 
L 147.02198 -429.812948 
L 149.58656 -429.812948 
L 149.58656 -421.662457 
L 152.15114 -421.662457 
L 152.15114 -412.239995 
L 154.71572 -412.239995 
L 154.71572 -404.228445 
L 157.2803 -404.228445 
L 157.2803 -392.309391 
L 159.84488 -392.309391 
L 159.84488 -380.494487 
L 162.40946 -380.494487 
L 162.40946 -370.070182 
L 164.97404 -370.070182 
L 164.97404 -359.712457 
L 167.53862 -359.712457 
L 167.53862 -350.700069 
L 170.1032 -350.700069 
L 170.1032 -340.454363 
L 172.66778 -340.454363 
L 172.66778 -318.860081 
L 175.23236 -318.860081 
L 175.23236 -296.239015 
L 177.79694 -296.239015 
L 177.79694 -283.773498 
L 180.36152 -283.773498 
L 180.36152 -272.614605 
L 182.9261 -272.614605 
L 182.9261 -261.51175 
L 185.49068 -261.51175 
L 185.49068 -250.464516 
L 188.055259 -250.464516 
L 188.055259 -245.572469 
L 190.619839 -245.572469 
L 190.619839 -240.691424 
L 193.184419 -240.691424 
L 193.184419 -220.070924 
L 195.748999 -220.070924 
L 195.748999 -208.036877 
L 198.313579 -208.036877 
L 198.313579 -199.656584 
L 200.878159 -199.656584 
L 200.878159 -193.693231 
L 203.442739 -193.693231 
L 203.442739 -183.008144 
L 206.007319 -183.008144 
L 206.007319 -179.460856 
L 208.571899 -179.460856 
L 208.571899 -171.212941 
L 211.136479 -171.212941 
L 211.136479 -165.347359 
L 213.701059 -165.347359 
L 213.701059 -158.33831 
L 216.265639 -158.33831 
L 216.265639 -157.173384 
L 218.830219 -157.173384 
L 218.830219 -150.204061 
L 221.394799 -150.204061 
L 221.394799 -144.423827 
L 223.959379 -144.423827 
L 223.959379 -143.270906 
L 226.523959 -143.270906 
L 226.523959 -138.670027 
L 229.088539 -138.670027 
L 229.088539 -135.231063 
L 231.653119 -135.231063 
L 231.653119 -131.802531 
L 234.217699 -131.802531 
L 234.217699 -127.248094 
L 236.782279 -127.248094 
L 236.782279 -124.978434 
L 239.346859 -124.978434 
L 239.346859 -120.454974 
L 241.911439 -120.454974 
L 241.911439 -118.2015 
L 244.476019 -118.2015 
L 244.476019 -113.711976 
L 247.040599 -113.711976 
L 247.040599 -109.247058 
L 249.605179 -109.247058 
L 249.605179 -102.600038 
L 252.169759 -102.600038 
L 252.169759 -100.398924 
L 257.298919 -100.398924 
L 257.298919 -98.205638 
L 259.863499 -98.205638 
L 259.863499 -96.020553 
L 262.428079 -96.020553 
L 262.428079 -94.931213 
L 267.557239 -94.931213 
L 267.557239 -91.676678 
L 270.121819 -91.676678 
L 270.121819 -89.518846 
L 272.686399 -89.518846 
L 272.686399 -86.301286 
L 275.250979 -86.301286 
L 275.250979 -85.2342 
L 277.815559 -85.2342 
L 277.815559 -83.108714 
L 288.073879 -83.108714 
L 288.073879 -80.99548 
L 290.638459 -80.99548 
L 290.638459 -78.895401 
L 295.767619 -78.895401 
L 295.767619 -77.850611 
L 298.332199 -77.850611 
L 298.332199 -76.809509 
L 300.896779 -76.809509 
L 300.896779 -75.772248 
L 303.461359 -75.772248 
L 303.461359 -74.738996 
L 306.025939 -74.738996 
L 306.025939 -73.709931 
L 313.719679 -73.709931 
L 313.719679 -71.665162 
L 316.284259 -71.665162 
L 316.284259 -70.649901 
L 323.977999 -70.649901 
L 323.977999 -66.642552 
L 329.107159 -66.642552 
L 329.107159 -65.655756 
L 334.236319 -65.655756 
L 334.236319 -64.675751 
L 344.494639 -64.675751 
L 344.494639 -63.703006 
L 352.188379 -63.703006 
L 352.188379 -61.781481 
L 354.752959 -61.781481 
L 354.752959 -60.833986 
L 367.575859 -60.833986 
L 367.575859 -58.969498 
L 370.140439 -58.969498 
L 370.140439 -58.054493 
L 375.269599 -58.054493 
L 375.269599 -57.152609 
L 377.834179 -57.152609 
L 377.834179 -56.265371 
L 408.609139 -56.265371 
L 408.609139 -54.542709 
L 416.302879 -54.542709 
L 416.302879 -53.712492 
L 431.690358 -53.712492 
L 431.690358 -52.907754 
L 434.254938 -52.907754 
L 434.254938 -52.133525 
L 439.384098 -52.133525 
L 439.384098 -51.396791 
L 462.465318 -51.396791 
L 462.465318 -50.707756 
L 482.981958 -50.707756 
L 482.981958 -50.082393 
L 488.111118 -50.082393 
L 488.111118 -49.548357 
L 495.804858 -49.548357 
L 495.804858 -49.161537 
L 500.934018 -49.161537 
L 500.934018 -49.04 
L 500.934018 -49.04 
L 500.934018 -49.04 
L 500.934018 -55.58703 
L 495.804858 -55.58703 
L 495.804858 -57.372443 
L 488.111118 -57.372443 
L 488.111118 -59.176385 
L 482.981958 -59.176385 
L 482.981958 -60.93243 
L 462.465318 -60.93243 
L 462.465318 -62.643674 
L 439.384098 -62.643674 
L 439.384098 -64.31763 
L 434.254938 -64.31763 
L 434.254938 -65.960695 
L 431.690358 -65.960695 
L 431.690358 -67.577838 
L 416.302879 -67.577838 
L 416.302879 -69.172898 
L 408.609139 -69.172898 
L 408.609139 -72.308164 
L 377.834179 -72.308164 
L 377.834179 -73.852684 
L 375.269599 -73.852684 
L 375.269599 -75.384022 
L 370.140439 -75.384022 
L 370.140439 -76.903492 
L 367.575859 -76.903492 
L 367.575859 -79.911088 
L 354.752959 -79.911088 
L 354.752959 -81.400964 
L 352.188379 -81.400964 
L 352.188379 -84.35639 
L 344.494639 -84.35639 
L 344.494639 -85.823087 
L 334.236319 -85.823087 
L 334.236319 -87.283095 
L 329.107159 -87.283095 
L 329.107159 -88.736835 
L 323.977999 -88.736835 
L 323.977999 -94.496126 
L 316.284259 -94.496126 
L 316.284259 -95.923498 
L 313.719679 -95.923498 
L 313.719679 -98.764999 
L 306.025939 -98.764999 
L 306.025939 -100.179531 
L 303.461359 -100.179531 
L 303.461359 -101.590162 
L 300.896779 -101.590162 
L 300.896779 -102.997055 
L 298.332199 -102.997055 
L 298.332199 -104.400363 
L 295.767619 -104.400363 
L 295.767619 -105.800227 
L 290.638459 -105.800227 
L 290.638459 -108.590142 
L 288.073879 -108.590142 
L 288.073879 -111.36775 
L 277.815559 -111.36775 
L 277.815559 -114.133881 
L 275.250979 -114.133881 
L 275.250979 -115.512874 
L 272.686399 -115.512874 
L 272.686399 -119.634553 
L 270.121819 -119.634553 
L 270.121819 -122.370322 
L 267.557239 -122.370322 
L 267.557239 -126.457242 
L 262.428079 -126.457242 
L 262.428079 -127.815317 
L 259.863499 -127.815317 
L 259.863499 -130.525431 
L 257.298919 -130.525431 
L 257.298919 -133.227811 
L 252.169759 -133.227811 
L 252.169759 -135.922804 
L 249.605179 -135.922804 
L 249.605179 -143.966507 
L 247.040599 -143.966507 
L 247.040599 -149.297206 
L 244.476019 -149.297206 
L 244.476019 -154.604581 
L 241.911439 -154.604581 
L 241.911439 -157.250002 
L 239.346859 -157.250002 
L 239.346859 -162.525155 
L 236.782279 -162.525155 
L 236.782279 -165.155192 
L 234.217699 -165.155192 
L 234.217699 -170.400876 
L 231.653119 -170.400876 
L 231.653119 -174.323038 
L 229.088539 -174.323038 
L 229.088539 -178.23525 
L 226.523959 -178.23525 
L 226.523959 -183.436648 
L 223.959379 -183.436648 
L 223.959379 -184.734418 
L 221.394799 -184.734418 
L 221.394799 -191.20832 
L 218.830219 -191.20832 
L 218.830219 -198.945375 
L 216.265639 -198.945375 
L 216.265639 -200.231651 
L 213.701059 -200.231651 
L 213.701059 -207.930616 
L 211.136479 -207.930616 
L 211.136479 -214.32269 
L 208.571899 -214.32269 
L 208.571899 -223.236873 
L 206.007319 -223.236873 
L 206.007319 -227.04523 
L 203.442739 -227.04523 
L 203.442739 -238.428609 
L 200.878159 -238.428609 
L 200.878159 -244.726443 
L 198.313579 -244.726443 
L 198.313579 -253.512838 
L 195.748999 -253.512838 
L 195.748999 -266.004553 
L 193.184419 -266.004553 
L 193.184419 -287.082465 
L 190.619839 -287.082465 
L 190.619839 -292.013575 
L 188.055259 -292.013575 
L 188.055259 -296.933952 
L 185.49068 -296.933952 
L 185.49068 -307.965604 
L 182.9261 -307.965604 
L 182.9261 -318.942846 
L 180.36152 -318.942846 
L 180.36152 -329.865168 
L 177.79694 -329.865168 
L 177.79694 -341.935544 
L 175.23236 -341.935544 
L 175.23236 -363.481957 
L 172.66778 -363.481957 
L 172.66778 -383.604342 
L 170.1032 -383.604342 
L 170.1032 -392.990845 
L 167.53862 -392.990845 
L 167.53862 -401.157016 
L 164.97404 -401.157016 
L 164.97404 -410.432298 
L 162.40946 -410.432298 
L 162.40946 -419.641314 
L 159.84488 -419.641314 
L 159.84488 -429.91414 
L 157.2803 -429.91414 
L 157.2803 -440.082881 
L 154.71572 -440.082881 
L 154.71572 -446.796417 
L 152.15114 -446.796417 
L 152.15114 -454.552904 
L 149.58656 -454.552904 
L 149.58656 -461.126719 
L 147.02198 -461.126719 
L 147.02198 -465.465354 
L 144.4574 -465.465354 
L 144.4574 -469.764019 
L 141.89282 -469.764019 
L 141.89282 -474.017379 
L 139.32824 -474.017379 
L 139.32824 -484.401937 
L 136.76366 -484.401937 
L 136.76366 -489.416086 
L 134.19908 -489.416086 
L 134.19908 -490.4 
L 131.6345 -490.4 
L 131.6345 -493.305453 
L 129.06992 -493.305453 
L 129.06992 -499.707831 
L 126.50534 -499.707831 
L 126.50534 -502.185488 
L 123.94076 -502.185488 
L 123.94076 -502.950392 
L 121.37618 -502.950392 
L 121.37618 -503.671677 
L 108.55328 -503.671677 
L 108.55328 -504.334943 
L 105.9887 -504.334943 
L 105.9887 -504.915179 
L 103.42412 -504.915179 
L 103.42412 -505.360771 
L 93.1658 -505.360771 
L 93.1658 -505.535238 
L 67.52 -505.535238 
z
" style="stroke: #ffa500; stroke-opacity: 0.25"/>
    </defs>
    <g clip-path="url(#p061374a1f0)">
     <use xlink:href="#m830e46ea0b" x="0" y="576" style="fill: #ffa500; fill-opacity: 0.25; stroke: #ffa500; stroke-opacity: 0.25"/>
    </g>
   </g>
   <g id="matplotlib.axis_1">
    <g id="xtick_1">
     <g id="line2d_1">
      <path d="M 67.52 526.96 
L 67.52 47.64 
" clip-path="url(#p061374a1f0)" style="fill: none; stroke-dasharray: 2.96,1.28; stroke-dashoffset: 0; stroke: #b0b0b0; stroke-opacity: 0.6; stroke-width: 0.8"/>
     </g>
     <g id="line2d_2">
      <defs>
       <path id="m67d427e95f" d="M 0 0 
L 0 3.5 
" style="stroke: #000000; stroke-width: 0.8"/>
      </defs>
      <g>
       <use xlink:href="#m67d427e95f" x="67.52" y="526.96" style="stroke: #000000; stroke-width: 0.8"/>
      </g>
     </g>
     <g id="text_1">
      <!-- 0 -->
      <g transform="translate(64.33875 541.558437) scale(0.1 -0.1)">
       <defs>
        <path id="DejaVuSans-30" d="M 2034 4250 
Q 1547 4250 1301 3770 
Q 1056 3291 1056 2328 
Q 1056 1369 1301 889 
Q 1547 409 2034 409 
Q 2525 409 2770 889 
Q 3016 1369 3016 2328 
Q 3016 3291 2770 3770 
Q 2525 4250 2034 4250 
z
M 2034 4750 
Q 2819 4750 3233 4129 
Q 3647 3509 3647 2328 
Q 3647 1150 3233 529 
Q 2819 -91 2034 -91 
Q 1250 -91 836 529 
Q 422 1150 422 2328 
Q 422 3509 836 4129 
Q 1250 4750 2034 4750 
z
" transform="scale(0.015625)"/>
       </defs>
       <use xlink:href="#DejaVuSans-30"/>
      </g>
     </g>
    </g>
    <g id="xtick_2">
     <g id="line2d_3">
      <path d="M 131.6345 526.96 
L 131.6345 47.64 
" clip-path="url(#p061374a1f0)" style="fill: none; stroke-dasharray: 2.96,1.28; stroke-dashoffset: 0; stroke: #b0b0b0; stroke-opacity: 0.6; stroke-width: 0.8"/>
     </g>
     <g id="line2d_4">
      <g>
       <use xlink:href="#m67d427e95f" x="131.6345" y="526.96" style="stroke: #000000; stroke-width: 0.8"/>
      </g>
     </g>
     <g id="text_2">
      <!-- 25 -->
      <g transform="translate(125.272 541.558437) scale(0.1 -0.1)">
       <defs>
        <path id="DejaVuSans-32" d="M 1228 531 
L 3431 531 
L 3431 0 
L 469 0 
L 469 531 
Q 828 903 1448 1529 
Q 2069 2156 2228 2338 
Q 2531 2678 2651 2914 
Q 2772 3150 2772 3378 
Q 2772 3750 2511 3984 
Q 2250 4219 1831 4219 
Q 1534 4219 1204 4116 
Q 875 4013 500 3803 
L 500 4441 
Q 881 4594 1212 4672 
Q 1544 4750 1819 4750 
Q 2544 4750 2975 4387 
Q 3406 4025 3406 3419 
Q 3406 3131 3298 2873 
Q 3191 2616 2906 2266 
Q 2828 2175 2409 1742 
Q 1991 1309 1228 531 
z
" transform="scale(0.015625)"/>
        <path id="DejaVuSans-35" d="M 691 4666 
L 3169 4666 
L 3169 4134 
L 1269 4134 
L 1269 2991 
Q 1406 3038 1543 3061 
Q 1681 3084 1819 3084 
Q 2600 3084 3056 2656 
Q 3513 2228 3513 1497 
Q 3513 744 3044 326 
Q 2575 -91 1722 -91 
Q 1428 -91 1123 -41 
Q 819 9 494 109 
L 494 744 
Q 775 591 1075 516 
Q 1375 441 1709 441 
Q 2250 441 2565 725 
Q 2881 1009 2881 1497 
Q 2881 1984 2565 2268 
Q 2250 2553 1709 2553 
Q 1456 2553 1204 2497 
Q 953 2441 691 2322 
L 691 4666 
z
" transform="scale(0.015625)"/>
       </defs>
       <use xlink:href="#DejaVuSans-32"/>
       <use xlink:href="#DejaVuSans-35" transform="translate(63.623047 0)"/>
      </g>
     </g>
    </g>
    <g id="xtick_3">
     <g id="line2d_5">
      <path d="M 195.748999 526.96 
L 195.748999 47.64 
" clip-path="url(#p061374a1f0)" style="fill: none; stroke-dasharray: 2.96,1.28; stroke-dashoffset: 0; stroke: #b0b0b0; stroke-opacity: 0.6; stroke-width: 0.8"/>
     </g>
     <g id="line2d_6">
      <g>
       <use xlink:href="#m67d427e95f" x="195.748999" y="526.96" style="stroke: #000000; stroke-width: 0.8"/>
      </g>
     </g>
     <g id="text_3">
      <!-- 50 -->
      <g transform="translate(189.386499 541.558437) scale(0.1 -0.1)">
       <use xlink:href="#DejaVuSans-35"/>
       <use xlink:href="#DejaVuSans-30" transform="translate(63.623047 0)"/>
      </g>
     </g>
    </g>
    <g id="xtick_4">
     <g id="line2d_7">
      <path d="M 259.863499 526.96 
L 259.863499 47.64 
" clip-path="url(#p061374a1f0)" style="fill: none; stroke-dasharray: 2.96,1.28; stroke-dashoffset: 0; stroke: #b0b0b0; stroke-opacity: 0.6; stroke-width: 0.8"/>
     </g>
     <g id="line2d_8">
      <g>
       <use xlink:href="#m67d427e95f" x="259.863499" y="526.96" style="stroke: #000000; stroke-width: 0.8"/>
      </g>
     </g>
     <g id="text_4">
      <!-- 75 -->
      <g transform="translate(253.500999 541.558437) scale(0.1 -0.1)">
       <defs>
        <path id="DejaVuSans-37" d="M 525 4666 
L 3525 4666 
L 3525 4397 
L 1831 0 
L 1172 0 
L 2766 4134 
L 525 4134 
L 525 4666 
z
" transform="scale(0.015625)"/>
       </defs>
       <use xlink:href="#DejaVuSans-37"/>
       <use xlink:href="#DejaVuSans-35" transform="translate(63.623047 0)"/>
      </g>
     </g>
    </g>
    <g id="xtick_5">
     <g id="line2d_9">
      <path d="M 323.977999 526.96 
L 323.977999 47.64 
" clip-path="url(#p061374a1f0)" style="fill: none; stroke-dasharray: 2.96,1.28; stroke-dashoffset: 0; stroke: #b0b0b0; stroke-opacity: 0.6; stroke-width: 0.8"/>
     </g>
     <g id="line2d_10">
      <g>
       <use xlink:href="#m67d427e95f" x="323.977999" y="526.96" style="stroke: #000000; stroke-width: 0.8"/>
      </g>
     </g>
     <g id="text_5">
      <!-- 100 -->
      <g transform="translate(314.434249 541.558437) scale(0.1 -0.1)">
       <defs>
        <path id="DejaVuSans-31" d="M 794 531 
L 1825 531 
L 1825 4091 
L 703 3866 
L 703 4441 
L 1819 4666 
L 2450 4666 
L 2450 531 
L 3481 531 
L 3481 0 
L 794 0 
L 794 531 
z
" transform="scale(0.015625)"/>
       </defs>
       <use xlink:href="#DejaVuSans-31"/>
       <use xlink:href="#DejaVuSans-30" transform="translate(63.623047 0)"/>
       <use xlink:href="#DejaVuSans-30" transform="translate(127.246094 0)"/>
      </g>
     </g>
    </g>
    <g id="xtick_6">
     <g id="line2d_11">
      <path d="M 388.092499 526.96 
L 388.092499 47.64 
" clip-path="url(#p061374a1f0)" style="fill: none; stroke-dasharray: 2.96,1.28; stroke-dashoffset: 0; stroke: #b0b0b0; stroke-opacity: 0.6; stroke-width: 0.8"/>
     </g>
     <g id="line2d_12">
      <g>
       <use xlink:href="#m67d427e95f" x="388.092499" y="526.96" style="stroke: #000000; stroke-width: 0.8"/>
      </g>
     </g>
     <g id="text_6">
      <!-- 125 -->
      <g transform="translate(378.548749 541.558437) scale(0.1 -0.1)">
       <use xlink:href="#DejaVuSans-31"/>
       <use xlink:href="#DejaVuSans-32" transform="translate(63.623047 0)"/>
       <use xlink:href="#DejaVuSans-35" transform="translate(127.246094 0)"/>
      </g>
     </g>
    </g>
    <g id="xtick_7">
     <g id="line2d_13">
      <path d="M 452.206998 526.96 
L 452.206998 47.64 
" clip-path="url(#p061374a1f0)" style="fill: none; stroke-dasharray: 2.96,1.28; stroke-dashoffset: 0; stroke: #b0b0b0; stroke-opacity: 0.6; stroke-width: 0.8"/>
     </g>
     <g id="line2d_14">
      <g>
       <use xlink:href="#m67d427e95f" x="452.206998" y="526.96" style="stroke: #000000; stroke-width: 0.8"/>
      </g>
     </g>
     <g id="text_7">
      <!-- 150 -->
      <g transform="translate(442.663248 541.558437) scale(0.1 -0.1)">
       <use xlink:href="#DejaVuSans-31"/>
       <use xlink:href="#DejaVuSans-35" transform="translate(63.623047 0)"/>
       <use xlink:href="#DejaVuSans-30" transform="translate(127.246094 0)"/>
      </g>
     </g>
    </g>
    <g id="xtick_8">
     <g id="line2d_15">
      <path d="M 516.321498 526.96 
L 516.321498 47.64 
" clip-path="url(#p061374a1f0)" style="fill: none; stroke-dasharray: 2.96,1.28; stroke-dashoffset: 0; stroke: #b0b0b0; stroke-opacity: 0.6; stroke-width: 0.8"/>
     </g>
     <g id="line2d_16">
      <g>
       <use xlink:href="#m67d427e95f" x="516.321498" y="526.96" style="stroke: #000000; stroke-width: 0.8"/>
      </g>
     </g>
     <g id="text_8">
      <!-- 175 -->
      <g transform="translate(506.777748 541.558437) scale(0.1 -0.1)">
       <use xlink:href="#DejaVuSans-31"/>
       <use xlink:href="#DejaVuSans-37" transform="translate(63.623047 0)"/>
       <use xlink:href="#DejaVuSans-35" transform="translate(127.246094 0)"/>
      </g>
     </g>
    </g>
    <g id="text_9">
     <!-- Days -->
     <g transform="translate(292.20625 556.75625) scale(0.12 -0.12)">
      <defs>
       <path id="DejaVuSans-44" d="M 1259 4147 
L 1259 519 
L 2022 519 
Q 2988 519 3436 956 
Q 3884 1394 3884 2338 
Q 3884 3275 3436 3711 
Q 2988 4147 2022 4147 
L 1259 4147 
z
M 628 4666 
L 1925 4666 
Q 3281 4666 3915 4102 
Q 4550 3538 4550 2338 
Q 4550 1131 3912 565 
Q 3275 0 1925 0 
L 628 0 
L 628 4666 
z
" transform="scale(0.015625)"/>
       <path id="DejaVuSans-61" d="M 2194 1759 
Q 1497 1759 1228 1600 
Q 959 1441 959 1056 
Q 959 750 1161 570 
Q 1363 391 1709 391 
Q 2188 391 2477 730 
Q 2766 1069 2766 1631 
L 2766 1759 
L 2194 1759 
z
M 3341 1997 
L 3341 0 
L 2766 0 
L 2766 531 
Q 2569 213 2275 61 
Q 1981 -91 1556 -91 
Q 1019 -91 701 211 
Q 384 513 384 1019 
Q 384 1609 779 1909 
Q 1175 2209 1959 2209 
L 2766 2209 
L 2766 2266 
Q 2766 2663 2505 2880 
Q 2244 3097 1772 3097 
Q 1472 3097 1187 3025 
Q 903 2953 641 2809 
L 641 3341 
Q 956 3463 1253 3523 
Q 1550 3584 1831 3584 
Q 2591 3584 2966 3190 
Q 3341 2797 3341 1997 
z
" transform="scale(0.015625)"/>
       <path id="DejaVuSans-79" d="M 2059 -325 
Q 1816 -950 1584 -1140 
Q 1353 -1331 966 -1331 
L 506 -1331 
L 506 -850 
L 844 -850 
Q 1081 -850 1212 -737 
Q 1344 -625 1503 -206 
L 1606 56 
L 191 3500 
L 800 3500 
L 1894 763 
L 2988 3500 
L 3597 3500 
L 2059 -325 
z
" transform="scale(0.015625)"/>
       <path id="DejaVuSans-73" d="M 2834 3397 
L 2834 2853 
Q 2591 2978 2328 3040 
Q 2066 3103 1784 3103 
Q 1356 3103 1142 2972 
Q 928 2841 928 2578 
Q 928 2378 1081 2264 
Q 1234 2150 1697 2047 
L 1894 2003 
Q 2506 1872 2764 1633 
Q 3022 1394 3022 966 
Q 3022 478 2636 193 
Q 2250 -91 1575 -91 
Q 1294 -91 989 -36 
Q 684 19 347 128 
L 347 722 
Q 666 556 975 473 
Q 1284 391 1588 391 
Q 1994 391 2212 530 
Q 2431 669 2431 922 
Q 2431 1156 2273 1281 
Q 2116 1406 1581 1522 
L 1381 1569 
Q 847 1681 609 1914 
Q 372 2147 372 2553 
Q 372 3047 722 3315 
Q 1072 3584 1716 3584 
Q 2034 3584 2315 3537 
Q 2597 3491 2834 3397 
z
" transform="scale(0.015625)"/>
      </defs>
      <use xlink:href="#DejaVuSans-44"/>
      <use xlink:href="#DejaVuSans-61" transform="translate(77.001953 0)"/>
      <use xlink:href="#DejaVuSans-79" transform="translate(138.28125 0)"/>
      <use xlink:href="#DejaVuSans-73" transform="translate(197.460938 0)"/>
     </g>
    </g>
   </g>
   <g id="matplotlib.axis_2">
    <g id="ytick_1">
     <g id="line2d_17">
      <path d="M 67.52 526.96 
L 546.84 526.96 
" clip-path="url(#p061374a1f0)" style="fill: none; stroke-dasharray: 2.96,1.28; stroke-dashoffset: 0; stroke: #b0b0b0; stroke-opacity: 0.6; stroke-width: 0.8"/>
     </g>
     <g id="line2d_18">
      <defs>
       <path id="m032245b539" d="M 0 0 
L -3.5 0 
" style="stroke: #000000; stroke-width: 0.8"/>
      </defs>
      <g>
       <use xlink:href="#m032245b539" x="67.52" y="526.96" style="stroke: #000000; stroke-width: 0.8"/>
      </g>
     </g>
     <g id="text_10">
      <!-- 0.0 -->
      <g transform="translate(44.616875 530.759219) scale(0.1 -0.1)">
       <defs>
        <path id="DejaVuSans-2e" d="M 684 794 
L 1344 794 
L 1344 0 
L 684 0 
L 684 794 
z
" transform="scale(0.015625)"/>
       </defs>
       <use xlink:href="#DejaVuSans-30"/>
       <use xlink:href="#DejaVuSans-2e" transform="translate(63.623047 0)"/>
       <use xlink:href="#DejaVuSans-30" transform="translate(95.410156 0)"/>
      </g>
     </g>
    </g>
    <g id="ytick_2">
     <g id="line2d_19">
      <path d="M 67.52 435.660952 
L 546.84 435.660952 
" clip-path="url(#p061374a1f0)" style="fill: none; stroke-dasharray: 2.96,1.28; stroke-dashoffset: 0; stroke: #b0b0b0; stroke-opacity: 0.6; stroke-width: 0.8"/>
     </g>
     <g id="line2d_20">
      <g>
       <use xlink:href="#m032245b539" x="67.52" y="435.660952" style="stroke: #000000; stroke-width: 0.8"/>
      </g>
     </g>
     <g id="text_11">
      <!-- 0.2 -->
      <g transform="translate(44.616875 439.460171) scale(0.1 -0.1)">
       <use xlink:href="#DejaVuSans-30"/>
       <use xlink:href="#DejaVuSans-2e" transform="translate(63.623047 0)"/>
       <use xlink:href="#DejaVuSans-32" transform="translate(95.410156 0)"/>
      </g>
     </g>
    </g>
    <g id="ytick_3">
     <g id="line2d_21">
      <path d="M 67.52 344.361905 
L 546.84 344.361905 
" clip-path="url(#p061374a1f0)" style="fill: none; stroke-dasharray: 2.96,1.28; stroke-dashoffset: 0; stroke: #b0b0b0; stroke-opacity: 0.6; stroke-width: 0.8"/>
     </g>
     <g id="line2d_22">
      <g>
       <use xlink:href="#m032245b539" x="67.52" y="344.361905" style="stroke: #000000; stroke-width: 0.8"/>
      </g>
     </g>
     <g id="text_12">
      <!-- 0.4 -->
      <g transform="translate(44.616875 348.161124) scale(0.1 -0.1)">
       <defs>
        <path id="DejaVuSans-34" d="M 2419 4116 
L 825 1625 
L 2419 1625 
L 2419 4116 
z
M 2253 4666 
L 3047 4666 
L 3047 1625 
L 3713 1625 
L 3713 1100 
L 3047 1100 
L 3047 0 
L 2419 0 
L 2419 1100 
L 313 1100 
L 313 1709 
L 2253 4666 
z
" transform="scale(0.015625)"/>
       </defs>
       <use xlink:href="#DejaVuSans-30"/>
       <use xlink:href="#DejaVuSans-2e" transform="translate(63.623047 0)"/>
       <use xlink:href="#DejaVuSans-34" transform="translate(95.410156 0)"/>
      </g>
     </g>
    </g>
    <g id="ytick_4">
     <g id="line2d_23">
      <path d="M 67.52 253.062857 
L 546.84 253.062857 
" clip-path="url(#p061374a1f0)" style="fill: none; stroke-dasharray: 2.96,1.28; stroke-dashoffset: 0; stroke: #b0b0b0; stroke-opacity: 0.6; stroke-width: 0.8"/>
     </g>
     <g id="line2d_24">
      <g>
       <use xlink:href="#m032245b539" x="67.52" y="253.062857" style="stroke: #000000; stroke-width: 0.8"/>
      </g>
     </g>
     <g id="text_13">
      <!-- 0.6 -->
      <g transform="translate(44.616875 256.862076) scale(0.1 -0.1)">
       <defs>
        <path id="DejaVuSans-36" d="M 2113 2584 
Q 1688 2584 1439 2293 
Q 1191 2003 1191 1497 
Q 1191 994 1439 701 
Q 1688 409 2113 409 
Q 2538 409 2786 701 
Q 3034 994 3034 1497 
Q 3034 2003 2786 2293 
Q 2538 2584 2113 2584 
z
M 3366 4563 
L 3366 3988 
Q 3128 4100 2886 4159 
Q 2644 4219 2406 4219 
Q 1781 4219 1451 3797 
Q 1122 3375 1075 2522 
Q 1259 2794 1537 2939 
Q 1816 3084 2150 3084 
Q 2853 3084 3261 2657 
Q 3669 2231 3669 1497 
Q 3669 778 3244 343 
Q 2819 -91 2113 -91 
Q 1303 -91 875 529 
Q 447 1150 447 2328 
Q 447 3434 972 4092 
Q 1497 4750 2381 4750 
Q 2619 4750 2861 4703 
Q 3103 4656 3366 4563 
z
" transform="scale(0.015625)"/>
       </defs>
       <use xlink:href="#DejaVuSans-30"/>
       <use xlink:href="#DejaVuSans-2e" transform="translate(63.623047 0)"/>
       <use xlink:href="#DejaVuSans-36" transform="translate(95.410156 0)"/>
      </g>
     </g>
    </g>
    <g id="ytick_5">
     <g id="line2d_25">
      <path d="M 67.52 161.76381 
L 546.84 161.76381 
" clip-path="url(#p061374a1f0)" style="fill: none; stroke-dasharray: 2.96,1.28; stroke-dashoffset: 0; stroke: #b0b0b0; stroke-opacity: 0.6; stroke-width: 0.8"/>
     </g>
     <g id="line2d_26">
      <g>
       <use xlink:href="#m032245b539" x="67.52" y="161.76381" style="stroke: #000000; stroke-width: 0.8"/>
      </g>
     </g>
     <g id="text_14">
      <!-- 0.8 -->
      <g transform="translate(44.616875 165.563028) scale(0.1 -0.1)">
       <defs>
        <path id="DejaVuSans-38" d="M 2034 2216 
Q 1584 2216 1326 1975 
Q 1069 1734 1069 1313 
Q 1069 891 1326 650 
Q 1584 409 2034 409 
Q 2484 409 2743 651 
Q 3003 894 3003 1313 
Q 3003 1734 2745 1975 
Q 2488 2216 2034 2216 
z
M 1403 2484 
Q 997 2584 770 2862 
Q 544 3141 544 3541 
Q 544 4100 942 4425 
Q 1341 4750 2034 4750 
Q 2731 4750 3128 4425 
Q 3525 4100 3525 3541 
Q 3525 3141 3298 2862 
Q 3072 2584 2669 2484 
Q 3125 2378 3379 2068 
Q 3634 1759 3634 1313 
Q 3634 634 3220 271 
Q 2806 -91 2034 -91 
Q 1263 -91 848 271 
Q 434 634 434 1313 
Q 434 1759 690 2068 
Q 947 2378 1403 2484 
z
M 1172 3481 
Q 1172 3119 1398 2916 
Q 1625 2713 2034 2713 
Q 2441 2713 2670 2916 
Q 2900 3119 2900 3481 
Q 2900 3844 2670 4047 
Q 2441 4250 2034 4250 
Q 1625 4250 1398 4047 
Q 1172 3844 1172 3481 
z
" transform="scale(0.015625)"/>
       </defs>
       <use xlink:href="#DejaVuSans-30"/>
       <use xlink:href="#DejaVuSans-2e" transform="translate(63.623047 0)"/>
       <use xlink:href="#DejaVuSans-38" transform="translate(95.410156 0)"/>
      </g>
     </g>
    </g>
    <g id="ytick_6">
     <g id="line2d_27">
      <path d="M 67.52 70.464762 
L 546.84 70.464762 
" clip-path="url(#p061374a1f0)" style="fill: none; stroke-dasharray: 2.96,1.28; stroke-dashoffset: 0; stroke: #b0b0b0; stroke-opacity: 0.6; stroke-width: 0.8"/>
     </g>
     <g id="line2d_28">
      <g>
       <use xlink:href="#m032245b539" x="67.52" y="70.464762" style="stroke: #000000; stroke-width: 0.8"/>
      </g>
     </g>
     <g id="text_15">
      <!-- 1.0 -->
      <g transform="translate(44.616875 74.263981) scale(0.1 -0.1)">
       <use xlink:href="#DejaVuSans-31"/>
       <use xlink:href="#DejaVuSans-2e" transform="translate(63.623047 0)"/>
       <use xlink:href="#DejaVuSans-30" transform="translate(95.410156 0)"/>
      </g>
     </g>
    </g>
    <g id="text_16">
     <!-- Probability of weight loss target achievement -->
     <g transform="translate(38.12125 423.46625) rotate(-90) scale(0.12 -0.12)">
      <defs>
       <path id="DejaVuSans-50" d="M 1259 4147 
L 1259 2394 
L 2053 2394 
Q 2494 2394 2734 2622 
Q 2975 2850 2975 3272 
Q 2975 3691 2734 3919 
Q 2494 4147 2053 4147 
L 1259 4147 
z
M 628 4666 
L 2053 4666 
Q 2838 4666 3239 4311 
Q 3641 3956 3641 3272 
Q 3641 2581 3239 2228 
Q 2838 1875 2053 1875 
L 1259 1875 
L 1259 0 
L 628 0 
L 628 4666 
z
" transform="scale(0.015625)"/>
       <path id="DejaVuSans-72" d="M 2631 2963 
Q 2534 3019 2420 3045 
Q 2306 3072 2169 3072 
Q 1681 3072 1420 2755 
Q 1159 2438 1159 1844 
L 1159 0 
L 581 0 
L 581 3500 
L 1159 3500 
L 1159 2956 
Q 1341 3275 1631 3429 
Q 1922 3584 2338 3584 
Q 2397 3584 2469 3576 
Q 2541 3569 2628 3553 
L 2631 2963 
z
" transform="scale(0.015625)"/>
       <path id="DejaVuSans-6f" d="M 1959 3097 
Q 1497 3097 1228 2736 
Q 959 2375 959 1747 
Q 959 1119 1226 758 
Q 1494 397 1959 397 
Q 2419 397 2687 759 
Q 2956 1122 2956 1747 
Q 2956 2369 2687 2733 
Q 2419 3097 1959 3097 
z
M 1959 3584 
Q 2709 3584 3137 3096 
Q 3566 2609 3566 1747 
Q 3566 888 3137 398 
Q 2709 -91 1959 -91 
Q 1206 -91 779 398 
Q 353 888 353 1747 
Q 353 2609 779 3096 
Q 1206 3584 1959 3584 
z
" transform="scale(0.015625)"/>
       <path id="DejaVuSans-62" d="M 3116 1747 
Q 3116 2381 2855 2742 
Q 2594 3103 2138 3103 
Q 1681 3103 1420 2742 
Q 1159 2381 1159 1747 
Q 1159 1113 1420 752 
Q 1681 391 2138 391 
Q 2594 391 2855 752 
Q 3116 1113 3116 1747 
z
M 1159 2969 
Q 1341 3281 1617 3432 
Q 1894 3584 2278 3584 
Q 2916 3584 3314 3078 
Q 3713 2572 3713 1747 
Q 3713 922 3314 415 
Q 2916 -91 2278 -91 
Q 1894 -91 1617 61 
Q 1341 213 1159 525 
L 1159 0 
L 581 0 
L 581 4863 
L 1159 4863 
L 1159 2969 
z
" transform="scale(0.015625)"/>
       <path id="DejaVuSans-69" d="M 603 3500 
L 1178 3500 
L 1178 0 
L 603 0 
L 603 3500 
z
M 603 4863 
L 1178 4863 
L 1178 4134 
L 603 4134 
L 603 4863 
z
" transform="scale(0.015625)"/>
       <path id="DejaVuSans-6c" d="M 603 4863 
L 1178 4863 
L 1178 0 
L 603 0 
L 603 4863 
z
" transform="scale(0.015625)"/>
       <path id="DejaVuSans-74" d="M 1172 4494 
L 1172 3500 
L 2356 3500 
L 2356 3053 
L 1172 3053 
L 1172 1153 
Q 1172 725 1289 603 
Q 1406 481 1766 481 
L 2356 481 
L 2356 0 
L 1766 0 
Q 1100 0 847 248 
Q 594 497 594 1153 
L 594 3053 
L 172 3053 
L 172 3500 
L 594 3500 
L 594 4494 
L 1172 4494 
z
" transform="scale(0.015625)"/>
       <path id="DejaVuSans-20" transform="scale(0.015625)"/>
       <path id="DejaVuSans-66" d="M 2375 4863 
L 2375 4384 
L 1825 4384 
Q 1516 4384 1395 4259 
Q 1275 4134 1275 3809 
L 1275 3500 
L 2222 3500 
L 2222 3053 
L 1275 3053 
L 1275 0 
L 697 0 
L 697 3053 
L 147 3053 
L 147 3500 
L 697 3500 
L 697 3744 
Q 697 4328 969 4595 
Q 1241 4863 1831 4863 
L 2375 4863 
z
" transform="scale(0.015625)"/>
       <path id="DejaVuSans-77" d="M 269 3500 
L 844 3500 
L 1563 769 
L 2278 3500 
L 2956 3500 
L 3675 769 
L 4391 3500 
L 4966 3500 
L 4050 0 
L 3372 0 
L 2619 2869 
L 1863 0 
L 1184 0 
L 269 3500 
z
" transform="scale(0.015625)"/>
       <path id="DejaVuSans-65" d="M 3597 1894 
L 3597 1613 
L 953 1613 
Q 991 1019 1311 708 
Q 1631 397 2203 397 
Q 2534 397 2845 478 
Q 3156 559 3463 722 
L 3463 178 
Q 3153 47 2828 -22 
Q 2503 -91 2169 -91 
Q 1331 -91 842 396 
Q 353 884 353 1716 
Q 353 2575 817 3079 
Q 1281 3584 2069 3584 
Q 2775 3584 3186 3129 
Q 3597 2675 3597 1894 
z
M 3022 2063 
Q 3016 2534 2758 2815 
Q 2500 3097 2075 3097 
Q 1594 3097 1305 2825 
Q 1016 2553 972 2059 
L 3022 2063 
z
" transform="scale(0.015625)"/>
       <path id="DejaVuSans-67" d="M 2906 1791 
Q 2906 2416 2648 2759 
Q 2391 3103 1925 3103 
Q 1463 3103 1205 2759 
Q 947 2416 947 1791 
Q 947 1169 1205 825 
Q 1463 481 1925 481 
Q 2391 481 2648 825 
Q 2906 1169 2906 1791 
z
M 3481 434 
Q 3481 -459 3084 -895 
Q 2688 -1331 1869 -1331 
Q 1566 -1331 1297 -1286 
Q 1028 -1241 775 -1147 
L 775 -588 
Q 1028 -725 1275 -790 
Q 1522 -856 1778 -856 
Q 2344 -856 2625 -561 
Q 2906 -266 2906 331 
L 2906 616 
Q 2728 306 2450 153 
Q 2172 0 1784 0 
Q 1141 0 747 490 
Q 353 981 353 1791 
Q 353 2603 747 3093 
Q 1141 3584 1784 3584 
Q 2172 3584 2450 3431 
Q 2728 3278 2906 2969 
L 2906 3500 
L 3481 3500 
L 3481 434 
z
" transform="scale(0.015625)"/>
       <path id="DejaVuSans-68" d="M 3513 2113 
L 3513 0 
L 2938 0 
L 2938 2094 
Q 2938 2591 2744 2837 
Q 2550 3084 2163 3084 
Q 1697 3084 1428 2787 
Q 1159 2491 1159 1978 
L 1159 0 
L 581 0 
L 581 4863 
L 1159 4863 
L 1159 2956 
Q 1366 3272 1645 3428 
Q 1925 3584 2291 3584 
Q 2894 3584 3203 3211 
Q 3513 2838 3513 2113 
z
" transform="scale(0.015625)"/>
       <path id="DejaVuSans-63" d="M 3122 3366 
L 3122 2828 
Q 2878 2963 2633 3030 
Q 2388 3097 2138 3097 
Q 1578 3097 1268 2742 
Q 959 2388 959 1747 
Q 959 1106 1268 751 
Q 1578 397 2138 397 
Q 2388 397 2633 464 
Q 2878 531 3122 666 
L 3122 134 
Q 2881 22 2623 -34 
Q 2366 -91 2075 -91 
Q 1284 -91 818 406 
Q 353 903 353 1747 
Q 353 2603 823 3093 
Q 1294 3584 2113 3584 
Q 2378 3584 2631 3529 
Q 2884 3475 3122 3366 
z
" transform="scale(0.015625)"/>
       <path id="DejaVuSans-76" d="M 191 3500 
L 800 3500 
L 1894 563 
L 2988 3500 
L 3597 3500 
L 2284 0 
L 1503 0 
L 191 3500 
z
" transform="scale(0.015625)"/>
       <path id="DejaVuSans-6d" d="M 3328 2828 
Q 3544 3216 3844 3400 
Q 4144 3584 4550 3584 
Q 5097 3584 5394 3201 
Q 5691 2819 5691 2113 
L 5691 0 
L 5113 0 
L 5113 2094 
Q 5113 2597 4934 2840 
Q 4756 3084 4391 3084 
Q 3944 3084 3684 2787 
Q 3425 2491 3425 1978 
L 3425 0 
L 2847 0 
L 2847 2094 
Q 2847 2600 2669 2842 
Q 2491 3084 2119 3084 
Q 1678 3084 1418 2786 
Q 1159 2488 1159 1978 
L 1159 0 
L 581 0 
L 581 3500 
L 1159 3500 
L 1159 2956 
Q 1356 3278 1631 3431 
Q 1906 3584 2284 3584 
Q 2666 3584 2933 3390 
Q 3200 3197 3328 2828 
z
" transform="scale(0.015625)"/>
       <path id="DejaVuSans-6e" d="M 3513 2113 
L 3513 0 
L 2938 0 
L 2938 2094 
Q 2938 2591 2744 2837 
Q 2550 3084 2163 3084 
Q 1697 3084 1428 2787 
Q 1159 2491 1159 1978 
L 1159 0 
L 581 0 
L 581 3500 
L 1159 3500 
L 1159 2956 
Q 1366 3272 1645 3428 
Q 1925 3584 2291 3584 
Q 2894 3584 3203 3211 
Q 3513 2838 3513 2113 
z
" transform="scale(0.015625)"/>
      </defs>
      <use xlink:href="#DejaVuSans-50"/>
      <use xlink:href="#DejaVuSans-72" transform="translate(58.552734 0)"/>
      <use xlink:href="#DejaVuSans-6f" transform="translate(97.416016 0)"/>
      <use xlink:href="#DejaVuSans-62" transform="translate(158.597656 0)"/>
      <use xlink:href="#DejaVuSans-61" transform="translate(222.074219 0)"/>
      <use xlink:href="#DejaVuSans-62" transform="translate(283.353516 0)"/>
      <use xlink:href="#DejaVuSans-69" transform="translate(346.830078 0)"/>
      <use xlink:href="#DejaVuSans-6c" transform="translate(374.613281 0)"/>
      <use xlink:href="#DejaVuSans-69" transform="translate(402.396484 0)"/>
      <use xlink:href="#DejaVuSans-74" transform="translate(430.179688 0)"/>
      <use xlink:href="#DejaVuSans-79" transform="translate(469.388672 0)"/>
      <use xlink:href="#DejaVuSans-20" transform="translate(528.568359 0)"/>
      <use xlink:href="#DejaVuSans-6f" transform="translate(560.355469 0)"/>
      <use xlink:href="#DejaVuSans-66" transform="translate(621.537109 0)"/>
      <use xlink:href="#DejaVuSans-20" transform="translate(656.742188 0)"/>
      <use xlink:href="#DejaVuSans-77" transform="translate(688.529297 0)"/>
      <use xlink:href="#DejaVuSans-65" transform="translate(770.316406 0)"/>
      <use xlink:href="#DejaVuSans-69" transform="translate(831.839844 0)"/>
      <use xlink:href="#DejaVuSans-67" transform="translate(859.623047 0)"/>
      <use xlink:href="#DejaVuSans-68" transform="translate(923.099609 0)"/>
      <use xlink:href="#DejaVuSans-74" transform="translate(986.478516 0)"/>
      <use xlink:href="#DejaVuSans-20" transform="translate(1025.6875 0)"/>
      <use xlink:href="#DejaVuSans-6c" transform="translate(1057.474609 0)"/>
      <use xlink:href="#DejaVuSans-6f" transform="translate(1085.257812 0)"/>
      <use xlink:href="#DejaVuSans-73" transform="translate(1146.439453 0)"/>
      <use xlink:href="#DejaVuSans-73" transform="translate(1198.539062 0)"/>
      <use xlink:href="#DejaVuSans-20" transform="translate(1250.638672 0)"/>
      <use xlink:href="#DejaVuSans-74" transform="translate(1282.425781 0)"/>
      <use xlink:href="#DejaVuSans-61" transform="translate(1321.634766 0)"/>
      <use xlink:href="#DejaVuSans-72" transform="translate(1382.914062 0)"/>
      <use xlink:href="#DejaVuSans-67" transform="translate(1422.277344 0)"/>
      <use xlink:href="#DejaVuSans-65" transform="translate(1485.753906 0)"/>
      <use xlink:href="#DejaVuSans-74" transform="translate(1547.277344 0)"/>
      <use xlink:href="#DejaVuSans-20" transform="translate(1586.486328 0)"/>
      <use xlink:href="#DejaVuSans-61" transform="translate(1618.273438 0)"/>
      <use xlink:href="#DejaVuSans-63" transform="translate(1679.552734 0)"/>
      <use xlink:href="#DejaVuSans-68" transform="translate(1734.533203 0)"/>
      <use xlink:href="#DejaVuSans-69" transform="translate(1797.912109 0)"/>
      <use xlink:href="#DejaVuSans-65" transform="translate(1825.695312 0)"/>
      <use xlink:href="#DejaVuSans-76" transform="translate(1887.21875 0)"/>
      <use xlink:href="#DejaVuSans-65" transform="translate(1946.398438 0)"/>
      <use xlink:href="#DejaVuSans-6d" transform="translate(2007.921875 0)"/>
      <use xlink:href="#DejaVuSans-65" transform="translate(2105.333984 0)"/>
      <use xlink:href="#DejaVuSans-6e" transform="translate(2166.857422 0)"/>
      <use xlink:href="#DejaVuSans-74" transform="translate(2230.236328 0)"/>
     </g>
    </g>
   </g>
   <g id="line2d_29">
    <path d="M 67.52 70.464762 
L 111.11786 70.464762 
L 111.11786 74.268889 
L 116.24702 74.268889 
L 116.24702 78.073016 
L 118.8116 78.073016 
L 118.8116 85.68127 
L 121.37618 85.68127 
L 121.37618 89.485397 
L 129.06992 89.485397 
L 129.06992 100.897778 
L 134.19908 100.897778 
L 134.19908 108.506032 
L 136.76366 108.506032 
L 136.76366 116.114286 
L 139.32824 116.114286 
L 139.32824 123.72254 
L 141.89282 123.72254 
L 141.89282 127.526667 
L 144.4574 127.526667 
L 144.4574 131.330794 
L 147.02198 131.330794 
L 147.02198 142.743175 
L 149.58656 142.743175 
L 149.58656 146.547302 
L 154.71572 146.547302 
L 154.71572 150.351429 
L 157.2803 150.351429 
L 157.2803 161.76381 
L 159.84488 161.76381 
L 159.84488 169.372063 
L 162.40946 169.372063 
L 162.40946 188.392698 
L 164.97404 188.392698 
L 164.97404 207.413333 
L 167.53862 207.413333 
L 167.53862 211.21746 
L 170.1032 211.21746 
L 170.1032 234.042222 
L 172.66778 234.042222 
L 172.66778 245.454603 
L 175.23236 245.454603 
L 175.23236 264.475238 
L 177.79694 264.475238 
L 177.79694 275.887619 
L 180.36152 275.887619 
L 180.36152 283.495873 
L 182.9261 283.495873 
L 182.9261 287.3 
L 185.49068 287.3 
L 185.49068 298.712381 
L 188.055259 298.712381 
L 188.055259 313.928889 
L 190.619839 313.928889 
L 190.619839 325.34127 
L 193.184419 325.34127 
L 193.184419 340.557778 
L 195.748999 340.557778 
L 195.748999 363.38254 
L 198.313579 363.38254 
L 198.313579 374.794921 
L 200.878159 374.794921 
L 200.878159 382.403175 
L 203.442739 382.403175 
L 203.442739 393.815556 
L 206.007319 393.815556 
L 206.007319 401.42381 
L 208.571899 401.42381 
L 208.571899 409.032063 
L 211.136479 409.032063 
L 211.136479 424.248571 
L 213.701059 424.248571 
L 213.701059 431.856825 
L 216.265639 431.856825 
L 216.265639 435.660952 
L 218.830219 435.660952 
L 218.830219 439.465079 
L 223.959379 439.465079 
L 223.959379 450.87746 
L 226.523959 450.87746 
L 226.523959 469.898095 
L 231.653119 469.898095 
L 231.653119 477.506349 
L 234.217699 477.506349 
L 234.217699 481.310476 
L 239.346859 481.310476 
L 239.346859 488.91873 
L 249.605179 488.91873 
L 249.605179 492.722857 
L 257.298919 492.722857 
L 257.298919 496.526984 
L 262.428079 496.526984 
L 262.428079 500.331111 
L 264.992659 500.331111 
L 264.992659 504.135238 
L 316.284259 504.135238 
L 316.284259 507.939365 
L 318.848839 507.939365 
L 318.848839 511.743492 
L 323.977999 511.743492 
L 323.977999 515.547619 
L 329.107159 515.547619 
L 329.107159 519.351746 
L 341.930059 519.351746 
L 341.930059 523.155873 
L 524.015238 523.155873 
L 524.015238 526.96 
" clip-path="url(#p061374a1f0)" style="fill: none; stroke: #0000ff; stroke-width: 1.5; stroke-linecap: square"/>
   </g>
   <g id="line2d_30">
    <path d="M 67.52 70.464762 
L 93.1658 70.464762 
L 93.1658 71.701876 
L 103.42412 71.701876 
L 103.42412 72.938991 
L 105.9887 72.938991 
L 105.9887 74.176105 
L 108.55328 74.176105 
L 108.55328 75.41322 
L 121.37618 75.41322 
L 121.37618 76.650334 
L 123.94076 76.650334 
L 123.94076 77.887449 
L 126.50534 77.887449 
L 126.50534 81.598792 
L 129.06992 81.598792 
L 129.06992 90.258593 
L 131.6345 90.258593 
L 131.6345 93.969937 
L 134.19908 93.969937 
L 134.19908 95.207051 
L 136.76366 95.207051 
L 136.76366 101.392624 
L 139.32824 101.392624 
L 139.32824 113.763768 
L 141.89282 113.763768 
L 141.89282 118.712226 
L 144.4574 118.712226 
L 144.4574 123.660684 
L 147.02198 123.660684 
L 147.02198 128.609142 
L 149.58656 128.609142 
L 149.58656 136.031829 
L 152.15114 136.031829 
L 152.15114 144.69163 
L 154.71572 144.69163 
L 154.71572 152.114317 
L 157.2803 152.114317 
L 157.2803 163.248347 
L 159.84488 163.248347 
L 159.84488 174.382377 
L 162.40946 174.382377 
L 162.40946 184.279293 
L 164.97404 184.279293 
L 164.97404 194.176209 
L 167.53862 194.176209 
L 167.53862 202.83601 
L 170.1032 202.83601 
L 170.1032 212.732926 
L 172.66778 212.732926 
L 172.66778 233.763871 
L 175.23236 233.763871 
L 175.23236 256.031932 
L 177.79694 256.031932 
L 177.79694 268.403077 
L 180.36152 268.403077 
L 180.36152 279.537107 
L 182.9261 279.537107 
L 182.9261 290.671137 
L 185.49068 290.671137 
L 185.49068 301.805167 
L 188.055259 301.805167 
L 188.055259 306.753625 
L 190.619839 306.753625 
L 190.619839 311.702083 
L 193.184419 311.702083 
L 193.184419 332.733029 
L 195.748999 332.733029 
L 195.748999 345.104173 
L 198.313579 345.104173 
L 198.313579 353.763975 
L 200.878159 353.763975 
L 200.878159 359.949547 
L 203.442739 359.949547 
L 203.442739 371.083577 
L 206.007319 371.083577 
L 206.007319 374.794921 
L 208.571899 374.794921 
L 208.571899 383.454722 
L 211.136479 383.454722 
L 211.136479 389.640294 
L 213.701059 389.640294 
L 213.701059 397.062981 
L 216.265639 397.062981 
L 216.265639 398.300095 
L 218.830219 398.300095 
L 218.830219 405.722782 
L 221.394799 405.722782 
L 221.394799 411.908355 
L 223.959379 411.908355 
L 223.959379 413.145469 
L 226.523959 413.145469 
L 226.523959 418.093927 
L 229.088539 418.093927 
L 229.088539 421.80527 
L 231.653119 421.80527 
L 231.653119 425.516614 
L 234.217699 425.516614 
L 234.217699 430.465072 
L 236.782279 430.465072 
L 236.782279 432.939301 
L 239.346859 432.939301 
L 239.346859 437.887758 
L 241.911439 437.887758 
L 241.911439 440.361987 
L 244.476019 440.361987 
L 244.476019 445.310445 
L 247.040599 445.310445 
L 247.040599 450.258903 
L 249.605179 450.258903 
L 249.605179 457.68159 
L 252.169759 457.68159 
L 252.169759 460.155819 
L 257.298919 460.155819 
L 257.298919 462.630048 
L 259.863499 462.630048 
L 259.863499 465.104277 
L 262.428079 465.104277 
L 262.428079 466.341391 
L 267.557239 466.341391 
L 267.557239 470.052735 
L 270.121819 470.052735 
L 270.121819 472.526963 
L 272.686399 472.526963 
L 272.686399 476.238307 
L 275.250979 476.238307 
L 275.250979 477.475421 
L 277.815559 477.475421 
L 277.815559 479.94965 
L 288.073879 479.94965 
L 288.073879 482.423879 
L 290.638459 482.423879 
L 290.638459 484.898108 
L 295.767619 484.898108 
L 295.767619 486.135223 
L 298.332199 486.135223 
L 298.332199 487.372337 
L 300.896779 487.372337 
L 300.896779 488.609452 
L 303.461359 488.609452 
L 303.461359 489.846566 
L 306.025939 489.846566 
L 306.025939 491.08368 
L 313.719679 491.08368 
L 313.719679 493.557909 
L 316.284259 493.557909 
L 316.284259 494.795024 
L 323.977999 494.795024 
L 323.977999 499.743482 
L 329.107159 499.743482 
L 329.107159 500.980596 
L 334.236319 500.980596 
L 334.236319 502.217711 
L 344.494639 502.217711 
L 344.494639 503.454825 
L 352.188379 503.454825 
L 352.188379 505.929054 
L 354.752959 505.929054 
L 354.752959 507.166169 
L 367.575859 507.166169 
L 367.575859 509.640397 
L 370.140439 509.640397 
L 370.140439 510.877512 
L 375.269599 510.877512 
L 375.269599 512.114626 
L 377.834179 512.114626 
L 377.834179 513.351741 
L 408.609139 513.351741 
L 408.609139 515.82597 
L 416.302879 515.82597 
L 416.302879 517.063084 
L 431.690358 517.063084 
L 431.690358 518.300199 
L 434.254938 518.300199 
L 434.254938 519.537313 
L 439.384098 519.537313 
L 439.384098 520.774428 
L 462.465318 520.774428 
L 462.465318 522.011542 
L 482.981958 522.011542 
L 482.981958 523.248657 
L 488.111118 523.248657 
L 488.111118 524.485771 
L 495.804858 524.485771 
L 495.804858 525.722886 
L 500.934018 525.722886 
L 500.934018 526.96 
L 500.934018 526.96 
" clip-path="url(#p061374a1f0)" style="fill: none; stroke: #ffa500; stroke-width: 1.5; stroke-linecap: square"/>
   </g>
   <g id="patch_3">
    <path d="M 67.52 526.96 
L 67.52 47.64 
" style="fill: none; stroke: #000000; stroke-width: 0.8; stroke-linejoin: miter; stroke-linecap: square"/>
   </g>
   <g id="patch_4">
    <path d="M 546.84 526.96 
L 546.84 47.64 
" style="fill: none; stroke: #000000; stroke-width: 0.8; stroke-linejoin: miter; stroke-linecap: square"/>
   </g>
   <g id="patch_5">
    <path d="M 67.52 526.96 
L 546.84 526.96 
" style="fill: none; stroke: #000000; stroke-width: 0.8; stroke-linejoin: miter; stroke-linecap: square"/>
   </g>
   <g id="patch_6">
    <path d="M 67.52 47.64 
L 546.84 47.64 
" style="fill: none; stroke: #000000; stroke-width: 0.8; stroke-linejoin: miter; stroke-linecap: square"/>
   </g>
   <g id="text_17">
    <!-- Time to 10% weight loss by Emotional eating (yes/no) -->
    <g transform="translate(117.990781 25.963062) scale(0.14 -0.14)">
     <defs>
      <path id="DejaVuSans-54" d="M -19 4666 
L 3928 4666 
L 3928 4134 
L 2272 4134 
L 2272 0 
L 1638 0 
L 1638 4134 
L -19 4134 
L -19 4666 
z
" transform="scale(0.015625)"/>
      <path id="DejaVuSans-25" d="M 4653 2053 
Q 4381 2053 4226 1822 
Q 4072 1591 4072 1178 
Q 4072 772 4226 539 
Q 4381 306 4653 306 
Q 4919 306 5073 539 
Q 5228 772 5228 1178 
Q 5228 1588 5073 1820 
Q 4919 2053 4653 2053 
z
M 4653 2450 
Q 5147 2450 5437 2106 
Q 5728 1763 5728 1178 
Q 5728 594 5436 251 
Q 5144 -91 4653 -91 
Q 4153 -91 3862 251 
Q 3572 594 3572 1178 
Q 3572 1766 3864 2108 
Q 4156 2450 4653 2450 
z
M 1428 4353 
Q 1159 4353 1004 4120 
Q 850 3888 850 3481 
Q 850 3069 1003 2837 
Q 1156 2606 1428 2606 
Q 1700 2606 1854 2837 
Q 2009 3069 2009 3481 
Q 2009 3884 1853 4118 
Q 1697 4353 1428 4353 
z
M 4250 4750 
L 4750 4750 
L 1831 -91 
L 1331 -91 
L 4250 4750 
z
M 1428 4750 
Q 1922 4750 2215 4408 
Q 2509 4066 2509 3481 
Q 2509 2891 2217 2550 
Q 1925 2209 1428 2209 
Q 931 2209 642 2551 
Q 353 2894 353 3481 
Q 353 4063 643 4406 
Q 934 4750 1428 4750 
z
" transform="scale(0.015625)"/>
      <path id="DejaVuSans-45" d="M 628 4666 
L 3578 4666 
L 3578 4134 
L 1259 4134 
L 1259 2753 
L 3481 2753 
L 3481 2222 
L 1259 2222 
L 1259 531 
L 3634 531 
L 3634 0 
L 628 0 
L 628 4666 
z
" transform="scale(0.015625)"/>
      <path id="DejaVuSans-28" d="M 1984 4856 
Q 1566 4138 1362 3434 
Q 1159 2731 1159 2009 
Q 1159 1288 1364 580 
Q 1569 -128 1984 -844 
L 1484 -844 
Q 1016 -109 783 600 
Q 550 1309 550 2009 
Q 550 2706 781 3412 
Q 1013 4119 1484 4856 
L 1984 4856 
z
" transform="scale(0.015625)"/>
      <path id="DejaVuSans-2f" d="M 1625 4666 
L 2156 4666 
L 531 -594 
L 0 -594 
L 1625 4666 
z
" transform="scale(0.015625)"/>
      <path id="DejaVuSans-29" d="M 513 4856 
L 1013 4856 
Q 1481 4119 1714 3412 
Q 1947 2706 1947 2009 
Q 1947 1309 1714 600 
Q 1481 -109 1013 -844 
L 513 -844 
Q 928 -128 1133 580 
Q 1338 1288 1338 2009 
Q 1338 2731 1133 3434 
Q 928 4138 513 4856 
z
" transform="scale(0.015625)"/>
     </defs>
     <use xlink:href="#DejaVuSans-54"/>
     <use xlink:href="#DejaVuSans-69" transform="translate(57.958984 0)"/>
     <use xlink:href="#DejaVuSans-6d" transform="translate(85.742188 0)"/>
     <use xlink:href="#DejaVuSans-65" transform="translate(183.154297 0)"/>
     <use xlink:href="#DejaVuSans-20" transform="translate(244.677734 0)"/>
     <use xlink:href="#DejaVuSans-74" transform="translate(276.464844 0)"/>
     <use xlink:href="#DejaVuSans-6f" transform="translate(315.673828 0)"/>
     <use xlink:href="#DejaVuSans-20" transform="translate(376.855469 0)"/>
     <use xlink:href="#DejaVuSans-31" transform="translate(408.642578 0)"/>
     <use xlink:href="#DejaVuSans-30" transform="translate(472.265625 0)"/>
     <use xlink:href="#DejaVuSans-25" transform="translate(535.888672 0)"/>
     <use xlink:href="#DejaVuSans-20" transform="translate(630.908203 0)"/>
     <use xlink:href="#DejaVuSans-77" transform="translate(662.695312 0)"/>
     <use xlink:href="#DejaVuSans-65" transform="translate(744.482422 0)"/>
     <use xlink:href="#DejaVuSans-69" transform="translate(806.005859 0)"/>
     <use xlink:href="#DejaVuSans-67" transform="translate(833.789062 0)"/>
     <use xlink:href="#DejaVuSans-68" transform="translate(897.265625 0)"/>
     <use xlink:href="#DejaVuSans-74" transform="translate(960.644531 0)"/>
     <use xlink:href="#DejaVuSans-20" transform="translate(999.853516 0)"/>
     <use xlink:href="#DejaVuSans-6c" transform="translate(1031.640625 0)"/>
     <use xlink:href="#DejaVuSans-6f" transform="translate(1059.423828 0)"/>
     <use xlink:href="#DejaVuSans-73" transform="translate(1120.605469 0)"/>
     <use xlink:href="#DejaVuSans-73" transform="translate(1172.705078 0)"/>
     <use xlink:href="#DejaVuSans-20" transform="translate(1224.804688 0)"/>
     <use xlink:href="#DejaVuSans-62" transform="translate(1256.591797 0)"/>
     <use xlink:href="#DejaVuSans-79" transform="translate(1320.068359 0)"/>
     <use xlink:href="#DejaVuSans-20" transform="translate(1379.248047 0)"/>
     <use xlink:href="#DejaVuSans-45" transform="translate(1411.035156 0)"/>
     <use xlink:href="#DejaVuSans-6d" transform="translate(1474.21875 0)"/>
     <use xlink:href="#DejaVuSans-6f" transform="translate(1571.630859 0)"/>
     <use xlink:href="#DejaVuSans-74" transform="translate(1632.8125 0)"/>
     <use xlink:href="#DejaVuSans-69" transform="translate(1672.021484 0)"/>
     <use xlink:href="#DejaVuSans-6f" transform="translate(1699.804688 0)"/>
     <use xlink:href="#DejaVuSans-6e" transform="translate(1760.986328 0)"/>
     <use xlink:href="#DejaVuSans-61" transform="translate(1824.365234 0)"/>
     <use xlink:href="#DejaVuSans-6c" transform="translate(1885.644531 0)"/>
     <use xlink:href="#DejaVuSans-20" transform="translate(1913.427734 0)"/>
     <use xlink:href="#DejaVuSans-65" transform="translate(1945.214844 0)"/>
     <use xlink:href="#DejaVuSans-61" transform="translate(2006.738281 0)"/>
     <use xlink:href="#DejaVuSans-74" transform="translate(2068.017578 0)"/>
     <use xlink:href="#DejaVuSans-69" transform="translate(2107.226562 0)"/>
     <use xlink:href="#DejaVuSans-6e" transform="translate(2135.009766 0)"/>
     <use xlink:href="#DejaVuSans-67" transform="translate(2198.388672 0)"/>
     <use xlink:href="#DejaVuSans-20" transform="translate(2261.865234 0)"/>
     <use xlink:href="#DejaVuSans-28" transform="translate(2293.652344 0)"/>
     <use xlink:href="#DejaVuSans-79" transform="translate(2332.666016 0)"/>
     <use xlink:href="#DejaVuSans-65" transform="translate(2391.845703 0)"/>
     <use xlink:href="#DejaVuSans-73" transform="translate(2453.369141 0)"/>
     <use xlink:href="#DejaVuSans-2f" transform="translate(2505.46875 0)"/>
     <use xlink:href="#DejaVuSans-6e" transform="translate(2539.160156 0)"/>
     <use xlink:href="#DejaVuSans-6f" transform="translate(2602.539062 0)"/>
     <use xlink:href="#DejaVuSans-29" transform="translate(2663.720703 0)"/>
    </g>
    <!-- Log-rank p=0.083 -->
    <g transform="translate(243.918594 41.64) scale(0.14 -0.14)">
     <defs>
      <path id="DejaVuSans-4c" d="M 628 4666 
L 1259 4666 
L 1259 531 
L 3531 531 
L 3531 0 
L 628 0 
L 628 4666 
z
" transform="scale(0.015625)"/>
      <path id="DejaVuSans-2d" d="M 313 2009 
L 1997 2009 
L 1997 1497 
L 313 1497 
L 313 2009 
z
" transform="scale(0.015625)"/>
      <path id="DejaVuSans-6b" d="M 581 4863 
L 1159 4863 
L 1159 1991 
L 2875 3500 
L 3609 3500 
L 1753 1863 
L 3688 0 
L 2938 0 
L 1159 1709 
L 1159 0 
L 581 0 
L 581 4863 
z
" transform="scale(0.015625)"/>
      <path id="DejaVuSans-70" d="M 1159 525 
L 1159 -1331 
L 581 -1331 
L 581 3500 
L 1159 3500 
L 1159 2969 
Q 1341 3281 1617 3432 
Q 1894 3584 2278 3584 
Q 2916 3584 3314 3078 
Q 3713 2572 3713 1747 
Q 3713 922 3314 415 
Q 2916 -91 2278 -91 
Q 1894 -91 1617 61 
Q 1341 213 1159 525 
z
M 3116 1747 
Q 3116 2381 2855 2742 
Q 2594 3103 2138 3103 
Q 1681 3103 1420 2742 
Q 1159 2381 1159 1747 
Q 1159 1113 1420 752 
Q 1681 391 2138 391 
Q 2594 391 2855 752 
Q 3116 1113 3116 1747 
z
" transform="scale(0.015625)"/>
      <path id="DejaVuSans-3d" d="M 678 2906 
L 4684 2906 
L 4684 2381 
L 678 2381 
L 678 2906 
z
M 678 1631 
L 4684 1631 
L 4684 1100 
L 678 1100 
L 678 1631 
z
" transform="scale(0.015625)"/>
      <path id="DejaVuSans-33" d="M 2597 2516 
Q 3050 2419 3304 2112 
Q 3559 1806 3559 1356 
Q 3559 666 3084 287 
Q 2609 -91 1734 -91 
Q 1441 -91 1130 -33 
Q 819 25 488 141 
L 488 750 
Q 750 597 1062 519 
Q 1375 441 1716 441 
Q 2309 441 2620 675 
Q 2931 909 2931 1356 
Q 2931 1769 2642 2001 
Q 2353 2234 1838 2234 
L 1294 2234 
L 1294 2753 
L 1863 2753 
Q 2328 2753 2575 2939 
Q 2822 3125 2822 3475 
Q 2822 3834 2567 4026 
Q 2313 4219 1838 4219 
Q 1578 4219 1281 4162 
Q 984 4106 628 3988 
L 628 4550 
Q 988 4650 1302 4700 
Q 1616 4750 1894 4750 
Q 2613 4750 3031 4423 
Q 3450 4097 3450 3541 
Q 3450 3153 3228 2886 
Q 3006 2619 2597 2516 
z
" transform="scale(0.015625)"/>
     </defs>
     <use xlink:href="#DejaVuSans-4c"/>
     <use xlink:href="#DejaVuSans-6f" transform="translate(53.962891 0)"/>
     <use xlink:href="#DejaVuSans-67" transform="translate(115.144531 0)"/>
     <use xlink:href="#DejaVuSans-2d" transform="translate(178.621094 0)"/>
     <use xlink:href="#DejaVuSans-72" transform="translate(214.705078 0)"/>
     <use xlink:href="#DejaVuSans-61" transform="translate(255.818359 0)"/>
     <use xlink:href="#DejaVuSans-6e" transform="translate(317.097656 0)"/>
     <use xlink:href="#DejaVuSans-6b" transform="translate(380.476562 0)"/>
     <use xlink:href="#DejaVuSans-20" transform="translate(438.386719 0)"/>
     <use xlink:href="#DejaVuSans-70" transform="translate(470.173828 0)"/>
     <use xlink:href="#DejaVuSans-3d" transform="translate(533.650391 0)"/>
     <use xlink:href="#DejaVuSans-30" transform="translate(617.439453 0)"/>
     <use xlink:href="#DejaVuSans-2e" transform="translate(681.0625 0)"/>
     <use xlink:href="#DejaVuSans-30" transform="translate(712.849609 0)"/>
     <use xlink:href="#DejaVuSans-38" transform="translate(776.472656 0)"/>
     <use xlink:href="#DejaVuSans-33" transform="translate(840.095703 0)"/>
    </g>
   </g>
   <g id="legend_1">
    <g id="patch_7">
     <path d="M 400.065 99.674375 
L 539.84 99.674375 
Q 541.84 99.674375 541.84 97.674375 
L 541.84 54.64 
Q 541.84 52.64 539.84 52.64 
L 400.065 52.64 
Q 398.065 52.64 398.065 54.64 
L 398.065 97.674375 
Q 398.065 99.674375 400.065 99.674375 
z
" style="fill: #ffffff; opacity: 0.8; stroke: #cccccc; stroke-linejoin: miter"/>
    </g>
    <g id="text_18">
     <!-- Emotional eating (yes/no) -->
     <g transform="translate(405.367344 64.238437) scale(0.1 -0.1)">
      <use xlink:href="#DejaVuSans-45"/>
      <use xlink:href="#DejaVuSans-6d" transform="translate(63.183594 0)"/>
      <use xlink:href="#DejaVuSans-6f" transform="translate(160.595703 0)"/>
      <use xlink:href="#DejaVuSans-74" transform="translate(221.777344 0)"/>
      <use xlink:href="#DejaVuSans-69" transform="translate(260.986328 0)"/>
      <use xlink:href="#DejaVuSans-6f" transform="translate(288.769531 0)"/>
      <use xlink:href="#DejaVuSans-6e" transform="translate(349.951172 0)"/>
      <use xlink:href="#DejaVuSans-61" transform="translate(413.330078 0)"/>
      <use xlink:href="#DejaVuSans-6c" transform="translate(474.609375 0)"/>
      <use xlink:href="#DejaVuSans-20" transform="translate(502.392578 0)"/>
      <use xlink:href="#DejaVuSans-65" transform="translate(534.179688 0)"/>
      <use xlink:href="#DejaVuSans-61" transform="translate(595.703125 0)"/>
      <use xlink:href="#DejaVuSans-74" transform="translate(656.982422 0)"/>
      <use xlink:href="#DejaVuSans-69" transform="translate(696.191406 0)"/>
      <use xlink:href="#DejaVuSans-6e" transform="translate(723.974609 0)"/>
      <use xlink:href="#DejaVuSans-67" transform="translate(787.353516 0)"/>
      <use xlink:href="#DejaVuSans-20" transform="translate(850.830078 0)"/>
      <use xlink:href="#DejaVuSans-28" transform="translate(882.617188 0)"/>
      <use xlink:href="#DejaVuSans-79" transform="translate(921.630859 0)"/>
      <use xlink:href="#DejaVuSans-65" transform="translate(980.810547 0)"/>
      <use xlink:href="#DejaVuSans-73" transform="translate(1042.333984 0)"/>
      <use xlink:href="#DejaVuSans-2f" transform="translate(1094.433594 0)"/>
      <use xlink:href="#DejaVuSans-6e" transform="translate(1128.125 0)"/>
      <use xlink:href="#DejaVuSans-6f" transform="translate(1191.503906 0)"/>
      <use xlink:href="#DejaVuSans-29" transform="translate(1252.685547 0)"/>
     </g>
    </g>
    <g id="line2d_31">
     <path d="M 402.065 75.416562 
L 412.065 75.416562 
L 412.065 75.416562 
L 422.065 75.416562 
L 422.065 75.416562 
" style="fill: none; stroke: #0000ff; stroke-width: 1.5; stroke-linecap: square"/>
    </g>
    <g id="text_19">
     <!-- Emotional eating: No -->
     <g transform="translate(430.065 78.916562) scale(0.1 -0.1)">
      <defs>
       <path id="DejaVuSans-3a" d="M 750 794 
L 1409 794 
L 1409 0 
L 750 0 
L 750 794 
z
M 750 3309 
L 1409 3309 
L 1409 2516 
L 750 2516 
L 750 3309 
z
" transform="scale(0.015625)"/>
       <path id="DejaVuSans-4e" d="M 628 4666 
L 1478 4666 
L 3547 763 
L 3547 4666 
L 4159 4666 
L 4159 0 
L 3309 0 
L 1241 3903 
L 1241 0 
L 628 0 
L 628 4666 
z
" transform="scale(0.015625)"/>
      </defs>
      <use xlink:href="#DejaVuSans-45"/>
      <use xlink:href="#DejaVuSans-6d" transform="translate(63.183594 0)"/>
      <use xlink:href="#DejaVuSans-6f" transform="translate(160.595703 0)"/>
      <use xlink:href="#DejaVuSans-74" transform="translate(221.777344 0)"/>
      <use xlink:href="#DejaVuSans-69" transform="translate(260.986328 0)"/>
      <use xlink:href="#DejaVuSans-6f" transform="translate(288.769531 0)"/>
      <use xlink:href="#DejaVuSans-6e" transform="translate(349.951172 0)"/>
      <use xlink:href="#DejaVuSans-61" transform="translate(413.330078 0)"/>
      <use xlink:href="#DejaVuSans-6c" transform="translate(474.609375 0)"/>
      <use xlink:href="#DejaVuSans-20" transform="translate(502.392578 0)"/>
      <use xlink:href="#DejaVuSans-65" transform="translate(534.179688 0)"/>
      <use xlink:href="#DejaVuSans-61" transform="translate(595.703125 0)"/>
      <use xlink:href="#DejaVuSans-74" transform="translate(656.982422 0)"/>
      <use xlink:href="#DejaVuSans-69" transform="translate(696.191406 0)"/>
      <use xlink:href="#DejaVuSans-6e" transform="translate(723.974609 0)"/>
      <use xlink:href="#DejaVuSans-67" transform="translate(787.353516 0)"/>
      <use xlink:href="#DejaVuSans-3a" transform="translate(850.830078 0)"/>
      <use xlink:href="#DejaVuSans-20" transform="translate(884.521484 0)"/>
      <use xlink:href="#DejaVuSans-4e" transform="translate(916.308594 0)"/>
      <use xlink:href="#DejaVuSans-6f" transform="translate(991.113281 0)"/>
     </g>
    </g>
    <g id="line2d_32">
     <path d="M 402.065 90.094687 
L 412.065 90.094687 
L 412.065 90.094687 
L 422.065 90.094687 
L 422.065 90.094687 
" style="fill: none; stroke: #ffa500; stroke-width: 1.5; stroke-linecap: square"/>
    </g>
    <g id="text_20">
     <!-- Emotional eating: Yes -->
     <g transform="translate(430.065 93.594687) scale(0.1 -0.1)">
      <defs>
       <path id="DejaVuSans-59" d="M -13 4666 
L 666 4666 
L 1959 2747 
L 3244 4666 
L 3922 4666 
L 2272 2222 
L 2272 0 
L 1638 0 
L 1638 2222 
L -13 4666 
z
" transform="scale(0.015625)"/>
      </defs>
      <use xlink:href="#DejaVuSans-45"/>
      <use xlink:href="#DejaVuSans-6d" transform="translate(63.183594 0)"/>
      <use xlink:href="#DejaVuSans-6f" transform="translate(160.595703 0)"/>
      <use xlink:href="#DejaVuSans-74" transform="translate(221.777344 0)"/>
      <use xlink:href="#DejaVuSans-69" transform="translate(260.986328 0)"/>
      <use xlink:href="#DejaVuSans-6f" transform="translate(288.769531 0)"/>
      <use xlink:href="#DejaVuSans-6e" transform="translate(349.951172 0)"/>
      <use xlink:href="#DejaVuSans-61" transform="translate(413.330078 0)"/>
      <use xlink:href="#DejaVuSans-6c" transform="translate(474.609375 0)"/>
      <use xlink:href="#DejaVuSans-20" transform="translate(502.392578 0)"/>
      <use xlink:href="#DejaVuSans-65" transform="translate(534.179688 0)"/>
      <use xlink:href="#DejaVuSans-61" transform="translate(595.703125 0)"/>
      <use xlink:href="#DejaVuSans-74" transform="translate(656.982422 0)"/>
      <use xlink:href="#DejaVuSans-69" transform="translate(696.191406 0)"/>
      <use xlink:href="#DejaVuSans-6e" transform="translate(723.974609 0)"/>
      <use xlink:href="#DejaVuSans-67" transform="translate(787.353516 0)"/>
      <use xlink:href="#DejaVuSans-3a" transform="translate(850.830078 0)"/>
      <use xlink:href="#DejaVuSans-20" transform="translate(884.521484 0)"/>
      <use xlink:href="#DejaVuSans-59" transform="translate(916.308594 0)"/>
      <use xlink:href="#DejaVuSans-65" transform="translate(964.142578 0)"/>
      <use xlink:href="#DejaVuSans-73" transform="translate(1025.666016 0)"/>
     </g>
    </g>
   </g>
  </g>
 </g>
 <defs>
  <clipPath id="p061374a1f0">
   <rect x="67.52" y="47.64" width="479.32" height="479.32"/>
  </clipPath>
 </defs>
</svg>
