<?xml version="1.0" encoding="utf-8" standalone="no"?>
<!DOCTYPE svg PUBLIC "-//W3C//DTD SVG 1.1//EN"
  "http://www.w3.org/Graphics/SVG/1.1/DTD/svg11.dtd">
<svg xmlns:xlink="http://www.w3.org/1999/xlink" width="576pt" height="576pt" viewBox="0 0 576 576" xmlns="http://www.w3.org/2000/svg" version="1.1">
 <metadata>
  <rdf:RDF xmlns:dc="http://purl.org/dc/elements/1.1/" xmlns:cc="http://creativecommons.org/ns#" xmlns:rdf="http://www.w3.org/1999/02/22-rdf-syntax-ns#">
   <cc:Work>
    <dc:type rdf:resource="http://purl.org/dc/dcmitype/StillImage"/>
    <dc:date>2025-08-04T12:29:02.540620</dc:date>
    <dc:format>image/svg+xml</dc:format>
    <dc:creator>
     <cc:Agent>
      <dc:title>Matplotlib v3.10.1, https://matplotlib.org/</dc:title>
     </cc:Agent>
    </dc:creator>
   </cc:Work>
  </rdf:RDF>
 </metadata>
 <defs>
  <style type="text/css">*{stroke-linejoin: round; stroke-linecap: butt}</style>
 </defs>
 <g id="figure_1">
  <g id="patch_1">
   <path d="M 0 576 
L 576 576 
L 576 0 
L 0 0 
z
" style="fill: #ffffff"/>
  </g>
  <g id="axes_1">
   <g id="patch_2">
    <path d="M 67.52 526.96 
L 546.84 526.96 
L 546.84 47.64 
L 67.52 47.64 
z
" style="fill: #ffffff"/>
   </g>
   <g id="FillBetweenPolyCollection_1">
    <defs>
     <path id="mcbdbc37349" d="M 67.52 -505.535238 
L 67.52 -505.535238 
L 103.42412 -505.535238 
L 103.42412 -489.884964 
L 108.55328 -489.884964 
L 108.55328 -487.901665 
L 111.11786 -487.901665 
L 111.11786 -485.040153 
L 118.8116 -485.040153 
L 118.8116 -479.11419 
L 121.37618 -479.11419 
L 121.37618 -476.186569 
L 126.50534 -476.186569 
L 126.50534 -473.295107 
L 129.06992 -473.295107 
L 129.06992 -453.892069 
L 131.6345 -453.892069 
L 131.6345 -451.211851 
L 134.19908 -451.211851 
L 134.19908 -445.903033 
L 136.76366 -445.903033 
L 136.76366 -440.655409 
L 139.32824 -440.655409 
L 139.32824 -427.758745 
L 141.89282 -427.758745 
L 141.89282 -420.148025 
L 144.4574 -420.148025 
L 144.4574 -417.629441 
L 147.02198 -417.629441 
L 147.02198 -410.123504 
L 149.58656 -410.123504 
L 149.58656 -405.157989 
L 152.15114 -405.157989 
L 152.15114 -397.762184 
L 154.71572 -397.762184 
L 154.71572 -390.424203 
L 157.2803 -390.424203 
L 157.2803 -380.721961 
L 159.84488 -380.721961 
L 159.84488 -366.325741 
L 162.40946 -366.325741 
L 162.40946 -349.741386 
L 164.97404 -349.741386 
L 164.97404 -338.020488 
L 167.53862 -338.020488 
L 167.53862 -326.395415 
L 170.1032 -326.395415 
L 170.1032 -305.694376 
L 172.66778 -305.694376 
L 172.66778 -296.581243 
L 175.23236 -296.581243 
L 175.23236 -271.782147 
L 177.79694 -271.782147 
L 177.79694 -258.412226 
L 180.36152 -258.412226 
L 180.36152 -247.353578 
L 182.9261 -247.353578 
L 182.9261 -234.182395 
L 185.49068 -234.182395 
L 185.49068 -225.461987 
L 188.055259 -225.461987 
L 188.055259 -212.473096 
L 190.619839 -212.473096 
L 190.619839 -208.168287 
L 193.184419 -208.168287 
L 193.184419 -197.461742 
L 195.748999 -197.461742 
L 195.748999 -186.836494 
L 198.313579 -186.836494 
L 198.313579 -176.295763 
L 200.878159 -176.295763 
L 200.878159 -167.926769 
L 203.442739 -167.926769 
L 203.442739 -153.425636 
L 206.007319 -153.425636 
L 206.007319 -147.270862 
L 208.571899 -147.270862 
L 208.571899 -137.099441 
L 211.136479 -137.099441 
L 211.136479 -129.046121 
L 213.701059 -129.046121 
L 213.701059 -123.059221 
L 216.265639 -123.059221 
L 216.265639 -121.074334 
L 218.830219 -121.074334 
L 218.830219 -117.121496 
L 221.394799 -117.121496 
L 221.394799 -111.236922 
L 223.959379 -111.236922 
L 223.959379 -103.481908 
L 226.523959 -103.481908 
L 226.523959 -93.955435 
L 231.653119 -93.955435 
L 231.653119 -90.204593 
L 234.217699 -90.204593 
L 234.217699 -88.34349 
L 239.346859 -88.34349 
L 239.346859 -84.652268 
L 241.911439 -84.652268 
L 241.911439 -82.823227 
L 247.040599 -82.823227 
L 247.040599 -81.006047 
L 249.605179 -81.006047 
L 249.605179 -79.201421 
L 257.298919 -79.201421 
L 257.298919 -73.871105 
L 259.863499 -73.871105 
L 259.863499 -72.12547 
L 262.428079 -72.12547 
L 262.428079 -70.397387 
L 264.992659 -70.397387 
L 264.992659 -68.688317 
L 267.557239 -68.688317 
L 267.557239 -66.99995 
L 272.686399 -66.99995 
L 272.686399 -65.334268 
L 303.461359 -65.334268 
L 303.461359 -63.693618 
L 306.025939 -63.693618 
L 306.025939 -62.080814 
L 316.284259 -62.080814 
L 316.284259 -60.499281 
L 318.848839 -60.499281 
L 318.848839 -58.953255 
L 323.977999 -58.953255 
L 323.977999 -57.448088 
L 329.107159 -57.448088 
L 329.107159 -55.990707 
L 341.930059 -55.990707 
L 341.930059 -54.590353 
L 367.575859 -54.590353 
L 367.575859 -53.259841 
L 377.834179 -53.259841 
L 377.834179 -52.01786 
L 416.302879 -52.01786 
L 416.302879 -50.893611 
L 431.690358 -50.893611 
L 431.690358 -49.937488 
L 439.384098 -49.937488 
L 439.384098 -49.250662 
L 524.015238 -49.250662 
L 524.015238 -49.04 
L 524.015238 -49.04 
L 524.015238 -49.04 
L 524.015238 -60.530162 
L 439.384098 -60.530162 
L 439.384098 -63.787695 
L 431.690358 -63.787695 
L 431.690358 -67.037455 
L 416.302879 -67.037455 
L 416.302879 -70.189528 
L 377.834179 -70.189528 
L 377.834179 -73.255496 
L 367.575859 -73.255496 
L 367.575859 -76.250956 
L 341.930059 -76.250956 
L 341.930059 -79.188353 
L 329.107159 -79.188353 
L 329.107159 -82.077127 
L 323.977999 -82.077127 
L 323.977999 -84.924478 
L 318.848839 -84.924478 
L 318.848839 -87.736 
L 316.284259 -87.736 
L 316.284259 -90.516119 
L 306.025939 -90.516119 
L 306.025939 -93.268399 
L 303.461359 -93.268399 
L 303.461359 -95.995758 
L 272.686399 -95.995758 
L 272.686399 -98.700621 
L 267.557239 -98.700621 
L 267.557239 -101.385021 
L 264.992659 -101.385021 
L 264.992659 -104.05069 
L 262.428079 -104.05069 
L 262.428079 -106.699112 
L 259.863499 -106.699112 
L 259.863499 -109.331572 
L 257.298919 -109.331572 
L 257.298919 -117.143735 
L 249.605179 -117.143735 
L 249.605179 -119.722303 
L 247.040599 -119.722303 
L 247.040599 -122.289353 
L 241.911439 -122.289353 
L 241.911439 -124.845506 
L 239.346859 -124.845506 
L 239.346859 -129.927314 
L 234.217699 -129.927314 
L 234.217699 -132.453938 
L 231.653119 -132.453938 
L 231.653119 -137.480738 
L 226.523959 -137.480738 
L 226.523959 -149.909421 
L 223.959379 -149.909421 
L 223.959379 -159.728007 
L 221.394799 -159.728007 
L 221.394799 -167.028248 
L 218.830219 -167.028248 
L 218.830219 -171.867232 
L 216.265639 -171.867232 
L 216.265639 -174.278796 
L 213.701059 -174.278796 
L 213.701059 -181.483266 
L 211.136479 -181.483266 
L 211.136479 -191.022733 
L 208.571899 -191.022733 
L 208.571899 -202.848383 
L 206.007319 -202.848383 
L 206.007319 -209.894737 
L 203.442739 -209.894737 
L 203.442739 -226.203593 
L 200.878159 -226.203593 
L 200.878159 -235.444423 
L 198.313579 -235.444423 
L 198.313579 -246.919686 
L 195.748999 -246.919686 
L 195.748999 -258.314162 
L 193.184419 -258.314162 
L 193.184419 -269.630706 
L 190.619839 -269.630706 
L 190.619839 -274.136004 
L 188.055259 -274.136004 
L 188.055259 -287.580185 
L 185.49068 -287.580185 
L 185.49068 -296.483955 
L 182.9261 -296.483955 
L 182.9261 -309.751949 
L 180.36152 -309.751949 
L 180.36152 -320.728391 
L 177.79694 -320.728391 
L 177.79694 -333.803234 
L 175.23236 -333.803234 
L 175.23236 -357.492811 
L 172.66778 -357.492811 
L 172.66778 -366.013774 
L 170.1032 -366.013774 
L 170.1032 -384.992464 
L 167.53862 -384.992464 
L 167.53862 -395.413191 
L 164.97404 -395.413191 
L 164.97404 -405.738919 
L 162.40946 -405.738919 
L 162.40946 -420.020735 
L 159.84488 -420.020735 
L 159.84488 -432.081413 
L 157.2803 -432.081413 
L 157.2803 -440.016739 
L 154.71572 -440.016739 
L 154.71572 -445.906471 
L 152.15114 -445.906471 
L 152.15114 -451.737723 
L 149.58656 -451.737723 
L 149.58656 -455.589723 
L 147.02198 -455.589723 
L 147.02198 -461.30895 
L 144.4574 -461.30895 
L 144.4574 -463.198371 
L 141.89282 -463.198371 
L 141.89282 -468.810103 
L 139.32824 -468.810103 
L 139.32824 -477.942755 
L 136.76366 -477.942755 
L 136.76366 -481.502164 
L 134.19908 -481.502164 
L 134.19908 -484.995977 
L 131.6345 -484.995977 
L 131.6345 -486.714807 
L 129.06992 -486.714807 
L 129.06992 -497.999699 
L 126.50534 -497.999699 
L 126.50534 -499.453885 
L 121.37618 -499.453885 
L 121.37618 -500.844578 
L 118.8116 -500.844578 
L 118.8116 -503.359246 
L 111.11786 -503.359246 
L 111.11786 -504.411808 
L 108.55328 -504.411808 
L 108.55328 -505.21936 
L 103.42412 -505.21936 
L 103.42412 -505.535238 
L 67.52 -505.535238 
z
" style="stroke: #0000ff; stroke-opacity: 0.25"/>
    </defs>
    <g clip-path="url(#paa5bf65bf6)">
     <use xlink:href="#mcbdbc37349" x="0" y="576" style="fill: #0000ff; fill-opacity: 0.25; stroke: #0000ff; stroke-opacity: 0.25"/>
    </g>
   </g>
   <g id="FillBetweenPolyCollection_2">
    <defs>
     <path id="m2473cc5b52" d="M 67.52 -505.535238 
L 67.52 -505.535238 
L 93.1658 -505.535238 
L 93.1658 -494.285323 
L 105.9887 -494.285323 
L 105.9887 -492.860436 
L 116.24702 -492.860436 
L 116.24702 -490.800346 
L 121.37618 -490.800346 
L 121.37618 -488.663137 
L 123.94076 -488.663137 
L 123.94076 -486.53007 
L 126.50534 -486.53007 
L 126.50534 -482.332866 
L 129.06992 -482.332866 
L 129.06992 -476.214393 
L 131.6345 -476.214393 
L 131.6345 -472.232893 
L 134.19908 -472.232893 
L 134.19908 -470.266318 
L 136.76366 -470.266318 
L 136.76366 -460.626989 
L 139.32824 -460.626989 
L 139.32824 -447.53346 
L 141.89282 -447.53346 
L 141.89282 -443.857135 
L 144.4574 -443.857135 
L 144.4574 -436.573926 
L 147.02198 -436.573926 
L 147.02198 -429.371335 
L 149.58656 -429.371335 
L 149.58656 -420.464786 
L 152.15114 -420.464786 
L 152.15114 -413.406843 
L 154.71572 -413.406843 
L 154.71572 -406.401796 
L 157.2803 -406.401796 
L 157.2803 -392.531086 
L 159.84488 -392.531086 
L 159.84488 -383.945509 
L 162.40946 -383.945509 
L 162.40946 -373.718281 
L 164.97404 -373.718281 
L 164.97404 -360.19791 
L 167.53862 -360.19791 
L 167.53862 -355.159343 
L 170.1032 -355.159343 
L 170.1032 -346.797591 
L 172.66778 -346.797591 
L 172.66778 -320.318094 
L 175.23236 -320.318094 
L 175.23236 -300.713004 
L 177.79694 -300.713004 
L 177.79694 -289.370486 
L 180.36152 -289.370486 
L 180.36152 -279.701391 
L 182.9261 -279.701391 
L 182.9261 -273.282065 
L 185.49068 -273.282065 
L 185.49068 -260.506753 
L 188.055259 -260.506753 
L 188.055259 -257.326036 
L 190.619839 -257.326036 
L 190.619839 -249.397104 
L 193.184419 -249.397104 
L 193.184419 -224.244734 
L 195.748999 -224.244734 
L 195.748999 -207.150678 
L 198.313579 -207.150678 
L 198.313579 -199.435828 
L 200.878159 -199.435828 
L 200.878159 -194.823946 
L 203.442739 -194.823946 
L 203.442739 -187.166537 
L 206.007319 -187.166537 
L 206.007319 -184.113956 
L 208.571899 -184.113956 
L 208.571899 -178.02704 
L 211.136479 -178.02704 
L 211.136479 -170.453573 
L 213.701059 -170.453573 
L 213.701059 -162.920757 
L 216.265639 -162.920757 
L 216.265639 -161.419239 
L 218.830219 -161.419239 
L 218.830219 -153.937828 
L 221.394799 -153.937828 
L 221.394799 -150.957843 
L 226.523959 -150.957843 
L 226.523959 -145.020383 
L 229.088539 -145.020383 
L 229.088539 -140.587752 
L 231.653119 -140.587752 
L 231.653119 -136.173474 
L 234.217699 -136.173474 
L 234.217699 -130.317762 
L 236.782279 -130.317762 
L 236.782279 -127.403382 
L 239.346859 -127.403382 
L 239.346859 -121.603155 
L 241.911439 -121.603155 
L 241.911439 -120.1593 
L 244.476019 -120.1593 
L 244.476019 -114.410176 
L 247.040599 -114.410176 
L 247.040599 -110.127539 
L 249.605179 -110.127539 
L 249.605179 -101.645245 
L 252.169759 -101.645245 
L 252.169759 -98.844789 
L 259.863499 -98.844789 
L 259.863499 -97.450048 
L 262.428079 -97.450048 
L 262.428079 -96.059111 
L 267.557239 -96.059111 
L 267.557239 -93.28913 
L 270.121819 -93.28913 
L 270.121819 -90.535882 
L 272.686399 -90.535882 
L 272.686399 -87.800549 
L 275.250979 -87.800549 
L 275.250979 -86.440014 
L 277.815559 -86.440014 
L 277.815559 -83.734148 
L 288.073879 -83.734148 
L 288.073879 -81.049977 
L 290.638459 -81.049977 
L 290.638459 -78.389467 
L 295.767619 -78.389467 
L 295.767619 -77.068795 
L 298.332199 -77.068795 
L 298.332199 -75.754942 
L 300.896779 -75.754942 
L 300.896779 -74.448272 
L 313.719679 -74.448272 
L 313.719679 -71.858117 
L 316.284259 -71.858117 
L 316.284259 -70.575564 
L 323.977999 -70.575564 
L 323.977999 -65.542485 
L 329.107159 -65.542485 
L 329.107159 -64.312218 
L 334.236319 -64.312218 
L 334.236319 -63.095025 
L 344.494639 -63.095025 
L 344.494639 -61.892099 
L 352.188379 -61.892099 
L 352.188379 -59.534914 
L 354.752959 -59.534914 
L 354.752959 -58.384305 
L 367.575859 -58.384305 
L 367.575859 -57.255439 
L 370.140439 -57.255439 
L 370.140439 -56.151314 
L 375.269599 -56.151314 
L 375.269599 -55.075723 
L 408.609139 -55.075723 
L 408.609139 -53.031421 
L 434.254938 -53.031421 
L 434.254938 -52.078363 
L 462.465318 -52.078363 
L 462.465318 -51.187675 
L 482.981958 -51.187675 
L 482.981958 -50.380131 
L 488.111118 -50.380131 
L 488.111118 -49.691649 
L 495.804858 -49.691649 
L 495.804858 -49.194627 
L 500.934018 -49.194627 
L 500.934018 -49.04 
L 500.934018 -49.04 
L 500.934018 -49.04 
L 500.934018 -57.412145 
L 495.804858 -57.412145 
L 495.804858 -59.733675 
L 488.111118 -59.733675 
L 488.111118 -62.066553 
L 482.981958 -62.066553 
L 482.981958 -64.334085 
L 462.465318 -64.334085 
L 462.465318 -66.542117 
L 434.254938 -66.542117 
L 434.254938 -68.700991 
L 408.609139 -68.700991 
L 408.609139 -72.903486 
L 375.269599 -72.903486 
L 375.269599 -74.958725 
L 370.140439 -74.958725 
L 370.140439 -76.988911 
L 367.575859 -76.988911 
L 367.575859 -78.997166 
L 354.752959 -78.997166 
L 354.752959 -80.986011 
L 352.188379 -80.986011 
L 352.188379 -84.913378 
L 344.494639 -84.913378 
L 344.494639 -86.855059 
L 334.236319 -86.855059 
L 334.236319 -88.783779 
L 329.107159 -88.783779 
L 329.107159 -90.700592 
L 323.977999 -90.700592 
L 323.977999 -98.265372 
L 316.284259 -98.265372 
L 316.284259 -100.134272 
L 313.719679 -100.134272 
L 313.719679 -103.848989 
L 300.896779 -103.848989 
L 300.896779 -105.695648 
L 298.332199 -105.695648 
L 298.332199 -107.535666 
L 295.767619 -107.535666 
L 295.767619 -109.369373 
L 290.638459 -109.369373 
L 290.638459 -113.019028 
L 288.073879 -113.019028 
L 288.073879 -116.646723 
L 277.815559 -116.646723 
L 277.815559 -120.254248 
L 275.250979 -120.254248 
L 275.250979 -122.050934 
L 272.686399 -122.050934 
L 272.686399 -125.631011 
L 270.121819 -125.631011 
L 270.121819 -129.194373 
L 267.557239 -129.194373 
L 267.557239 -132.742098 
L 262.428079 -132.742098 
L 262.428079 -134.510399 
L 259.863499 -134.510399 
L 259.863499 -136.275139 
L 252.169759 -136.275139 
L 252.169759 -139.794337 
L 249.605179 -139.794337 
L 249.605179 -150.275988 
L 247.040599 -150.275988 
L 247.040599 -155.477801 
L 244.476019 -155.477801 
L 244.476019 -162.376857 
L 241.911439 -162.376857 
L 241.911439 -164.095417 
L 239.346859 -164.095417 
L 239.346859 -170.94622 
L 236.782279 -170.94622 
L 236.782279 -174.358127 
L 234.217699 -174.358127 
L 234.217699 -181.156409 
L 231.653119 -181.156409 
L 231.653119 -186.233785 
L 229.088539 -186.233785 
L 229.088539 -191.293728 
L 226.523959 -191.293728 
L 226.523959 -198.014367 
L 221.394799 -198.014367 
L 221.394799 -201.363968 
L 218.830219 -201.363968 
L 218.830219 -209.707979 
L 216.265639 -209.707979 
L 216.265639 -211.371783 
L 213.701059 -211.371783 
L 213.701059 -219.666686 
L 211.136479 -219.666686 
L 211.136479 -227.922674 
L 208.571899 -227.922674 
L 208.571899 -234.500478 
L 206.007319 -234.500478 
L 206.007319 -237.780619 
L 203.442739 -237.780619 
L 203.442739 -245.956017 
L 200.878159 -245.956017 
L 200.878159 -250.84447 
L 198.313579 -250.84447 
L 198.313579 -258.964535 
L 195.748999 -258.964535 
L 195.748999 -276.711407 
L 193.184419 -276.711407 
L 193.184419 -302.245548 
L 190.619839 -302.245548 
L 190.619839 -310.158023 
L 188.055259 -310.158023 
L 188.055259 -313.314095 
L 185.49068 -313.314095 
L 185.49068 -325.887167 
L 182.9261 -325.887167 
L 182.9261 -332.142726 
L 180.36152 -332.142726 
L 180.36152 -341.486772 
L 177.79694 -341.486772 
L 177.79694 -352.327395 
L 175.23236 -352.327395 
L 175.23236 -370.753128 
L 172.66778 -370.753128 
L 172.66778 -394.985654 
L 170.1032 -394.985654 
L 170.1032 -402.47221 
L 167.53862 -402.47221 
L 167.53862 -406.942773 
L 164.97404 -406.942773 
L 164.97404 -418.780494 
L 162.40946 -418.780494 
L 162.40946 -427.57208 
L 159.84488 -427.57208 
L 159.84488 -434.835535 
L 157.2803 -434.835535 
L 157.2803 -446.322924 
L 154.71572 -446.322924 
L 154.71572 -451.996527 
L 152.15114 -451.996527 
L 152.15114 -457.616746 
L 149.58656 -457.616746 
L 149.58656 -464.556818 
L 147.02198 -464.556818 
L 147.02198 -470.030165 
L 144.4574 -470.030165 
L 144.4574 -475.420984 
L 141.89282 -475.420984 
L 141.89282 -478.08063 
L 139.32824 -478.08063 
L 139.32824 -487.153203 
L 136.76366 -487.153203 
L 136.76366 -493.326862 
L 134.19908 -493.326862 
L 134.19908 -494.51866 
L 131.6345 -494.51866 
L 131.6345 -496.846231 
L 129.06992 -496.846231 
L 129.06992 -500.155337 
L 126.50534 -500.155337 
L 126.50534 -502.184608 
L 123.94076 -502.184608 
L 123.94076 -503.119993 
L 121.37618 -503.119993 
L 121.37618 -503.979903 
L 116.24702 -503.979903 
L 116.24702 -504.731942 
L 105.9887 -504.731942 
L 105.9887 -505.309271 
L 93.1658 -505.309271 
L 93.1658 -505.535238 
L 67.52 -505.535238 
z
" style="stroke: #ffa500; stroke-opacity: 0.25"/>
    </defs>
    <g clip-path="url(#paa5bf65bf6)">
     <use xlink:href="#m2473cc5b52" x="0" y="576" style="fill: #ffa500; fill-opacity: 0.25; stroke: #ffa500; stroke-opacity: 0.25"/>
    </g>
   </g>
   <g id="matplotlib.axis_1">
    <g id="xtick_1">
     <g id="line2d_1">
      <path d="M 67.52 526.96 
L 67.52 47.64 
" clip-path="url(#paa5bf65bf6)" style="fill: none; stroke-dasharray: 2.96,1.28; stroke-dashoffset: 0; stroke: #b0b0b0; stroke-opacity: 0.6; stroke-width: 0.8"/>
     </g>
     <g id="line2d_2">
      <defs>
       <path id="m1d18c2552a" d="M 0 0 
L 0 3.5 
" style="stroke: #000000; stroke-width: 0.8"/>
      </defs>
      <g>
       <use xlink:href="#m1d18c2552a" x="67.52" y="526.96" style="stroke: #000000; stroke-width: 0.8"/>
      </g>
     </g>
     <g id="text_1">
      <!-- 0 -->
      <g transform="translate(64.33875 541.558437) scale(0.1 -0.1)">
       <defs>
        <path id="DejaVuSans-30" d="M 2034 4250 
Q 1547 4250 1301 3770 
Q 1056 3291 1056 2328 
Q 1056 1369 1301 889 
Q 1547 409 2034 409 
Q 2525 409 2770 889 
Q 3016 1369 3016 2328 
Q 3016 3291 2770 3770 
Q 2525 4250 2034 4250 
z
M 2034 4750 
Q 2819 4750 3233 4129 
Q 3647 3509 3647 2328 
Q 3647 1150 3233 529 
Q 2819 -91 2034 -91 
Q 1250 -91 836 529 
Q 422 1150 422 2328 
Q 422 3509 836 4129 
Q 1250 4750 2034 4750 
z
" transform="scale(0.015625)"/>
       </defs>
       <use xlink:href="#DejaVuSans-30"/>
      </g>
     </g>
    </g>
    <g id="xtick_2">
     <g id="line2d_3">
      <path d="M 131.6345 526.96 
L 131.6345 47.64 
" clip-path="url(#paa5bf65bf6)" style="fill: none; stroke-dasharray: 2.96,1.28; stroke-dashoffset: 0; stroke: #b0b0b0; stroke-opacity: 0.6; stroke-width: 0.8"/>
     </g>
     <g id="line2d_4">
      <g>
       <use xlink:href="#m1d18c2552a" x="131.6345" y="526.96" style="stroke: #000000; stroke-width: 0.8"/>
      </g>
     </g>
     <g id="text_2">
      <!-- 25 -->
      <g transform="translate(125.272 541.558437) scale(0.1 -0.1)">
       <defs>
        <path id="DejaVuSans-32" d="M 1228 531 
L 3431 531 
L 3431 0 
L 469 0 
L 469 531 
Q 828 903 1448 1529 
Q 2069 2156 2228 2338 
Q 2531 2678 2651 2914 
Q 2772 3150 2772 3378 
Q 2772 3750 2511 3984 
Q 2250 4219 1831 4219 
Q 1534 4219 1204 4116 
Q 875 4013 500 3803 
L 500 4441 
Q 881 4594 1212 4672 
Q 1544 4750 1819 4750 
Q 2544 4750 2975 4387 
Q 3406 4025 3406 3419 
Q 3406 3131 3298 2873 
Q 3191 2616 2906 2266 
Q 2828 2175 2409 1742 
Q 1991 1309 1228 531 
z
" transform="scale(0.015625)"/>
        <path id="DejaVuSans-35" d="M 691 4666 
L 3169 4666 
L 3169 4134 
L 1269 4134 
L 1269 2991 
Q 1406 3038 1543 3061 
Q 1681 3084 1819 3084 
Q 2600 3084 3056 2656 
Q 3513 2228 3513 1497 
Q 3513 744 3044 326 
Q 2575 -91 1722 -91 
Q 1428 -91 1123 -41 
Q 819 9 494 109 
L 494 744 
Q 775 591 1075 516 
Q 1375 441 1709 441 
Q 2250 441 2565 725 
Q 2881 1009 2881 1497 
Q 2881 1984 2565 2268 
Q 2250 2553 1709 2553 
Q 1456 2553 1204 2497 
Q 953 2441 691 2322 
L 691 4666 
z
" transform="scale(0.015625)"/>
       </defs>
       <use xlink:href="#DejaVuSans-32"/>
       <use xlink:href="#DejaVuSans-35" transform="translate(63.623047 0)"/>
      </g>
     </g>
    </g>
    <g id="xtick_3">
     <g id="line2d_5">
      <path d="M 195.748999 526.96 
L 195.748999 47.64 
" clip-path="url(#paa5bf65bf6)" style="fill: none; stroke-dasharray: 2.96,1.28; stroke-dashoffset: 0; stroke: #b0b0b0; stroke-opacity: 0.6; stroke-width: 0.8"/>
     </g>
     <g id="line2d_6">
      <g>
       <use xlink:href="#m1d18c2552a" x="195.748999" y="526.96" style="stroke: #000000; stroke-width: 0.8"/>
      </g>
     </g>
     <g id="text_3">
      <!-- 50 -->
      <g transform="translate(189.386499 541.558437) scale(0.1 -0.1)">
       <use xlink:href="#DejaVuSans-35"/>
       <use xlink:href="#DejaVuSans-30" transform="translate(63.623047 0)"/>
      </g>
     </g>
    </g>
    <g id="xtick_4">
     <g id="line2d_7">
      <path d="M 259.863499 526.96 
L 259.863499 47.64 
" clip-path="url(#paa5bf65bf6)" style="fill: none; stroke-dasharray: 2.96,1.28; stroke-dashoffset: 0; stroke: #b0b0b0; stroke-opacity: 0.6; stroke-width: 0.8"/>
     </g>
     <g id="line2d_8">
      <g>
       <use xlink:href="#m1d18c2552a" x="259.863499" y="526.96" style="stroke: #000000; stroke-width: 0.8"/>
      </g>
     </g>
     <g id="text_4">
      <!-- 75 -->
      <g transform="translate(253.500999 541.558437) scale(0.1 -0.1)">
       <defs>
        <path id="DejaVuSans-37" d="M 525 4666 
L 3525 4666 
L 3525 4397 
L 1831 0 
L 1172 0 
L 2766 4134 
L 525 4134 
L 525 4666 
z
" transform="scale(0.015625)"/>
       </defs>
       <use xlink:href="#DejaVuSans-37"/>
       <use xlink:href="#DejaVuSans-35" transform="translate(63.623047 0)"/>
      </g>
     </g>
    </g>
    <g id="xtick_5">
     <g id="line2d_9">
      <path d="M 323.977999 526.96 
L 323.977999 47.64 
" clip-path="url(#paa5bf65bf6)" style="fill: none; stroke-dasharray: 2.96,1.28; stroke-dashoffset: 0; stroke: #b0b0b0; stroke-opacity: 0.6; stroke-width: 0.8"/>
     </g>
     <g id="line2d_10">
      <g>
       <use xlink:href="#m1d18c2552a" x="323.977999" y="526.96" style="stroke: #000000; stroke-width: 0.8"/>
      </g>
     </g>
     <g id="text_5">
      <!-- 100 -->
      <g transform="translate(314.434249 541.558437) scale(0.1 -0.1)">
       <defs>
        <path id="DejaVuSans-31" d="M 794 531 
L 1825 531 
L 1825 4091 
L 703 3866 
L 703 4441 
L 1819 4666 
L 2450 4666 
L 2450 531 
L 3481 531 
L 3481 0 
L 794 0 
L 794 531 
z
" transform="scale(0.015625)"/>
       </defs>
       <use xlink:href="#DejaVuSans-31"/>
       <use xlink:href="#DejaVuSans-30" transform="translate(63.623047 0)"/>
       <use xlink:href="#DejaVuSans-30" transform="translate(127.246094 0)"/>
      </g>
     </g>
    </g>
    <g id="xtick_6">
     <g id="line2d_11">
      <path d="M 388.092499 526.96 
L 388.092499 47.64 
" clip-path="url(#paa5bf65bf6)" style="fill: none; stroke-dasharray: 2.96,1.28; stroke-dashoffset: 0; stroke: #b0b0b0; stroke-opacity: 0.6; stroke-width: 0.8"/>
     </g>
     <g id="line2d_12">
      <g>
       <use xlink:href="#m1d18c2552a" x="388.092499" y="526.96" style="stroke: #000000; stroke-width: 0.8"/>
      </g>
     </g>
     <g id="text_6">
      <!-- 125 -->
      <g transform="translate(378.548749 541.558437) scale(0.1 -0.1)">
       <use xlink:href="#DejaVuSans-31"/>
       <use xlink:href="#DejaVuSans-32" transform="translate(63.623047 0)"/>
       <use xlink:href="#DejaVuSans-35" transform="translate(127.246094 0)"/>
      </g>
     </g>
    </g>
    <g id="xtick_7">
     <g id="line2d_13">
      <path d="M 452.206998 526.96 
L 452.206998 47.64 
" clip-path="url(#paa5bf65bf6)" style="fill: none; stroke-dasharray: 2.96,1.28; stroke-dashoffset: 0; stroke: #b0b0b0; stroke-opacity: 0.6; stroke-width: 0.8"/>
     </g>
     <g id="line2d_14">
      <g>
       <use xlink:href="#m1d18c2552a" x="452.206998" y="526.96" style="stroke: #000000; stroke-width: 0.8"/>
      </g>
     </g>
     <g id="text_7">
      <!-- 150 -->
      <g transform="translate(442.663248 541.558437) scale(0.1 -0.1)">
       <use xlink:href="#DejaVuSans-31"/>
       <use xlink:href="#DejaVuSans-35" transform="translate(63.623047 0)"/>
       <use xlink:href="#DejaVuSans-30" transform="translate(127.246094 0)"/>
      </g>
     </g>
    </g>
    <g id="xtick_8">
     <g id="line2d_15">
      <path d="M 516.321498 526.96 
L 516.321498 47.64 
" clip-path="url(#paa5bf65bf6)" style="fill: none; stroke-dasharray: 2.96,1.28; stroke-dashoffset: 0; stroke: #b0b0b0; stroke-opacity: 0.6; stroke-width: 0.8"/>
     </g>
     <g id="line2d_16">
      <g>
       <use xlink:href="#m1d18c2552a" x="516.321498" y="526.96" style="stroke: #000000; stroke-width: 0.8"/>
      </g>
     </g>
     <g id="text_8">
      <!-- 175 -->
      <g transform="translate(506.777748 541.558437) scale(0.1 -0.1)">
       <use xlink:href="#DejaVuSans-31"/>
       <use xlink:href="#DejaVuSans-37" transform="translate(63.623047 0)"/>
       <use xlink:href="#DejaVuSans-35" transform="translate(127.246094 0)"/>
      </g>
     </g>
    </g>
    <g id="text_9">
     <!-- Days -->
     <g transform="translate(292.20625 556.75625) scale(0.12 -0.12)">
      <defs>
       <path id="DejaVuSans-44" d="M 1259 4147 
L 1259 519 
L 2022 519 
Q 2988 519 3436 956 
Q 3884 1394 3884 2338 
Q 3884 3275 3436 3711 
Q 2988 4147 2022 4147 
L 1259 4147 
z
M 628 4666 
L 1925 4666 
Q 3281 4666 3915 4102 
Q 4550 3538 4550 2338 
Q 4550 1131 3912 565 
Q 3275 0 1925 0 
L 628 0 
L 628 4666 
z
" transform="scale(0.015625)"/>
       <path id="DejaVuSans-61" d="M 2194 1759 
Q 1497 1759 1228 1600 
Q 959 1441 959 1056 
Q 959 750 1161 570 
Q 1363 391 1709 391 
Q 2188 391 2477 730 
Q 2766 1069 2766 1631 
L 2766 1759 
L 2194 1759 
z
M 3341 1997 
L 3341 0 
L 2766 0 
L 2766 531 
Q 2569 213 2275 61 
Q 1981 -91 1556 -91 
Q 1019 -91 701 211 
Q 384 513 384 1019 
Q 384 1609 779 1909 
Q 1175 2209 1959 2209 
L 2766 2209 
L 2766 2266 
Q 2766 2663 2505 2880 
Q 2244 3097 1772 3097 
Q 1472 3097 1187 3025 
Q 903 2953 641 2809 
L 641 3341 
Q 956 3463 1253 3523 
Q 1550 3584 1831 3584 
Q 2591 3584 2966 3190 
Q 3341 2797 3341 1997 
z
" transform="scale(0.015625)"/>
       <path id="DejaVuSans-79" d="M 2059 -325 
Q 1816 -950 1584 -1140 
Q 1353 -1331 966 -1331 
L 506 -1331 
L 506 -850 
L 844 -850 
Q 1081 -850 1212 -737 
Q 1344 -625 1503 -206 
L 1606 56 
L 191 3500 
L 800 3500 
L 1894 763 
L 2988 3500 
L 3597 3500 
L 2059 -325 
z
" transform="scale(0.015625)"/>
       <path id="DejaVuSans-73" d="M 2834 3397 
L 2834 2853 
Q 2591 2978 2328 3040 
Q 2066 3103 1784 3103 
Q 1356 3103 1142 2972 
Q 928 2841 928 2578 
Q 928 2378 1081 2264 
Q 1234 2150 1697 2047 
L 1894 2003 
Q 2506 1872 2764 1633 
Q 3022 1394 3022 966 
Q 3022 478 2636 193 
Q 2250 -91 1575 -91 
Q 1294 -91 989 -36 
Q 684 19 347 128 
L 347 722 
Q 666 556 975 473 
Q 1284 391 1588 391 
Q 1994 391 2212 530 
Q 2431 669 2431 922 
Q 2431 1156 2273 1281 
Q 2116 1406 1581 1522 
L 1381 1569 
Q 847 1681 609 1914 
Q 372 2147 372 2553 
Q 372 3047 722 3315 
Q 1072 3584 1716 3584 
Q 2034 3584 2315 3537 
Q 2597 3491 2834 3397 
z
" transform="scale(0.015625)"/>
      </defs>
      <use xlink:href="#DejaVuSans-44"/>
      <use xlink:href="#DejaVuSans-61" transform="translate(77.001953 0)"/>
      <use xlink:href="#DejaVuSans-79" transform="translate(138.28125 0)"/>
      <use xlink:href="#DejaVuSans-73" transform="translate(197.460938 0)"/>
     </g>
    </g>
   </g>
   <g id="matplotlib.axis_2">
    <g id="ytick_1">
     <g id="line2d_17">
      <path d="M 67.52 526.96 
L 546.84 526.96 
" clip-path="url(#paa5bf65bf6)" style="fill: none; stroke-dasharray: 2.96,1.28; stroke-dashoffset: 0; stroke: #b0b0b0; stroke-opacity: 0.6; stroke-width: 0.8"/>
     </g>
     <g id="line2d_18">
      <defs>
       <path id="mf2252c5b64" d="M 0 0 
L -3.5 0 
" style="stroke: #000000; stroke-width: 0.8"/>
      </defs>
      <g>
       <use xlink:href="#mf2252c5b64" x="67.52" y="526.96" style="stroke: #000000; stroke-width: 0.8"/>
      </g>
     </g>
     <g id="text_10">
      <!-- 0.0 -->
      <g transform="translate(44.616875 530.759219) scale(0.1 -0.1)">
       <defs>
        <path id="DejaVuSans-2e" d="M 684 794 
L 1344 794 
L 1344 0 
L 684 0 
L 684 794 
z
" transform="scale(0.015625)"/>
       </defs>
       <use xlink:href="#DejaVuSans-30"/>
       <use xlink:href="#DejaVuSans-2e" transform="translate(63.623047 0)"/>
       <use xlink:href="#DejaVuSans-30" transform="translate(95.410156 0)"/>
      </g>
     </g>
    </g>
    <g id="ytick_2">
     <g id="line2d_19">
      <path d="M 67.52 435.660952 
L 546.84 435.660952 
" clip-path="url(#paa5bf65bf6)" style="fill: none; stroke-dasharray: 2.96,1.28; stroke-dashoffset: 0; stroke: #b0b0b0; stroke-opacity: 0.6; stroke-width: 0.8"/>
     </g>
     <g id="line2d_20">
      <g>
       <use xlink:href="#mf2252c5b64" x="67.52" y="435.660952" style="stroke: #000000; stroke-width: 0.8"/>
      </g>
     </g>
     <g id="text_11">
      <!-- 0.2 -->
      <g transform="translate(44.616875 439.460171) scale(0.1 -0.1)">
       <use xlink:href="#DejaVuSans-30"/>
       <use xlink:href="#DejaVuSans-2e" transform="translate(63.623047 0)"/>
       <use xlink:href="#DejaVuSans-32" transform="translate(95.410156 0)"/>
      </g>
     </g>
    </g>
    <g id="ytick_3">
     <g id="line2d_21">
      <path d="M 67.52 344.361905 
L 546.84 344.361905 
" clip-path="url(#paa5bf65bf6)" style="fill: none; stroke-dasharray: 2.96,1.28; stroke-dashoffset: 0; stroke: #b0b0b0; stroke-opacity: 0.6; stroke-width: 0.8"/>
     </g>
     <g id="line2d_22">
      <g>
       <use xlink:href="#mf2252c5b64" x="67.52" y="344.361905" style="stroke: #000000; stroke-width: 0.8"/>
      </g>
     </g>
     <g id="text_12">
      <!-- 0.4 -->
      <g transform="translate(44.616875 348.161124) scale(0.1 -0.1)">
       <defs>
        <path id="DejaVuSans-34" d="M 2419 4116 
L 825 1625 
L 2419 1625 
L 2419 4116 
z
M 2253 4666 
L 3047 4666 
L 3047 1625 
L 3713 1625 
L 3713 1100 
L 3047 1100 
L 3047 0 
L 2419 0 
L 2419 1100 
L 313 1100 
L 313 1709 
L 2253 4666 
z
" transform="scale(0.015625)"/>
       </defs>
       <use xlink:href="#DejaVuSans-30"/>
       <use xlink:href="#DejaVuSans-2e" transform="translate(63.623047 0)"/>
       <use xlink:href="#DejaVuSans-34" transform="translate(95.410156 0)"/>
      </g>
     </g>
    </g>
    <g id="ytick_4">
     <g id="line2d_23">
      <path d="M 67.52 253.062857 
L 546.84 253.062857 
" clip-path="url(#paa5bf65bf6)" style="fill: none; stroke-dasharray: 2.96,1.28; stroke-dashoffset: 0; stroke: #b0b0b0; stroke-opacity: 0.6; stroke-width: 0.8"/>
     </g>
     <g id="line2d_24">
      <g>
       <use xlink:href="#mf2252c5b64" x="67.52" y="253.062857" style="stroke: #000000; stroke-width: 0.8"/>
      </g>
     </g>
     <g id="text_13">
      <!-- 0.6 -->
      <g transform="translate(44.616875 256.862076) scale(0.1 -0.1)">
       <defs>
        <path id="DejaVuSans-36" d="M 2113 2584 
Q 1688 2584 1439 2293 
Q 1191 2003 1191 1497 
Q 1191 994 1439 701 
Q 1688 409 2113 409 
Q 2538 409 2786 701 
Q 3034 994 3034 1497 
Q 3034 2003 2786 2293 
Q 2538 2584 2113 2584 
z
M 3366 4563 
L 3366 3988 
Q 3128 4100 2886 4159 
Q 2644 4219 2406 4219 
Q 1781 4219 1451 3797 
Q 1122 3375 1075 2522 
Q 1259 2794 1537 2939 
Q 1816 3084 2150 3084 
Q 2853 3084 3261 2657 
Q 3669 2231 3669 1497 
Q 3669 778 3244 343 
Q 2819 -91 2113 -91 
Q 1303 -91 875 529 
Q 447 1150 447 2328 
Q 447 3434 972 4092 
Q 1497 4750 2381 4750 
Q 2619 4750 2861 4703 
Q 3103 4656 3366 4563 
z
" transform="scale(0.015625)"/>
       </defs>
       <use xlink:href="#DejaVuSans-30"/>
       <use xlink:href="#DejaVuSans-2e" transform="translate(63.623047 0)"/>
       <use xlink:href="#DejaVuSans-36" transform="translate(95.410156 0)"/>
      </g>
     </g>
    </g>
    <g id="ytick_5">
     <g id="line2d_25">
      <path d="M 67.52 161.76381 
L 546.84 161.76381 
" clip-path="url(#paa5bf65bf6)" style="fill: none; stroke-dasharray: 2.96,1.28; stroke-dashoffset: 0; stroke: #b0b0b0; stroke-opacity: 0.6; stroke-width: 0.8"/>
     </g>
     <g id="line2d_26">
      <g>
       <use xlink:href="#mf2252c5b64" x="67.52" y="161.76381" style="stroke: #000000; stroke-width: 0.8"/>
      </g>
     </g>
     <g id="text_14">
      <!-- 0.8 -->
      <g transform="translate(44.616875 165.563028) scale(0.1 -0.1)">
       <defs>
        <path id="DejaVuSans-38" d="M 2034 2216 
Q 1584 2216 1326 1975 
Q 1069 1734 1069 1313 
Q 1069 891 1326 650 
Q 1584 409 2034 409 
Q 2484 409 2743 651 
Q 3003 894 3003 1313 
Q 3003 1734 2745 1975 
Q 2488 2216 2034 2216 
z
M 1403 2484 
Q 997 2584 770 2862 
Q 544 3141 544 3541 
Q 544 4100 942 4425 
Q 1341 4750 2034 4750 
Q 2731 4750 3128 4425 
Q 3525 4100 3525 3541 
Q 3525 3141 3298 2862 
Q 3072 2584 2669 2484 
Q 3125 2378 3379 2068 
Q 3634 1759 3634 1313 
Q 3634 634 3220 271 
Q 2806 -91 2034 -91 
Q 1263 -91 848 271 
Q 434 634 434 1313 
Q 434 1759 690 2068 
Q 947 2378 1403 2484 
z
M 1172 3481 
Q 1172 3119 1398 2916 
Q 1625 2713 2034 2713 
Q 2441 2713 2670 2916 
Q 2900 3119 2900 3481 
Q 2900 3844 2670 4047 
Q 2441 4250 2034 4250 
Q 1625 4250 1398 4047 
Q 1172 3844 1172 3481 
z
" transform="scale(0.015625)"/>
       </defs>
       <use xlink:href="#DejaVuSans-30"/>
       <use xlink:href="#DejaVuSans-2e" transform="translate(63.623047 0)"/>
       <use xlink:href="#DejaVuSans-38" transform="translate(95.410156 0)"/>
      </g>
     </g>
    </g>
    <g id="ytick_6">
     <g id="line2d_27">
      <path d="M 67.52 70.464762 
L 546.84 70.464762 
" clip-path="url(#paa5bf65bf6)" style="fill: none; stroke-dasharray: 2.96,1.28; stroke-dashoffset: 0; stroke: #b0b0b0; stroke-opacity: 0.6; stroke-width: 0.8"/>
     </g>
     <g id="line2d_28">
      <g>
       <use xlink:href="#mf2252c5b64" x="67.52" y="70.464762" style="stroke: #000000; stroke-width: 0.8"/>
      </g>
     </g>
     <g id="text_15">
      <!-- 1.0 -->
      <g transform="translate(44.616875 74.263981) scale(0.1 -0.1)">
       <use xlink:href="#DejaVuSans-31"/>
       <use xlink:href="#DejaVuSans-2e" transform="translate(63.623047 0)"/>
       <use xlink:href="#DejaVuSans-30" transform="translate(95.410156 0)"/>
      </g>
     </g>
    </g>
    <g id="text_16">
     <!-- Probability of weight loss target achievement -->
     <g transform="translate(38.12125 423.46625) rotate(-90) scale(0.12 -0.12)">
      <defs>
       <path id="DejaVuSans-50" d="M 1259 4147 
L 1259 2394 
L 2053 2394 
Q 2494 2394 2734 2622 
Q 2975 2850 2975 3272 
Q 2975 3691 2734 3919 
Q 2494 4147 2053 4147 
L 1259 4147 
z
M 628 4666 
L 2053 4666 
Q 2838 4666 3239 4311 
Q 3641 3956 3641 3272 
Q 3641 2581 3239 2228 
Q 2838 1875 2053 1875 
L 1259 1875 
L 1259 0 
L 628 0 
L 628 4666 
z
" transform="scale(0.015625)"/>
       <path id="DejaVuSans-72" d="M 2631 2963 
Q 2534 3019 2420 3045 
Q 2306 3072 2169 3072 
Q 1681 3072 1420 2755 
Q 1159 2438 1159 1844 
L 1159 0 
L 581 0 
L 581 3500 
L 1159 3500 
L 1159 2956 
Q 1341 3275 1631 3429 
Q 1922 3584 2338 3584 
Q 2397 3584 2469 3576 
Q 2541 3569 2628 3553 
L 2631 2963 
z
" transform="scale(0.015625)"/>
       <path id="DejaVuSans-6f" d="M 1959 3097 
Q 1497 3097 1228 2736 
Q 959 2375 959 1747 
Q 959 1119 1226 758 
Q 1494 397 1959 397 
Q 2419 397 2687 759 
Q 2956 1122 2956 1747 
Q 2956 2369 2687 2733 
Q 2419 3097 1959 3097 
z
M 1959 3584 
Q 2709 3584 3137 3096 
Q 3566 2609 3566 1747 
Q 3566 888 3137 398 
Q 2709 -91 1959 -91 
Q 1206 -91 779 398 
Q 353 888 353 1747 
Q 353 2609 779 3096 
Q 1206 3584 1959 3584 
z
" transform="scale(0.015625)"/>
       <path id="DejaVuSans-62" d="M 3116 1747 
Q 3116 2381 2855 2742 
Q 2594 3103 2138 3103 
Q 1681 3103 1420 2742 
Q 1159 2381 1159 1747 
Q 1159 1113 1420 752 
Q 1681 391 2138 391 
Q 2594 391 2855 752 
Q 3116 1113 3116 1747 
z
M 1159 2969 
Q 1341 3281 1617 3432 
Q 1894 3584 2278 3584 
Q 2916 3584 3314 3078 
Q 3713 2572 3713 1747 
Q 3713 922 3314 415 
Q 2916 -91 2278 -91 
Q 1894 -91 1617 61 
Q 1341 213 1159 525 
L 1159 0 
L 581 0 
L 581 4863 
L 1159 4863 
L 1159 2969 
z
" transform="scale(0.015625)"/>
       <path id="DejaVuSans-69" d="M 603 3500 
L 1178 3500 
L 1178 0 
L 603 0 
L 603 3500 
z
M 603 4863 
L 1178 4863 
L 1178 4134 
L 603 4134 
L 603 4863 
z
" transform="scale(0.015625)"/>
       <path id="DejaVuSans-6c" d="M 603 4863 
L 1178 4863 
L 1178 0 
L 603 0 
L 603 4863 
z
" transform="scale(0.015625)"/>
       <path id="DejaVuSans-74" d="M 1172 4494 
L 1172 3500 
L 2356 3500 
L 2356 3053 
L 1172 3053 
L 1172 1153 
Q 1172 725 1289 603 
Q 1406 481 1766 481 
L 2356 481 
L 2356 0 
L 1766 0 
Q 1100 0 847 248 
Q 594 497 594 1153 
L 594 3053 
L 172 3053 
L 172 3500 
L 594 3500 
L 594 4494 
L 1172 4494 
z
" transform="scale(0.015625)"/>
       <path id="DejaVuSans-20" transform="scale(0.015625)"/>
       <path id="DejaVuSans-66" d="M 2375 4863 
L 2375 4384 
L 1825 4384 
Q 1516 4384 1395 4259 
Q 1275 4134 1275 3809 
L 1275 3500 
L 2222 3500 
L 2222 3053 
L 1275 3053 
L 1275 0 
L 697 0 
L 697 3053 
L 147 3053 
L 147 3500 
L 697 3500 
L 697 3744 
Q 697 4328 969 4595 
Q 1241 4863 1831 4863 
L 2375 4863 
z
" transform="scale(0.015625)"/>
       <path id="DejaVuSans-77" d="M 269 3500 
L 844 3500 
L 1563 769 
L 2278 3500 
L 2956 3500 
L 3675 769 
L 4391 3500 
L 4966 3500 
L 4050 0 
L 3372 0 
L 2619 2869 
L 1863 0 
L 1184 0 
L 269 3500 
z
" transform="scale(0.015625)"/>
       <path id="DejaVuSans-65" d="M 3597 1894 
L 3597 1613 
L 953 1613 
Q 991 1019 1311 708 
Q 1631 397 2203 397 
Q 2534 397 2845 478 
Q 3156 559 3463 722 
L 3463 178 
Q 3153 47 2828 -22 
Q 2503 -91 2169 -91 
Q 1331 -91 842 396 
Q 353 884 353 1716 
Q 353 2575 817 3079 
Q 1281 3584 2069 3584 
Q 2775 3584 3186 3129 
Q 3597 2675 3597 1894 
z
M 3022 2063 
Q 3016 2534 2758 2815 
Q 2500 3097 2075 3097 
Q 1594 3097 1305 2825 
Q 1016 2553 972 2059 
L 3022 2063 
z
" transform="scale(0.015625)"/>
       <path id="DejaVuSans-67" d="M 2906 1791 
Q 2906 2416 2648 2759 
Q 2391 3103 1925 3103 
Q 1463 3103 1205 2759 
Q 947 2416 947 1791 
Q 947 1169 1205 825 
Q 1463 481 1925 481 
Q 2391 481 2648 825 
Q 2906 1169 2906 1791 
z
M 3481 434 
Q 3481 -459 3084 -895 
Q 2688 -1331 1869 -1331 
Q 1566 -1331 1297 -1286 
Q 1028 -1241 775 -1147 
L 775 -588 
Q 1028 -725 1275 -790 
Q 1522 -856 1778 -856 
Q 2344 -856 2625 -561 
Q 2906 -266 2906 331 
L 2906 616 
Q 2728 306 2450 153 
Q 2172 0 1784 0 
Q 1141 0 747 490 
Q 353 981 353 1791 
Q 353 2603 747 3093 
Q 1141 3584 1784 3584 
Q 2172 3584 2450 3431 
Q 2728 3278 2906 2969 
L 2906 3500 
L 3481 3500 
L 3481 434 
z
" transform="scale(0.015625)"/>
       <path id="DejaVuSans-68" d="M 3513 2113 
L 3513 0 
L 2938 0 
L 2938 2094 
Q 2938 2591 2744 2837 
Q 2550 3084 2163 3084 
Q 1697 3084 1428 2787 
Q 1159 2491 1159 1978 
L 1159 0 
L 581 0 
L 581 4863 
L 1159 4863 
L 1159 2956 
Q 1366 3272 1645 3428 
Q 1925 3584 2291 3584 
Q 2894 3584 3203 3211 
Q 3513 2838 3513 2113 
z
" transform="scale(0.015625)"/>
       <path id="DejaVuSans-63" d="M 3122 3366 
L 3122 2828 
Q 2878 2963 2633 3030 
Q 2388 3097 2138 3097 
Q 1578 3097 1268 2742 
Q 959 2388 959 1747 
Q 959 1106 1268 751 
Q 1578 397 2138 397 
Q 2388 397 2633 464 
Q 2878 531 3122 666 
L 3122 134 
Q 2881 22 2623 -34 
Q 2366 -91 2075 -91 
Q 1284 -91 818 406 
Q 353 903 353 1747 
Q 353 2603 823 3093 
Q 1294 3584 2113 3584 
Q 2378 3584 2631 3529 
Q 2884 3475 3122 3366 
z
" transform="scale(0.015625)"/>
       <path id="DejaVuSans-76" d="M 191 3500 
L 800 3500 
L 1894 563 
L 2988 3500 
L 3597 3500 
L 2284 0 
L 1503 0 
L 191 3500 
z
" transform="scale(0.015625)"/>
       <path id="DejaVuSans-6d" d="M 3328 2828 
Q 3544 3216 3844 3400 
Q 4144 3584 4550 3584 
Q 5097 3584 5394 3201 
Q 5691 2819 5691 2113 
L 5691 0 
L 5113 0 
L 5113 2094 
Q 5113 2597 4934 2840 
Q 4756 3084 4391 3084 
Q 3944 3084 3684 2787 
Q 3425 2491 3425 1978 
L 3425 0 
L 2847 0 
L 2847 2094 
Q 2847 2600 2669 2842 
Q 2491 3084 2119 3084 
Q 1678 3084 1418 2786 
Q 1159 2488 1159 1978 
L 1159 0 
L 581 0 
L 581 3500 
L 1159 3500 
L 1159 2956 
Q 1356 3278 1631 3431 
Q 1906 3584 2284 3584 
Q 2666 3584 2933 3390 
Q 3200 3197 3328 2828 
z
" transform="scale(0.015625)"/>
       <path id="DejaVuSans-6e" d="M 3513 2113 
L 3513 0 
L 2938 0 
L 2938 2094 
Q 2938 2591 2744 2837 
Q 2550 3084 2163 3084 
Q 1697 3084 1428 2787 
Q 1159 2491 1159 1978 
L 1159 0 
L 581 0 
L 581 3500 
L 1159 3500 
L 1159 2956 
Q 1366 3272 1645 3428 
Q 1925 3584 2291 3584 
Q 2894 3584 3203 3211 
Q 3513 2838 3513 2113 
z
" transform="scale(0.015625)"/>
      </defs>
      <use xlink:href="#DejaVuSans-50"/>
      <use xlink:href="#DejaVuSans-72" transform="translate(58.552734 0)"/>
      <use xlink:href="#DejaVuSans-6f" transform="translate(97.416016 0)"/>
      <use xlink:href="#DejaVuSans-62" transform="translate(158.597656 0)"/>
      <use xlink:href="#DejaVuSans-61" transform="translate(222.074219 0)"/>
      <use xlink:href="#DejaVuSans-62" transform="translate(283.353516 0)"/>
      <use xlink:href="#DejaVuSans-69" transform="translate(346.830078 0)"/>
      <use xlink:href="#DejaVuSans-6c" transform="translate(374.613281 0)"/>
      <use xlink:href="#DejaVuSans-69" transform="translate(402.396484 0)"/>
      <use xlink:href="#DejaVuSans-74" transform="translate(430.179688 0)"/>
      <use xlink:href="#DejaVuSans-79" transform="translate(469.388672 0)"/>
      <use xlink:href="#DejaVuSans-20" transform="translate(528.568359 0)"/>
      <use xlink:href="#DejaVuSans-6f" transform="translate(560.355469 0)"/>
      <use xlink:href="#DejaVuSans-66" transform="translate(621.537109 0)"/>
      <use xlink:href="#DejaVuSans-20" transform="translate(656.742188 0)"/>
      <use xlink:href="#DejaVuSans-77" transform="translate(688.529297 0)"/>
      <use xlink:href="#DejaVuSans-65" transform="translate(770.316406 0)"/>
      <use xlink:href="#DejaVuSans-69" transform="translate(831.839844 0)"/>
      <use xlink:href="#DejaVuSans-67" transform="translate(859.623047 0)"/>
      <use xlink:href="#DejaVuSans-68" transform="translate(923.099609 0)"/>
      <use xlink:href="#DejaVuSans-74" transform="translate(986.478516 0)"/>
      <use xlink:href="#DejaVuSans-20" transform="translate(1025.6875 0)"/>
      <use xlink:href="#DejaVuSans-6c" transform="translate(1057.474609 0)"/>
      <use xlink:href="#DejaVuSans-6f" transform="translate(1085.257812 0)"/>
      <use xlink:href="#DejaVuSans-73" transform="translate(1146.439453 0)"/>
      <use xlink:href="#DejaVuSans-73" transform="translate(1198.539062 0)"/>
      <use xlink:href="#DejaVuSans-20" transform="translate(1250.638672 0)"/>
      <use xlink:href="#DejaVuSans-74" transform="translate(1282.425781 0)"/>
      <use xlink:href="#DejaVuSans-61" transform="translate(1321.634766 0)"/>
      <use xlink:href="#DejaVuSans-72" transform="translate(1382.914062 0)"/>
      <use xlink:href="#DejaVuSans-67" transform="translate(1422.277344 0)"/>
      <use xlink:href="#DejaVuSans-65" transform="translate(1485.753906 0)"/>
      <use xlink:href="#DejaVuSans-74" transform="translate(1547.277344 0)"/>
      <use xlink:href="#DejaVuSans-20" transform="translate(1586.486328 0)"/>
      <use xlink:href="#DejaVuSans-61" transform="translate(1618.273438 0)"/>
      <use xlink:href="#DejaVuSans-63" transform="translate(1679.552734 0)"/>
      <use xlink:href="#DejaVuSans-68" transform="translate(1734.533203 0)"/>
      <use xlink:href="#DejaVuSans-69" transform="translate(1797.912109 0)"/>
      <use xlink:href="#DejaVuSans-65" transform="translate(1825.695312 0)"/>
      <use xlink:href="#DejaVuSans-76" transform="translate(1887.21875 0)"/>
      <use xlink:href="#DejaVuSans-65" transform="translate(1946.398438 0)"/>
      <use xlink:href="#DejaVuSans-6d" transform="translate(2007.921875 0)"/>
      <use xlink:href="#DejaVuSans-65" transform="translate(2105.333984 0)"/>
      <use xlink:href="#DejaVuSans-6e" transform="translate(2166.857422 0)"/>
      <use xlink:href="#DejaVuSans-74" transform="translate(2230.236328 0)"/>
     </g>
    </g>
   </g>
   <g id="line2d_29">
    <path d="M 67.52 70.464762 
L 103.42412 70.464762 
L 103.42412 72.702484 
L 108.55328 72.702484 
L 108.55328 74.940205 
L 111.11786 74.940205 
L 111.11786 77.177927 
L 118.8116 77.177927 
L 118.8116 81.653371 
L 121.37618 81.653371 
L 121.37618 83.891092 
L 126.50534 83.891092 
L 126.50534 86.128814 
L 129.06992 86.128814 
L 129.06992 101.792866 
L 131.6345 101.792866 
L 131.6345 104.030588 
L 134.19908 104.030588 
L 134.19908 108.506032 
L 136.76366 108.506032 
L 136.76366 112.981475 
L 139.32824 112.981475 
L 139.32824 124.170084 
L 141.89282 124.170084 
L 141.89282 130.883249 
L 144.4574 130.883249 
L 144.4574 133.120971 
L 147.02198 133.120971 
L 147.02198 139.834136 
L 149.58656 139.834136 
L 149.58656 144.30958 
L 152.15114 144.30958 
L 152.15114 151.022745 
L 154.71572 151.022745 
L 154.71572 157.73591 
L 157.2803 157.73591 
L 157.2803 166.686797 
L 159.84488 166.686797 
L 159.84488 180.113128 
L 162.40946 180.113128 
L 162.40946 195.77718 
L 164.97404 195.77718 
L 164.97404 206.965789 
L 167.53862 206.965789 
L 167.53862 218.154398 
L 170.1032 218.154398 
L 170.1032 238.293894 
L 172.66778 238.293894 
L 172.66778 247.244781 
L 175.23236 247.244781 
L 175.23236 271.85972 
L 177.79694 271.85972 
L 177.79694 285.28605 
L 180.36152 285.28605 
L 180.36152 296.474659 
L 182.9261 296.474659 
L 182.9261 309.90099 
L 185.49068 309.90099 
L 185.49068 318.851877 
L 188.055259 318.851877 
L 188.055259 332.278207 
L 190.619839 332.278207 
L 190.619839 336.753651 
L 193.184419 336.753651 
L 193.184419 347.94226 
L 195.748999 347.94226 
L 195.748999 359.130868 
L 198.313579 359.130868 
L 198.313579 370.319477 
L 200.878159 370.319477 
L 200.878159 379.270364 
L 203.442739 379.270364 
L 203.442739 394.934416 
L 206.007319 394.934416 
L 206.007319 401.647582 
L 208.571899 401.647582 
L 208.571899 412.83619 
L 211.136479 412.83619 
L 211.136479 421.787077 
L 213.701059 421.787077 
L 213.701059 428.500243 
L 216.265639 428.500243 
L 216.265639 430.737965 
L 218.830219 430.737965 
L 218.830219 435.213408 
L 221.394799 435.213408 
L 221.394799 441.926573 
L 223.959379 441.926573 
L 223.959379 450.87746 
L 226.523959 450.87746 
L 226.523959 462.066069 
L 231.653119 462.066069 
L 231.653119 466.541513 
L 234.217699 466.541513 
L 234.217699 468.779234 
L 239.346859 468.779234 
L 239.346859 473.254678 
L 241.911439 473.254678 
L 241.911439 475.4924 
L 247.040599 475.4924 
L 247.040599 477.730121 
L 249.605179 477.730121 
L 249.605179 479.967843 
L 257.298919 479.967843 
L 257.298919 486.681008 
L 259.863499 486.681008 
L 259.863499 488.91873 
L 262.428079 488.91873 
L 262.428079 491.156452 
L 264.992659 491.156452 
L 264.992659 493.394174 
L 267.557239 493.394174 
L 267.557239 495.631895 
L 272.686399 495.631895 
L 272.686399 497.869617 
L 303.461359 497.869617 
L 303.461359 500.107339 
L 306.025939 500.107339 
L 306.025939 502.345061 
L 316.284259 502.345061 
L 316.284259 504.582782 
L 318.848839 504.582782 
L 318.848839 506.820504 
L 323.977999 506.820504 
L 323.977999 509.058226 
L 329.107159 509.058226 
L 329.107159 511.295948 
L 341.930059 511.295948 
L 341.930059 513.533669 
L 367.575859 513.533669 
L 367.575859 515.771391 
L 377.834179 515.771391 
L 377.834179 518.009113 
L 416.302879 518.009113 
L 416.302879 520.246835 
L 431.690358 520.246835 
L 431.690358 522.484556 
L 439.384098 522.484556 
L 439.384098 524.722278 
L 524.015238 524.722278 
L 524.015238 526.96 
L 524.015238 526.96 
" clip-path="url(#paa5bf65bf6)" style="fill: none; stroke: #0000ff; stroke-width: 1.5; stroke-linecap: square"/>
   </g>
   <g id="line2d_30">
    <path d="M 67.52 70.464762 
L 93.1658 70.464762 
L 93.1658 72.0665 
L 105.9887 72.0665 
L 105.9887 73.668237 
L 116.24702 73.668237 
L 116.24702 75.269975 
L 121.37618 75.269975 
L 121.37618 76.871713 
L 123.94076 76.871713 
L 123.94076 78.47345 
L 126.50534 78.47345 
L 126.50534 81.676926 
L 129.06992 81.676926 
L 129.06992 86.482139 
L 131.6345 86.482139 
L 131.6345 89.685614 
L 134.19908 89.685614 
L 134.19908 91.287352 
L 136.76366 91.287352 
L 136.76366 99.29604 
L 139.32824 99.29604 
L 139.32824 110.508204 
L 141.89282 110.508204 
L 141.89282 113.711679 
L 144.4574 113.711679 
L 144.4574 120.11863 
L 147.02198 120.11863 
L 147.02198 126.525581 
L 149.58656 126.525581 
L 149.58656 134.534269 
L 152.15114 134.534269 
L 152.15114 140.94122 
L 154.71572 140.94122 
L 154.71572 147.34817 
L 157.2803 147.34817 
L 157.2803 160.162072 
L 159.84488 160.162072 
L 159.84488 168.17076 
L 162.40946 168.17076 
L 162.40946 177.781186 
L 164.97404 177.781186 
L 164.97404 190.595088 
L 167.53862 190.595088 
L 167.53862 195.400301 
L 170.1032 195.400301 
L 170.1032 203.408989 
L 172.66778 203.408989 
L 172.66778 229.036792 
L 175.23236 229.036792 
L 175.23236 248.257644 
L 177.79694 248.257644 
L 177.79694 259.469808 
L 180.36152 259.469808 
L 180.36152 269.080234 
L 182.9261 269.080234 
L 182.9261 275.487185 
L 185.49068 275.487185 
L 185.49068 288.301086 
L 188.055259 288.301086 
L 188.055259 291.504561 
L 190.619839 291.504561 
L 190.619839 299.51325 
L 193.184419 299.51325 
L 193.184419 325.141053 
L 195.748999 325.141053 
L 195.748999 342.760167 
L 198.313579 342.760167 
L 198.313579 350.768855 
L 200.878159 350.768855 
L 200.878159 355.574069 
L 203.442739 355.574069 
L 203.442739 363.582757 
L 206.007319 363.582757 
L 206.007319 366.786232 
L 208.571899 366.786232 
L 208.571899 373.193183 
L 211.136479 373.193183 
L 211.136479 381.201871 
L 213.701059 381.201871 
L 213.701059 389.21056 
L 216.265639 389.21056 
L 216.265639 390.812297 
L 218.830219 390.812297 
L 218.830219 398.820986 
L 221.394799 398.820986 
L 221.394799 402.024461 
L 226.523959 402.024461 
L 226.523959 408.431412 
L 229.088539 408.431412 
L 229.088539 413.236625 
L 231.653119 413.236625 
L 231.653119 418.041838 
L 234.217699 418.041838 
L 234.217699 424.448789 
L 236.782279 424.448789 
L 236.782279 427.652264 
L 239.346859 427.652264 
L 239.346859 434.059215 
L 241.911439 434.059215 
L 241.911439 435.660952 
L 244.476019 435.660952 
L 244.476019 442.067903 
L 247.040599 442.067903 
L 247.040599 446.873116 
L 249.605179 446.873116 
L 249.605179 456.483542 
L 252.169759 456.483542 
L 252.169759 459.687018 
L 259.863499 459.687018 
L 259.863499 461.288755 
L 262.428079 461.288755 
L 262.428079 462.890493 
L 267.557239 462.890493 
L 267.557239 466.093968 
L 270.121819 466.093968 
L 270.121819 469.297444 
L 272.686399 469.297444 
L 272.686399 472.500919 
L 275.250979 472.500919 
L 275.250979 474.102657 
L 277.815559 474.102657 
L 277.815559 477.306132 
L 288.073879 477.306132 
L 288.073879 480.509607 
L 290.638459 480.509607 
L 290.638459 483.713083 
L 295.767619 483.713083 
L 295.767619 485.31482 
L 298.332199 485.31482 
L 298.332199 486.916558 
L 300.896779 486.916558 
L 300.896779 488.518296 
L 313.719679 488.518296 
L 313.719679 491.721771 
L 316.284259 491.721771 
L 316.284259 493.323509 
L 323.977999 493.323509 
L 323.977999 499.730459 
L 329.107159 499.730459 
L 329.107159 501.332197 
L 334.236319 501.332197 
L 334.236319 502.933935 
L 344.494639 502.933935 
L 344.494639 504.535673 
L 352.188379 504.535673 
L 352.188379 507.739148 
L 354.752959 507.739148 
L 354.752959 509.340886 
L 367.575859 509.340886 
L 367.575859 510.942623 
L 370.140439 510.942623 
L 370.140439 512.544361 
L 375.269599 512.544361 
L 375.269599 514.146099 
L 408.609139 514.146099 
L 408.609139 517.349574 
L 434.254938 517.349574 
L 434.254938 518.951312 
L 462.465318 518.951312 
L 462.465318 520.553049 
L 482.981958 520.553049 
L 482.981958 522.154787 
L 488.111118 522.154787 
L 488.111118 523.756525 
L 495.804858 523.756525 
L 495.804858 525.358262 
L 500.934018 525.358262 
L 500.934018 526.96 
L 500.934018 526.96 
" clip-path="url(#paa5bf65bf6)" style="fill: none; stroke: #ffa500; stroke-width: 1.5; stroke-linecap: square"/>
   </g>
   <g id="patch_3">
    <path d="M 67.52 526.96 
L 67.52 47.64 
" style="fill: none; stroke: #000000; stroke-width: 0.8; stroke-linejoin: miter; stroke-linecap: square"/>
   </g>
   <g id="patch_4">
    <path d="M 546.84 526.96 
L 546.84 47.64 
" style="fill: none; stroke: #000000; stroke-width: 0.8; stroke-linejoin: miter; stroke-linecap: square"/>
   </g>
   <g id="patch_5">
    <path d="M 67.52 526.96 
L 546.84 526.96 
" style="fill: none; stroke: #000000; stroke-width: 0.8; stroke-linejoin: miter; stroke-linecap: square"/>
   </g>
   <g id="patch_6">
    <path d="M 67.52 47.64 
L 546.84 47.64 
" style="fill: none; stroke: #000000; stroke-width: 0.8; stroke-linejoin: miter; stroke-linecap: square"/>
   </g>
   <g id="text_17">
    <!-- Time to 10% weight loss by Emotional eating score (1-10) -->
    <g transform="translate(104.247812 25.963062) scale(0.14 -0.14)">
     <defs>
      <path id="DejaVuSans-54" d="M -19 4666 
L 3928 4666 
L 3928 4134 
L 2272 4134 
L 2272 0 
L 1638 0 
L 1638 4134 
L -19 4134 
L -19 4666 
z
" transform="scale(0.015625)"/>
      <path id="DejaVuSans-25" d="M 4653 2053 
Q 4381 2053 4226 1822 
Q 4072 1591 4072 1178 
Q 4072 772 4226 539 
Q 4381 306 4653 306 
Q 4919 306 5073 539 
Q 5228 772 5228 1178 
Q 5228 1588 5073 1820 
Q 4919 2053 4653 2053 
z
M 4653 2450 
Q 5147 2450 5437 2106 
Q 5728 1763 5728 1178 
Q 5728 594 5436 251 
Q 5144 -91 4653 -91 
Q 4153 -91 3862 251 
Q 3572 594 3572 1178 
Q 3572 1766 3864 2108 
Q 4156 2450 4653 2450 
z
M 1428 4353 
Q 1159 4353 1004 4120 
Q 850 3888 850 3481 
Q 850 3069 1003 2837 
Q 1156 2606 1428 2606 
Q 1700 2606 1854 2837 
Q 2009 3069 2009 3481 
Q 2009 3884 1853 4118 
Q 1697 4353 1428 4353 
z
M 4250 4750 
L 4750 4750 
L 1831 -91 
L 1331 -91 
L 4250 4750 
z
M 1428 4750 
Q 1922 4750 2215 4408 
Q 2509 4066 2509 3481 
Q 2509 2891 2217 2550 
Q 1925 2209 1428 2209 
Q 931 2209 642 2551 
Q 353 2894 353 3481 
Q 353 4063 643 4406 
Q 934 4750 1428 4750 
z
" transform="scale(0.015625)"/>
      <path id="DejaVuSans-45" d="M 628 4666 
L 3578 4666 
L 3578 4134 
L 1259 4134 
L 1259 2753 
L 3481 2753 
L 3481 2222 
L 1259 2222 
L 1259 531 
L 3634 531 
L 3634 0 
L 628 0 
L 628 4666 
z
" transform="scale(0.015625)"/>
      <path id="DejaVuSans-28" d="M 1984 4856 
Q 1566 4138 1362 3434 
Q 1159 2731 1159 2009 
Q 1159 1288 1364 580 
Q 1569 -128 1984 -844 
L 1484 -844 
Q 1016 -109 783 600 
Q 550 1309 550 2009 
Q 550 2706 781 3412 
Q 1013 4119 1484 4856 
L 1984 4856 
z
" transform="scale(0.015625)"/>
      <path id="DejaVuSans-2d" d="M 313 2009 
L 1997 2009 
L 1997 1497 
L 313 1497 
L 313 2009 
z
" transform="scale(0.015625)"/>
      <path id="DejaVuSans-29" d="M 513 4856 
L 1013 4856 
Q 1481 4119 1714 3412 
Q 1947 2706 1947 2009 
Q 1947 1309 1714 600 
Q 1481 -109 1013 -844 
L 513 -844 
Q 928 -128 1133 580 
Q 1338 1288 1338 2009 
Q 1338 2731 1133 3434 
Q 928 4138 513 4856 
z
" transform="scale(0.015625)"/>
     </defs>
     <use xlink:href="#DejaVuSans-54"/>
     <use xlink:href="#DejaVuSans-69" transform="translate(57.958984 0)"/>
     <use xlink:href="#DejaVuSans-6d" transform="translate(85.742188 0)"/>
     <use xlink:href="#DejaVuSans-65" transform="translate(183.154297 0)"/>
     <use xlink:href="#DejaVuSans-20" transform="translate(244.677734 0)"/>
     <use xlink:href="#DejaVuSans-74" transform="translate(276.464844 0)"/>
     <use xlink:href="#DejaVuSans-6f" transform="translate(315.673828 0)"/>
     <use xlink:href="#DejaVuSans-20" transform="translate(376.855469 0)"/>
     <use xlink:href="#DejaVuSans-31" transform="translate(408.642578 0)"/>
     <use xlink:href="#DejaVuSans-30" transform="translate(472.265625 0)"/>
     <use xlink:href="#DejaVuSans-25" transform="translate(535.888672 0)"/>
     <use xlink:href="#DejaVuSans-20" transform="translate(630.908203 0)"/>
     <use xlink:href="#DejaVuSans-77" transform="translate(662.695312 0)"/>
     <use xlink:href="#DejaVuSans-65" transform="translate(744.482422 0)"/>
     <use xlink:href="#DejaVuSans-69" transform="translate(806.005859 0)"/>
     <use xlink:href="#DejaVuSans-67" transform="translate(833.789062 0)"/>
     <use xlink:href="#DejaVuSans-68" transform="translate(897.265625 0)"/>
     <use xlink:href="#DejaVuSans-74" transform="translate(960.644531 0)"/>
     <use xlink:href="#DejaVuSans-20" transform="translate(999.853516 0)"/>
     <use xlink:href="#DejaVuSans-6c" transform="translate(1031.640625 0)"/>
     <use xlink:href="#DejaVuSans-6f" transform="translate(1059.423828 0)"/>
     <use xlink:href="#DejaVuSans-73" transform="translate(1120.605469 0)"/>
     <use xlink:href="#DejaVuSans-73" transform="translate(1172.705078 0)"/>
     <use xlink:href="#DejaVuSans-20" transform="translate(1224.804688 0)"/>
     <use xlink:href="#DejaVuSans-62" transform="translate(1256.591797 0)"/>
     <use xlink:href="#DejaVuSans-79" transform="translate(1320.068359 0)"/>
     <use xlink:href="#DejaVuSans-20" transform="translate(1379.248047 0)"/>
     <use xlink:href="#DejaVuSans-45" transform="translate(1411.035156 0)"/>
     <use xlink:href="#DejaVuSans-6d" transform="translate(1474.21875 0)"/>
     <use xlink:href="#DejaVuSans-6f" transform="translate(1571.630859 0)"/>
     <use xlink:href="#DejaVuSans-74" transform="translate(1632.8125 0)"/>
     <use xlink:href="#DejaVuSans-69" transform="translate(1672.021484 0)"/>
     <use xlink:href="#DejaVuSans-6f" transform="translate(1699.804688 0)"/>
     <use xlink:href="#DejaVuSans-6e" transform="translate(1760.986328 0)"/>
     <use xlink:href="#DejaVuSans-61" transform="translate(1824.365234 0)"/>
     <use xlink:href="#DejaVuSans-6c" transform="translate(1885.644531 0)"/>
     <use xlink:href="#DejaVuSans-20" transform="translate(1913.427734 0)"/>
     <use xlink:href="#DejaVuSans-65" transform="translate(1945.214844 0)"/>
     <use xlink:href="#DejaVuSans-61" transform="translate(2006.738281 0)"/>
     <use xlink:href="#DejaVuSans-74" transform="translate(2068.017578 0)"/>
     <use xlink:href="#DejaVuSans-69" transform="translate(2107.226562 0)"/>
     <use xlink:href="#DejaVuSans-6e" transform="translate(2135.009766 0)"/>
     <use xlink:href="#DejaVuSans-67" transform="translate(2198.388672 0)"/>
     <use xlink:href="#DejaVuSans-20" transform="translate(2261.865234 0)"/>
     <use xlink:href="#DejaVuSans-73" transform="translate(2293.652344 0)"/>
     <use xlink:href="#DejaVuSans-63" transform="translate(2345.751953 0)"/>
     <use xlink:href="#DejaVuSans-6f" transform="translate(2400.732422 0)"/>
     <use xlink:href="#DejaVuSans-72" transform="translate(2461.914062 0)"/>
     <use xlink:href="#DejaVuSans-65" transform="translate(2500.777344 0)"/>
     <use xlink:href="#DejaVuSans-20" transform="translate(2562.300781 0)"/>
     <use xlink:href="#DejaVuSans-28" transform="translate(2594.087891 0)"/>
     <use xlink:href="#DejaVuSans-31" transform="translate(2633.101562 0)"/>
     <use xlink:href="#DejaVuSans-2d" transform="translate(2696.724609 0)"/>
     <use xlink:href="#DejaVuSans-31" transform="translate(2732.808594 0)"/>
     <use xlink:href="#DejaVuSans-30" transform="translate(2796.431641 0)"/>
     <use xlink:href="#DejaVuSans-29" transform="translate(2860.054688 0)"/>
    </g>
    <!-- Log-rank p=0.037 -->
    <g transform="translate(243.918594 41.64) scale(0.14 -0.14)">
     <defs>
      <path id="DejaVuSans-4c" d="M 628 4666 
L 1259 4666 
L 1259 531 
L 3531 531 
L 3531 0 
L 628 0 
L 628 4666 
z
" transform="scale(0.015625)"/>
      <path id="DejaVuSans-6b" d="M 581 4863 
L 1159 4863 
L 1159 1991 
L 2875 3500 
L 3609 3500 
L 1753 1863 
L 3688 0 
L 2938 0 
L 1159 1709 
L 1159 0 
L 581 0 
L 581 4863 
z
" transform="scale(0.015625)"/>
      <path id="DejaVuSans-70" d="M 1159 525 
L 1159 -1331 
L 581 -1331 
L 581 3500 
L 1159 3500 
L 1159 2969 
Q 1341 3281 1617 3432 
Q 1894 3584 2278 3584 
Q 2916 3584 3314 3078 
Q 3713 2572 3713 1747 
Q 3713 922 3314 415 
Q 2916 -91 2278 -91 
Q 1894 -91 1617 61 
Q 1341 213 1159 525 
z
M 3116 1747 
Q 3116 2381 2855 2742 
Q 2594 3103 2138 3103 
Q 1681 3103 1420 2742 
Q 1159 2381 1159 1747 
Q 1159 1113 1420 752 
Q 1681 391 2138 391 
Q 2594 391 2855 752 
Q 3116 1113 3116 1747 
z
" transform="scale(0.015625)"/>
      <path id="DejaVuSans-3d" d="M 678 2906 
L 4684 2906 
L 4684 2381 
L 678 2381 
L 678 2906 
z
M 678 1631 
L 4684 1631 
L 4684 1100 
L 678 1100 
L 678 1631 
z
" transform="scale(0.015625)"/>
      <path id="DejaVuSans-33" d="M 2597 2516 
Q 3050 2419 3304 2112 
Q 3559 1806 3559 1356 
Q 3559 666 3084 287 
Q 2609 -91 1734 -91 
Q 1441 -91 1130 -33 
Q 819 25 488 141 
L 488 750 
Q 750 597 1062 519 
Q 1375 441 1716 441 
Q 2309 441 2620 675 
Q 2931 909 2931 1356 
Q 2931 1769 2642 2001 
Q 2353 2234 1838 2234 
L 1294 2234 
L 1294 2753 
L 1863 2753 
Q 2328 2753 2575 2939 
Q 2822 3125 2822 3475 
Q 2822 3834 2567 4026 
Q 2313 4219 1838 4219 
Q 1578 4219 1281 4162 
Q 984 4106 628 3988 
L 628 4550 
Q 988 4650 1302 4700 
Q 1616 4750 1894 4750 
Q 2613 4750 3031 4423 
Q 3450 4097 3450 3541 
Q 3450 3153 3228 2886 
Q 3006 2619 2597 2516 
z
" transform="scale(0.015625)"/>
     </defs>
     <use xlink:href="#DejaVuSans-4c"/>
     <use xlink:href="#DejaVuSans-6f" transform="translate(53.962891 0)"/>
     <use xlink:href="#DejaVuSans-67" transform="translate(115.144531 0)"/>
     <use xlink:href="#DejaVuSans-2d" transform="translate(178.621094 0)"/>
     <use xlink:href="#DejaVuSans-72" transform="translate(214.705078 0)"/>
     <use xlink:href="#DejaVuSans-61" transform="translate(255.818359 0)"/>
     <use xlink:href="#DejaVuSans-6e" transform="translate(317.097656 0)"/>
     <use xlink:href="#DejaVuSans-6b" transform="translate(380.476562 0)"/>
     <use xlink:href="#DejaVuSans-20" transform="translate(438.386719 0)"/>
     <use xlink:href="#DejaVuSans-70" transform="translate(470.173828 0)"/>
     <use xlink:href="#DejaVuSans-3d" transform="translate(533.650391 0)"/>
     <use xlink:href="#DejaVuSans-30" transform="translate(617.439453 0)"/>
     <use xlink:href="#DejaVuSans-2e" transform="translate(681.0625 0)"/>
     <use xlink:href="#DejaVuSans-30" transform="translate(712.849609 0)"/>
     <use xlink:href="#DejaVuSans-33" transform="translate(776.472656 0)"/>
     <use xlink:href="#DejaVuSans-37" transform="translate(840.095703 0)"/>
    </g>
   </g>
   <g id="legend_1">
    <g id="patch_7">
     <path d="M 311.399375 99.674375 
L 539.84 99.674375 
Q 541.84 99.674375 541.84 97.674375 
L 541.84 54.64 
Q 541.84 52.64 539.84 52.64 
L 311.399375 52.64 
Q 309.399375 52.64 309.399375 54.64 
L 309.399375 97.674375 
Q 309.399375 99.674375 311.399375 99.674375 
z
" style="fill: #ffffff; opacity: 0.8; stroke: #cccccc; stroke-linejoin: miter"/>
    </g>
    <g id="text_18">
     <!-- Emotional eating score (1-10) -->
     <g transform="translate(351.218125 64.238437) scale(0.1 -0.1)">
      <use xlink:href="#DejaVuSans-45"/>
      <use xlink:href="#DejaVuSans-6d" transform="translate(63.183594 0)"/>
      <use xlink:href="#DejaVuSans-6f" transform="translate(160.595703 0)"/>
      <use xlink:href="#DejaVuSans-74" transform="translate(221.777344 0)"/>
      <use xlink:href="#DejaVuSans-69" transform="translate(260.986328 0)"/>
      <use xlink:href="#DejaVuSans-6f" transform="translate(288.769531 0)"/>
      <use xlink:href="#DejaVuSans-6e" transform="translate(349.951172 0)"/>
      <use xlink:href="#DejaVuSans-61" transform="translate(413.330078 0)"/>
      <use xlink:href="#DejaVuSans-6c" transform="translate(474.609375 0)"/>
      <use xlink:href="#DejaVuSans-20" transform="translate(502.392578 0)"/>
      <use xlink:href="#DejaVuSans-65" transform="translate(534.179688 0)"/>
      <use xlink:href="#DejaVuSans-61" transform="translate(595.703125 0)"/>
      <use xlink:href="#DejaVuSans-74" transform="translate(656.982422 0)"/>
      <use xlink:href="#DejaVuSans-69" transform="translate(696.191406 0)"/>
      <use xlink:href="#DejaVuSans-6e" transform="translate(723.974609 0)"/>
      <use xlink:href="#DejaVuSans-67" transform="translate(787.353516 0)"/>
      <use xlink:href="#DejaVuSans-20" transform="translate(850.830078 0)"/>
      <use xlink:href="#DejaVuSans-73" transform="translate(882.617188 0)"/>
      <use xlink:href="#DejaVuSans-63" transform="translate(934.716797 0)"/>
      <use xlink:href="#DejaVuSans-6f" transform="translate(989.697266 0)"/>
      <use xlink:href="#DejaVuSans-72" transform="translate(1050.878906 0)"/>
      <use xlink:href="#DejaVuSans-65" transform="translate(1089.742188 0)"/>
      <use xlink:href="#DejaVuSans-20" transform="translate(1151.265625 0)"/>
      <use xlink:href="#DejaVuSans-28" transform="translate(1183.052734 0)"/>
      <use xlink:href="#DejaVuSans-31" transform="translate(1222.066406 0)"/>
      <use xlink:href="#DejaVuSans-2d" transform="translate(1285.689453 0)"/>
      <use xlink:href="#DejaVuSans-31" transform="translate(1321.773438 0)"/>
      <use xlink:href="#DejaVuSans-30" transform="translate(1385.396484 0)"/>
      <use xlink:href="#DejaVuSans-29" transform="translate(1449.019531 0)"/>
     </g>
    </g>
    <g id="line2d_31">
     <path d="M 313.399375 75.416562 
L 323.399375 75.416562 
L 323.399375 75.416562 
L 333.399375 75.416562 
L 333.399375 75.416562 
" style="fill: none; stroke: #0000ff; stroke-width: 1.5; stroke-linecap: square"/>
    </g>
    <g id="text_19">
     <!-- Emotional eating score: &lt; median (7) -->
     <g transform="translate(341.399375 78.916562) scale(0.1 -0.1)">
      <defs>
       <path id="DejaVuSans-3a" d="M 750 794 
L 1409 794 
L 1409 0 
L 750 0 
L 750 794 
z
M 750 3309 
L 1409 3309 
L 1409 2516 
L 750 2516 
L 750 3309 
z
" transform="scale(0.015625)"/>
       <path id="DejaVuSans-3c" d="M 4684 3150 
L 1459 2003 
L 4684 863 
L 4684 294 
L 678 1747 
L 678 2266 
L 4684 3719 
L 4684 3150 
z
" transform="scale(0.015625)"/>
       <path id="DejaVuSans-64" d="M 2906 2969 
L 2906 4863 
L 3481 4863 
L 3481 0 
L 2906 0 
L 2906 525 
Q 2725 213 2448 61 
Q 2172 -91 1784 -91 
Q 1150 -91 751 415 
Q 353 922 353 1747 
Q 353 2572 751 3078 
Q 1150 3584 1784 3584 
Q 2172 3584 2448 3432 
Q 2725 3281 2906 2969 
z
M 947 1747 
Q 947 1113 1208 752 
Q 1469 391 1925 391 
Q 2381 391 2643 752 
Q 2906 1113 2906 1747 
Q 2906 2381 2643 2742 
Q 2381 3103 1925 3103 
Q 1469 3103 1208 2742 
Q 947 2381 947 1747 
z
" transform="scale(0.015625)"/>
      </defs>
      <use xlink:href="#DejaVuSans-45"/>
      <use xlink:href="#DejaVuSans-6d" transform="translate(63.183594 0)"/>
      <use xlink:href="#DejaVuSans-6f" transform="translate(160.595703 0)"/>
      <use xlink:href="#DejaVuSans-74" transform="translate(221.777344 0)"/>
      <use xlink:href="#DejaVuSans-69" transform="translate(260.986328 0)"/>
      <use xlink:href="#DejaVuSans-6f" transform="translate(288.769531 0)"/>
      <use xlink:href="#DejaVuSans-6e" transform="translate(349.951172 0)"/>
      <use xlink:href="#DejaVuSans-61" transform="translate(413.330078 0)"/>
      <use xlink:href="#DejaVuSans-6c" transform="translate(474.609375 0)"/>
      <use xlink:href="#DejaVuSans-20" transform="translate(502.392578 0)"/>
      <use xlink:href="#DejaVuSans-65" transform="translate(534.179688 0)"/>
      <use xlink:href="#DejaVuSans-61" transform="translate(595.703125 0)"/>
      <use xlink:href="#DejaVuSans-74" transform="translate(656.982422 0)"/>
      <use xlink:href="#DejaVuSans-69" transform="translate(696.191406 0)"/>
      <use xlink:href="#DejaVuSans-6e" transform="translate(723.974609 0)"/>
      <use xlink:href="#DejaVuSans-67" transform="translate(787.353516 0)"/>
      <use xlink:href="#DejaVuSans-20" transform="translate(850.830078 0)"/>
      <use xlink:href="#DejaVuSans-73" transform="translate(882.617188 0)"/>
      <use xlink:href="#DejaVuSans-63" transform="translate(934.716797 0)"/>
      <use xlink:href="#DejaVuSans-6f" transform="translate(989.697266 0)"/>
      <use xlink:href="#DejaVuSans-72" transform="translate(1050.878906 0)"/>
      <use xlink:href="#DejaVuSans-65" transform="translate(1089.742188 0)"/>
      <use xlink:href="#DejaVuSans-3a" transform="translate(1151.265625 0)"/>
      <use xlink:href="#DejaVuSans-20" transform="translate(1184.957031 0)"/>
      <use xlink:href="#DejaVuSans-3c" transform="translate(1216.744141 0)"/>
      <use xlink:href="#DejaVuSans-20" transform="translate(1300.533203 0)"/>
      <use xlink:href="#DejaVuSans-6d" transform="translate(1332.320312 0)"/>
      <use xlink:href="#DejaVuSans-65" transform="translate(1429.732422 0)"/>
      <use xlink:href="#DejaVuSans-64" transform="translate(1491.255859 0)"/>
      <use xlink:href="#DejaVuSans-69" transform="translate(1554.732422 0)"/>
      <use xlink:href="#DejaVuSans-61" transform="translate(1582.515625 0)"/>
      <use xlink:href="#DejaVuSans-6e" transform="translate(1643.794922 0)"/>
      <use xlink:href="#DejaVuSans-20" transform="translate(1707.173828 0)"/>
      <use xlink:href="#DejaVuSans-28" transform="translate(1738.960938 0)"/>
      <use xlink:href="#DejaVuSans-37" transform="translate(1777.974609 0)"/>
      <use xlink:href="#DejaVuSans-29" transform="translate(1841.597656 0)"/>
     </g>
    </g>
    <g id="line2d_32">
     <path d="M 313.399375 90.094687 
L 323.399375 90.094687 
L 323.399375 90.094687 
L 333.399375 90.094687 
L 333.399375 90.094687 
" style="fill: none; stroke: #ffa500; stroke-width: 1.5; stroke-linecap: square"/>
    </g>
    <g id="text_20">
     <!-- Emotional eating score: &gt;= median (7) -->
     <g transform="translate(341.399375 93.594687) scale(0.1 -0.1)">
      <defs>
       <path id="DejaVuSans-3e" d="M 678 3150 
L 678 3719 
L 4684 2266 
L 4684 1747 
L 678 294 
L 678 863 
L 3897 2003 
L 678 3150 
z
" transform="scale(0.015625)"/>
      </defs>
      <use xlink:href="#DejaVuSans-45"/>
      <use xlink:href="#DejaVuSans-6d" transform="translate(63.183594 0)"/>
      <use xlink:href="#DejaVuSans-6f" transform="translate(160.595703 0)"/>
      <use xlink:href="#DejaVuSans-74" transform="translate(221.777344 0)"/>
      <use xlink:href="#DejaVuSans-69" transform="translate(260.986328 0)"/>
      <use xlink:href="#DejaVuSans-6f" transform="translate(288.769531 0)"/>
      <use xlink:href="#DejaVuSans-6e" transform="translate(349.951172 0)"/>
      <use xlink:href="#DejaVuSans-61" transform="translate(413.330078 0)"/>
      <use xlink:href="#DejaVuSans-6c" transform="translate(474.609375 0)"/>
      <use xlink:href="#DejaVuSans-20" transform="translate(502.392578 0)"/>
      <use xlink:href="#DejaVuSans-65" transform="translate(534.179688 0)"/>
      <use xlink:href="#DejaVuSans-61" transform="translate(595.703125 0)"/>
      <use xlink:href="#DejaVuSans-74" transform="translate(656.982422 0)"/>
      <use xlink:href="#DejaVuSans-69" transform="translate(696.191406 0)"/>
      <use xlink:href="#DejaVuSans-6e" transform="translate(723.974609 0)"/>
      <use xlink:href="#DejaVuSans-67" transform="translate(787.353516 0)"/>
      <use xlink:href="#DejaVuSans-20" transform="translate(850.830078 0)"/>
      <use xlink:href="#DejaVuSans-73" transform="translate(882.617188 0)"/>
      <use xlink:href="#DejaVuSans-63" transform="translate(934.716797 0)"/>
      <use xlink:href="#DejaVuSans-6f" transform="translate(989.697266 0)"/>
      <use xlink:href="#DejaVuSans-72" transform="translate(1050.878906 0)"/>
      <use xlink:href="#DejaVuSans-65" transform="translate(1089.742188 0)"/>
      <use xlink:href="#DejaVuSans-3a" transform="translate(1151.265625 0)"/>
      <use xlink:href="#DejaVuSans-20" transform="translate(1184.957031 0)"/>
      <use xlink:href="#DejaVuSans-3e" transform="translate(1216.744141 0)"/>
      <use xlink:href="#DejaVuSans-3d" transform="translate(1300.533203 0)"/>
      <use xlink:href="#DejaVuSans-20" transform="translate(1384.322266 0)"/>
      <use xlink:href="#DejaVuSans-6d" transform="translate(1416.109375 0)"/>
      <use xlink:href="#DejaVuSans-65" transform="translate(1513.521484 0)"/>
      <use xlink:href="#DejaVuSans-64" transform="translate(1575.044922 0)"/>
      <use xlink:href="#DejaVuSans-69" transform="translate(1638.521484 0)"/>
      <use xlink:href="#DejaVuSans-61" transform="translate(1666.304688 0)"/>
      <use xlink:href="#DejaVuSans-6e" transform="translate(1727.583984 0)"/>
      <use xlink:href="#DejaVuSans-20" transform="translate(1790.962891 0)"/>
      <use xlink:href="#DejaVuSans-28" transform="translate(1822.75 0)"/>
      <use xlink:href="#DejaVuSans-37" transform="translate(1861.763672 0)"/>
      <use xlink:href="#DejaVuSans-29" transform="translate(1925.386719 0)"/>
     </g>
    </g>
   </g>
  </g>
 </g>
 <defs>
  <clipPath id="paa5bf65bf6">
   <rect x="67.52" y="47.64" width="479.32" height="479.32"/>
  </clipPath>
 </defs>
</svg>
