<?xml version="1.0" encoding="utf-8" standalone="no"?>
<!DOCTYPE svg PUBLIC "-//W3C//DTD SVG 1.1//EN"
  "http://www.w3.org/Graphics/SVG/1.1/DTD/svg11.dtd">
<svg xmlns:xlink="http://www.w3.org/1999/xlink" width="576pt" height="576pt" viewBox="0 0 576 576" xmlns="http://www.w3.org/2000/svg" version="1.1">
 <metadata>
  <rdf:RDF xmlns:dc="http://purl.org/dc/elements/1.1/" xmlns:cc="http://creativecommons.org/ns#" xmlns:rdf="http://www.w3.org/1999/02/22-rdf-syntax-ns#">
   <cc:Work>
    <dc:type rdf:resource="http://purl.org/dc/dcmitype/StillImage"/>
    <dc:date>2025-08-04T13:15:34.592030</dc:date>
    <dc:format>image/svg+xml</dc:format>
    <dc:creator>
     <cc:Agent>
      <dc:title>Matplotlib v3.10.1, https://matplotlib.org/</dc:title>
     </cc:Agent>
    </dc:creator>
   </cc:Work>
  </rdf:RDF>
 </metadata>
 <defs>
  <style type="text/css">*{stroke-linejoin: round; stroke-linecap: butt}</style>
 </defs>
 <g id="figure_1">
  <g id="patch_1">
   <path d="M 0 576 
L 576 576 
L 576 0 
L 0 0 
z
" style="fill: #ffffff"/>
  </g>
  <g id="axes_1">
   <g id="patch_2">
    <path d="M 67.52 526.96 
L 546.84 526.96 
L 546.84 47.64 
L 67.52 47.64 
z
" style="fill: #ffffff"/>
   </g>
   <g id="FillBetweenPolyCollection_1">
    <defs>
     <path id="me202d669b9" d="M 67.52 -505.535238 
L 67.52 -505.535238 
L 103.42412 -505.535238 
L 103.42412 -489.884964 
L 108.55328 -489.884964 
L 108.55328 -487.901665 
L 111.11786 -487.901665 
L 111.11786 -485.040153 
L 118.8116 -485.040153 
L 118.8116 -479.11419 
L 121.37618 -479.11419 
L 121.37618 -476.186569 
L 126.50534 -476.186569 
L 126.50534 -473.295107 
L 129.06992 -473.295107 
L 129.06992 -453.892069 
L 131.6345 -453.892069 
L 131.6345 -451.211851 
L 134.19908 -451.211851 
L 134.19908 -445.903033 
L 136.76366 -445.903033 
L 136.76366 -440.655409 
L 139.32824 -440.655409 
L 139.32824 -427.758745 
L 141.89282 -427.758745 
L 141.89282 -420.148025 
L 144.4574 -420.148025 
L 144.4574 -417.629441 
L 147.02198 -417.629441 
L 147.02198 -410.123504 
L 149.58656 -410.123504 
L 149.58656 -405.157989 
L 152.15114 -405.157989 
L 152.15114 -397.762184 
L 154.71572 -397.762184 
L 154.71572 -390.424203 
L 157.2803 -390.424203 
L 157.2803 -380.721961 
L 159.84488 -380.721961 
L 159.84488 -366.325741 
L 162.40946 -366.325741 
L 162.40946 -349.741386 
L 164.97404 -349.741386 
L 164.97404 -338.020488 
L 167.53862 -338.020488 
L 167.53862 -326.395415 
L 170.1032 -326.395415 
L 170.1032 -305.694376 
L 172.66778 -305.694376 
L 172.66778 -296.581243 
L 175.23236 -296.581243 
L 175.23236 -271.782147 
L 177.79694 -271.782147 
L 177.79694 -258.412226 
L 180.36152 -258.412226 
L 180.36152 -247.353578 
L 182.9261 -247.353578 
L 182.9261 -234.182395 
L 185.49068 -234.182395 
L 185.49068 -225.461987 
L 188.055259 -225.461987 
L 188.055259 -212.473096 
L 190.619839 -212.473096 
L 190.619839 -208.168287 
L 193.184419 -208.168287 
L 193.184419 -197.461742 
L 195.748999 -197.461742 
L 195.748999 -186.836494 
L 198.313579 -186.836494 
L 198.313579 -176.295763 
L 200.878159 -176.295763 
L 200.878159 -167.926769 
L 203.442739 -167.926769 
L 203.442739 -153.425636 
L 206.007319 -153.425636 
L 206.007319 -147.270862 
L 208.571899 -147.270862 
L 208.571899 -137.099441 
L 211.136479 -137.099441 
L 211.136479 -129.046121 
L 213.701059 -129.046121 
L 213.701059 -123.059221 
L 216.265639 -123.059221 
L 216.265639 -121.074334 
L 218.830219 -121.074334 
L 218.830219 -117.121496 
L 221.394799 -117.121496 
L 221.394799 -111.236922 
L 223.959379 -111.236922 
L 223.959379 -103.481908 
L 226.523959 -103.481908 
L 226.523959 -93.955435 
L 231.653119 -93.955435 
L 231.653119 -90.204593 
L 234.217699 -90.204593 
L 234.217699 -88.34349 
L 239.346859 -88.34349 
L 239.346859 -84.652268 
L 241.911439 -84.652268 
L 241.911439 -82.823227 
L 247.040599 -82.823227 
L 247.040599 -81.006047 
L 249.605179 -81.006047 
L 249.605179 -79.201421 
L 257.298919 -79.201421 
L 257.298919 -73.871105 
L 259.863499 -73.871105 
L 259.863499 -72.12547 
L 262.428079 -72.12547 
L 262.428079 -70.397387 
L 264.992659 -70.397387 
L 264.992659 -68.688317 
L 267.557239 -68.688317 
L 267.557239 -66.99995 
L 272.686399 -66.99995 
L 272.686399 -65.334268 
L 303.461359 -65.334268 
L 303.461359 -63.693618 
L 306.025939 -63.693618 
L 306.025939 -62.080814 
L 316.284259 -62.080814 
L 316.284259 -60.499281 
L 318.848839 -60.499281 
L 318.848839 -58.953255 
L 323.977999 -58.953255 
L 323.977999 -57.448088 
L 329.107159 -57.448088 
L 329.107159 -55.990707 
L 341.930059 -55.990707 
L 341.930059 -54.590353 
L 367.575859 -54.590353 
L 367.575859 -53.259841 
L 377.834179 -53.259841 
L 377.834179 -52.01786 
L 416.302879 -52.01786 
L 416.302879 -50.893611 
L 431.690358 -50.893611 
L 431.690358 -49.937488 
L 439.384098 -49.937488 
L 439.384098 -49.250662 
L 524.015238 -49.250662 
L 524.015238 -49.04 
L 524.015238 -49.04 
L 524.015238 -49.04 
L 524.015238 -60.530162 
L 439.384098 -60.530162 
L 439.384098 -63.787695 
L 431.690358 -63.787695 
L 431.690358 -67.037455 
L 416.302879 -67.037455 
L 416.302879 -70.189528 
L 377.834179 -70.189528 
L 377.834179 -73.255496 
L 367.575859 -73.255496 
L 367.575859 -76.250956 
L 341.930059 -76.250956 
L 341.930059 -79.188353 
L 329.107159 -79.188353 
L 329.107159 -82.077127 
L 323.977999 -82.077127 
L 323.977999 -84.924478 
L 318.848839 -84.924478 
L 318.848839 -87.736 
L 316.284259 -87.736 
L 316.284259 -90.516119 
L 306.025939 -90.516119 
L 306.025939 -93.268399 
L 303.461359 -93.268399 
L 303.461359 -95.995758 
L 272.686399 -95.995758 
L 272.686399 -98.700621 
L 267.557239 -98.700621 
L 267.557239 -101.385021 
L 264.992659 -101.385021 
L 264.992659 -104.05069 
L 262.428079 -104.05069 
L 262.428079 -106.699112 
L 259.863499 -106.699112 
L 259.863499 -109.331572 
L 257.298919 -109.331572 
L 257.298919 -117.143735 
L 249.605179 -117.143735 
L 249.605179 -119.722303 
L 247.040599 -119.722303 
L 247.040599 -122.289353 
L 241.911439 -122.289353 
L 241.911439 -124.845506 
L 239.346859 -124.845506 
L 239.346859 -129.927314 
L 234.217699 -129.927314 
L 234.217699 -132.453938 
L 231.653119 -132.453938 
L 231.653119 -137.480738 
L 226.523959 -137.480738 
L 226.523959 -149.909421 
L 223.959379 -149.909421 
L 223.959379 -159.728007 
L 221.394799 -159.728007 
L 221.394799 -167.028248 
L 218.830219 -167.028248 
L 218.830219 -171.867232 
L 216.265639 -171.867232 
L 216.265639 -174.278796 
L 213.701059 -174.278796 
L 213.701059 -181.483266 
L 211.136479 -181.483266 
L 211.136479 -191.022733 
L 208.571899 -191.022733 
L 208.571899 -202.848383 
L 206.007319 -202.848383 
L 206.007319 -209.894737 
L 203.442739 -209.894737 
L 203.442739 -226.203593 
L 200.878159 -226.203593 
L 200.878159 -235.444423 
L 198.313579 -235.444423 
L 198.313579 -246.919686 
L 195.748999 -246.919686 
L 195.748999 -258.314162 
L 193.184419 -258.314162 
L 193.184419 -269.630706 
L 190.619839 -269.630706 
L 190.619839 -274.136004 
L 188.055259 -274.136004 
L 188.055259 -287.580185 
L 185.49068 -287.580185 
L 185.49068 -296.483955 
L 182.9261 -296.483955 
L 182.9261 -309.751949 
L 180.36152 -309.751949 
L 180.36152 -320.728391 
L 177.79694 -320.728391 
L 177.79694 -333.803234 
L 175.23236 -333.803234 
L 175.23236 -357.492811 
L 172.66778 -357.492811 
L 172.66778 -366.013774 
L 170.1032 -366.013774 
L 170.1032 -384.992464 
L 167.53862 -384.992464 
L 167.53862 -395.413191 
L 164.97404 -395.413191 
L 164.97404 -405.738919 
L 162.40946 -405.738919 
L 162.40946 -420.020735 
L 159.84488 -420.020735 
L 159.84488 -432.081413 
L 157.2803 -432.081413 
L 157.2803 -440.016739 
L 154.71572 -440.016739 
L 154.71572 -445.906471 
L 152.15114 -445.906471 
L 152.15114 -451.737723 
L 149.58656 -451.737723 
L 149.58656 -455.589723 
L 147.02198 -455.589723 
L 147.02198 -461.30895 
L 144.4574 -461.30895 
L 144.4574 -463.198371 
L 141.89282 -463.198371 
L 141.89282 -468.810103 
L 139.32824 -468.810103 
L 139.32824 -477.942755 
L 136.76366 -477.942755 
L 136.76366 -481.502164 
L 134.19908 -481.502164 
L 134.19908 -484.995977 
L 131.6345 -484.995977 
L 131.6345 -486.714807 
L 129.06992 -486.714807 
L 129.06992 -497.999699 
L 126.50534 -497.999699 
L 126.50534 -499.453885 
L 121.37618 -499.453885 
L 121.37618 -500.844578 
L 118.8116 -500.844578 
L 118.8116 -503.359246 
L 111.11786 -503.359246 
L 111.11786 -504.411808 
L 108.55328 -504.411808 
L 108.55328 -505.21936 
L 103.42412 -505.21936 
L 103.42412 -505.535238 
L 67.52 -505.535238 
z
" style="stroke: #0000ff; stroke-opacity: 0.25"/>
    </defs>
    <g clip-path="url(#p0c137a60bd)">
     <use xlink:href="#me202d669b9" x="0" y="576" style="fill: #0000ff; fill-opacity: 0.25; stroke: #0000ff; stroke-opacity: 0.25"/>
    </g>
   </g>
   <g id="FillBetweenPolyCollection_2">
    <defs>
     <path id="mef33b26b25" d="M 67.52 -505.535238 
L 67.52 -505.535238 
L 93.1658 -505.535238 
L 93.1658 -494.285323 
L 105.9887 -494.285323 
L 105.9887 -492.860436 
L 116.24702 -492.860436 
L 116.24702 -490.800346 
L 121.37618 -490.800346 
L 121.37618 -488.663137 
L 123.94076 -488.663137 
L 123.94076 -486.53007 
L 126.50534 -486.53007 
L 126.50534 -482.332866 
L 129.06992 -482.332866 
L 129.06992 -476.214393 
L 131.6345 -476.214393 
L 131.6345 -472.232893 
L 134.19908 -472.232893 
L 134.19908 -470.266318 
L 136.76366 -470.266318 
L 136.76366 -460.626989 
L 139.32824 -460.626989 
L 139.32824 -447.53346 
L 141.89282 -447.53346 
L 141.89282 -443.857135 
L 144.4574 -443.857135 
L 144.4574 -436.573926 
L 147.02198 -436.573926 
L 147.02198 -429.371335 
L 149.58656 -429.371335 
L 149.58656 -420.464786 
L 152.15114 -420.464786 
L 152.15114 -413.406843 
L 154.71572 -413.406843 
L 154.71572 -406.401796 
L 157.2803 -406.401796 
L 157.2803 -392.531086 
L 159.84488 -392.531086 
L 159.84488 -383.945509 
L 162.40946 -383.945509 
L 162.40946 -373.718281 
L 164.97404 -373.718281 
L 164.97404 -360.19791 
L 167.53862 -360.19791 
L 167.53862 -355.159343 
L 170.1032 -355.159343 
L 170.1032 -346.797591 
L 172.66778 -346.797591 
L 172.66778 -320.318094 
L 175.23236 -320.318094 
L 175.23236 -300.713004 
L 177.79694 -300.713004 
L 177.79694 -289.370486 
L 180.36152 -289.370486 
L 180.36152 -279.701391 
L 182.9261 -279.701391 
L 182.9261 -273.282065 
L 185.49068 -273.282065 
L 185.49068 -260.506753 
L 188.055259 -260.506753 
L 188.055259 -257.326036 
L 190.619839 -257.326036 
L 190.619839 -249.397104 
L 193.184419 -249.397104 
L 193.184419 -224.244734 
L 195.748999 -224.244734 
L 195.748999 -207.150678 
L 198.313579 -207.150678 
L 198.313579 -199.435828 
L 200.878159 -199.435828 
L 200.878159 -194.823946 
L 203.442739 -194.823946 
L 203.442739 -187.166537 
L 206.007319 -187.166537 
L 206.007319 -184.113956 
L 208.571899 -184.113956 
L 208.571899 -178.02704 
L 211.136479 -178.02704 
L 211.136479 -170.453573 
L 213.701059 -170.453573 
L 213.701059 -162.920757 
L 216.265639 -162.920757 
L 216.265639 -161.419239 
L 218.830219 -161.419239 
L 218.830219 -153.937828 
L 221.394799 -153.937828 
L 221.394799 -150.957843 
L 226.523959 -150.957843 
L 226.523959 -145.020383 
L 229.088539 -145.020383 
L 229.088539 -140.587752 
L 231.653119 -140.587752 
L 231.653119 -136.173474 
L 234.217699 -136.173474 
L 234.217699 -130.317762 
L 236.782279 -130.317762 
L 236.782279 -127.403382 
L 239.346859 -127.403382 
L 239.346859 -121.603155 
L 241.911439 -121.603155 
L 241.911439 -120.1593 
L 244.476019 -120.1593 
L 244.476019 -114.410176 
L 247.040599 -114.410176 
L 247.040599 -110.127539 
L 249.605179 -110.127539 
L 249.605179 -101.645245 
L 252.169759 -101.645245 
L 252.169759 -98.844789 
L 259.863499 -98.844789 
L 259.863499 -97.450048 
L 262.428079 -97.450048 
L 262.428079 -96.059111 
L 267.557239 -96.059111 
L 267.557239 -93.28913 
L 270.121819 -93.28913 
L 270.121819 -90.535882 
L 272.686399 -90.535882 
L 272.686399 -87.800549 
L 275.250979 -87.800549 
L 275.250979 -86.440014 
L 277.815559 -86.440014 
L 277.815559 -83.734148 
L 288.073879 -83.734148 
L 288.073879 -81.049977 
L 290.638459 -81.049977 
L 290.638459 -78.389467 
L 295.767619 -78.389467 
L 295.767619 -77.068795 
L 298.332199 -77.068795 
L 298.332199 -75.754942 
L 300.896779 -75.754942 
L 300.896779 -74.448272 
L 313.719679 -74.448272 
L 313.719679 -71.858117 
L 316.284259 -71.858117 
L 316.284259 -70.575564 
L 323.977999 -70.575564 
L 323.977999 -65.542485 
L 329.107159 -65.542485 
L 329.107159 -64.312218 
L 334.236319 -64.312218 
L 334.236319 -63.095025 
L 344.494639 -63.095025 
L 344.494639 -61.892099 
L 352.188379 -61.892099 
L 352.188379 -59.534914 
L 354.752959 -59.534914 
L 354.752959 -58.384305 
L 367.575859 -58.384305 
L 367.575859 -57.255439 
L 370.140439 -57.255439 
L 370.140439 -56.151314 
L 375.269599 -56.151314 
L 375.269599 -55.075723 
L 408.609139 -55.075723 
L 408.609139 -53.031421 
L 434.254938 -53.031421 
L 434.254938 -52.078363 
L 462.465318 -52.078363 
L 462.465318 -51.187675 
L 482.981958 -51.187675 
L 482.981958 -50.380131 
L 488.111118 -50.380131 
L 488.111118 -49.691649 
L 495.804858 -49.691649 
L 495.804858 -49.194627 
L 500.934018 -49.194627 
L 500.934018 -49.04 
L 500.934018 -49.04 
L 500.934018 -49.04 
L 500.934018 -57.412145 
L 495.804858 -57.412145 
L 495.804858 -59.733675 
L 488.111118 -59.733675 
L 488.111118 -62.066553 
L 482.981958 -62.066553 
L 482.981958 -64.334085 
L 462.465318 -64.334085 
L 462.465318 -66.542117 
L 434.254938 -66.542117 
L 434.254938 -68.700991 
L 408.609139 -68.700991 
L 408.609139 -72.903486 
L 375.269599 -72.903486 
L 375.269599 -74.958725 
L 370.140439 -74.958725 
L 370.140439 -76.988911 
L 367.575859 -76.988911 
L 367.575859 -78.997166 
L 354.752959 -78.997166 
L 354.752959 -80.986011 
L 352.188379 -80.986011 
L 352.188379 -84.913378 
L 344.494639 -84.913378 
L 344.494639 -86.855059 
L 334.236319 -86.855059 
L 334.236319 -88.783779 
L 329.107159 -88.783779 
L 329.107159 -90.700592 
L 323.977999 -90.700592 
L 323.977999 -98.265372 
L 316.284259 -98.265372 
L 316.284259 -100.134272 
L 313.719679 -100.134272 
L 313.719679 -103.848989 
L 300.896779 -103.848989 
L 300.896779 -105.695648 
L 298.332199 -105.695648 
L 298.332199 -107.535666 
L 295.767619 -107.535666 
L 295.767619 -109.369373 
L 290.638459 -109.369373 
L 290.638459 -113.019028 
L 288.073879 -113.019028 
L 288.073879 -116.646723 
L 277.815559 -116.646723 
L 277.815559 -120.254248 
L 275.250979 -120.254248 
L 275.250979 -122.050934 
L 272.686399 -122.050934 
L 272.686399 -125.631011 
L 270.121819 -125.631011 
L 270.121819 -129.194373 
L 267.557239 -129.194373 
L 267.557239 -132.742098 
L 262.428079 -132.742098 
L 262.428079 -134.510399 
L 259.863499 -134.510399 
L 259.863499 -136.275139 
L 252.169759 -136.275139 
L 252.169759 -139.794337 
L 249.605179 -139.794337 
L 249.605179 -150.275988 
L 247.040599 -150.275988 
L 247.040599 -155.477801 
L 244.476019 -155.477801 
L 244.476019 -162.376857 
L 241.911439 -162.376857 
L 241.911439 -164.095417 
L 239.346859 -164.095417 
L 239.346859 -170.94622 
L 236.782279 -170.94622 
L 236.782279 -174.358127 
L 234.217699 -174.358127 
L 234.217699 -181.156409 
L 231.653119 -181.156409 
L 231.653119 -186.233785 
L 229.088539 -186.233785 
L 229.088539 -191.293728 
L 226.523959 -191.293728 
L 226.523959 -198.014367 
L 221.394799 -198.014367 
L 221.394799 -201.363968 
L 218.830219 -201.363968 
L 218.830219 -209.707979 
L 216.265639 -209.707979 
L 216.265639 -211.371783 
L 213.701059 -211.371783 
L 213.701059 -219.666686 
L 211.136479 -219.666686 
L 211.136479 -227.922674 
L 208.571899 -227.922674 
L 208.571899 -234.500478 
L 206.007319 -234.500478 
L 206.007319 -237.780619 
L 203.442739 -237.780619 
L 203.442739 -245.956017 
L 200.878159 -245.956017 
L 200.878159 -250.84447 
L 198.313579 -250.84447 
L 198.313579 -258.964535 
L 195.748999 -258.964535 
L 195.748999 -276.711407 
L 193.184419 -276.711407 
L 193.184419 -302.245548 
L 190.619839 -302.245548 
L 190.619839 -310.158023 
L 188.055259 -310.158023 
L 188.055259 -313.314095 
L 185.49068 -313.314095 
L 185.49068 -325.887167 
L 182.9261 -325.887167 
L 182.9261 -332.142726 
L 180.36152 -332.142726 
L 180.36152 -341.486772 
L 177.79694 -341.486772 
L 177.79694 -352.327395 
L 175.23236 -352.327395 
L 175.23236 -370.753128 
L 172.66778 -370.753128 
L 172.66778 -394.985654 
L 170.1032 -394.985654 
L 170.1032 -402.47221 
L 167.53862 -402.47221 
L 167.53862 -406.942773 
L 164.97404 -406.942773 
L 164.97404 -418.780494 
L 162.40946 -418.780494 
L 162.40946 -427.57208 
L 159.84488 -427.57208 
L 159.84488 -434.835535 
L 157.2803 -434.835535 
L 157.2803 -446.322924 
L 154.71572 -446.322924 
L 154.71572 -451.996527 
L 152.15114 -451.996527 
L 152.15114 -457.616746 
L 149.58656 -457.616746 
L 149.58656 -464.556818 
L 147.02198 -464.556818 
L 147.02198 -470.030165 
L 144.4574 -470.030165 
L 144.4574 -475.420984 
L 141.89282 -475.420984 
L 141.89282 -478.08063 
L 139.32824 -478.08063 
L 139.32824 -487.153203 
L 136.76366 -487.153203 
L 136.76366 -493.326862 
L 134.19908 -493.326862 
L 134.19908 -494.51866 
L 131.6345 -494.51866 
L 131.6345 -496.846231 
L 129.06992 -496.846231 
L 129.06992 -500.155337 
L 126.50534 -500.155337 
L 126.50534 -502.184608 
L 123.94076 -502.184608 
L 123.94076 -503.119993 
L 121.37618 -503.119993 
L 121.37618 -503.979903 
L 116.24702 -503.979903 
L 116.24702 -504.731942 
L 105.9887 -504.731942 
L 105.9887 -505.309271 
L 93.1658 -505.309271 
L 93.1658 -505.535238 
L 67.52 -505.535238 
z
" style="stroke: #ffa500; stroke-opacity: 0.25"/>
    </defs>
    <g clip-path="url(#p0c137a60bd)">
     <use xlink:href="#mef33b26b25" x="0" y="576" style="fill: #ffa500; fill-opacity: 0.25; stroke: #ffa500; stroke-opacity: 0.25"/>
    </g>
   </g>
   <g id="matplotlib.axis_1">
    <g id="xtick_1">
     <g id="line2d_1">
      <path d="M 67.52 526.96 
L 67.52 47.64 
" clip-path="url(#p0c137a60bd)" style="fill: none; stroke-dasharray: 2.96,1.28; stroke-dashoffset: 0; stroke: #b0b0b0; stroke-opacity: 0.6; stroke-width: 0.8"/>
     </g>
     <g id="line2d_2">
      <defs>
       <path id="m0fe8c9f42e" d="M 0 0 
L 0 3.5 
" style="stroke: #000000; stroke-width: 0.8"/>
      </defs>
      <g>
       <use xlink:href="#m0fe8c9f42e" x="67.52" y="526.96" style="stroke: #000000; stroke-width: 0.8"/>
      </g>
     </g>
     <g id="text_1">
      <text style="font-size: 10px; font-family: 'Helvetica'; text-anchor: middle" x="67.52" y="541.558437" transform="rotate(-0 67.52 541.558437)">0</text>
     </g>
    </g>
    <g id="xtick_2">
     <g id="line2d_3">
      <path d="M 131.6345 526.96 
L 131.6345 47.64 
" clip-path="url(#p0c137a60bd)" style="fill: none; stroke-dasharray: 2.96,1.28; stroke-dashoffset: 0; stroke: #b0b0b0; stroke-opacity: 0.6; stroke-width: 0.8"/>
     </g>
     <g id="line2d_4">
      <g>
       <use xlink:href="#m0fe8c9f42e" x="131.6345" y="526.96" style="stroke: #000000; stroke-width: 0.8"/>
      </g>
     </g>
     <g id="text_2">
      <text style="font-size: 10px; font-family: 'Helvetica'; text-anchor: middle" x="131.6345" y="541.558437" transform="rotate(-0 131.6345 541.558437)">25</text>
     </g>
    </g>
    <g id="xtick_3">
     <g id="line2d_5">
      <path d="M 195.748999 526.96 
L 195.748999 47.64 
" clip-path="url(#p0c137a60bd)" style="fill: none; stroke-dasharray: 2.96,1.28; stroke-dashoffset: 0; stroke: #b0b0b0; stroke-opacity: 0.6; stroke-width: 0.8"/>
     </g>
     <g id="line2d_6">
      <g>
       <use xlink:href="#m0fe8c9f42e" x="195.748999" y="526.96" style="stroke: #000000; stroke-width: 0.8"/>
      </g>
     </g>
     <g id="text_3">
      <text style="font-size: 10px; font-family: 'Helvetica'; text-anchor: middle" x="195.748999" y="541.558437" transform="rotate(-0 195.748999 541.558437)">50</text>
     </g>
    </g>
    <g id="xtick_4">
     <g id="line2d_7">
      <path d="M 259.863499 526.96 
L 259.863499 47.64 
" clip-path="url(#p0c137a60bd)" style="fill: none; stroke-dasharray: 2.96,1.28; stroke-dashoffset: 0; stroke: #b0b0b0; stroke-opacity: 0.6; stroke-width: 0.8"/>
     </g>
     <g id="line2d_8">
      <g>
       <use xlink:href="#m0fe8c9f42e" x="259.863499" y="526.96" style="stroke: #000000; stroke-width: 0.8"/>
      </g>
     </g>
     <g id="text_4">
      <text style="font-size: 10px; font-family: 'Helvetica'; text-anchor: middle" x="259.863499" y="541.558437" transform="rotate(-0 259.863499 541.558437)">75</text>
     </g>
    </g>
    <g id="xtick_5">
     <g id="line2d_9">
      <path d="M 323.977999 526.96 
L 323.977999 47.64 
" clip-path="url(#p0c137a60bd)" style="fill: none; stroke-dasharray: 2.96,1.28; stroke-dashoffset: 0; stroke: #b0b0b0; stroke-opacity: 0.6; stroke-width: 0.8"/>
     </g>
     <g id="line2d_10">
      <g>
       <use xlink:href="#m0fe8c9f42e" x="323.977999" y="526.96" style="stroke: #000000; stroke-width: 0.8"/>
      </g>
     </g>
     <g id="text_5">
      <text style="font-size: 10px; font-family: 'Helvetica'; text-anchor: middle" x="323.977999" y="541.558437" transform="rotate(-0 323.977999 541.558437)">100</text>
     </g>
    </g>
    <g id="xtick_6">
     <g id="line2d_11">
      <path d="M 388.092499 526.96 
L 388.092499 47.64 
" clip-path="url(#p0c137a60bd)" style="fill: none; stroke-dasharray: 2.96,1.28; stroke-dashoffset: 0; stroke: #b0b0b0; stroke-opacity: 0.6; stroke-width: 0.8"/>
     </g>
     <g id="line2d_12">
      <g>
       <use xlink:href="#m0fe8c9f42e" x="388.092499" y="526.96" style="stroke: #000000; stroke-width: 0.8"/>
      </g>
     </g>
     <g id="text_6">
      <text style="font-size: 10px; font-family: 'Helvetica'; text-anchor: middle" x="388.092499" y="541.558437" transform="rotate(-0 388.092499 541.558437)">125</text>
     </g>
    </g>
    <g id="xtick_7">
     <g id="line2d_13">
      <path d="M 452.206998 526.96 
L 452.206998 47.64 
" clip-path="url(#p0c137a60bd)" style="fill: none; stroke-dasharray: 2.96,1.28; stroke-dashoffset: 0; stroke: #b0b0b0; stroke-opacity: 0.6; stroke-width: 0.8"/>
     </g>
     <g id="line2d_14">
      <g>
       <use xlink:href="#m0fe8c9f42e" x="452.206998" y="526.96" style="stroke: #000000; stroke-width: 0.8"/>
      </g>
     </g>
     <g id="text_7">
      <text style="font-size: 10px; font-family: 'Helvetica'; text-anchor: middle" x="452.206998" y="541.558437" transform="rotate(-0 452.206998 541.558437)">150</text>
     </g>
    </g>
    <g id="xtick_8">
     <g id="line2d_15">
      <path d="M 516.321498 526.96 
L 516.321498 47.64 
" clip-path="url(#p0c137a60bd)" style="fill: none; stroke-dasharray: 2.96,1.28; stroke-dashoffset: 0; stroke: #b0b0b0; stroke-opacity: 0.6; stroke-width: 0.8"/>
     </g>
     <g id="line2d_16">
      <g>
       <use xlink:href="#m0fe8c9f42e" x="516.321498" y="526.96" style="stroke: #000000; stroke-width: 0.8"/>
      </g>
     </g>
     <g id="text_8">
      <text style="font-size: 10px; font-family: 'Helvetica'; text-anchor: middle" x="516.321498" y="541.558437" transform="rotate(-0 516.321498 541.558437)">175</text>
     </g>
    </g>
    <g id="text_9">
     <text style="font-size: 12px; font-family: 'Helvetica'; text-anchor: middle" x="307.18" y="556.75625" transform="rotate(-0 307.18 556.75625)">Days</text>
    </g>
   </g>
   <g id="matplotlib.axis_2">
    <g id="ytick_1">
     <g id="line2d_17">
      <path d="M 67.52 526.96 
L 546.84 526.96 
" clip-path="url(#p0c137a60bd)" style="fill: none; stroke-dasharray: 2.96,1.28; stroke-dashoffset: 0; stroke: #b0b0b0; stroke-opacity: 0.6; stroke-width: 0.8"/>
     </g>
     <g id="line2d_18">
      <defs>
       <path id="m0a4c6f27a9" d="M 0 0 
L -3.5 0 
" style="stroke: #000000; stroke-width: 0.8"/>
      </defs>
      <g>
       <use xlink:href="#m0a4c6f27a9" x="67.52" y="526.96" style="stroke: #000000; stroke-width: 0.8"/>
      </g>
     </g>
     <g id="text_10">
      <text style="font-size: 10px; font-family: 'Helvetica'; text-anchor: end" x="60.52" y="530.759219" transform="rotate(-0 60.52 530.759219)">0.0</text>
     </g>
    </g>
    <g id="ytick_2">
     <g id="line2d_19">
      <path d="M 67.52 435.660952 
L 546.84 435.660952 
" clip-path="url(#p0c137a60bd)" style="fill: none; stroke-dasharray: 2.96,1.28; stroke-dashoffset: 0; stroke: #b0b0b0; stroke-opacity: 0.6; stroke-width: 0.8"/>
     </g>
     <g id="line2d_20">
      <g>
       <use xlink:href="#m0a4c6f27a9" x="67.52" y="435.660952" style="stroke: #000000; stroke-width: 0.8"/>
      </g>
     </g>
     <g id="text_11">
      <text style="font-size: 10px; font-family: 'Helvetica'; text-anchor: end" x="60.52" y="439.460171" transform="rotate(-0 60.52 439.460171)">0.2</text>
     </g>
    </g>
    <g id="ytick_3">
     <g id="line2d_21">
      <path d="M 67.52 344.361905 
L 546.84 344.361905 
" clip-path="url(#p0c137a60bd)" style="fill: none; stroke-dasharray: 2.96,1.28; stroke-dashoffset: 0; stroke: #b0b0b0; stroke-opacity: 0.6; stroke-width: 0.8"/>
     </g>
     <g id="line2d_22">
      <g>
       <use xlink:href="#m0a4c6f27a9" x="67.52" y="344.361905" style="stroke: #000000; stroke-width: 0.8"/>
      </g>
     </g>
     <g id="text_12">
      <text style="font-size: 10px; font-family: 'Helvetica'; text-anchor: end" x="60.52" y="348.161124" transform="rotate(-0 60.52 348.161124)">0.4</text>
     </g>
    </g>
    <g id="ytick_4">
     <g id="line2d_23">
      <path d="M 67.52 253.062857 
L 546.84 253.062857 
" clip-path="url(#p0c137a60bd)" style="fill: none; stroke-dasharray: 2.96,1.28; stroke-dashoffset: 0; stroke: #b0b0b0; stroke-opacity: 0.6; stroke-width: 0.8"/>
     </g>
     <g id="line2d_24">
      <g>
       <use xlink:href="#m0a4c6f27a9" x="67.52" y="253.062857" style="stroke: #000000; stroke-width: 0.8"/>
      </g>
     </g>
     <g id="text_13">
      <text style="font-size: 10px; font-family: 'Helvetica'; text-anchor: end" x="60.52" y="256.862076" transform="rotate(-0 60.52 256.862076)">0.6</text>
     </g>
    </g>
    <g id="ytick_5">
     <g id="line2d_25">
      <path d="M 67.52 161.76381 
L 546.84 161.76381 
" clip-path="url(#p0c137a60bd)" style="fill: none; stroke-dasharray: 2.96,1.28; stroke-dashoffset: 0; stroke: #b0b0b0; stroke-opacity: 0.6; stroke-width: 0.8"/>
     </g>
     <g id="line2d_26">
      <g>
       <use xlink:href="#m0a4c6f27a9" x="67.52" y="161.76381" style="stroke: #000000; stroke-width: 0.8"/>
      </g>
     </g>
     <g id="text_14">
      <text style="font-size: 10px; font-family: 'Helvetica'; text-anchor: end" x="60.52" y="165.563028" transform="rotate(-0 60.52 165.563028)">0.8</text>
     </g>
    </g>
    <g id="ytick_6">
     <g id="line2d_27">
      <path d="M 67.52 70.464762 
L 546.84 70.464762 
" clip-path="url(#p0c137a60bd)" style="fill: none; stroke-dasharray: 2.96,1.28; stroke-dashoffset: 0; stroke: #b0b0b0; stroke-opacity: 0.6; stroke-width: 0.8"/>
     </g>
     <g id="line2d_28">
      <g>
       <use xlink:href="#m0a4c6f27a9" x="67.52" y="70.464762" style="stroke: #000000; stroke-width: 0.8"/>
      </g>
     </g>
     <g id="text_15">
      <text style="font-size: 10px; font-family: 'Helvetica'; text-anchor: end" x="60.52" y="74.263981" transform="rotate(-0 60.52 74.263981)">1.0</text>
     </g>
    </g>
    <g id="text_16">
     <text style="font-size: 12px; font-family: 'Helvetica'; text-anchor: middle" x="38.12125" y="287.3" transform="rotate(-90 38.12125 287.3)">Probability of weight loss target achievement</text>
    </g>
   </g>
   <g id="line2d_29">
    <path d="M 67.52 70.464762 
L 103.42412 70.464762 
L 103.42412 72.702484 
L 108.55328 72.702484 
L 108.55328 74.940205 
L 111.11786 74.940205 
L 111.11786 77.177927 
L 118.8116 77.177927 
L 118.8116 81.653371 
L 121.37618 81.653371 
L 121.37618 83.891092 
L 126.50534 83.891092 
L 126.50534 86.128814 
L 129.06992 86.128814 
L 129.06992 101.792866 
L 131.6345 101.792866 
L 131.6345 104.030588 
L 134.19908 104.030588 
L 134.19908 108.506032 
L 136.76366 108.506032 
L 136.76366 112.981475 
L 139.32824 112.981475 
L 139.32824 124.170084 
L 141.89282 124.170084 
L 141.89282 130.883249 
L 144.4574 130.883249 
L 144.4574 133.120971 
L 147.02198 133.120971 
L 147.02198 139.834136 
L 149.58656 139.834136 
L 149.58656 144.30958 
L 152.15114 144.30958 
L 152.15114 151.022745 
L 154.71572 151.022745 
L 154.71572 157.73591 
L 157.2803 157.73591 
L 157.2803 166.686797 
L 159.84488 166.686797 
L 159.84488 180.113128 
L 162.40946 180.113128 
L 162.40946 195.77718 
L 164.97404 195.77718 
L 164.97404 206.965789 
L 167.53862 206.965789 
L 167.53862 218.154398 
L 170.1032 218.154398 
L 170.1032 238.293894 
L 172.66778 238.293894 
L 172.66778 247.244781 
L 175.23236 247.244781 
L 175.23236 271.85972 
L 177.79694 271.85972 
L 177.79694 285.28605 
L 180.36152 285.28605 
L 180.36152 296.474659 
L 182.9261 296.474659 
L 182.9261 309.90099 
L 185.49068 309.90099 
L 185.49068 318.851877 
L 188.055259 318.851877 
L 188.055259 332.278207 
L 190.619839 332.278207 
L 190.619839 336.753651 
L 193.184419 336.753651 
L 193.184419 347.94226 
L 195.748999 347.94226 
L 195.748999 359.130868 
L 198.313579 359.130868 
L 198.313579 370.319477 
L 200.878159 370.319477 
L 200.878159 379.270364 
L 203.442739 379.270364 
L 203.442739 394.934416 
L 206.007319 394.934416 
L 206.007319 401.647582 
L 208.571899 401.647582 
L 208.571899 412.83619 
L 211.136479 412.83619 
L 211.136479 421.787077 
L 213.701059 421.787077 
L 213.701059 428.500243 
L 216.265639 428.500243 
L 216.265639 430.737965 
L 218.830219 430.737965 
L 218.830219 435.213408 
L 221.394799 435.213408 
L 221.394799 441.926573 
L 223.959379 441.926573 
L 223.959379 450.87746 
L 226.523959 450.87746 
L 226.523959 462.066069 
L 231.653119 462.066069 
L 231.653119 466.541513 
L 234.217699 466.541513 
L 234.217699 468.779234 
L 239.346859 468.779234 
L 239.346859 473.254678 
L 241.911439 473.254678 
L 241.911439 475.4924 
L 247.040599 475.4924 
L 247.040599 477.730121 
L 249.605179 477.730121 
L 249.605179 479.967843 
L 257.298919 479.967843 
L 257.298919 486.681008 
L 259.863499 486.681008 
L 259.863499 488.91873 
L 262.428079 488.91873 
L 262.428079 491.156452 
L 264.992659 491.156452 
L 264.992659 493.394174 
L 267.557239 493.394174 
L 267.557239 495.631895 
L 272.686399 495.631895 
L 272.686399 497.869617 
L 303.461359 497.869617 
L 303.461359 500.107339 
L 306.025939 500.107339 
L 306.025939 502.345061 
L 316.284259 502.345061 
L 316.284259 504.582782 
L 318.848839 504.582782 
L 318.848839 506.820504 
L 323.977999 506.820504 
L 323.977999 509.058226 
L 329.107159 509.058226 
L 329.107159 511.295948 
L 341.930059 511.295948 
L 341.930059 513.533669 
L 367.575859 513.533669 
L 367.575859 515.771391 
L 377.834179 515.771391 
L 377.834179 518.009113 
L 416.302879 518.009113 
L 416.302879 520.246835 
L 431.690358 520.246835 
L 431.690358 522.484556 
L 439.384098 522.484556 
L 439.384098 524.722278 
L 524.015238 524.722278 
L 524.015238 526.96 
L 524.015238 526.96 
" clip-path="url(#p0c137a60bd)" style="fill: none; stroke: #0000ff; stroke-width: 1.5; stroke-linecap: square"/>
   </g>
   <g id="line2d_30">
    <path d="M 67.52 70.464762 
L 93.1658 70.464762 
L 93.1658 72.0665 
L 105.9887 72.0665 
L 105.9887 73.668237 
L 116.24702 73.668237 
L 116.24702 75.269975 
L 121.37618 75.269975 
L 121.37618 76.871713 
L 123.94076 76.871713 
L 123.94076 78.47345 
L 126.50534 78.47345 
L 126.50534 81.676926 
L 129.06992 81.676926 
L 129.06992 86.482139 
L 131.6345 86.482139 
L 131.6345 89.685614 
L 134.19908 89.685614 
L 134.19908 91.287352 
L 136.76366 91.287352 
L 136.76366 99.29604 
L 139.32824 99.29604 
L 139.32824 110.508204 
L 141.89282 110.508204 
L 141.89282 113.711679 
L 144.4574 113.711679 
L 144.4574 120.11863 
L 147.02198 120.11863 
L 147.02198 126.525581 
L 149.58656 126.525581 
L 149.58656 134.534269 
L 152.15114 134.534269 
L 152.15114 140.94122 
L 154.71572 140.94122 
L 154.71572 147.34817 
L 157.2803 147.34817 
L 157.2803 160.162072 
L 159.84488 160.162072 
L 159.84488 168.17076 
L 162.40946 168.17076 
L 162.40946 177.781186 
L 164.97404 177.781186 
L 164.97404 190.595088 
L 167.53862 190.595088 
L 167.53862 195.400301 
L 170.1032 195.400301 
L 170.1032 203.408989 
L 172.66778 203.408989 
L 172.66778 229.036792 
L 175.23236 229.036792 
L 175.23236 248.257644 
L 177.79694 248.257644 
L 177.79694 259.469808 
L 180.36152 259.469808 
L 180.36152 269.080234 
L 182.9261 269.080234 
L 182.9261 275.487185 
L 185.49068 275.487185 
L 185.49068 288.301086 
L 188.055259 288.301086 
L 188.055259 291.504561 
L 190.619839 291.504561 
L 190.619839 299.51325 
L 193.184419 299.51325 
L 193.184419 325.141053 
L 195.748999 325.141053 
L 195.748999 342.760167 
L 198.313579 342.760167 
L 198.313579 350.768855 
L 200.878159 350.768855 
L 200.878159 355.574069 
L 203.442739 355.574069 
L 203.442739 363.582757 
L 206.007319 363.582757 
L 206.007319 366.786232 
L 208.571899 366.786232 
L 208.571899 373.193183 
L 211.136479 373.193183 
L 211.136479 381.201871 
L 213.701059 381.201871 
L 213.701059 389.21056 
L 216.265639 389.21056 
L 216.265639 390.812297 
L 218.830219 390.812297 
L 218.830219 398.820986 
L 221.394799 398.820986 
L 221.394799 402.024461 
L 226.523959 402.024461 
L 226.523959 408.431412 
L 229.088539 408.431412 
L 229.088539 413.236625 
L 231.653119 413.236625 
L 231.653119 418.041838 
L 234.217699 418.041838 
L 234.217699 424.448789 
L 236.782279 424.448789 
L 236.782279 427.652264 
L 239.346859 427.652264 
L 239.346859 434.059215 
L 241.911439 434.059215 
L 241.911439 435.660952 
L 244.476019 435.660952 
L 244.476019 442.067903 
L 247.040599 442.067903 
L 247.040599 446.873116 
L 249.605179 446.873116 
L 249.605179 456.483542 
L 252.169759 456.483542 
L 252.169759 459.687018 
L 259.863499 459.687018 
L 259.863499 461.288755 
L 262.428079 461.288755 
L 262.428079 462.890493 
L 267.557239 462.890493 
L 267.557239 466.093968 
L 270.121819 466.093968 
L 270.121819 469.297444 
L 272.686399 469.297444 
L 272.686399 472.500919 
L 275.250979 472.500919 
L 275.250979 474.102657 
L 277.815559 474.102657 
L 277.815559 477.306132 
L 288.073879 477.306132 
L 288.073879 480.509607 
L 290.638459 480.509607 
L 290.638459 483.713083 
L 295.767619 483.713083 
L 295.767619 485.31482 
L 298.332199 485.31482 
L 298.332199 486.916558 
L 300.896779 486.916558 
L 300.896779 488.518296 
L 313.719679 488.518296 
L 313.719679 491.721771 
L 316.284259 491.721771 
L 316.284259 493.323509 
L 323.977999 493.323509 
L 323.977999 499.730459 
L 329.107159 499.730459 
L 329.107159 501.332197 
L 334.236319 501.332197 
L 334.236319 502.933935 
L 344.494639 502.933935 
L 344.494639 504.535673 
L 352.188379 504.535673 
L 352.188379 507.739148 
L 354.752959 507.739148 
L 354.752959 509.340886 
L 367.575859 509.340886 
L 367.575859 510.942623 
L 370.140439 510.942623 
L 370.140439 512.544361 
L 375.269599 512.544361 
L 375.269599 514.146099 
L 408.609139 514.146099 
L 408.609139 517.349574 
L 434.254938 517.349574 
L 434.254938 518.951312 
L 462.465318 518.951312 
L 462.465318 520.553049 
L 482.981958 520.553049 
L 482.981958 522.154787 
L 488.111118 522.154787 
L 488.111118 523.756525 
L 495.804858 523.756525 
L 495.804858 525.358262 
L 500.934018 525.358262 
L 500.934018 526.96 
L 500.934018 526.96 
" clip-path="url(#p0c137a60bd)" style="fill: none; stroke: #ffa500; stroke-width: 1.5; stroke-linecap: square"/>
   </g>
   <g id="patch_3">
    <path d="M 67.52 526.96 
L 67.52 47.64 
" style="fill: none; stroke: #000000; stroke-width: 0.8; stroke-linejoin: miter; stroke-linecap: square"/>
   </g>
   <g id="patch_4">
    <path d="M 546.84 526.96 
L 546.84 47.64 
" style="fill: none; stroke: #000000; stroke-width: 0.8; stroke-linejoin: miter; stroke-linecap: square"/>
   </g>
   <g id="patch_5">
    <path d="M 67.52 526.96 
L 546.84 526.96 
" style="fill: none; stroke: #000000; stroke-width: 0.8; stroke-linejoin: miter; stroke-linecap: square"/>
   </g>
   <g id="patch_6">
    <path d="M 67.52 47.64 
L 546.84 47.64 
" style="fill: none; stroke: #000000; stroke-width: 0.8; stroke-linejoin: miter; stroke-linecap: square"/>
   </g>
   <g id="text_17">
    <text style="font-size: 14px; font-family: 'Helvetica'" transform="translate(104.247812 25.963062)">Time to 10% weight loss by Emotional eating score (1-10)</text>
    <text style="font-size: 14px; font-family: 'Helvetica'" transform="translate(243.918594 41.64)">Log-rank p=0.037</text>
   </g>
   <g id="legend_1">
    <g id="patch_7">
     <path d="M 311.399375 99.674375 
L 539.84 99.674375 
Q 541.84 99.674375 541.84 97.674375 
L 541.84 54.64 
Q 541.84 52.64 539.84 52.64 
L 311.399375 52.64 
Q 309.399375 52.64 309.399375 54.64 
L 309.399375 97.674375 
Q 309.399375 99.674375 311.399375 99.674375 
z
" style="fill: #ffffff; opacity: 0.8; stroke: #cccccc; stroke-linejoin: miter"/>
    </g>
    <g id="text_18">
     <text style="font-size: 10px; font-family: 'Helvetica'; text-anchor: start" x="351.218125" y="64.238437" transform="rotate(-0 351.218125 64.238437)">Emotional eating score (1-10)</text>
    </g>
    <g id="line2d_31">
     <path d="M 313.399375 75.416562 
L 323.399375 75.416562 
L 323.399375 75.416562 
L 333.399375 75.416562 
L 333.399375 75.416562 
" style="fill: none; stroke: #0000ff; stroke-width: 1.5; stroke-linecap: square"/>
    </g>
    <g id="text_19">
     <text style="font-size: 10px; font-family: 'Helvetica'; text-anchor: start" x="341.399375" y="78.916562" transform="rotate(-0 341.399375 78.916562)">Emotional eating score: &lt; median (7)</text>
    </g>
    <g id="line2d_32">
     <path d="M 313.399375 90.094687 
L 323.399375 90.094687 
L 323.399375 90.094687 
L 333.399375 90.094687 
L 333.399375 90.094687 
" style="fill: none; stroke: #ffa500; stroke-width: 1.5; stroke-linecap: square"/>
    </g>
    <g id="text_20">
     <text style="font-size: 10px; font-family: 'Helvetica'; text-anchor: start" x="341.399375" y="93.594687" transform="rotate(-0 341.399375 93.594687)">Emotional eating score: &gt;= median (7)</text>
    </g>
   </g>
  </g>
 </g>
 <defs>
  <clipPath id="p0c137a60bd">
   <rect x="67.52" y="47.64" width="479.32" height="479.32"/>
  </clipPath>
 </defs>
</svg>
