<?xml version="1.0" encoding="utf-8" standalone="no"?>
<!DOCTYPE svg PUBLIC "-//W3C//DTD SVG 1.1//EN"
  "http://www.w3.org/Graphics/SVG/1.1/DTD/svg11.dtd">
<svg xmlns:xlink="http://www.w3.org/1999/xlink" width="576pt" height="576pt" viewBox="0 0 576 576" xmlns="http://www.w3.org/2000/svg" version="1.1">
 <metadata>
  <rdf:RDF xmlns:dc="http://purl.org/dc/elements/1.1/" xmlns:cc="http://creativecommons.org/ns#" xmlns:rdf="http://www.w3.org/1999/02/22-rdf-syntax-ns#">
   <cc:Work>
    <dc:type rdf:resource="http://purl.org/dc/dcmitype/StillImage"/>
    <dc:date>2025-08-04T13:15:34.171455</dc:date>
    <dc:format>image/svg+xml</dc:format>
    <dc:creator>
     <cc:Agent>
      <dc:title>Matplotlib v3.10.1, https://matplotlib.org/</dc:title>
     </cc:Agent>
    </dc:creator>
   </cc:Work>
  </rdf:RDF>
 </metadata>
 <defs>
  <style type="text/css">*{stroke-linejoin: round; stroke-linecap: butt}</style>
 </defs>
 <g id="figure_1">
  <g id="patch_1">
   <path d="M 0 576 
L 576 576 
L 576 0 
L 0 0 
z
" style="fill: #ffffff"/>
  </g>
  <g id="axes_1">
   <g id="patch_2">
    <path d="M 67.52 526.96 
L 546.84 526.96 
L 546.84 47.64 
L 67.52 47.64 
z
" style="fill: #ffffff"/>
   </g>
   <g id="FillBetweenPolyCollection_1">
    <defs>
     <path id="m36776469d5" d="M 67.52 -505.535238 
L 67.52 -505.535238 
L 111.11786 -505.535238 
L 111.11786 -479.205977 
L 116.24702 -479.205977 
L 116.24702 -475.865365 
L 118.8116 -475.865365 
L 118.8116 -466.106823 
L 121.37618 -466.106823 
L 121.37618 -461.162541 
L 129.06992 -461.162541 
L 129.06992 -446.701247 
L 134.19908 -446.701247 
L 134.19908 -437.36084 
L 136.76366 -437.36084 
L 136.76366 -428.218224 
L 139.32824 -428.218224 
L 139.32824 -419.241997 
L 141.89282 -419.241997 
L 141.89282 -414.808492 
L 144.4574 -414.808492 
L 144.4574 -410.408004 
L 147.02198 -410.408004 
L 147.02198 -397.384305 
L 149.58656 -397.384305 
L 149.58656 -393.096676 
L 154.71572 -393.096676 
L 154.71572 -388.833478 
L 157.2803 -388.833478 
L 157.2803 -376.179045 
L 159.84488 -376.179045 
L 159.84488 -367.845818 
L 162.40946 -367.845818 
L 162.40946 -347.330282 
L 164.97404 -347.330282 
L 164.97404 -327.215011 
L 167.53862 -327.215011 
L 167.53862 -323.235525 
L 170.1032 -323.235525 
L 170.1032 -299.639407 
L 172.66778 -299.639407 
L 172.66778 -288.012294 
L 175.23236 -288.012294 
L 175.23236 -268.872551 
L 177.79694 -268.872551 
L 177.79694 -257.527507 
L 180.36152 -257.527507 
L 180.36152 -250.020866 
L 182.9261 -250.020866 
L 182.9261 -246.284443 
L 185.49068 -246.284443 
L 185.49068 -235.142534 
L 188.055259 -235.142534 
L 188.055259 -220.443966 
L 190.619839 -220.443966 
L 190.619839 -209.53903 
L 193.184419 -209.53903 
L 193.184419 -195.160948 
L 195.748999 -195.160948 
L 195.748999 -173.954534 
L 198.313579 -173.954534 
L 198.313579 -163.522842 
L 200.878159 -163.522842 
L 200.878159 -156.635832 
L 203.442739 -156.635832 
L 203.442739 -146.412123 
L 206.007319 -146.412123 
L 206.007319 -139.671512 
L 208.571899 -139.671512 
L 208.571899 -132.994879 
L 211.136479 -132.994879 
L 211.136479 -119.850011 
L 213.701059 -119.850011 
L 213.701059 -113.392014 
L 216.265639 -113.392014 
L 216.265639 -110.194369 
L 218.830219 -110.194369 
L 218.830219 -107.01889 
L 223.959379 -107.01889 
L 223.959379 -97.636835 
L 226.523959 -97.636835 
L 226.523959 -82.573572 
L 231.653119 -82.573572 
L 231.653119 -76.800477 
L 234.217699 -76.800477 
L 234.217699 -73.981034 
L 239.346859 -73.981034 
L 239.346859 -68.501048 
L 249.605179 -68.501048 
L 249.605179 -65.853803 
L 257.298919 -65.853803 
L 257.298919 -63.28012 
L 262.428079 -63.28012 
L 262.428079 -60.791997 
L 264.992659 -60.791997 
L 264.992659 -58.40542 
L 316.284259 -58.40542 
L 316.284259 -56.142523 
L 318.848839 -56.142523 
L 318.848839 -54.035522 
L 323.977999 -54.035522 
L 323.977999 -52.134617 
L 329.107159 -52.134617 
L 329.107159 -50.526095 
L 341.930059 -50.526095 
L 341.930059 -49.381774 
L 524.015238 -49.381774 
L 524.015238 -49.04 
L 524.015238 -49.04 
L 524.015238 -49.04 
L 524.015238 -67.936731 
L 341.930059 -67.936731 
L 341.930059 -73.490946 
L 329.107159 -73.490946 
L 329.107159 -78.965029 
L 323.977999 -78.965029 
L 323.977999 -84.253897 
L 318.848839 -84.253897 
L 318.848839 -89.386783 
L 316.284259 -89.386783 
L 316.284259 -94.39344 
L 264.992659 -94.39344 
L 264.992659 -99.296457 
L 262.428079 -99.296457 
L 262.428079 -104.112622 
L 257.298919 -104.112622 
L 257.298919 -108.854614 
L 249.605179 -108.854614 
L 249.605179 -113.532217 
L 239.346859 -113.532217 
L 239.346859 -122.72358 
L 234.217699 -122.72358 
L 234.217699 -127.248592 
L 231.653119 -127.248592 
L 231.653119 -136.178433 
L 226.523959 -136.178433 
L 226.523959 -157.934095 
L 223.959379 -157.934095 
L 223.959379 -170.674552 
L 218.830219 -170.674552 
L 218.830219 -174.877329 
L 216.265639 -174.877329 
L 216.265639 -179.059759 
L 213.701059 -179.059759 
L 213.701059 -187.366934 
L 211.136479 -187.366934 
L 211.136479 -203.769968 
L 208.571899 -203.769968 
L 208.571899 -211.874889 
L 206.007319 -211.874889 
L 206.007319 -219.920267 
L 203.442739 -219.920267 
L 203.442739 -231.883018 
L 200.878159 -231.883018 
L 200.878159 -239.79149 
L 198.313579 -239.79149 
L 198.313579 -251.559091 
L 195.748999 -251.559091 
L 195.748999 -274.770322 
L 193.184419 -274.770322 
L 193.184419 -290.01612 
L 190.619839 -290.01612 
L 190.619839 -301.334584 
L 188.055259 -301.334584 
L 188.055259 -316.273716 
L 185.49068 -316.273716 
L 185.49068 -327.364455 
L 182.9261 -327.364455 
L 182.9261 -331.039677 
L 180.36152 -331.039677 
L 180.36152 -338.357394 
L 177.79694 -338.357394 
L 177.79694 -349.251374 
L 175.23236 -349.251374 
L 175.23236 -367.182494 
L 172.66778 -367.182494 
L 172.66778 -377.80085 
L 170.1032 -377.80085 
L 170.1032 -398.700583 
L 167.53862 -398.700583 
L 167.53862 -402.137522 
L 164.97404 -402.137522 
L 164.97404 -419.105077 
L 162.40946 -419.105077 
L 162.40946 -435.670775 
L 159.84488 -435.670775 
L 159.84488 -442.168373 
L 157.2803 -442.168373 
L 157.2803 -451.756597 
L 154.71572 -451.756597 
L 154.71572 -454.906226 
L 149.58656 -454.906226 
L 149.58656 -458.03048 
L 147.02198 -458.03048 
L 147.02198 -467.23456 
L 144.4574 -467.23456 
L 144.4574 -470.239678 
L 141.89282 -470.239678 
L 141.89282 -473.209216 
L 139.32824 -473.209216 
L 139.32824 -479.028588 
L 136.76366 -479.028588 
L 136.76366 -484.660103 
L 134.19908 -484.660103 
L 134.19908 -490.055419 
L 129.06992 -490.055419 
L 129.06992 -497.520385 
L 121.37618 -497.520385 
L 121.37618 -499.763923 
L 118.8116 -499.763923 
L 118.8116 -503.620455 
L 116.24702 -503.620455 
L 116.24702 -504.99745 
L 111.11786 -504.99745 
L 111.11786 -505.535238 
L 67.52 -505.535238 
z
" style="stroke: #0000ff; stroke-opacity: 0.25"/>
    </defs>
    <g clip-path="url(#p74b1209ab9)">
     <use xlink:href="#m36776469d5" x="0" y="576" style="fill: #0000ff; fill-opacity: 0.25; stroke: #0000ff; stroke-opacity: 0.25"/>
    </g>
   </g>
   <g id="FillBetweenPolyCollection_2">
    <defs>
     <path id="ma0cf251e03" d="M 67.52 -505.535238 
L 67.52 -505.535238 
L 93.1658 -505.535238 
L 93.1658 -496.825116 
L 103.42412 -496.825116 
L 103.42412 -495.72227 
L 105.9887 -495.72227 
L 105.9887 -494.125892 
L 108.55328 -494.125892 
L 108.55328 -492.46912 
L 121.37618 -492.46912 
L 121.37618 -490.815069 
L 123.94076 -490.815069 
L 123.94076 -489.177555 
L 126.50534 -489.177555 
L 126.50534 -484.376987 
L 129.06992 -484.376987 
L 129.06992 -473.669806 
L 131.6345 -473.669806 
L 131.6345 -469.225706 
L 134.19908 -469.225706 
L 134.19908 -467.758771 
L 136.76366 -467.758771 
L 136.76366 -460.513928 
L 139.32824 -460.513928 
L 139.32824 -446.367891 
L 141.89282 -446.367891 
L 141.89282 -440.806699 
L 144.4574 -440.806699 
L 144.4574 -435.290092 
L 147.02198 -435.290092 
L 147.02198 -429.812948 
L 149.58656 -429.812948 
L 149.58656 -421.662457 
L 152.15114 -421.662457 
L 152.15114 -412.239995 
L 154.71572 -412.239995 
L 154.71572 -404.228445 
L 157.2803 -404.228445 
L 157.2803 -392.309391 
L 159.84488 -392.309391 
L 159.84488 -380.494487 
L 162.40946 -380.494487 
L 162.40946 -370.070182 
L 164.97404 -370.070182 
L 164.97404 -359.712457 
L 167.53862 -359.712457 
L 167.53862 -350.700069 
L 170.1032 -350.700069 
L 170.1032 -340.454363 
L 172.66778 -340.454363 
L 172.66778 -318.860081 
L 175.23236 -318.860081 
L 175.23236 -296.239015 
L 177.79694 -296.239015 
L 177.79694 -283.773498 
L 180.36152 -283.773498 
L 180.36152 -272.614605 
L 182.9261 -272.614605 
L 182.9261 -261.51175 
L 185.49068 -261.51175 
L 185.49068 -250.464516 
L 188.055259 -250.464516 
L 188.055259 -245.572469 
L 190.619839 -245.572469 
L 190.619839 -240.691424 
L 193.184419 -240.691424 
L 193.184419 -220.070924 
L 195.748999 -220.070924 
L 195.748999 -208.036877 
L 198.313579 -208.036877 
L 198.313579 -199.656584 
L 200.878159 -199.656584 
L 200.878159 -193.693231 
L 203.442739 -193.693231 
L 203.442739 -183.008144 
L 206.007319 -183.008144 
L 206.007319 -179.460856 
L 208.571899 -179.460856 
L 208.571899 -171.212941 
L 211.136479 -171.212941 
L 211.136479 -165.347359 
L 213.701059 -165.347359 
L 213.701059 -158.33831 
L 216.265639 -158.33831 
L 216.265639 -157.173384 
L 218.830219 -157.173384 
L 218.830219 -150.204061 
L 221.394799 -150.204061 
L 221.394799 -144.423827 
L 223.959379 -144.423827 
L 223.959379 -143.270906 
L 226.523959 -143.270906 
L 226.523959 -138.670027 
L 229.088539 -138.670027 
L 229.088539 -135.231063 
L 231.653119 -135.231063 
L 231.653119 -131.802531 
L 234.217699 -131.802531 
L 234.217699 -127.248094 
L 236.782279 -127.248094 
L 236.782279 -124.978434 
L 239.346859 -124.978434 
L 239.346859 -120.454974 
L 241.911439 -120.454974 
L 241.911439 -118.2015 
L 244.476019 -118.2015 
L 244.476019 -113.711976 
L 247.040599 -113.711976 
L 247.040599 -109.247058 
L 249.605179 -109.247058 
L 249.605179 -102.600038 
L 252.169759 -102.600038 
L 252.169759 -100.398924 
L 257.298919 -100.398924 
L 257.298919 -98.205638 
L 259.863499 -98.205638 
L 259.863499 -96.020553 
L 262.428079 -96.020553 
L 262.428079 -94.931213 
L 267.557239 -94.931213 
L 267.557239 -91.676678 
L 270.121819 -91.676678 
L 270.121819 -89.518846 
L 272.686399 -89.518846 
L 272.686399 -86.301286 
L 275.250979 -86.301286 
L 275.250979 -85.2342 
L 277.815559 -85.2342 
L 277.815559 -83.108714 
L 288.073879 -83.108714 
L 288.073879 -80.99548 
L 290.638459 -80.99548 
L 290.638459 -78.895401 
L 295.767619 -78.895401 
L 295.767619 -77.850611 
L 298.332199 -77.850611 
L 298.332199 -76.809509 
L 300.896779 -76.809509 
L 300.896779 -75.772248 
L 303.461359 -75.772248 
L 303.461359 -74.738996 
L 306.025939 -74.738996 
L 306.025939 -73.709931 
L 313.719679 -73.709931 
L 313.719679 -71.665162 
L 316.284259 -71.665162 
L 316.284259 -70.649901 
L 323.977999 -70.649901 
L 323.977999 -66.642552 
L 329.107159 -66.642552 
L 329.107159 -65.655756 
L 334.236319 -65.655756 
L 334.236319 -64.675751 
L 344.494639 -64.675751 
L 344.494639 -63.703006 
L 352.188379 -63.703006 
L 352.188379 -61.781481 
L 354.752959 -61.781481 
L 354.752959 -60.833986 
L 367.575859 -60.833986 
L 367.575859 -58.969498 
L 370.140439 -58.969498 
L 370.140439 -58.054493 
L 375.269599 -58.054493 
L 375.269599 -57.152609 
L 377.834179 -57.152609 
L 377.834179 -56.265371 
L 408.609139 -56.265371 
L 408.609139 -54.542709 
L 416.302879 -54.542709 
L 416.302879 -53.712492 
L 431.690358 -53.712492 
L 431.690358 -52.907754 
L 434.254938 -52.907754 
L 434.254938 -52.133525 
L 439.384098 -52.133525 
L 439.384098 -51.396791 
L 462.465318 -51.396791 
L 462.465318 -50.707756 
L 482.981958 -50.707756 
L 482.981958 -50.082393 
L 488.111118 -50.082393 
L 488.111118 -49.548357 
L 495.804858 -49.548357 
L 495.804858 -49.161537 
L 500.934018 -49.161537 
L 500.934018 -49.04 
L 500.934018 -49.04 
L 500.934018 -49.04 
L 500.934018 -55.58703 
L 495.804858 -55.58703 
L 495.804858 -57.372443 
L 488.111118 -57.372443 
L 488.111118 -59.176385 
L 482.981958 -59.176385 
L 482.981958 -60.93243 
L 462.465318 -60.93243 
L 462.465318 -62.643674 
L 439.384098 -62.643674 
L 439.384098 -64.31763 
L 434.254938 -64.31763 
L 434.254938 -65.960695 
L 431.690358 -65.960695 
L 431.690358 -67.577838 
L 416.302879 -67.577838 
L 416.302879 -69.172898 
L 408.609139 -69.172898 
L 408.609139 -72.308164 
L 377.834179 -72.308164 
L 377.834179 -73.852684 
L 375.269599 -73.852684 
L 375.269599 -75.384022 
L 370.140439 -75.384022 
L 370.140439 -76.903492 
L 367.575859 -76.903492 
L 367.575859 -79.911088 
L 354.752959 -79.911088 
L 354.752959 -81.400964 
L 352.188379 -81.400964 
L 352.188379 -84.35639 
L 344.494639 -84.35639 
L 344.494639 -85.823087 
L 334.236319 -85.823087 
L 334.236319 -87.283095 
L 329.107159 -87.283095 
L 329.107159 -88.736835 
L 323.977999 -88.736835 
L 323.977999 -94.496126 
L 316.284259 -94.496126 
L 316.284259 -95.923498 
L 313.719679 -95.923498 
L 313.719679 -98.764999 
L 306.025939 -98.764999 
L 306.025939 -100.179531 
L 303.461359 -100.179531 
L 303.461359 -101.590162 
L 300.896779 -101.590162 
L 300.896779 -102.997055 
L 298.332199 -102.997055 
L 298.332199 -104.400363 
L 295.767619 -104.400363 
L 295.767619 -105.800227 
L 290.638459 -105.800227 
L 290.638459 -108.590142 
L 288.073879 -108.590142 
L 288.073879 -111.36775 
L 277.815559 -111.36775 
L 277.815559 -114.133881 
L 275.250979 -114.133881 
L 275.250979 -115.512874 
L 272.686399 -115.512874 
L 272.686399 -119.634553 
L 270.121819 -119.634553 
L 270.121819 -122.370322 
L 267.557239 -122.370322 
L 267.557239 -126.457242 
L 262.428079 -126.457242 
L 262.428079 -127.815317 
L 259.863499 -127.815317 
L 259.863499 -130.525431 
L 257.298919 -130.525431 
L 257.298919 -133.227811 
L 252.169759 -133.227811 
L 252.169759 -135.922804 
L 249.605179 -135.922804 
L 249.605179 -143.966507 
L 247.040599 -143.966507 
L 247.040599 -149.297206 
L 244.476019 -149.297206 
L 244.476019 -154.604581 
L 241.911439 -154.604581 
L 241.911439 -157.250002 
L 239.346859 -157.250002 
L 239.346859 -162.525155 
L 236.782279 -162.525155 
L 236.782279 -165.155192 
L 234.217699 -165.155192 
L 234.217699 -170.400876 
L 231.653119 -170.400876 
L 231.653119 -174.323038 
L 229.088539 -174.323038 
L 229.088539 -178.23525 
L 226.523959 -178.23525 
L 226.523959 -183.436648 
L 223.959379 -183.436648 
L 223.959379 -184.734418 
L 221.394799 -184.734418 
L 221.394799 -191.20832 
L 218.830219 -191.20832 
L 218.830219 -198.945375 
L 216.265639 -198.945375 
L 216.265639 -200.231651 
L 213.701059 -200.231651 
L 213.701059 -207.930616 
L 211.136479 -207.930616 
L 211.136479 -214.32269 
L 208.571899 -214.32269 
L 208.571899 -223.236873 
L 206.007319 -223.236873 
L 206.007319 -227.04523 
L 203.442739 -227.04523 
L 203.442739 -238.428609 
L 200.878159 -238.428609 
L 200.878159 -244.726443 
L 198.313579 -244.726443 
L 198.313579 -253.512838 
L 195.748999 -253.512838 
L 195.748999 -266.004553 
L 193.184419 -266.004553 
L 193.184419 -287.082465 
L 190.619839 -287.082465 
L 190.619839 -292.013575 
L 188.055259 -292.013575 
L 188.055259 -296.933952 
L 185.49068 -296.933952 
L 185.49068 -307.965604 
L 182.9261 -307.965604 
L 182.9261 -318.942846 
L 180.36152 -318.942846 
L 180.36152 -329.865168 
L 177.79694 -329.865168 
L 177.79694 -341.935544 
L 175.23236 -341.935544 
L 175.23236 -363.481957 
L 172.66778 -363.481957 
L 172.66778 -383.604342 
L 170.1032 -383.604342 
L 170.1032 -392.990845 
L 167.53862 -392.990845 
L 167.53862 -401.157016 
L 164.97404 -401.157016 
L 164.97404 -410.432298 
L 162.40946 -410.432298 
L 162.40946 -419.641314 
L 159.84488 -419.641314 
L 159.84488 -429.91414 
L 157.2803 -429.91414 
L 157.2803 -440.082881 
L 154.71572 -440.082881 
L 154.71572 -446.796417 
L 152.15114 -446.796417 
L 152.15114 -454.552904 
L 149.58656 -454.552904 
L 149.58656 -461.126719 
L 147.02198 -461.126719 
L 147.02198 -465.465354 
L 144.4574 -465.465354 
L 144.4574 -469.764019 
L 141.89282 -469.764019 
L 141.89282 -474.017379 
L 139.32824 -474.017379 
L 139.32824 -484.401937 
L 136.76366 -484.401937 
L 136.76366 -489.416086 
L 134.19908 -489.416086 
L 134.19908 -490.4 
L 131.6345 -490.4 
L 131.6345 -493.305453 
L 129.06992 -493.305453 
L 129.06992 -499.707831 
L 126.50534 -499.707831 
L 126.50534 -502.185488 
L 123.94076 -502.185488 
L 123.94076 -502.950392 
L 121.37618 -502.950392 
L 121.37618 -503.671677 
L 108.55328 -503.671677 
L 108.55328 -504.334943 
L 105.9887 -504.334943 
L 105.9887 -504.915179 
L 103.42412 -504.915179 
L 103.42412 -505.360771 
L 93.1658 -505.360771 
L 93.1658 -505.535238 
L 67.52 -505.535238 
z
" style="stroke: #ffa500; stroke-opacity: 0.25"/>
    </defs>
    <g clip-path="url(#p74b1209ab9)">
     <use xlink:href="#ma0cf251e03" x="0" y="576" style="fill: #ffa500; fill-opacity: 0.25; stroke: #ffa500; stroke-opacity: 0.25"/>
    </g>
   </g>
   <g id="matplotlib.axis_1">
    <g id="xtick_1">
     <g id="line2d_1">
      <path d="M 67.52 526.96 
L 67.52 47.64 
" clip-path="url(#p74b1209ab9)" style="fill: none; stroke-dasharray: 2.96,1.28; stroke-dashoffset: 0; stroke: #b0b0b0; stroke-opacity: 0.6; stroke-width: 0.8"/>
     </g>
     <g id="line2d_2">
      <defs>
       <path id="mbef32d1085" d="M 0 0 
L 0 3.5 
" style="stroke: #000000; stroke-width: 0.8"/>
      </defs>
      <g>
       <use xlink:href="#mbef32d1085" x="67.52" y="526.96" style="stroke: #000000; stroke-width: 0.8"/>
      </g>
     </g>
     <g id="text_1">
      <text style="font-size: 10px; font-family: 'DejaVu Sans', 'Bitstream Vera Sans', 'Computer Modern Sans Serif', 'Lucida Grande', 'Verdana', 'Geneva', 'Lucid', 'Arial', 'Helvetica', 'Avant Garde', sans-serif; text-anchor: middle" x="67.52" y="541.558437" transform="rotate(-0 67.52 541.558437)">0</text>
     </g>
    </g>
    <g id="xtick_2">
     <g id="line2d_3">
      <path d="M 131.6345 526.96 
L 131.6345 47.64 
" clip-path="url(#p74b1209ab9)" style="fill: none; stroke-dasharray: 2.96,1.28; stroke-dashoffset: 0; stroke: #b0b0b0; stroke-opacity: 0.6; stroke-width: 0.8"/>
     </g>
     <g id="line2d_4">
      <g>
       <use xlink:href="#mbef32d1085" x="131.6345" y="526.96" style="stroke: #000000; stroke-width: 0.8"/>
      </g>
     </g>
     <g id="text_2">
      <text style="font-size: 10px; font-family: 'DejaVu Sans', 'Bitstream Vera Sans', 'Computer Modern Sans Serif', 'Lucida Grande', 'Verdana', 'Geneva', 'Lucid', 'Arial', 'Helvetica', 'Avant Garde', sans-serif; text-anchor: middle" x="131.6345" y="541.558437" transform="rotate(-0 131.6345 541.558437)">25</text>
     </g>
    </g>
    <g id="xtick_3">
     <g id="line2d_5">
      <path d="M 195.748999 526.96 
L 195.748999 47.64 
" clip-path="url(#p74b1209ab9)" style="fill: none; stroke-dasharray: 2.96,1.28; stroke-dashoffset: 0; stroke: #b0b0b0; stroke-opacity: 0.6; stroke-width: 0.8"/>
     </g>
     <g id="line2d_6">
      <g>
       <use xlink:href="#mbef32d1085" x="195.748999" y="526.96" style="stroke: #000000; stroke-width: 0.8"/>
      </g>
     </g>
     <g id="text_3">
      <text style="font-size: 10px; font-family: 'DejaVu Sans', 'Bitstream Vera Sans', 'Computer Modern Sans Serif', 'Lucida Grande', 'Verdana', 'Geneva', 'Lucid', 'Arial', 'Helvetica', 'Avant Garde', sans-serif; text-anchor: middle" x="195.748999" y="541.558437" transform="rotate(-0 195.748999 541.558437)">50</text>
     </g>
    </g>
    <g id="xtick_4">
     <g id="line2d_7">
      <path d="M 259.863499 526.96 
L 259.863499 47.64 
" clip-path="url(#p74b1209ab9)" style="fill: none; stroke-dasharray: 2.96,1.28; stroke-dashoffset: 0; stroke: #b0b0b0; stroke-opacity: 0.6; stroke-width: 0.8"/>
     </g>
     <g id="line2d_8">
      <g>
       <use xlink:href="#mbef32d1085" x="259.863499" y="526.96" style="stroke: #000000; stroke-width: 0.8"/>
      </g>
     </g>
     <g id="text_4">
      <text style="font-size: 10px; font-family: 'DejaVu Sans', 'Bitstream Vera Sans', 'Computer Modern Sans Serif', 'Lucida Grande', 'Verdana', 'Geneva', 'Lucid', 'Arial', 'Helvetica', 'Avant Garde', sans-serif; text-anchor: middle" x="259.863499" y="541.558437" transform="rotate(-0 259.863499 541.558437)">75</text>
     </g>
    </g>
    <g id="xtick_5">
     <g id="line2d_9">
      <path d="M 323.977999 526.96 
L 323.977999 47.64 
" clip-path="url(#p74b1209ab9)" style="fill: none; stroke-dasharray: 2.96,1.28; stroke-dashoffset: 0; stroke: #b0b0b0; stroke-opacity: 0.6; stroke-width: 0.8"/>
     </g>
     <g id="line2d_10">
      <g>
       <use xlink:href="#mbef32d1085" x="323.977999" y="526.96" style="stroke: #000000; stroke-width: 0.8"/>
      </g>
     </g>
     <g id="text_5">
      <text style="font-size: 10px; font-family: 'DejaVu Sans', 'Bitstream Vera Sans', 'Computer Modern Sans Serif', 'Lucida Grande', 'Verdana', 'Geneva', 'Lucid', 'Arial', 'Helvetica', 'Avant Garde', sans-serif; text-anchor: middle" x="323.977999" y="541.558437" transform="rotate(-0 323.977999 541.558437)">100</text>
     </g>
    </g>
    <g id="xtick_6">
     <g id="line2d_11">
      <path d="M 388.092499 526.96 
L 388.092499 47.64 
" clip-path="url(#p74b1209ab9)" style="fill: none; stroke-dasharray: 2.96,1.28; stroke-dashoffset: 0; stroke: #b0b0b0; stroke-opacity: 0.6; stroke-width: 0.8"/>
     </g>
     <g id="line2d_12">
      <g>
       <use xlink:href="#mbef32d1085" x="388.092499" y="526.96" style="stroke: #000000; stroke-width: 0.8"/>
      </g>
     </g>
     <g id="text_6">
      <text style="font-size: 10px; font-family: 'DejaVu Sans', 'Bitstream Vera Sans', 'Computer Modern Sans Serif', 'Lucida Grande', 'Verdana', 'Geneva', 'Lucid', 'Arial', 'Helvetica', 'Avant Garde', sans-serif; text-anchor: middle" x="388.092499" y="541.558437" transform="rotate(-0 388.092499 541.558437)">125</text>
     </g>
    </g>
    <g id="xtick_7">
     <g id="line2d_13">
      <path d="M 452.206998 526.96 
L 452.206998 47.64 
" clip-path="url(#p74b1209ab9)" style="fill: none; stroke-dasharray: 2.96,1.28; stroke-dashoffset: 0; stroke: #b0b0b0; stroke-opacity: 0.6; stroke-width: 0.8"/>
     </g>
     <g id="line2d_14">
      <g>
       <use xlink:href="#mbef32d1085" x="452.206998" y="526.96" style="stroke: #000000; stroke-width: 0.8"/>
      </g>
     </g>
     <g id="text_7">
      <text style="font-size: 10px; font-family: 'DejaVu Sans', 'Bitstream Vera Sans', 'Computer Modern Sans Serif', 'Lucida Grande', 'Verdana', 'Geneva', 'Lucid', 'Arial', 'Helvetica', 'Avant Garde', sans-serif; text-anchor: middle" x="452.206998" y="541.558437" transform="rotate(-0 452.206998 541.558437)">150</text>
     </g>
    </g>
    <g id="xtick_8">
     <g id="line2d_15">
      <path d="M 516.321498 526.96 
L 516.321498 47.64 
" clip-path="url(#p74b1209ab9)" style="fill: none; stroke-dasharray: 2.96,1.28; stroke-dashoffset: 0; stroke: #b0b0b0; stroke-opacity: 0.6; stroke-width: 0.8"/>
     </g>
     <g id="line2d_16">
      <g>
       <use xlink:href="#mbef32d1085" x="516.321498" y="526.96" style="stroke: #000000; stroke-width: 0.8"/>
      </g>
     </g>
     <g id="text_8">
      <text style="font-size: 10px; font-family: 'DejaVu Sans', 'Bitstream Vera Sans', 'Computer Modern Sans Serif', 'Lucida Grande', 'Verdana', 'Geneva', 'Lucid', 'Arial', 'Helvetica', 'Avant Garde', sans-serif; text-anchor: middle" x="516.321498" y="541.558437" transform="rotate(-0 516.321498 541.558437)">175</text>
     </g>
    </g>
    <g id="text_9">
     <text style="font-size: 12px; font-family: 'DejaVu Sans', 'Bitstream Vera Sans', 'Computer Modern Sans Serif', 'Lucida Grande', 'Verdana', 'Geneva', 'Lucid', 'Arial', 'Helvetica', 'Avant Garde', sans-serif; text-anchor: middle" x="307.18" y="556.75625" transform="rotate(-0 307.18 556.75625)">Days</text>
    </g>
   </g>
   <g id="matplotlib.axis_2">
    <g id="ytick_1">
     <g id="line2d_17">
      <path d="M 67.52 526.96 
L 546.84 526.96 
" clip-path="url(#p74b1209ab9)" style="fill: none; stroke-dasharray: 2.96,1.28; stroke-dashoffset: 0; stroke: #b0b0b0; stroke-opacity: 0.6; stroke-width: 0.8"/>
     </g>
     <g id="line2d_18">
      <defs>
       <path id="m46a1aed9a6" d="M 0 0 
L -3.5 0 
" style="stroke: #000000; stroke-width: 0.8"/>
      </defs>
      <g>
       <use xlink:href="#m46a1aed9a6" x="67.52" y="526.96" style="stroke: #000000; stroke-width: 0.8"/>
      </g>
     </g>
     <g id="text_10">
      <text style="font-size: 10px; font-family: 'DejaVu Sans', 'Bitstream Vera Sans', 'Computer Modern Sans Serif', 'Lucida Grande', 'Verdana', 'Geneva', 'Lucid', 'Arial', 'Helvetica', 'Avant Garde', sans-serif; text-anchor: end" x="60.52" y="530.759219" transform="rotate(-0 60.52 530.759219)">0.0</text>
     </g>
    </g>
    <g id="ytick_2">
     <g id="line2d_19">
      <path d="M 67.52 435.660952 
L 546.84 435.660952 
" clip-path="url(#p74b1209ab9)" style="fill: none; stroke-dasharray: 2.96,1.28; stroke-dashoffset: 0; stroke: #b0b0b0; stroke-opacity: 0.6; stroke-width: 0.8"/>
     </g>
     <g id="line2d_20">
      <g>
       <use xlink:href="#m46a1aed9a6" x="67.52" y="435.660952" style="stroke: #000000; stroke-width: 0.8"/>
      </g>
     </g>
     <g id="text_11">
      <text style="font-size: 10px; font-family: 'DejaVu Sans', 'Bitstream Vera Sans', 'Computer Modern Sans Serif', 'Lucida Grande', 'Verdana', 'Geneva', 'Lucid', 'Arial', 'Helvetica', 'Avant Garde', sans-serif; text-anchor: end" x="60.52" y="439.460171" transform="rotate(-0 60.52 439.460171)">0.2</text>
     </g>
    </g>
    <g id="ytick_3">
     <g id="line2d_21">
      <path d="M 67.52 344.361905 
L 546.84 344.361905 
" clip-path="url(#p74b1209ab9)" style="fill: none; stroke-dasharray: 2.96,1.28; stroke-dashoffset: 0; stroke: #b0b0b0; stroke-opacity: 0.6; stroke-width: 0.8"/>
     </g>
     <g id="line2d_22">
      <g>
       <use xlink:href="#m46a1aed9a6" x="67.52" y="344.361905" style="stroke: #000000; stroke-width: 0.8"/>
      </g>
     </g>
     <g id="text_12">
      <text style="font-size: 10px; font-family: 'DejaVu Sans', 'Bitstream Vera Sans', 'Computer Modern Sans Serif', 'Lucida Grande', 'Verdana', 'Geneva', 'Lucid', 'Arial', 'Helvetica', 'Avant Garde', sans-serif; text-anchor: end" x="60.52" y="348.161124" transform="rotate(-0 60.52 348.161124)">0.4</text>
     </g>
    </g>
    <g id="ytick_4">
     <g id="line2d_23">
      <path d="M 67.52 253.062857 
L 546.84 253.062857 
" clip-path="url(#p74b1209ab9)" style="fill: none; stroke-dasharray: 2.96,1.28; stroke-dashoffset: 0; stroke: #b0b0b0; stroke-opacity: 0.6; stroke-width: 0.8"/>
     </g>
     <g id="line2d_24">
      <g>
       <use xlink:href="#m46a1aed9a6" x="67.52" y="253.062857" style="stroke: #000000; stroke-width: 0.8"/>
      </g>
     </g>
     <g id="text_13">
      <text style="font-size: 10px; font-family: 'DejaVu Sans', 'Bitstream Vera Sans', 'Computer Modern Sans Serif', 'Lucida Grande', 'Verdana', 'Geneva', 'Lucid', 'Arial', 'Helvetica', 'Avant Garde', sans-serif; text-anchor: end" x="60.52" y="256.862076" transform="rotate(-0 60.52 256.862076)">0.6</text>
     </g>
    </g>
    <g id="ytick_5">
     <g id="line2d_25">
      <path d="M 67.52 161.76381 
L 546.84 161.76381 
" clip-path="url(#p74b1209ab9)" style="fill: none; stroke-dasharray: 2.96,1.28; stroke-dashoffset: 0; stroke: #b0b0b0; stroke-opacity: 0.6; stroke-width: 0.8"/>
     </g>
     <g id="line2d_26">
      <g>
       <use xlink:href="#m46a1aed9a6" x="67.52" y="161.76381" style="stroke: #000000; stroke-width: 0.8"/>
      </g>
     </g>
     <g id="text_14">
      <text style="font-size: 10px; font-family: 'DejaVu Sans', 'Bitstream Vera Sans', 'Computer Modern Sans Serif', 'Lucida Grande', 'Verdana', 'Geneva', 'Lucid', 'Arial', 'Helvetica', 'Avant Garde', sans-serif; text-anchor: end" x="60.52" y="165.563028" transform="rotate(-0 60.52 165.563028)">0.8</text>
     </g>
    </g>
    <g id="ytick_6">
     <g id="line2d_27">
      <path d="M 67.52 70.464762 
L 546.84 70.464762 
" clip-path="url(#p74b1209ab9)" style="fill: none; stroke-dasharray: 2.96,1.28; stroke-dashoffset: 0; stroke: #b0b0b0; stroke-opacity: 0.6; stroke-width: 0.8"/>
     </g>
     <g id="line2d_28">
      <g>
       <use xlink:href="#m46a1aed9a6" x="67.52" y="70.464762" style="stroke: #000000; stroke-width: 0.8"/>
      </g>
     </g>
     <g id="text_15">
      <text style="font-size: 10px; font-family: 'DejaVu Sans', 'Bitstream Vera Sans', 'Computer Modern Sans Serif', 'Lucida Grande', 'Verdana', 'Geneva', 'Lucid', 'Arial', 'Helvetica', 'Avant Garde', sans-serif; text-anchor: end" x="60.52" y="74.263981" transform="rotate(-0 60.52 74.263981)">1.0</text>
     </g>
    </g>
    <g id="text_16">
     <text style="font-size: 12px; font-family: 'DejaVu Sans', 'Bitstream Vera Sans', 'Computer Modern Sans Serif', 'Lucida Grande', 'Verdana', 'Geneva', 'Lucid', 'Arial', 'Helvetica', 'Avant Garde', sans-serif; text-anchor: middle" x="38.12125" y="287.3" transform="rotate(-90 38.12125 287.3)">Probability of weight loss target achievement</text>
    </g>
   </g>
   <g id="line2d_29">
    <path d="M 67.52 70.464762 
L 111.11786 70.464762 
L 111.11786 74.268889 
L 116.24702 74.268889 
L 116.24702 78.073016 
L 118.8116 78.073016 
L 118.8116 85.68127 
L 121.37618 85.68127 
L 121.37618 89.485397 
L 129.06992 89.485397 
L 129.06992 100.897778 
L 134.19908 100.897778 
L 134.19908 108.506032 
L 136.76366 108.506032 
L 136.76366 116.114286 
L 139.32824 116.114286 
L 139.32824 123.72254 
L 141.89282 123.72254 
L 141.89282 127.526667 
L 144.4574 127.526667 
L 144.4574 131.330794 
L 147.02198 131.330794 
L 147.02198 142.743175 
L 149.58656 142.743175 
L 149.58656 146.547302 
L 154.71572 146.547302 
L 154.71572 150.351429 
L 157.2803 150.351429 
L 157.2803 161.76381 
L 159.84488 161.76381 
L 159.84488 169.372063 
L 162.40946 169.372063 
L 162.40946 188.392698 
L 164.97404 188.392698 
L 164.97404 207.413333 
L 167.53862 207.413333 
L 167.53862 211.21746 
L 170.1032 211.21746 
L 170.1032 234.042222 
L 172.66778 234.042222 
L 172.66778 245.454603 
L 175.23236 245.454603 
L 175.23236 264.475238 
L 177.79694 264.475238 
L 177.79694 275.887619 
L 180.36152 275.887619 
L 180.36152 283.495873 
L 182.9261 283.495873 
L 182.9261 287.3 
L 185.49068 287.3 
L 185.49068 298.712381 
L 188.055259 298.712381 
L 188.055259 313.928889 
L 190.619839 313.928889 
L 190.619839 325.34127 
L 193.184419 325.34127 
L 193.184419 340.557778 
L 195.748999 340.557778 
L 195.748999 363.38254 
L 198.313579 363.38254 
L 198.313579 374.794921 
L 200.878159 374.794921 
L 200.878159 382.403175 
L 203.442739 382.403175 
L 203.442739 393.815556 
L 206.007319 393.815556 
L 206.007319 401.42381 
L 208.571899 401.42381 
L 208.571899 409.032063 
L 211.136479 409.032063 
L 211.136479 424.248571 
L 213.701059 424.248571 
L 213.701059 431.856825 
L 216.265639 431.856825 
L 216.265639 435.660952 
L 218.830219 435.660952 
L 218.830219 439.465079 
L 223.959379 439.465079 
L 223.959379 450.87746 
L 226.523959 450.87746 
L 226.523959 469.898095 
L 231.653119 469.898095 
L 231.653119 477.506349 
L 234.217699 477.506349 
L 234.217699 481.310476 
L 239.346859 481.310476 
L 239.346859 488.91873 
L 249.605179 488.91873 
L 249.605179 492.722857 
L 257.298919 492.722857 
L 257.298919 496.526984 
L 262.428079 496.526984 
L 262.428079 500.331111 
L 264.992659 500.331111 
L 264.992659 504.135238 
L 316.284259 504.135238 
L 316.284259 507.939365 
L 318.848839 507.939365 
L 318.848839 511.743492 
L 323.977999 511.743492 
L 323.977999 515.547619 
L 329.107159 515.547619 
L 329.107159 519.351746 
L 341.930059 519.351746 
L 341.930059 523.155873 
L 524.015238 523.155873 
L 524.015238 526.96 
" clip-path="url(#p74b1209ab9)" style="fill: none; stroke: #0000ff; stroke-width: 1.5; stroke-linecap: square"/>
   </g>
   <g id="line2d_30">
    <path d="M 67.52 70.464762 
L 93.1658 70.464762 
L 93.1658 71.701876 
L 103.42412 71.701876 
L 103.42412 72.938991 
L 105.9887 72.938991 
L 105.9887 74.176105 
L 108.55328 74.176105 
L 108.55328 75.41322 
L 121.37618 75.41322 
L 121.37618 76.650334 
L 123.94076 76.650334 
L 123.94076 77.887449 
L 126.50534 77.887449 
L 126.50534 81.598792 
L 129.06992 81.598792 
L 129.06992 90.258593 
L 131.6345 90.258593 
L 131.6345 93.969937 
L 134.19908 93.969937 
L 134.19908 95.207051 
L 136.76366 95.207051 
L 136.76366 101.392624 
L 139.32824 101.392624 
L 139.32824 113.763768 
L 141.89282 113.763768 
L 141.89282 118.712226 
L 144.4574 118.712226 
L 144.4574 123.660684 
L 147.02198 123.660684 
L 147.02198 128.609142 
L 149.58656 128.609142 
L 149.58656 136.031829 
L 152.15114 136.031829 
L 152.15114 144.69163 
L 154.71572 144.69163 
L 154.71572 152.114317 
L 157.2803 152.114317 
L 157.2803 163.248347 
L 159.84488 163.248347 
L 159.84488 174.382377 
L 162.40946 174.382377 
L 162.40946 184.279293 
L 164.97404 184.279293 
L 164.97404 194.176209 
L 167.53862 194.176209 
L 167.53862 202.83601 
L 170.1032 202.83601 
L 170.1032 212.732926 
L 172.66778 212.732926 
L 172.66778 233.763871 
L 175.23236 233.763871 
L 175.23236 256.031932 
L 177.79694 256.031932 
L 177.79694 268.403077 
L 180.36152 268.403077 
L 180.36152 279.537107 
L 182.9261 279.537107 
L 182.9261 290.671137 
L 185.49068 290.671137 
L 185.49068 301.805167 
L 188.055259 301.805167 
L 188.055259 306.753625 
L 190.619839 306.753625 
L 190.619839 311.702083 
L 193.184419 311.702083 
L 193.184419 332.733029 
L 195.748999 332.733029 
L 195.748999 345.104173 
L 198.313579 345.104173 
L 198.313579 353.763975 
L 200.878159 353.763975 
L 200.878159 359.949547 
L 203.442739 359.949547 
L 203.442739 371.083577 
L 206.007319 371.083577 
L 206.007319 374.794921 
L 208.571899 374.794921 
L 208.571899 383.454722 
L 211.136479 383.454722 
L 211.136479 389.640294 
L 213.701059 389.640294 
L 213.701059 397.062981 
L 216.265639 397.062981 
L 216.265639 398.300095 
L 218.830219 398.300095 
L 218.830219 405.722782 
L 221.394799 405.722782 
L 221.394799 411.908355 
L 223.959379 411.908355 
L 223.959379 413.145469 
L 226.523959 413.145469 
L 226.523959 418.093927 
L 229.088539 418.093927 
L 229.088539 421.80527 
L 231.653119 421.80527 
L 231.653119 425.516614 
L 234.217699 425.516614 
L 234.217699 430.465072 
L 236.782279 430.465072 
L 236.782279 432.939301 
L 239.346859 432.939301 
L 239.346859 437.887758 
L 241.911439 437.887758 
L 241.911439 440.361987 
L 244.476019 440.361987 
L 244.476019 445.310445 
L 247.040599 445.310445 
L 247.040599 450.258903 
L 249.605179 450.258903 
L 249.605179 457.68159 
L 252.169759 457.68159 
L 252.169759 460.155819 
L 257.298919 460.155819 
L 257.298919 462.630048 
L 259.863499 462.630048 
L 259.863499 465.104277 
L 262.428079 465.104277 
L 262.428079 466.341391 
L 267.557239 466.341391 
L 267.557239 470.052735 
L 270.121819 470.052735 
L 270.121819 472.526963 
L 272.686399 472.526963 
L 272.686399 476.238307 
L 275.250979 476.238307 
L 275.250979 477.475421 
L 277.815559 477.475421 
L 277.815559 479.94965 
L 288.073879 479.94965 
L 288.073879 482.423879 
L 290.638459 482.423879 
L 290.638459 484.898108 
L 295.767619 484.898108 
L 295.767619 486.135223 
L 298.332199 486.135223 
L 298.332199 487.372337 
L 300.896779 487.372337 
L 300.896779 488.609452 
L 303.461359 488.609452 
L 303.461359 489.846566 
L 306.025939 489.846566 
L 306.025939 491.08368 
L 313.719679 491.08368 
L 313.719679 493.557909 
L 316.284259 493.557909 
L 316.284259 494.795024 
L 323.977999 494.795024 
L 323.977999 499.743482 
L 329.107159 499.743482 
L 329.107159 500.980596 
L 334.236319 500.980596 
L 334.236319 502.217711 
L 344.494639 502.217711 
L 344.494639 503.454825 
L 352.188379 503.454825 
L 352.188379 505.929054 
L 354.752959 505.929054 
L 354.752959 507.166169 
L 367.575859 507.166169 
L 367.575859 509.640397 
L 370.140439 509.640397 
L 370.140439 510.877512 
L 375.269599 510.877512 
L 375.269599 512.114626 
L 377.834179 512.114626 
L 377.834179 513.351741 
L 408.609139 513.351741 
L 408.609139 515.82597 
L 416.302879 515.82597 
L 416.302879 517.063084 
L 431.690358 517.063084 
L 431.690358 518.300199 
L 434.254938 518.300199 
L 434.254938 519.537313 
L 439.384098 519.537313 
L 439.384098 520.774428 
L 462.465318 520.774428 
L 462.465318 522.011542 
L 482.981958 522.011542 
L 482.981958 523.248657 
L 488.111118 523.248657 
L 488.111118 524.485771 
L 495.804858 524.485771 
L 495.804858 525.722886 
L 500.934018 525.722886 
L 500.934018 526.96 
L 500.934018 526.96 
" clip-path="url(#p74b1209ab9)" style="fill: none; stroke: #ffa500; stroke-width: 1.5; stroke-linecap: square"/>
   </g>
   <g id="patch_3">
    <path d="M 67.52 526.96 
L 67.52 47.64 
" style="fill: none; stroke: #000000; stroke-width: 0.8; stroke-linejoin: miter; stroke-linecap: square"/>
   </g>
   <g id="patch_4">
    <path d="M 546.84 526.96 
L 546.84 47.64 
" style="fill: none; stroke: #000000; stroke-width: 0.8; stroke-linejoin: miter; stroke-linecap: square"/>
   </g>
   <g id="patch_5">
    <path d="M 67.52 526.96 
L 546.84 526.96 
" style="fill: none; stroke: #000000; stroke-width: 0.8; stroke-linejoin: miter; stroke-linecap: square"/>
   </g>
   <g id="patch_6">
    <path d="M 67.52 47.64 
L 546.84 47.64 
" style="fill: none; stroke: #000000; stroke-width: 0.8; stroke-linejoin: miter; stroke-linecap: square"/>
   </g>
   <g id="text_17">
    <text style="font-size: 14px; font-family: 'DejaVu Sans', 'Bitstream Vera Sans', 'Computer Modern Sans Serif', 'Lucida Grande', 'Verdana', 'Geneva', 'Lucid', 'Arial', 'Helvetica', 'Avant Garde', sans-serif" transform="translate(117.990781 25.963062)">Time to 10% weight loss by Emotional eating (yes/no)</text>
    <text style="font-size: 14px; font-family: 'DejaVu Sans', 'Bitstream Vera Sans', 'Computer Modern Sans Serif', 'Lucida Grande', 'Verdana', 'Geneva', 'Lucid', 'Arial', 'Helvetica', 'Avant Garde', sans-serif" transform="translate(243.918594 41.64)">Log-rank p=0.083</text>
   </g>
   <g id="legend_1">
    <g id="patch_7">
     <path d="M 400.065 99.674375 
L 539.84 99.674375 
Q 541.84 99.674375 541.84 97.674375 
L 541.84 54.64 
Q 541.84 52.64 539.84 52.64 
L 400.065 52.64 
Q 398.065 52.64 398.065 54.64 
L 398.065 97.674375 
Q 398.065 99.674375 400.065 99.674375 
z
" style="fill: #ffffff; opacity: 0.8; stroke: #cccccc; stroke-linejoin: miter"/>
    </g>
    <g id="text_18">
     <text style="font-size: 10px; font-family: 'Helvetica'; text-anchor: start" x="405.367344" y="64.238437" transform="rotate(-0 405.367344 64.238437)">Emotional eating (yes/no)</text>
    </g>
    <g id="line2d_31">
     <path d="M 402.065 75.416562 
L 412.065 75.416562 
L 412.065 75.416562 
L 422.065 75.416562 
L 422.065 75.416562 
" style="fill: none; stroke: #0000ff; stroke-width: 1.5; stroke-linecap: square"/>
    </g>
    <g id="text_19">
     <text style="font-size: 10px; font-family: 'Helvetica'; text-anchor: start" x="430.065" y="78.916562" transform="rotate(-0 430.065 78.916562)">Emotional eating: No</text>
    </g>
    <g id="line2d_32">
     <path d="M 402.065 90.094687 
L 412.065 90.094687 
L 412.065 90.094687 
L 422.065 90.094687 
L 422.065 90.094687 
" style="fill: none; stroke: #ffa500; stroke-width: 1.5; stroke-linecap: square"/>
    </g>
    <g id="text_20">
     <text style="font-size: 10px; font-family: 'Helvetica'; text-anchor: start" x="430.065" y="93.594687" transform="rotate(-0 430.065 93.594687)">Emotional eating: Yes</text>
    </g>
   </g>
  </g>
 </g>
 <defs>
  <clipPath id="p74b1209ab9">
   <rect x="67.52" y="47.64" width="479.32" height="479.32"/>
  </clipPath>
 </defs>
</svg>
