<?xml version="1.0" encoding="utf-8" standalone="no"?>
<!DOCTYPE svg PUBLIC "-//W3C//DTD SVG 1.1//EN"
  "http://www.w3.org/Graphics/SVG/1.1/DTD/svg11.dtd">
<svg xmlns:xlink="http://www.w3.org/1999/xlink" width="535.986875pt" height="566.889688pt" viewBox="0 0 535.986875 566.889688" xmlns="http://www.w3.org/2000/svg" version="1.1">
 <metadata>
  <rdf:RDF xmlns:dc="http://purl.org/dc/elements/1.1/" xmlns:cc="http://creativecommons.org/ns#" xmlns:rdf="http://www.w3.org/1999/02/22-rdf-syntax-ns#">
   <cc:Work>
    <dc:type rdf:resource="http://purl.org/dc/dcmitype/StillImage"/>
    <dc:date>2025-09-14T16:39:45.141677</dc:date>
    <dc:format>image/svg+xml</dc:format>
    <dc:creator>
     <cc:Agent>
      <dc:title>Matplotlib v3.10.1, https://matplotlib.org/</dc:title>
     </cc:Agent>
    </dc:creator>
   </cc:Work>
  </rdf:RDF>
 </metadata>
 <defs>
  <style type="text/css">*{stroke-linejoin: round; stroke-linecap: butt}</style>
 </defs>
 <g id="figure_1">
  <g id="patch_1">
   <path d="M 0 566.889688 
L 535.986875 566.889688 
L 535.986875 0 
L 0 0 
z
" style="fill: #ffffff"/>
  </g>
  <g id="axes_1">
   <g id="patch_2">
    <path d="M 45.716875 527.397812 
L 528.786875 527.397812 
L 528.786875 23.837812 
L 45.716875 23.837812 
z
" style="fill: #ffffff"/>
   </g>
   <g id="matplotlib.axis_1">
    <g id="xtick_1">
     <g id="line2d_1">
      <path d="M 67.674602 527.397812 
L 67.674602 23.837812 
" clip-path="url(#p1c4059ebdb)" style="fill: none; stroke: #b0b0b0; stroke-opacity: 0.3; stroke-width: 0.8; stroke-linecap: square"/>
     </g>
     <g id="line2d_2">
      <defs>
       <path id="me1b2076b8b" d="M 0 0 
L 0 3.5 
" style="stroke: #000000; stroke-width: 0.8"/>
      </defs>
      <g>
       <use xlink:href="#me1b2076b8b" x="67.674602" y="527.397812" style="stroke: #000000; stroke-width: 0.8"/>
      </g>
     </g>
     <g id="text_1">
      <text style="font-size: 10px; font-family: 'Helvetica'; text-anchor: middle" x="67.674602" y="541.99625" transform="rotate(-0 67.674602 541.99625)">0.0</text>
     </g>
    </g>
    <g id="xtick_2">
     <g id="line2d_3">
      <path d="M 155.505511 527.397812 
L 155.505511 23.837812 
" clip-path="url(#p1c4059ebdb)" style="fill: none; stroke: #b0b0b0; stroke-opacity: 0.3; stroke-width: 0.8; stroke-linecap: square"/>
     </g>
     <g id="line2d_4">
      <g>
       <use xlink:href="#me1b2076b8b" x="155.505511" y="527.397812" style="stroke: #000000; stroke-width: 0.8"/>
      </g>
     </g>
     <g id="text_2">
      <text style="font-size: 10px; font-family: 'Helvetica'; text-anchor: middle" x="155.505511" y="541.99625" transform="rotate(-0 155.505511 541.99625)">0.2</text>
     </g>
    </g>
    <g id="xtick_3">
     <g id="line2d_5">
      <path d="M 243.33642 527.397812 
L 243.33642 23.837812 
" clip-path="url(#p1c4059ebdb)" style="fill: none; stroke: #b0b0b0; stroke-opacity: 0.3; stroke-width: 0.8; stroke-linecap: square"/>
     </g>
     <g id="line2d_6">
      <g>
       <use xlink:href="#me1b2076b8b" x="243.33642" y="527.397812" style="stroke: #000000; stroke-width: 0.8"/>
      </g>
     </g>
     <g id="text_3">
      <text style="font-size: 10px; font-family: 'Helvetica'; text-anchor: middle" x="243.33642" y="541.99625" transform="rotate(-0 243.33642 541.99625)">0.4</text>
     </g>
    </g>
    <g id="xtick_4">
     <g id="line2d_7">
      <path d="M 331.16733 527.397812 
L 331.16733 23.837812 
" clip-path="url(#p1c4059ebdb)" style="fill: none; stroke: #b0b0b0; stroke-opacity: 0.3; stroke-width: 0.8; stroke-linecap: square"/>
     </g>
     <g id="line2d_8">
      <g>
       <use xlink:href="#me1b2076b8b" x="331.16733" y="527.397812" style="stroke: #000000; stroke-width: 0.8"/>
      </g>
     </g>
     <g id="text_4">
      <text style="font-size: 10px; font-family: 'Helvetica'; text-anchor: middle" x="331.16733" y="541.99625" transform="rotate(-0 331.16733 541.99625)">0.6</text>
     </g>
    </g>
    <g id="xtick_5">
     <g id="line2d_9">
      <path d="M 418.998239 527.397812 
L 418.998239 23.837812 
" clip-path="url(#p1c4059ebdb)" style="fill: none; stroke: #b0b0b0; stroke-opacity: 0.3; stroke-width: 0.8; stroke-linecap: square"/>
     </g>
     <g id="line2d_10">
      <g>
       <use xlink:href="#me1b2076b8b" x="418.998239" y="527.397812" style="stroke: #000000; stroke-width: 0.8"/>
      </g>
     </g>
     <g id="text_5">
      <text style="font-size: 10px; font-family: 'Helvetica'; text-anchor: middle" x="418.998239" y="541.99625" transform="rotate(-0 418.998239 541.99625)">0.8</text>
     </g>
    </g>
    <g id="xtick_6">
     <g id="line2d_11">
      <path d="M 506.829148 527.397812 
L 506.829148 23.837812 
" clip-path="url(#p1c4059ebdb)" style="fill: none; stroke: #b0b0b0; stroke-opacity: 0.3; stroke-width: 0.8; stroke-linecap: square"/>
     </g>
     <g id="line2d_12">
      <g>
       <use xlink:href="#me1b2076b8b" x="506.829148" y="527.397812" style="stroke: #000000; stroke-width: 0.8"/>
      </g>
     </g>
     <g id="text_6">
      <text style="font-size: 10px; font-family: 'Helvetica'; text-anchor: middle" x="506.829148" y="541.99625" transform="rotate(-0 506.829148 541.99625)">1.0</text>
     </g>
    </g>
    <g id="text_7">
     <text style="font-size: 12px; font-family: 'Helvetica'; text-anchor: middle" x="287.251875" y="557.194063" transform="rotate(-0 287.251875 557.194063)">False positive rate</text>
    </g>
   </g>
   <g id="matplotlib.axis_2">
    <g id="ytick_1">
     <g id="line2d_13">
      <path d="M 45.716875 504.508722 
L 528.786875 504.508722 
" clip-path="url(#p1c4059ebdb)" style="fill: none; stroke: #b0b0b0; stroke-opacity: 0.3; stroke-width: 0.8; stroke-linecap: square"/>
     </g>
     <g id="line2d_14">
      <defs>
       <path id="m9a27d9b2c5" d="M 0 0 
L -3.5 0 
" style="stroke: #000000; stroke-width: 0.8"/>
      </defs>
      <g>
       <use xlink:href="#m9a27d9b2c5" x="45.716875" y="504.508722" style="stroke: #000000; stroke-width: 0.8"/>
      </g>
     </g>
     <g id="text_8">
      <text style="font-size: 10px; font-family: 'Helvetica'; text-anchor: end" x="38.716875" y="508.30794" transform="rotate(-0 38.716875 508.30794)">0.0</text>
     </g>
    </g>
    <g id="ytick_2">
     <g id="line2d_15">
      <path d="M 45.716875 412.952358 
L 528.786875 412.952358 
" clip-path="url(#p1c4059ebdb)" style="fill: none; stroke: #b0b0b0; stroke-opacity: 0.3; stroke-width: 0.8; stroke-linecap: square"/>
     </g>
     <g id="line2d_16">
      <g>
       <use xlink:href="#m9a27d9b2c5" x="45.716875" y="412.952358" style="stroke: #000000; stroke-width: 0.8"/>
      </g>
     </g>
     <g id="text_9">
      <text style="font-size: 10px; font-family: 'Helvetica'; text-anchor: end" x="38.716875" y="416.751577" transform="rotate(-0 38.716875 416.751577)">0.2</text>
     </g>
    </g>
    <g id="ytick_3">
     <g id="line2d_17">
      <path d="M 45.716875 321.395994 
L 528.786875 321.395994 
" clip-path="url(#p1c4059ebdb)" style="fill: none; stroke: #b0b0b0; stroke-opacity: 0.3; stroke-width: 0.8; stroke-linecap: square"/>
     </g>
     <g id="line2d_18">
      <g>
       <use xlink:href="#m9a27d9b2c5" x="45.716875" y="321.395994" style="stroke: #000000; stroke-width: 0.8"/>
      </g>
     </g>
     <g id="text_10">
      <text style="font-size: 10px; font-family: 'Helvetica'; text-anchor: end" x="38.716875" y="325.195213" transform="rotate(-0 38.716875 325.195213)">0.4</text>
     </g>
    </g>
    <g id="ytick_4">
     <g id="line2d_19">
      <path d="M 45.716875 229.839631 
L 528.786875 229.839631 
" clip-path="url(#p1c4059ebdb)" style="fill: none; stroke: #b0b0b0; stroke-opacity: 0.3; stroke-width: 0.8; stroke-linecap: square"/>
     </g>
     <g id="line2d_20">
      <g>
       <use xlink:href="#m9a27d9b2c5" x="45.716875" y="229.839631" style="stroke: #000000; stroke-width: 0.8"/>
      </g>
     </g>
     <g id="text_11">
      <text style="font-size: 10px; font-family: 'Helvetica'; text-anchor: end" x="38.716875" y="233.638849" transform="rotate(-0 38.716875 233.638849)">0.6</text>
     </g>
    </g>
    <g id="ytick_5">
     <g id="line2d_21">
      <path d="M 45.716875 138.283267 
L 528.786875 138.283267 
" clip-path="url(#p1c4059ebdb)" style="fill: none; stroke: #b0b0b0; stroke-opacity: 0.3; stroke-width: 0.8; stroke-linecap: square"/>
     </g>
     <g id="line2d_22">
      <g>
       <use xlink:href="#m9a27d9b2c5" x="45.716875" y="138.283267" style="stroke: #000000; stroke-width: 0.8"/>
      </g>
     </g>
     <g id="text_12">
      <text style="font-size: 10px; font-family: 'Helvetica'; text-anchor: end" x="38.716875" y="142.082486" transform="rotate(-0 38.716875 142.082486)">0.8</text>
     </g>
    </g>
    <g id="ytick_6">
     <g id="line2d_23">
      <path d="M 45.716875 46.726903 
L 528.786875 46.726903 
" clip-path="url(#p1c4059ebdb)" style="fill: none; stroke: #b0b0b0; stroke-opacity: 0.3; stroke-width: 0.8; stroke-linecap: square"/>
     </g>
     <g id="line2d_24">
      <g>
       <use xlink:href="#m9a27d9b2c5" x="45.716875" y="46.726903" style="stroke: #000000; stroke-width: 0.8"/>
      </g>
     </g>
     <g id="text_13">
      <text style="font-size: 10px; font-family: 'Helvetica'; text-anchor: end" x="38.716875" y="50.526122" transform="rotate(-0 38.716875 50.526122)">1.0</text>
     </g>
    </g>
    <g id="text_14">
     <text style="font-size: 12px; font-family: 'Helvetica'; text-anchor: middle" x="16.318125" y="275.617812" transform="rotate(-90 16.318125 275.617812)">True positive rate</text>
    </g>
   </g>
   <g id="line2d_25">
    <path d="M 67.674602 504.508722 
L 67.674602 498.83374 
L 67.674602 496.94208 
L 67.674602 491.267099 
L 69.424222 487.483778 
L 72.923461 487.483778 
L 74.673081 479.917136 
L 76.422701 478.025476 
L 76.422701 472.350495 
L 78.17232 472.350495 
L 78.17232 470.458834 
L 79.92194 464.783853 
L 83.42118 461.000532 
L 85.170799 459.108872 
L 86.920419 459.108872 
L 86.920419 457.217211 
L 86.920419 453.433891 
L 88.670039 447.758909 
L 92.169278 443.975589 
L 99.167757 436.408947 
L 99.167757 430.733966 
L 100.917377 428.842305 
L 104.416616 413.709022 
L 106.166236 411.817362 
L 106.166236 408.034041 
L 111.415095 404.25072 
L 111.415095 400.467399 
L 113.164715 394.792418 
L 116.663954 394.792418 
L 118.413574 391.009097 
L 120.163193 391.009097 
L 125.412052 389.117437 
L 146.407489 385.334116 
L 153.405968 379.659135 
L 153.405968 377.767474 
L 153.405968 370.200833 
L 160.404447 362.634191 
L 176.151024 353.175889 
L 177.900644 347.500908 
L 186.648742 334.259285 
L 193.647221 326.692643 
L 197.14646 319.126002 
L 198.89608 317.234341 
L 214.642657 300.209398 
L 219.891516 290.751096 
L 223.390756 281.292794 
L 235.638094 275.617812 
L 244.386192 269.942831 
L 260.13277 258.592869 
L 281.128206 239.676265 
L 291.625924 230.217963 
L 314.37098 207.518038 
L 319.61984 203.734717 
L 328.367938 196.168075 
L 330.117558 194.276415 
L 333.616797 179.143132 
L 345.864135 173.468151 
L 347.613755 169.68483 
L 356.361853 165.901509 
L 356.361853 164.009849 
L 363.360332 164.009849 
L 386.105388 148.876565 
L 387.855008 148.876565 
L 391.354247 148.876565 
L 398.352726 141.309924 
L 400.102346 135.634942 
L 405.351205 129.959961 
L 412.349684 126.17664 
L 415.848923 120.501659 
L 417.598543 116.718338 
L 428.096261 114.826678 
L 436.84436 105.368376 
L 436.84436 103.476716 
L 447.342078 94.018414 
L 452.590937 90.235093 
L 457.839796 78.88513 
L 478.835232 65.643507 
L 480.584852 65.643507 
L 491.08257 59.968526 
L 491.08257 56.185205 
L 499.830669 52.401885 
L 506.829148 46.726903 
" clip-path="url(#p1c4059ebdb)" style="fill: none; stroke: #0000ff; stroke-width: 2; stroke-linecap: square"/>
   </g>
   <g id="line2d_26">
    <path d="M 67.674602 504.508722 
L 69.424222 504.508722 
L 69.424222 500.725401 
L 71.173842 500.725401 
L 71.173842 496.94208 
L 72.923461 496.94208 
L 72.923461 491.267099 
L 76.422701 491.267099 
L 76.422701 489.375438 
L 78.17232 489.375438 
L 78.17232 483.700457 
L 79.92194 483.700457 
L 79.92194 476.133816 
L 85.170799 476.133816 
L 85.170799 472.350495 
L 90.419658 472.350495 
L 90.419658 468.567174 
L 95.668518 468.567174 
L 95.668518 466.675513 
L 97.418137 466.675513 
L 97.418137 464.783853 
L 100.917377 462.892193 
L 102.666996 462.892193 
L 104.416616 461.000532 
L 111.415095 461.000532 
L 111.415095 459.108872 
L 114.914334 459.108872 
L 114.914334 453.433891 
L 116.663954 453.433891 
L 116.663954 451.54223 
L 118.413574 451.54223 
L 118.413574 442.083928 
L 120.163193 442.083928 
L 120.163193 440.192268 
L 123.662433 440.192268 
L 123.662433 436.408947 
L 125.412052 436.408947 
L 125.412052 428.842305 
L 127.161672 428.842305 
L 127.161672 425.058985 
L 128.911292 425.058985 
L 128.911292 421.275664 
L 134.160151 421.275664 
L 134.160151 415.600683 
L 135.909771 415.600683 
L 139.40901 411.817362 
L 139.40901 409.925701 
L 144.657869 409.925701 
L 146.407489 408.034041 
L 146.407489 404.25072 
L 151.656348 404.25072 
L 151.656348 400.467399 
L 153.405968 400.467399 
L 153.405968 392.900758 
L 158.654827 392.900758 
L 158.654827 389.117437 
L 160.404447 389.117437 
L 160.404447 379.659135 
L 174.401404 379.659135 
L 174.401404 373.984154 
L 176.151024 373.984154 
L 176.151024 370.200833 
L 183.149503 370.200833 
L 183.149503 368.309172 
L 184.899122 368.309172 
L 184.899122 360.742531 
L 188.398362 360.742531 
L 188.398362 358.85087 
L 190.147981 356.95921 
L 191.897601 356.95921 
L 191.897601 355.06755 
L 195.396841 355.06755 
L 197.14646 353.175889 
L 204.144939 353.175889 
L 204.144939 351.284229 
L 211.143418 351.284229 
L 211.143418 345.609248 
L 214.642657 345.609248 
L 214.642657 341.825927 
L 221.641136 341.825927 
L 221.641136 336.150945 
L 226.889995 336.150945 
L 228.639615 334.259285 
L 230.389235 334.259285 
L 230.389235 332.367625 
L 232.138854 332.367625 
L 232.138854 330.475964 
L 235.638094 330.475964 
L 235.638094 328.584304 
L 237.387713 324.800983 
L 237.387713 322.909323 
L 239.137333 322.909323 
L 239.137333 321.017662 
L 242.636573 321.017662 
L 242.636573 315.342681 
L 244.386192 311.55936 
L 244.386192 303.992719 
L 249.635051 303.992719 
L 249.635051 300.209398 
L 251.384671 300.209398 
L 251.384671 298.317737 
L 256.63353 298.317737 
L 256.63353 296.426077 
L 260.13277 296.426077 
L 260.13277 294.534417 
L 261.882389 294.534417 
L 261.882389 292.642756 
L 263.632009 292.642756 
L 263.632009 288.859435 
L 265.381629 288.859435 
L 265.381629 286.967775 
L 267.131248 286.967775 
L 267.131248 283.184454 
L 274.129727 283.184454 
L 274.129727 279.401133 
L 277.628967 279.401133 
L 281.128206 277.509473 
L 284.627445 277.509473 
L 284.627445 271.834492 
L 286.377065 271.834492 
L 286.377065 269.942831 
L 291.625924 269.942831 
L 291.625924 266.15951 
L 296.874783 266.15951 
L 296.874783 264.26785 
L 300.374023 264.26785 
L 300.374023 262.37619 
L 302.123642 262.37619 
L 302.123642 258.592869 
L 303.873262 258.592869 
L 303.873262 256.701208 
L 305.622882 256.701208 
L 305.622882 254.809548 
L 307.372502 252.917888 
L 307.372502 245.351246 
L 309.122121 245.351246 
L 309.122121 241.567925 
L 312.621361 239.676265 
L 314.37098 239.676265 
L 314.37098 237.784604 
L 316.1206 234.001284 
L 316.1206 224.542982 
L 319.61984 224.542982 
L 319.61984 220.759661 
L 324.868699 220.759661 
L 324.868699 216.97634 
L 328.367938 216.97634 
L 328.367938 213.193019 
L 330.117558 213.193019 
L 330.117558 211.301359 
L 331.867177 211.301359 
L 331.867177 209.409698 
L 351.112994 209.409698 
L 351.112994 207.518038 
L 356.361853 207.518038 
L 358.111473 205.626377 
L 359.861093 205.626377 
L 359.861093 203.734717 
L 361.610712 203.734717 
L 361.610712 201.843057 
L 368.609191 198.059736 
L 368.609191 196.168075 
L 370.358811 196.168075 
L 370.358811 194.276415 
L 372.108431 192.384755 
L 372.108431 186.709773 
L 373.85805 186.709773 
L 373.85805 181.034792 
L 375.60767 181.034792 
L 375.60767 175.359811 
L 377.35729 173.468151 
L 379.106909 173.468151 
L 379.106909 167.793169 
L 380.856529 167.793169 
L 380.856529 164.009849 
L 384.355769 162.118188 
L 384.355769 154.551547 
L 386.105388 154.551547 
L 386.105388 146.984905 
L 391.354247 146.984905 
L 391.354247 143.201584 
L 394.853487 139.418263 
L 403.601585 139.418263 
L 403.601585 137.526603 
L 405.351205 137.526603 
L 405.351205 135.634942 
L 407.100825 135.634942 
L 407.100825 126.17664 
L 414.099303 126.17664 
L 414.099303 124.28498 
L 415.848923 124.28498 
L 415.848923 122.39332 
L 417.598543 122.39332 
L 417.598543 118.609999 
L 421.097782 118.609999 
L 421.097782 114.826678 
L 422.847402 112.935018 
L 422.847402 111.043357 
L 426.346641 107.260036 
L 429.845881 107.260036 
L 429.845881 105.368376 
L 433.34512 105.368376 
L 433.34512 103.476716 
L 436.84436 103.476716 
L 436.84436 101.585055 
L 440.343599 101.585055 
L 440.343599 99.693395 
L 445.592458 99.693395 
L 445.592458 94.018414 
L 449.091698 94.018414 
L 449.091698 92.126753 
L 450.841317 88.343432 
L 468.337514 88.343432 
L 468.337514 84.560112 
L 470.087134 82.668451 
L 470.087134 78.88513 
L 475.335993 78.88513 
L 475.335993 76.99347 
L 477.085613 76.99347 
L 477.085613 65.643507 
L 487.583331 65.643507 
L 487.583331 63.751847 
L 491.08257 63.751847 
L 491.08257 61.860187 
L 494.58181 61.860187 
L 494.58181 59.968526 
L 496.33143 59.968526 
L 496.33143 58.076866 
L 501.580289 58.076866 
L 501.580289 54.293545 
L 503.329908 54.293545 
L 503.329908 52.401885 
L 505.079528 52.401885 
L 505.079528 50.510224 
L 506.829148 48.618564 
L 506.829148 46.726903 
L 506.829148 46.726903 
" clip-path="url(#p1c4059ebdb)" style="fill: none; stroke: #ffa500; stroke-width: 2; stroke-linecap: square"/>
   </g>
   <g id="line2d_27">
    <path d="M 67.674602 504.508722 
L 506.829148 46.726903 
" clip-path="url(#p1c4059ebdb)" style="fill: none; stroke-dasharray: 5.55,2.4; stroke-dashoffset: 0; stroke: #808080; stroke-opacity: 0.7; stroke-width: 1.5"/>
   </g>
   <g id="patch_3">
    <path d="M 45.716875 527.397812 
L 45.716875 23.837812 
" style="fill: none; stroke: #000000; stroke-width: 0.8; stroke-linejoin: miter; stroke-linecap: square"/>
   </g>
   <g id="patch_4">
    <path d="M 528.786875 527.397812 
L 528.786875 23.837812 
" style="fill: none; stroke: #000000; stroke-width: 0.8; stroke-linejoin: miter; stroke-linecap: square"/>
   </g>
   <g id="patch_5">
    <path d="M 45.716875 527.397812 
L 528.786875 527.397812 
" style="fill: none; stroke: #000000; stroke-width: 0.8; stroke-linejoin: miter; stroke-linecap: square"/>
   </g>
   <g id="patch_6">
    <path d="M 45.716875 23.837812 
L 528.786875 23.837812 
" style="fill: none; stroke: #000000; stroke-width: 0.8; stroke-linejoin: miter; stroke-linecap: square"/>
   </g>
   <g id="text_15">
    <text style="font-weight: 700; font-size: 14px; font-family: 'Helvetica'; text-anchor: middle" x="287.251875" y="17.837812" transform="rotate(-0 287.251875 17.837812)">ROC curves for model comparison</text>
   </g>
   <g id="legend_1">
    <g id="patch_7">
     <path d="M 12.357187 522.397813 
L 521.786875 522.397813 
Q 523.786875 522.397813 523.786875 520.397813 
L 523.786875 492.041563 
Q 523.786875 490.041563 521.786875 490.041563 
L 12.357187 490.041563 
Q 10.357187 490.041563 10.357187 492.041563 
L 10.357187 520.397813 
Q 10.357187 522.397813 12.357187 522.397813 
z
" style="fill: #ffffff; opacity: 0.8; stroke: #cccccc; stroke-linejoin: miter"/>
    </g>
    <g id="line2d_28">
     <path d="M 14.357187 498.14 
L 24.357187 498.14 
L 34.357187 498.14 
" style="fill: none; stroke: #0000ff; stroke-width: 2; stroke-linecap: square"/>
    </g>
    <g id="text_16">
     <text style="font-size: 10px; font-family: 'Helvetica'; text-anchor: start" x="42.357187" y="501.64" transform="rotate(-0 42.357187 501.64)">Base predictors: age, sex, baseline weight, BMI and body composition (F1=0.53, AUROC=0.58)</text>
    </g>
    <g id="line2d_29">
     <path d="M 14.357187 512.818125 
L 24.357187 512.818125 
L 34.357187 512.818125 
" style="fill: none; stroke: #ffa500; stroke-width: 2; stroke-linecap: square"/>
    </g>
    <g id="text_17">
     <text style="font-size: 10px; font-family: 'Helvetica'; text-anchor: start" x="42.357187" y="516.318125" transform="rotate(-0 42.357187 516.318125)">Enhanced predictors: base predictors + EE (yes/no, 1-10) + QC (1-10) (F1=0.50, AUROC=0.52)</text>
    </g>
   </g>
  </g>
 </g>
 <defs>
  <clipPath id="p1c4059ebdb">
   <rect x="45.716875" y="23.837812" width="483.07" height="503.56"/>
  </clipPath>
 </defs>
</svg>
