<?xml version="1.0" encoding="utf-8" standalone="no"?>
<!DOCTYPE svg PUBLIC "-//W3C//DTD SVG 1.1//EN"
  "http://www.w3.org/Graphics/SVG/1.1/DTD/svg11.dtd">
<svg xmlns:xlink="http://www.w3.org/1999/xlink" width="1490.4pt" height="1490.4pt" viewBox="0 0 1490.4 1490.4" xmlns="http://www.w3.org/2000/svg" version="1.1">
 <metadata>
  <rdf:RDF xmlns:dc="http://purl.org/dc/elements/1.1/" xmlns:cc="http://creativecommons.org/ns#" xmlns:rdf="http://www.w3.org/1999/02/22-rdf-syntax-ns#">
   <cc:Work>
    <dc:type rdf:resource="http://purl.org/dc/dcmitype/StillImage"/>
    <dc:date>2025-08-31T12:36:08.718535</dc:date>
    <dc:format>image/svg+xml</dc:format>
    <dc:creator>
     <cc:Agent>
      <dc:title>Matplotlib v3.10.1, https://matplotlib.org/</dc:title>
     </cc:Agent>
    </dc:creator>
   </cc:Work>
  </rdf:RDF>
 </metadata>
 <defs>
  <style type="text/css">*{stroke-linejoin: round; stroke-linecap: butt}</style>
 </defs>
 <g id="figure_1">
  <g id="patch_1">
   <path d="M 0 1490.4 
L 1490.4 1490.4 
L 1490.4 0 
L 0 0 
z
" style="fill: #f0f0f0"/>
  </g>
  <g id="axes_1">
   <g id="patch_2">
    <path d="M 36 1454.4 
L 1454.4 1454.4 
L 1454.4 36 
L 36 36 
z
" style="fill: #ffffff"/>
   </g>
   <g id="matplotlib.axis_1">
    <g id="xtick_1">
     <g id="line2d_1">
      <path d="M 256.044309 1454.4 
L 256.044309 36 
" clip-path="url(#pa377dec34f)" style="fill: none; stroke: #cccccc; stroke-width: 0.8; stroke-linecap: round"/>
     </g>
    </g>
    <g id="xtick_2">
     <g id="line2d_2">
      <path d="M 493.463102 1454.4 
L 493.463102 36 
" clip-path="url(#pa377dec34f)" style="fill: none; stroke: #cccccc; stroke-width: 0.8; stroke-linecap: round"/>
     </g>
    </g>
    <g id="xtick_3">
     <g id="line2d_3">
      <path d="M 730.881895 1454.4 
L 730.881895 36 
" clip-path="url(#pa377dec34f)" style="fill: none; stroke: #cccccc; stroke-width: 0.8; stroke-linecap: round"/>
     </g>
    </g>
    <g id="xtick_4">
     <g id="line2d_4">
      <path d="M 968.300688 1454.4 
L 968.300688 36 
" clip-path="url(#pa377dec34f)" style="fill: none; stroke: #cccccc; stroke-width: 0.8; stroke-linecap: round"/>
     </g>
    </g>
    <g id="xtick_5">
     <g id="line2d_5">
      <path d="M 1205.719481 1454.4 
L 1205.719481 36 
" clip-path="url(#pa377dec34f)" style="fill: none; stroke: #cccccc; stroke-width: 0.8; stroke-linecap: round"/>
     </g>
    </g>
    <g id="xtick_6">
     <g id="line2d_6">
      <path d="M 1443.138273 1454.4 
L 1443.138273 36 
" clip-path="url(#pa377dec34f)" style="fill: none; stroke: #cccccc; stroke-width: 0.8; stroke-linecap: round"/>
     </g>
    </g>
   </g>
   <g id="matplotlib.axis_2">
    <g id="ytick_1">
     <g id="line2d_7">
      <path d="M 36 1446.635604 
L 1454.4 1446.635604 
" clip-path="url(#pa377dec34f)" style="fill: none; stroke: #cccccc; stroke-width: 0.8; stroke-linecap: round"/>
     </g>
    </g>
    <g id="ytick_2">
     <g id="line2d_8">
      <path d="M 36 1212.823736 
L 1454.4 1212.823736 
" clip-path="url(#pa377dec34f)" style="fill: none; stroke: #cccccc; stroke-width: 0.8; stroke-linecap: round"/>
     </g>
    </g>
    <g id="ytick_3">
     <g id="line2d_9">
      <path d="M 36 979.011868 
L 1454.4 979.011868 
" clip-path="url(#pa377dec34f)" style="fill: none; stroke: #cccccc; stroke-width: 0.8; stroke-linecap: round"/>
     </g>
    </g>
    <g id="ytick_4">
     <g id="line2d_10">
      <path d="M 36 745.2 
L 1454.4 745.2 
" clip-path="url(#pa377dec34f)" style="fill: none; stroke: #cccccc; stroke-width: 0.8; stroke-linecap: round"/>
     </g>
    </g>
    <g id="ytick_5">
     <g id="line2d_11">
      <path d="M 36 511.388132 
L 1454.4 511.388132 
" clip-path="url(#pa377dec34f)" style="fill: none; stroke: #cccccc; stroke-width: 0.8; stroke-linecap: round"/>
     </g>
    </g>
    <g id="ytick_6">
     <g id="line2d_12">
      <path d="M 36 277.576264 
L 1454.4 277.576264 
" clip-path="url(#pa377dec34f)" style="fill: none; stroke: #cccccc; stroke-width: 0.8; stroke-linecap: round"/>
     </g>
    </g>
    <g id="ytick_7">
     <g id="line2d_13">
      <path d="M 36 43.764396 
L 1454.4 43.764396 
" clip-path="url(#pa377dec34f)" style="fill: none; stroke: #cccccc; stroke-width: 0.8; stroke-linecap: round"/>
     </g>
    </g>
   </g>
   <g id="LineCollection_1">
    <path d="M 1094.628589 444.617257 
L 1205.719481 745.2 
" clip-path="url(#pa377dec34f)" style="fill: none; stroke: #ff0000; stroke-opacity: 0.6; stroke-width: 5.251142"/>
    <path d="M 1094.628589 444.617257 
L 813.336576 284.680519 
" clip-path="url(#pa377dec34f)" style="fill: none; stroke: #ff0000; stroke-opacity: 0.6; stroke-width: 5.644465"/>
    <path d="M 1094.628589 444.617257 
L 1094.628589 1045.782743 
" clip-path="url(#pa377dec34f)" style="fill: none; stroke: #ff0000; stroke-opacity: 0.6; stroke-width: 5.266392"/>
    <path d="M 1205.719481 745.2 
L 284.680519 905.136737 
" clip-path="url(#pa377dec34f)" style="fill: none; stroke: #008000; stroke-opacity: 0.6; stroke-width: 4.139736"/>
    <path d="M 1205.719481 745.2 
L 813.336576 284.680519 
" clip-path="url(#pa377dec34f)" style="fill: none; stroke: #008000; stroke-opacity: 0.6; stroke-width: 4.025639"/>
    <path d="M 1205.719481 745.2 
L 493.463102 340.225965 
" clip-path="url(#pa377dec34f)" style="fill: none; stroke: #ff0000; stroke-opacity: 0.6; stroke-width: 4.349833"/>
    <path d="M 813.336576 284.680519 
L 493.463102 1150.174035 
" clip-path="url(#pa377dec34f)" style="fill: none; stroke: #008000; stroke-opacity: 0.6; stroke-width: 6.00647"/>
    <path d="M 813.336576 284.680519 
L 284.680519 905.136737 
" clip-path="url(#pa377dec34f)" style="fill: none; stroke: #ff0000; stroke-opacity: 0.6; stroke-width: 4.4372"/>
    <path d="M 813.336576 284.680519 
L 284.680519 585.263263 
" clip-path="url(#pa377dec34f)" style="fill: none; stroke: #008000; stroke-opacity: 0.6; stroke-width: 6.830961"/>
    <path d="M 493.463102 1150.174035 
L 813.336576 1205.719481 
" clip-path="url(#pa377dec34f)" style="fill: none; stroke: #008000; stroke-opacity: 0.6; stroke-width: 5.583434"/>
    <path d="M 493.463102 1150.174035 
L 284.680519 905.136737 
" clip-path="url(#pa377dec34f)" style="fill: none; stroke: #ff0000; stroke-opacity: 0.6; stroke-width: 4.287949"/>
    <path d="M 493.463102 1150.174035 
L 284.680519 585.263263 
" clip-path="url(#pa377dec34f)" style="fill: none; stroke: #008000; stroke-opacity: 0.6; stroke-width: 4.49806"/>
    <path d="M 813.336576 1205.719481 
L 493.463102 340.225965 
" clip-path="url(#pa377dec34f)" style="fill: none; stroke: #008000; stroke-opacity: 0.6; stroke-width: 4.494708"/>
   </g>
   <g id="PathCollection_1">
    <path d="M 1094.628589 480.324399 
C 1104.098234 480.324399 1113.181301 476.562069 1119.877351 469.866019 
C 1126.573401 463.169969 1130.335731 454.086901 1130.335731 444.617257 
C 1130.335731 435.147612 1126.573401 426.064544 1119.877351 419.368494 
C 1113.181301 412.672444 1104.098234 408.910114 1094.628589 408.910114 
C 1085.158944 408.910114 1076.075876 412.672444 1069.379826 419.368494 
C 1062.683776 426.064544 1058.921447 435.147612 1058.921447 444.617257 
C 1058.921447 454.086901 1062.683776 463.169969 1069.379826 469.866019 
C 1076.075876 476.562069 1085.158944 480.324399 1094.628589 480.324399 
z
" clip-path="url(#pa377dec34f)" style="fill: #ff6700; stroke: #ff6700; stroke-opacity: 0.6; stroke-width: 8.058239"/>
    <path d="M 1205.719481 784.88627 
C 1216.244402 784.88627 1226.339667 780.704674 1233.781911 773.26243 
C 1241.224154 765.820187 1245.40575 755.724922 1245.40575 745.2 
C 1245.40575 734.675078 1241.224154 724.579813 1233.781911 717.13757 
C 1226.339667 709.695326 1216.244402 705.51373 1205.719481 705.51373 
C 1195.194559 705.51373 1185.099294 709.695326 1177.65705 717.13757 
C 1170.214807 724.579813 1166.033211 734.675078 1166.033211 745.2 
C 1166.033211 755.724922 1170.214807 765.820187 1177.65705 773.26243 
C 1185.099294 780.704674 1195.194559 784.88627 1205.719481 784.88627 
z
" clip-path="url(#pa377dec34f)" style="fill: #ff6700; stroke: #ff6700; stroke-opacity: 0.6; stroke-width: 8.956232"/>
    <path d="M 813.336576 327.98179 
C 824.820207 327.98179 835.835045 323.419295 843.955198 315.299141 
C 852.075351 307.178988 856.637846 296.164151 856.637846 284.680519 
C 856.637846 273.196888 852.075351 262.182051 843.955198 254.061898 
C 835.835045 245.941744 824.820207 241.379249 813.336576 241.379249 
C 801.852945 241.379249 790.838108 245.941744 782.717954 254.061898 
C 774.597801 262.182051 770.035306 273.196888 770.035306 284.680519 
C 770.035306 296.164151 774.597801 307.178988 782.717954 315.299141 
C 790.838108 323.419295 801.852945 327.98179 813.336576 327.98179 
z
" clip-path="url(#pa377dec34f)" style="fill: #ff6700; stroke: #ff6700; stroke-opacity: 0.6; stroke-width: 9.77205"/>
    <path d="M 1094.628589 1071.763505 
C 1101.518767 1071.763505 1108.12767 1069.026008 1112.999762 1064.153916 
C 1117.871854 1059.281824 1120.609351 1052.672922 1120.609351 1045.782743 
C 1120.609351 1038.892565 1117.871854 1032.283662 1112.999762 1027.41157 
C 1108.12767 1022.539478 1101.518767 1019.801981 1094.628589 1019.801981 
C 1087.73841 1019.801981 1081.129508 1022.539478 1076.257416 1027.41157 
C 1071.385324 1032.283662 1068.647827 1038.892565 1068.647827 1045.782743 
C 1068.647827 1052.672922 1071.385324 1059.281824 1076.257416 1064.153916 
C 1081.129508 1069.026008 1087.73841 1071.763505 1094.628589 1071.763505 
z
" clip-path="url(#pa377dec34f)" style="fill: #ff6700; stroke: #ff6700; stroke-opacity: 0.6; stroke-width: 5.86323"/>
    <path d="M 493.463102 1189.860304 
C 503.988024 1189.860304 514.083289 1185.678709 521.525532 1178.236465 
C 528.967776 1170.794221 533.149372 1160.698956 533.149372 1150.174035 
C 533.149372 1139.649113 528.967776 1129.553848 521.525532 1122.111604 
C 514.083289 1114.669361 503.988024 1110.487765 493.463102 1110.487765 
C 482.93818 1110.487765 472.842915 1114.669361 465.400672 1122.111604 
C 457.958428 1129.553848 453.776832 1139.649113 453.776832 1150.174035 
C 453.776832 1160.698956 457.958428 1170.794221 465.400672 1178.236465 
C 472.842915 1185.678709 482.93818 1189.860304 493.463102 1189.860304 
z
" clip-path="url(#pa377dec34f)" style="fill: #ff6700; stroke: #ff6700; stroke-opacity: 0.6; stroke-width: 8.956232"/>
    <path d="M 813.336576 1236.944471 
C 821.61754 1236.944471 829.560453 1233.654409 835.415978 1227.798883 
C 841.271504 1221.943357 844.561566 1214.000445 844.561566 1205.719481 
C 844.561566 1197.438516 841.271504 1189.495604 835.415978 1183.640078 
C 829.560453 1177.784552 821.61754 1174.494491 813.336576 1174.494491 
C 805.055612 1174.494491 797.1127 1177.784552 791.257174 1183.640078 
C 785.401648 1189.495604 782.111586 1197.438516 782.111586 1205.719481 
C 782.111586 1214.000445 785.401648 1221.943357 791.257174 1227.798883 
C 797.1127 1233.654409 805.055612 1236.944471 813.336576 1236.944471 
z
" clip-path="url(#pa377dec34f)" style="fill: #ff6700; stroke: #ff6700; stroke-opacity: 0.6; stroke-width: 7.046726"/>
    <path d="M 284.680519 940.843879 
C 294.150164 940.843879 303.233232 937.08155 309.929282 930.385499 
C 316.625332 923.689449 320.387662 914.606382 320.387662 905.136737 
C 320.387662 895.667092 316.625332 886.584025 309.929282 879.887975 
C 303.233232 873.191925 294.150164 869.429595 284.680519 869.429595 
C 275.210875 869.429595 266.127807 873.191925 259.431757 879.887975 
C 252.735707 886.584025 248.973377 895.667092 248.973377 905.136737 
C 248.973377 914.606382 252.735707 923.689449 259.431757 930.385499 
C 266.127807 937.08155 275.210875 940.843879 284.680519 940.843879 
z
" clip-path="url(#pa377dec34f)" style="fill: #ff6700; stroke: #ff6700; stroke-opacity: 0.6; stroke-width: 8.058239"/>
    <path d="M 284.680519 616.488253 
C 292.961484 616.488253 300.904396 613.198191 306.759922 607.342665 
C 312.615448 601.487139 315.905509 593.544227 315.905509 585.263263 
C 315.905509 576.982299 312.615448 569.039387 306.759922 563.183861 
C 300.904396 557.328335 292.961484 554.038273 284.680519 554.038273 
C 276.399555 554.038273 268.456643 557.328335 262.601117 563.183861 
C 256.745591 569.039387 253.455529 576.982299 253.455529 585.263263 
C 253.455529 593.544227 256.745591 601.487139 262.601117 607.342665 
C 268.456643 613.198191 276.399555 616.488253 284.680519 616.488253 
z
" clip-path="url(#pa377dec34f)" style="fill: #ff6700; stroke: #ff6700; stroke-opacity: 0.6; stroke-width: 7.046726"/>
    <path d="M 493.463102 371.450955 
C 501.744066 371.450955 509.686978 368.160893 515.542504 362.305368 
C 521.39803 356.449842 524.688092 348.50693 524.688092 340.225965 
C 524.688092 331.945001 521.39803 324.002089 515.542504 318.146563 
C 509.686978 312.291037 501.744066 309.000975 493.463102 309.000975 
C 485.182138 309.000975 477.239226 312.291037 471.3837 318.146563 
C 465.528174 324.002089 462.238112 331.945001 462.238112 340.225965 
C 462.238112 348.50693 465.528174 356.449842 471.3837 362.305368 
C 477.239226 368.160893 485.182138 371.450955 493.463102 371.450955 
z
" clip-path="url(#pa377dec34f)" style="fill: #ff6700; stroke: #ff6700; stroke-opacity: 0.6; stroke-width: 7.046726"/>
   </g>
   <g id="patch_3">
    <path d="M 36 1454.4 
L 36 36 
" style="fill: none; stroke: #cccccc; stroke-linejoin: miter; stroke-linecap: square"/>
   </g>
   <g id="patch_4">
    <path d="M 1454.4 1454.4 
L 1454.4 36 
" style="fill: none; stroke: #cccccc; stroke-linejoin: miter; stroke-linecap: square"/>
   </g>
   <g id="patch_5">
    <path d="M 36 1454.4 
L 1454.4 1454.4 
" style="fill: none; stroke: #cccccc; stroke-linejoin: miter; stroke-linecap: square"/>
   </g>
   <g id="patch_6">
    <path d="M 36 36 
L 1454.4 36 
" style="fill: none; stroke: #cccccc; stroke-linejoin: miter; stroke-linecap: square"/>
   </g>
   <g id="text_1">
    <g clip-path="url(#pa377dec34f)">
     <!-- Women's health &amp; pregnancy -->
     <g transform="translate(829.035776 454.551007) scale(0.36 -0.36)">
      <defs>
       <path id="DejaVuSans-57" d="M 213 4666 
L 850 4666 
L 1831 722 
L 2809 4666 
L 3519 4666 
L 4500 722 
L 5478 4666 
L 6119 4666 
L 4947 0 
L 4153 0 
L 3169 4050 
L 2175 0 
L 1381 0 
L 213 4666 
z
" transform="scale(0.015625)"/>
       <path id="DejaVuSans-6f" d="M 1959 3097 
Q 1497 3097 1228 2736 
Q 959 2375 959 1747 
Q 959 1119 1226 758 
Q 1494 397 1959 397 
Q 2419 397 2687 759 
Q 2956 1122 2956 1747 
Q 2956 2369 2687 2733 
Q 2419 3097 1959 3097 
z
M 1959 3584 
Q 2709 3584 3137 3096 
Q 3566 2609 3566 1747 
Q 3566 888 3137 398 
Q 2709 -91 1959 -91 
Q 1206 -91 779 398 
Q 353 888 353 1747 
Q 353 2609 779 3096 
Q 1206 3584 1959 3584 
z
" transform="scale(0.015625)"/>
       <path id="DejaVuSans-6d" d="M 3328 2828 
Q 3544 3216 3844 3400 
Q 4144 3584 4550 3584 
Q 5097 3584 5394 3201 
Q 5691 2819 5691 2113 
L 5691 0 
L 5113 0 
L 5113 2094 
Q 5113 2597 4934 2840 
Q 4756 3084 4391 3084 
Q 3944 3084 3684 2787 
Q 3425 2491 3425 1978 
L 3425 0 
L 2847 0 
L 2847 2094 
Q 2847 2600 2669 2842 
Q 2491 3084 2119 3084 
Q 1678 3084 1418 2786 
Q 1159 2488 1159 1978 
L 1159 0 
L 581 0 
L 581 3500 
L 1159 3500 
L 1159 2956 
Q 1356 3278 1631 3431 
Q 1906 3584 2284 3584 
Q 2666 3584 2933 3390 
Q 3200 3197 3328 2828 
z
" transform="scale(0.015625)"/>
       <path id="DejaVuSans-65" d="M 3597 1894 
L 3597 1613 
L 953 1613 
Q 991 1019 1311 708 
Q 1631 397 2203 397 
Q 2534 397 2845 478 
Q 3156 559 3463 722 
L 3463 178 
Q 3153 47 2828 -22 
Q 2503 -91 2169 -91 
Q 1331 -91 842 396 
Q 353 884 353 1716 
Q 353 2575 817 3079 
Q 1281 3584 2069 3584 
Q 2775 3584 3186 3129 
Q 3597 2675 3597 1894 
z
M 3022 2063 
Q 3016 2534 2758 2815 
Q 2500 3097 2075 3097 
Q 1594 3097 1305 2825 
Q 1016 2553 972 2059 
L 3022 2063 
z
" transform="scale(0.015625)"/>
       <path id="DejaVuSans-6e" d="M 3513 2113 
L 3513 0 
L 2938 0 
L 2938 2094 
Q 2938 2591 2744 2837 
Q 2550 3084 2163 3084 
Q 1697 3084 1428 2787 
Q 1159 2491 1159 1978 
L 1159 0 
L 581 0 
L 581 3500 
L 1159 3500 
L 1159 2956 
Q 1366 3272 1645 3428 
Q 1925 3584 2291 3584 
Q 2894 3584 3203 3211 
Q 3513 2838 3513 2113 
z
" transform="scale(0.015625)"/>
       <path id="DejaVuSans-27" d="M 1147 4666 
L 1147 2931 
L 616 2931 
L 616 4666 
L 1147 4666 
z
" transform="scale(0.015625)"/>
       <path id="DejaVuSans-73" d="M 2834 3397 
L 2834 2853 
Q 2591 2978 2328 3040 
Q 2066 3103 1784 3103 
Q 1356 3103 1142 2972 
Q 928 2841 928 2578 
Q 928 2378 1081 2264 
Q 1234 2150 1697 2047 
L 1894 2003 
Q 2506 1872 2764 1633 
Q 3022 1394 3022 966 
Q 3022 478 2636 193 
Q 2250 -91 1575 -91 
Q 1294 -91 989 -36 
Q 684 19 347 128 
L 347 722 
Q 666 556 975 473 
Q 1284 391 1588 391 
Q 1994 391 2212 530 
Q 2431 669 2431 922 
Q 2431 1156 2273 1281 
Q 2116 1406 1581 1522 
L 1381 1569 
Q 847 1681 609 1914 
Q 372 2147 372 2553 
Q 372 3047 722 3315 
Q 1072 3584 1716 3584 
Q 2034 3584 2315 3537 
Q 2597 3491 2834 3397 
z
" transform="scale(0.015625)"/>
       <path id="DejaVuSans-20" transform="scale(0.015625)"/>
       <path id="DejaVuSans-68" d="M 3513 2113 
L 3513 0 
L 2938 0 
L 2938 2094 
Q 2938 2591 2744 2837 
Q 2550 3084 2163 3084 
Q 1697 3084 1428 2787 
Q 1159 2491 1159 1978 
L 1159 0 
L 581 0 
L 581 4863 
L 1159 4863 
L 1159 2956 
Q 1366 3272 1645 3428 
Q 1925 3584 2291 3584 
Q 2894 3584 3203 3211 
Q 3513 2838 3513 2113 
z
" transform="scale(0.015625)"/>
       <path id="DejaVuSans-61" d="M 2194 1759 
Q 1497 1759 1228 1600 
Q 959 1441 959 1056 
Q 959 750 1161 570 
Q 1363 391 1709 391 
Q 2188 391 2477 730 
Q 2766 1069 2766 1631 
L 2766 1759 
L 2194 1759 
z
M 3341 1997 
L 3341 0 
L 2766 0 
L 2766 531 
Q 2569 213 2275 61 
Q 1981 -91 1556 -91 
Q 1019 -91 701 211 
Q 384 513 384 1019 
Q 384 1609 779 1909 
Q 1175 2209 1959 2209 
L 2766 2209 
L 2766 2266 
Q 2766 2663 2505 2880 
Q 2244 3097 1772 3097 
Q 1472 3097 1187 3025 
Q 903 2953 641 2809 
L 641 3341 
Q 956 3463 1253 3523 
Q 1550 3584 1831 3584 
Q 2591 3584 2966 3190 
Q 3341 2797 3341 1997 
z
" transform="scale(0.015625)"/>
       <path id="DejaVuSans-6c" d="M 603 4863 
L 1178 4863 
L 1178 0 
L 603 0 
L 603 4863 
z
" transform="scale(0.015625)"/>
       <path id="DejaVuSans-74" d="M 1172 4494 
L 1172 3500 
L 2356 3500 
L 2356 3053 
L 1172 3053 
L 1172 1153 
Q 1172 725 1289 603 
Q 1406 481 1766 481 
L 2356 481 
L 2356 0 
L 1766 0 
Q 1100 0 847 248 
Q 594 497 594 1153 
L 594 3053 
L 172 3053 
L 172 3500 
L 594 3500 
L 594 4494 
L 1172 4494 
z
" transform="scale(0.015625)"/>
       <path id="DejaVuSans-26" d="M 1556 2509 
Q 1272 2256 1139 2004 
Q 1006 1753 1006 1478 
Q 1006 1022 1337 719 
Q 1669 416 2169 416 
Q 2466 416 2725 514 
Q 2984 613 3213 813 
L 1556 2509 
z
M 1997 2859 
L 3584 1234 
Q 3769 1513 3872 1830 
Q 3975 2147 3994 2503 
L 4575 2503 
Q 4538 2091 4375 1687 
Q 4213 1284 3922 891 
L 4794 0 
L 4006 0 
L 3559 459 
Q 3234 181 2878 45 
Q 2522 -91 2113 -91 
Q 1359 -91 881 339 
Q 403 769 403 1441 
Q 403 1841 612 2192 
Q 822 2544 1241 2853 
Q 1091 3050 1012 3245 
Q 934 3441 934 3628 
Q 934 4134 1281 4442 
Q 1628 4750 2203 4750 
Q 2463 4750 2720 4694 
Q 2978 4638 3244 4525 
L 3244 3956 
Q 2972 4103 2725 4179 
Q 2478 4256 2266 4256 
Q 1938 4256 1733 4082 
Q 1528 3909 1528 3634 
Q 1528 3475 1620 3314 
Q 1713 3153 1997 2859 
z
" transform="scale(0.015625)"/>
       <path id="DejaVuSans-70" d="M 1159 525 
L 1159 -1331 
L 581 -1331 
L 581 3500 
L 1159 3500 
L 1159 2969 
Q 1341 3281 1617 3432 
Q 1894 3584 2278 3584 
Q 2916 3584 3314 3078 
Q 3713 2572 3713 1747 
Q 3713 922 3314 415 
Q 2916 -91 2278 -91 
Q 1894 -91 1617 61 
Q 1341 213 1159 525 
z
M 3116 1747 
Q 3116 2381 2855 2742 
Q 2594 3103 2138 3103 
Q 1681 3103 1420 2742 
Q 1159 2381 1159 1747 
Q 1159 1113 1420 752 
Q 1681 391 2138 391 
Q 2594 391 2855 752 
Q 3116 1113 3116 1747 
z
" transform="scale(0.015625)"/>
       <path id="DejaVuSans-72" d="M 2631 2963 
Q 2534 3019 2420 3045 
Q 2306 3072 2169 3072 
Q 1681 3072 1420 2755 
Q 1159 2438 1159 1844 
L 1159 0 
L 581 0 
L 581 3500 
L 1159 3500 
L 1159 2956 
Q 1341 3275 1631 3429 
Q 1922 3584 2338 3584 
Q 2397 3584 2469 3576 
Q 2541 3569 2628 3553 
L 2631 2963 
z
" transform="scale(0.015625)"/>
       <path id="DejaVuSans-67" d="M 2906 1791 
Q 2906 2416 2648 2759 
Q 2391 3103 1925 3103 
Q 1463 3103 1205 2759 
Q 947 2416 947 1791 
Q 947 1169 1205 825 
Q 1463 481 1925 481 
Q 2391 481 2648 825 
Q 2906 1169 2906 1791 
z
M 3481 434 
Q 3481 -459 3084 -895 
Q 2688 -1331 1869 -1331 
Q 1566 -1331 1297 -1286 
Q 1028 -1241 775 -1147 
L 775 -588 
Q 1028 -725 1275 -790 
Q 1522 -856 1778 -856 
Q 2344 -856 2625 -561 
Q 2906 -266 2906 331 
L 2906 616 
Q 2728 306 2450 153 
Q 2172 0 1784 0 
Q 1141 0 747 490 
Q 353 981 353 1791 
Q 353 2603 747 3093 
Q 1141 3584 1784 3584 
Q 2172 3584 2450 3431 
Q 2728 3278 2906 2969 
L 2906 3500 
L 3481 3500 
L 3481 434 
z
" transform="scale(0.015625)"/>
       <path id="DejaVuSans-63" d="M 3122 3366 
L 3122 2828 
Q 2878 2963 2633 3030 
Q 2388 3097 2138 3097 
Q 1578 3097 1268 2742 
Q 959 2388 959 1747 
Q 959 1106 1268 751 
Q 1578 397 2138 397 
Q 2388 397 2633 464 
Q 2878 531 3122 666 
L 3122 134 
Q 2881 22 2623 -34 
Q 2366 -91 2075 -91 
Q 1284 -91 818 406 
Q 353 903 353 1747 
Q 353 2603 823 3093 
Q 1294 3584 2113 3584 
Q 2378 3584 2631 3529 
Q 2884 3475 3122 3366 
z
" transform="scale(0.015625)"/>
       <path id="DejaVuSans-79" d="M 2059 -325 
Q 1816 -950 1584 -1140 
Q 1353 -1331 966 -1331 
L 506 -1331 
L 506 -850 
L 844 -850 
Q 1081 -850 1212 -737 
Q 1344 -625 1503 -206 
L 1606 56 
L 191 3500 
L 800 3500 
L 1894 763 
L 2988 3500 
L 3597 3500 
L 2059 -325 
z
" transform="scale(0.015625)"/>
      </defs>
      <use xlink:href="#DejaVuSans-57"/>
      <use xlink:href="#DejaVuSans-6f" transform="translate(93.001953 0)"/>
      <use xlink:href="#DejaVuSans-6d" transform="translate(154.183594 0)"/>
      <use xlink:href="#DejaVuSans-65" transform="translate(251.595703 0)"/>
      <use xlink:href="#DejaVuSans-6e" transform="translate(313.119141 0)"/>
      <use xlink:href="#DejaVuSans-27" transform="translate(376.498047 0)"/>
      <use xlink:href="#DejaVuSans-73" transform="translate(403.988281 0)"/>
      <use xlink:href="#DejaVuSans-20" transform="translate(456.087891 0)"/>
      <use xlink:href="#DejaVuSans-68" transform="translate(487.875 0)"/>
      <use xlink:href="#DejaVuSans-65" transform="translate(551.253906 0)"/>
      <use xlink:href="#DejaVuSans-61" transform="translate(612.777344 0)"/>
      <use xlink:href="#DejaVuSans-6c" transform="translate(674.056641 0)"/>
      <use xlink:href="#DejaVuSans-74" transform="translate(701.839844 0)"/>
      <use xlink:href="#DejaVuSans-68" transform="translate(741.048828 0)"/>
      <use xlink:href="#DejaVuSans-20" transform="translate(804.427734 0)"/>
      <use xlink:href="#DejaVuSans-26" transform="translate(836.214844 0)"/>
      <use xlink:href="#DejaVuSans-20" transform="translate(914.193359 0)"/>
      <use xlink:href="#DejaVuSans-70" transform="translate(945.980469 0)"/>
      <use xlink:href="#DejaVuSans-72" transform="translate(1009.457031 0)"/>
      <use xlink:href="#DejaVuSans-65" transform="translate(1048.320312 0)"/>
      <use xlink:href="#DejaVuSans-67" transform="translate(1109.84375 0)"/>
      <use xlink:href="#DejaVuSans-6e" transform="translate(1173.320312 0)"/>
      <use xlink:href="#DejaVuSans-61" transform="translate(1236.699219 0)"/>
      <use xlink:href="#DejaVuSans-6e" transform="translate(1297.978516 0)"/>
      <use xlink:href="#DejaVuSans-63" transform="translate(1361.357422 0)"/>
      <use xlink:href="#DejaVuSans-79" transform="translate(1416.337891 0)"/>
     </g>
    </g>
   </g>
   <g id="text_2">
    <g clip-path="url(#pa377dec34f)">
     <!-- Physical inactivity -->
     <g transform="translate(1044.020418 755.13375) scale(0.36 -0.36)">
      <defs>
       <path id="DejaVuSans-50" d="M 1259 4147 
L 1259 2394 
L 2053 2394 
Q 2494 2394 2734 2622 
Q 2975 2850 2975 3272 
Q 2975 3691 2734 3919 
Q 2494 4147 2053 4147 
L 1259 4147 
z
M 628 4666 
L 2053 4666 
Q 2838 4666 3239 4311 
Q 3641 3956 3641 3272 
Q 3641 2581 3239 2228 
Q 2838 1875 2053 1875 
L 1259 1875 
L 1259 0 
L 628 0 
L 628 4666 
z
" transform="scale(0.015625)"/>
       <path id="DejaVuSans-69" d="M 603 3500 
L 1178 3500 
L 1178 0 
L 603 0 
L 603 3500 
z
M 603 4863 
L 1178 4863 
L 1178 4134 
L 603 4134 
L 603 4863 
z
" transform="scale(0.015625)"/>
       <path id="DejaVuSans-76" d="M 191 3500 
L 800 3500 
L 1894 563 
L 2988 3500 
L 3597 3500 
L 2284 0 
L 1503 0 
L 191 3500 
z
" transform="scale(0.015625)"/>
      </defs>
      <use xlink:href="#DejaVuSans-50"/>
      <use xlink:href="#DejaVuSans-68" transform="translate(60.302734 0)"/>
      <use xlink:href="#DejaVuSans-79" transform="translate(123.681641 0)"/>
      <use xlink:href="#DejaVuSans-73" transform="translate(182.861328 0)"/>
      <use xlink:href="#DejaVuSans-69" transform="translate(234.960938 0)"/>
      <use xlink:href="#DejaVuSans-63" transform="translate(262.744141 0)"/>
      <use xlink:href="#DejaVuSans-61" transform="translate(317.724609 0)"/>
      <use xlink:href="#DejaVuSans-6c" transform="translate(379.003906 0)"/>
      <use xlink:href="#DejaVuSans-20" transform="translate(406.787109 0)"/>
      <use xlink:href="#DejaVuSans-69" transform="translate(438.574219 0)"/>
      <use xlink:href="#DejaVuSans-6e" transform="translate(466.357422 0)"/>
      <use xlink:href="#DejaVuSans-61" transform="translate(529.736328 0)"/>
      <use xlink:href="#DejaVuSans-63" transform="translate(591.015625 0)"/>
      <use xlink:href="#DejaVuSans-74" transform="translate(645.996094 0)"/>
      <use xlink:href="#DejaVuSans-69" transform="translate(685.205078 0)"/>
      <use xlink:href="#DejaVuSans-76" transform="translate(712.988281 0)"/>
      <use xlink:href="#DejaVuSans-69" transform="translate(772.167969 0)"/>
      <use xlink:href="#DejaVuSans-74" transform="translate(799.951172 0)"/>
      <use xlink:href="#DejaVuSans-79" transform="translate(839.160156 0)"/>
     </g>
    </g>
   </g>
   <g id="text_3">
    <g clip-path="url(#pa377dec34f)">
     <!-- Eating habits -->
     <g transform="translate(695.020326 294.614269) scale(0.36 -0.36)">
      <defs>
       <path id="DejaVuSans-45" d="M 628 4666 
L 3578 4666 
L 3578 4134 
L 1259 4134 
L 1259 2753 
L 3481 2753 
L 3481 2222 
L 1259 2222 
L 1259 531 
L 3634 531 
L 3634 0 
L 628 0 
L 628 4666 
z
" transform="scale(0.015625)"/>
       <path id="DejaVuSans-62" d="M 3116 1747 
Q 3116 2381 2855 2742 
Q 2594 3103 2138 3103 
Q 1681 3103 1420 2742 
Q 1159 2381 1159 1747 
Q 1159 1113 1420 752 
Q 1681 391 2138 391 
Q 2594 391 2855 752 
Q 3116 1113 3116 1747 
z
M 1159 2969 
Q 1341 3281 1617 3432 
Q 1894 3584 2278 3584 
Q 2916 3584 3314 3078 
Q 3713 2572 3713 1747 
Q 3713 922 3314 415 
Q 2916 -91 2278 -91 
Q 1894 -91 1617 61 
Q 1341 213 1159 525 
L 1159 0 
L 581 0 
L 581 4863 
L 1159 4863 
L 1159 2969 
z
" transform="scale(0.015625)"/>
      </defs>
      <use xlink:href="#DejaVuSans-45"/>
      <use xlink:href="#DejaVuSans-61" transform="translate(63.183594 0)"/>
      <use xlink:href="#DejaVuSans-74" transform="translate(124.462891 0)"/>
      <use xlink:href="#DejaVuSans-69" transform="translate(163.671875 0)"/>
      <use xlink:href="#DejaVuSans-6e" transform="translate(191.455078 0)"/>
      <use xlink:href="#DejaVuSans-67" transform="translate(254.833984 0)"/>
      <use xlink:href="#DejaVuSans-20" transform="translate(318.310547 0)"/>
      <use xlink:href="#DejaVuSans-68" transform="translate(350.097656 0)"/>
      <use xlink:href="#DejaVuSans-61" transform="translate(413.476562 0)"/>
      <use xlink:href="#DejaVuSans-62" transform="translate(474.755859 0)"/>
      <use xlink:href="#DejaVuSans-69" transform="translate(538.232422 0)"/>
      <use xlink:href="#DejaVuSans-74" transform="translate(566.015625 0)"/>
      <use xlink:href="#DejaVuSans-73" transform="translate(605.224609 0)"/>
     </g>
    </g>
   </g>
   <g id="text_4">
    <g clip-path="url(#pa377dec34f)">
     <!-- Lifestyle, circumstances -->
     <g transform="translate(877.630151 1055.716493) scale(0.36 -0.36)">
      <defs>
       <path id="DejaVuSans-4c" d="M 628 4666 
L 1259 4666 
L 1259 531 
L 3531 531 
L 3531 0 
L 628 0 
L 628 4666 
z
" transform="scale(0.015625)"/>
       <path id="DejaVuSans-66" d="M 2375 4863 
L 2375 4384 
L 1825 4384 
Q 1516 4384 1395 4259 
Q 1275 4134 1275 3809 
L 1275 3500 
L 2222 3500 
L 2222 3053 
L 1275 3053 
L 1275 0 
L 697 0 
L 697 3053 
L 147 3053 
L 147 3500 
L 697 3500 
L 697 3744 
Q 697 4328 969 4595 
Q 1241 4863 1831 4863 
L 2375 4863 
z
" transform="scale(0.015625)"/>
       <path id="DejaVuSans-2c" d="M 750 794 
L 1409 794 
L 1409 256 
L 897 -744 
L 494 -744 
L 750 256 
L 750 794 
z
" transform="scale(0.015625)"/>
       <path id="DejaVuSans-75" d="M 544 1381 
L 544 3500 
L 1119 3500 
L 1119 1403 
Q 1119 906 1312 657 
Q 1506 409 1894 409 
Q 2359 409 2629 706 
Q 2900 1003 2900 1516 
L 2900 3500 
L 3475 3500 
L 3475 0 
L 2900 0 
L 2900 538 
Q 2691 219 2414 64 
Q 2138 -91 1772 -91 
Q 1169 -91 856 284 
Q 544 659 544 1381 
z
M 1991 3584 
L 1991 3584 
z
" transform="scale(0.015625)"/>
      </defs>
      <use xlink:href="#DejaVuSans-4c"/>
      <use xlink:href="#DejaVuSans-69" transform="translate(55.712891 0)"/>
      <use xlink:href="#DejaVuSans-66" transform="translate(83.496094 0)"/>
      <use xlink:href="#DejaVuSans-65" transform="translate(118.701172 0)"/>
      <use xlink:href="#DejaVuSans-73" transform="translate(180.224609 0)"/>
      <use xlink:href="#DejaVuSans-74" transform="translate(232.324219 0)"/>
      <use xlink:href="#DejaVuSans-79" transform="translate(271.533203 0)"/>
      <use xlink:href="#DejaVuSans-6c" transform="translate(330.712891 0)"/>
      <use xlink:href="#DejaVuSans-65" transform="translate(358.496094 0)"/>
      <use xlink:href="#DejaVuSans-2c" transform="translate(420.019531 0)"/>
      <use xlink:href="#DejaVuSans-20" transform="translate(451.806641 0)"/>
      <use xlink:href="#DejaVuSans-63" transform="translate(483.59375 0)"/>
      <use xlink:href="#DejaVuSans-69" transform="translate(538.574219 0)"/>
      <use xlink:href="#DejaVuSans-72" transform="translate(566.357422 0)"/>
      <use xlink:href="#DejaVuSans-63" transform="translate(605.220703 0)"/>
      <use xlink:href="#DejaVuSans-75" transform="translate(660.201172 0)"/>
      <use xlink:href="#DejaVuSans-6d" transform="translate(723.580078 0)"/>
      <use xlink:href="#DejaVuSans-73" transform="translate(820.992188 0)"/>
      <use xlink:href="#DejaVuSans-74" transform="translate(873.091797 0)"/>
      <use xlink:href="#DejaVuSans-61" transform="translate(912.300781 0)"/>
      <use xlink:href="#DejaVuSans-6e" transform="translate(973.580078 0)"/>
      <use xlink:href="#DejaVuSans-63" transform="translate(1036.958984 0)"/>
      <use xlink:href="#DejaVuSans-65" transform="translate(1091.939453 0)"/>
      <use xlink:href="#DejaVuSans-73" transform="translate(1153.462891 0)"/>
     </g>
    </g>
   </g>
   <g id="text_5">
    <g clip-path="url(#pa377dec34f)">
     <!-- Mental health -->
     <g transform="translate(369.662477 1160.107785) scale(0.36 -0.36)">
      <defs>
       <path id="DejaVuSans-4d" d="M 628 4666 
L 1569 4666 
L 2759 1491 
L 3956 4666 
L 4897 4666 
L 4897 0 
L 4281 0 
L 4281 4097 
L 3078 897 
L 2444 897 
L 1241 4097 
L 1241 0 
L 628 0 
L 628 4666 
z
" transform="scale(0.015625)"/>
      </defs>
      <use xlink:href="#DejaVuSans-4d"/>
      <use xlink:href="#DejaVuSans-65" transform="translate(86.279297 0)"/>
      <use xlink:href="#DejaVuSans-6e" transform="translate(147.802734 0)"/>
      <use xlink:href="#DejaVuSans-74" transform="translate(211.181641 0)"/>
      <use xlink:href="#DejaVuSans-61" transform="translate(250.390625 0)"/>
      <use xlink:href="#DejaVuSans-6c" transform="translate(311.669922 0)"/>
      <use xlink:href="#DejaVuSans-20" transform="translate(339.453125 0)"/>
      <use xlink:href="#DejaVuSans-68" transform="translate(371.240234 0)"/>
      <use xlink:href="#DejaVuSans-65" transform="translate(434.619141 0)"/>
      <use xlink:href="#DejaVuSans-61" transform="translate(496.142578 0)"/>
      <use xlink:href="#DejaVuSans-6c" transform="translate(557.421875 0)"/>
      <use xlink:href="#DejaVuSans-74" transform="translate(585.205078 0)"/>
      <use xlink:href="#DejaVuSans-68" transform="translate(624.414062 0)"/>
     </g>
    </g>
   </g>
   <g id="text_6">
    <g clip-path="url(#pa377dec34f)">
     <!-- Family issues -->
     <g transform="translate(694.072514 1215.653231) scale(0.36 -0.36)">
      <defs>
       <path id="DejaVuSans-46" d="M 628 4666 
L 3309 4666 
L 3309 4134 
L 1259 4134 
L 1259 2759 
L 3109 2759 
L 3109 2228 
L 1259 2228 
L 1259 0 
L 628 0 
L 628 4666 
z
" transform="scale(0.015625)"/>
      </defs>
      <use xlink:href="#DejaVuSans-46"/>
      <use xlink:href="#DejaVuSans-61" transform="translate(48.394531 0)"/>
      <use xlink:href="#DejaVuSans-6d" transform="translate(109.673828 0)"/>
      <use xlink:href="#DejaVuSans-69" transform="translate(207.085938 0)"/>
      <use xlink:href="#DejaVuSans-6c" transform="translate(234.869141 0)"/>
      <use xlink:href="#DejaVuSans-79" transform="translate(262.652344 0)"/>
      <use xlink:href="#DejaVuSans-20" transform="translate(321.832031 0)"/>
      <use xlink:href="#DejaVuSans-69" transform="translate(353.619141 0)"/>
      <use xlink:href="#DejaVuSans-73" transform="translate(381.402344 0)"/>
      <use xlink:href="#DejaVuSans-73" transform="translate(433.501953 0)"/>
      <use xlink:href="#DejaVuSans-75" transform="translate(485.601562 0)"/>
      <use xlink:href="#DejaVuSans-65" transform="translate(548.980469 0)"/>
      <use xlink:href="#DejaVuSans-73" transform="translate(610.503906 0)"/>
     </g>
    </g>
   </g>
   <g id="text_7">
    <g clip-path="url(#pa377dec34f)">
     <!-- Medication, disease, or injury -->
     <g transform="translate(19.990519 915.070487) scale(0.36 -0.36)">
      <defs>
       <path id="DejaVuSans-64" d="M 2906 2969 
L 2906 4863 
L 3481 4863 
L 3481 0 
L 2906 0 
L 2906 525 
Q 2725 213 2448 61 
Q 2172 -91 1784 -91 
Q 1150 -91 751 415 
Q 353 922 353 1747 
Q 353 2572 751 3078 
Q 1150 3584 1784 3584 
Q 2172 3584 2448 3432 
Q 2725 3281 2906 2969 
z
M 947 1747 
Q 947 1113 1208 752 
Q 1469 391 1925 391 
Q 2381 391 2643 752 
Q 2906 1113 2906 1747 
Q 2906 2381 2643 2742 
Q 2381 3103 1925 3103 
Q 1469 3103 1208 2742 
Q 947 2381 947 1747 
z
" transform="scale(0.015625)"/>
       <path id="DejaVuSans-6a" d="M 603 3500 
L 1178 3500 
L 1178 -63 
Q 1178 -731 923 -1031 
Q 669 -1331 103 -1331 
L -116 -1331 
L -116 -844 
L 38 -844 
Q 366 -844 484 -692 
Q 603 -541 603 -63 
L 603 3500 
z
M 603 4863 
L 1178 4863 
L 1178 4134 
L 603 4134 
L 603 4863 
z
" transform="scale(0.015625)"/>
      </defs>
      <use xlink:href="#DejaVuSans-4d"/>
      <use xlink:href="#DejaVuSans-65" transform="translate(86.279297 0)"/>
      <use xlink:href="#DejaVuSans-64" transform="translate(147.802734 0)"/>
      <use xlink:href="#DejaVuSans-69" transform="translate(211.279297 0)"/>
      <use xlink:href="#DejaVuSans-63" transform="translate(239.0625 0)"/>
      <use xlink:href="#DejaVuSans-61" transform="translate(294.042969 0)"/>
      <use xlink:href="#DejaVuSans-74" transform="translate(355.322266 0)"/>
      <use xlink:href="#DejaVuSans-69" transform="translate(394.53125 0)"/>
      <use xlink:href="#DejaVuSans-6f" transform="translate(422.314453 0)"/>
      <use xlink:href="#DejaVuSans-6e" transform="translate(483.496094 0)"/>
      <use xlink:href="#DejaVuSans-2c" transform="translate(546.875 0)"/>
      <use xlink:href="#DejaVuSans-20" transform="translate(578.662109 0)"/>
      <use xlink:href="#DejaVuSans-64" transform="translate(610.449219 0)"/>
      <use xlink:href="#DejaVuSans-69" transform="translate(673.925781 0)"/>
      <use xlink:href="#DejaVuSans-73" transform="translate(701.708984 0)"/>
      <use xlink:href="#DejaVuSans-65" transform="translate(753.808594 0)"/>
      <use xlink:href="#DejaVuSans-61" transform="translate(815.332031 0)"/>
      <use xlink:href="#DejaVuSans-73" transform="translate(876.611328 0)"/>
      <use xlink:href="#DejaVuSans-65" transform="translate(928.710938 0)"/>
      <use xlink:href="#DejaVuSans-2c" transform="translate(990.234375 0)"/>
      <use xlink:href="#DejaVuSans-20" transform="translate(1022.021484 0)"/>
      <use xlink:href="#DejaVuSans-6f" transform="translate(1053.808594 0)"/>
      <use xlink:href="#DejaVuSans-72" transform="translate(1114.990234 0)"/>
      <use xlink:href="#DejaVuSans-20" transform="translate(1156.103516 0)"/>
      <use xlink:href="#DejaVuSans-69" transform="translate(1187.890625 0)"/>
      <use xlink:href="#DejaVuSans-6e" transform="translate(1215.673828 0)"/>
      <use xlink:href="#DejaVuSans-6a" transform="translate(1279.052734 0)"/>
      <use xlink:href="#DejaVuSans-75" transform="translate(1306.835938 0)"/>
      <use xlink:href="#DejaVuSans-72" transform="translate(1370.214844 0)"/>
      <use xlink:href="#DejaVuSans-79" transform="translate(1411.328125 0)"/>
     </g>
    </g>
   </g>
   <g id="text_8">
    <g clip-path="url(#pa377dec34f)">
     <!-- Schedule -->
     <g transform="translate(201.962082 595.197013) scale(0.36 -0.36)">
      <defs>
       <path id="DejaVuSans-53" d="M 3425 4513 
L 3425 3897 
Q 3066 4069 2747 4153 
Q 2428 4238 2131 4238 
Q 1616 4238 1336 4038 
Q 1056 3838 1056 3469 
Q 1056 3159 1242 3001 
Q 1428 2844 1947 2747 
L 2328 2669 
Q 3034 2534 3370 2195 
Q 3706 1856 3706 1288 
Q 3706 609 3251 259 
Q 2797 -91 1919 -91 
Q 1588 -91 1214 -16 
Q 841 59 441 206 
L 441 856 
Q 825 641 1194 531 
Q 1563 422 1919 422 
Q 2459 422 2753 634 
Q 3047 847 3047 1241 
Q 3047 1584 2836 1778 
Q 2625 1972 2144 2069 
L 1759 2144 
Q 1053 2284 737 2584 
Q 422 2884 422 3419 
Q 422 4038 858 4394 
Q 1294 4750 2059 4750 
Q 2388 4750 2728 4690 
Q 3069 4631 3425 4513 
z
" transform="scale(0.015625)"/>
      </defs>
      <use xlink:href="#DejaVuSans-53"/>
      <use xlink:href="#DejaVuSans-63" transform="translate(63.476562 0)"/>
      <use xlink:href="#DejaVuSans-68" transform="translate(118.457031 0)"/>
      <use xlink:href="#DejaVuSans-65" transform="translate(181.835938 0)"/>
      <use xlink:href="#DejaVuSans-64" transform="translate(243.359375 0)"/>
      <use xlink:href="#DejaVuSans-75" transform="translate(306.835938 0)"/>
      <use xlink:href="#DejaVuSans-6c" transform="translate(370.214844 0)"/>
      <use xlink:href="#DejaVuSans-65" transform="translate(397.998047 0)"/>
     </g>
    </g>
   </g>
   <g id="text_9">
    <g clip-path="url(#pa377dec34f)">
     <!-- Smoking cessation -->
     <g transform="translate(324.274352 350.159715) scale(0.36 -0.36)">
      <defs>
       <path id="DejaVuSans-6b" d="M 581 4863 
L 1159 4863 
L 1159 1991 
L 2875 3500 
L 3609 3500 
L 1753 1863 
L 3688 0 
L 2938 0 
L 1159 1709 
L 1159 0 
L 581 0 
L 581 4863 
z
" transform="scale(0.015625)"/>
      </defs>
      <use xlink:href="#DejaVuSans-53"/>
      <use xlink:href="#DejaVuSans-6d" transform="translate(63.476562 0)"/>
      <use xlink:href="#DejaVuSans-6f" transform="translate(160.888672 0)"/>
      <use xlink:href="#DejaVuSans-6b" transform="translate(222.070312 0)"/>
      <use xlink:href="#DejaVuSans-69" transform="translate(279.980469 0)"/>
      <use xlink:href="#DejaVuSans-6e" transform="translate(307.763672 0)"/>
      <use xlink:href="#DejaVuSans-67" transform="translate(371.142578 0)"/>
      <use xlink:href="#DejaVuSans-20" transform="translate(434.619141 0)"/>
      <use xlink:href="#DejaVuSans-63" transform="translate(466.40625 0)"/>
      <use xlink:href="#DejaVuSans-65" transform="translate(521.386719 0)"/>
      <use xlink:href="#DejaVuSans-73" transform="translate(582.910156 0)"/>
      <use xlink:href="#DejaVuSans-73" transform="translate(635.009766 0)"/>
      <use xlink:href="#DejaVuSans-61" transform="translate(687.109375 0)"/>
      <use xlink:href="#DejaVuSans-74" transform="translate(748.388672 0)"/>
      <use xlink:href="#DejaVuSans-69" transform="translate(787.597656 0)"/>
      <use xlink:href="#DejaVuSans-6f" transform="translate(815.380859 0)"/>
      <use xlink:href="#DejaVuSans-6e" transform="translate(876.5625 0)"/>
     </g>
    </g>
   </g>
  </g>
 </g>
 <defs>
  <clipPath id="pa377dec34f">
   <rect x="36" y="36" width="1418.4" height="1418.4"/>
  </clipPath>
 </defs>
</svg>
