<?xml version="1.0" encoding="utf-8" standalone="no"?>
<!DOCTYPE svg PUBLIC "-//W3C//DTD SVG 1.1//EN"
  "http://www.w3.org/Graphics/SVG/1.1/DTD/svg11.dtd">
<svg xmlns:xlink="http://www.w3.org/1999/xlink" width="1408.896pt" height="1408.896pt" viewBox="0 0 1408.896 1408.896" xmlns="http://www.w3.org/2000/svg" version="1.1">
 <metadata>
  <rdf:RDF xmlns:dc="http://purl.org/dc/elements/1.1/" xmlns:cc="http://creativecommons.org/ns#" xmlns:rdf="http://www.w3.org/1999/02/22-rdf-syntax-ns#">
   <cc:Work>
    <dc:type rdf:resource="http://purl.org/dc/dcmitype/StillImage"/>
    <dc:date>2025-09-10T15:56:40.579892</dc:date>
    <dc:format>image/svg+xml</dc:format>
    <dc:creator>
     <cc:Agent>
      <dc:title>Matplotlib v3.10.1, https://matplotlib.org/</dc:title>
     </cc:Agent>
    </dc:creator>
   </cc:Work>
  </rdf:RDF>
 </metadata>
 <defs>
  <style type="text/css">*{stroke-linejoin: round; stroke-linecap: butt}</style>
 </defs>
 <g id="figure_1">
  <g id="patch_1">
   <path d="M 0 1408.896 
L 1408.896 1408.896 
L 1408.896 0 
L 0 0 
L 0 1408.896 
z
" style="fill: none"/>
  </g>
  <g id="axes_1">
   <g id="patch_2">
    <path d="M 0 1408.896 
L 1408.896 1408.896 
L 1408.896 -0 
L 0 -0 
L 0 1408.896 
z
" style="fill: none"/>
   </g>
   <g id="matplotlib.axis_1">
    <g id="xtick_1"/>
    <g id="xtick_2"/>
    <g id="xtick_3"/>
    <g id="xtick_4"/>
    <g id="xtick_5"/>
    <g id="xtick_6"/>
   </g>
   <g id="matplotlib.axis_2">
    <g id="ytick_1"/>
    <g id="ytick_2"/>
    <g id="ytick_3"/>
    <g id="ytick_4"/>
    <g id="ytick_5"/>
    <g id="ytick_6"/>
    <g id="ytick_7"/>
   </g>
   <g id="LineCollection_1">
    <path d="M 1051.53524 405.879314 
L 1161.881766 704.448 
" clip-path="url(#pfce1e12e33)" style="fill: none; stroke: #ff0000; stroke-opacity: 0.7; stroke-width: 15.852034"/>
    <path d="M 1051.53524 405.879314 
L 772.128027 247.014234 
" clip-path="url(#pfce1e12e33)" style="fill: none; stroke: #ff0000; stroke-opacity: 0.7; stroke-width: 16.687394"/>
    <path d="M 1051.53524 405.879314 
L 1051.53524 1003.016686 
" clip-path="url(#pfce1e12e33)" style="fill: none; stroke: #ff0000; stroke-opacity: 0.7; stroke-width: 17.436316"/>
    <path d="M 454.397867 1106.708503 
L 772.128027 1161.881766 
" clip-path="url(#pfce1e12e33)" style="fill: none; stroke: #008000; stroke-opacity: 0.7; stroke-width: 28.846438"/>
    <path d="M 454.397867 1106.708503 
L 772.128027 247.014234 
" clip-path="url(#pfce1e12e33)" style="fill: none; stroke: #008000; stroke-opacity: 0.7; stroke-width: 26.677129"/>
    <path d="M 772.128027 1161.881766 
L 1161.881766 704.448 
" clip-path="url(#pfce1e12e33)" style="fill: none; stroke: #ff0000; stroke-opacity: 0.7; stroke-width: 13.704559"/>
    <path d="M 247.014234 863.31308 
L 1161.881766 704.448 
" clip-path="url(#pfce1e12e33)" style="fill: none; stroke: #008000; stroke-opacity: 0.7; stroke-width: 14.434539"/>
    <path d="M 247.014234 863.31308 
L 772.128027 247.014234 
" clip-path="url(#pfce1e12e33)" style="fill: none; stroke: #ff0000; stroke-opacity: 0.7; stroke-width: 10.462312"/>
    <path d="M 247.014234 863.31308 
L 454.397867 302.187497 
" clip-path="url(#pfce1e12e33)" style="fill: none; stroke: #ff0000; stroke-opacity: 0.7; stroke-width: 14.682714"/>
    <path d="M 247.014234 863.31308 
L 1051.53524 1003.016686 
" clip-path="url(#pfce1e12e33)" style="fill: none; stroke: #ff0000; stroke-opacity: 0.7; stroke-width: 18.75886"/>
    <path d="M 1161.881766 704.448 
L 772.128027 247.014234 
" clip-path="url(#pfce1e12e33)" style="fill: none; stroke: #008000; stroke-opacity: 0.7; stroke-width: 11.370678"/>
    <path d="M 1161.881766 704.448 
L 454.397867 302.187497 
" clip-path="url(#pfce1e12e33)" style="fill: none; stroke: #ff0000; stroke-opacity: 0.7; stroke-width: 17.788645"/>
    <path d="M 1161.881766 704.448 
L 1051.53524 1003.016686 
" clip-path="url(#pfce1e12e33)" style="fill: none; stroke: #008000; stroke-opacity: 0.7; stroke-width: 11.718627"/>
    <path d="M 772.128027 247.014234 
L 247.014234 545.58292 
" clip-path="url(#pfce1e12e33)" style="fill: none; stroke: #008000; stroke-opacity: 0.7; stroke-width: 30.61679"/>
    <path d="M 772.128027 247.014234 
L 454.397867 302.187497 
" clip-path="url(#pfce1e12e33)" style="fill: none; stroke: #ff0000; stroke-opacity: 0.7; stroke-width: 16.171136"/>
    <path d="M 772.128027 247.014234 
L 1051.53524 1003.016686 
" clip-path="url(#pfce1e12e33)" style="fill: none; stroke: #008000; stroke-opacity: 0.7; stroke-width: 8.697536"/>
    <path d="M 454.397867 302.187497 
L 1051.53524 1003.016686 
" clip-path="url(#pfce1e12e33)" style="fill: none; stroke: #ff0000; stroke-opacity: 0.7; stroke-width: 13.135802"/>
   </g>
   <g id="PathCollection_1">
    <path d="M 1051.53524 441.586456 
C 1061.004885 441.586456 1070.087952 437.824126 1076.784002 431.128076 
C 1083.480052 424.432026 1087.242382 415.348958 1087.242382 405.879314 
C 1087.242382 396.409669 1083.480052 387.326601 1076.784002 380.630551 
C 1070.087952 373.934501 1061.004885 370.172171 1051.53524 370.172171 
C 1042.065595 370.172171 1032.982528 373.934501 1026.286477 380.630551 
C 1019.590427 387.326601 1015.828098 396.409669 1015.828098 405.879314 
C 1015.828098 415.348958 1019.590427 424.432026 1026.286477 431.128076 
C 1032.982528 437.824126 1042.065595 441.586456 1051.53524 441.586456 
z
" clip-path="url(#pfce1e12e33)" style="fill: #ff6700; stroke: #ff6700; stroke-opacity: 0.6; stroke-width: 8.058239"/>
    <path d="M 454.397867 1137.933493 
C 462.678831 1137.933493 470.621743 1134.643431 476.477269 1128.787905 
C 482.332795 1122.932379 485.622857 1114.989467 485.622857 1106.708503 
C 485.622857 1098.427539 482.332795 1090.484627 476.477269 1084.629101 
C 470.621743 1078.773575 462.678831 1075.483513 454.397867 1075.483513 
C 446.116903 1075.483513 438.173991 1078.773575 432.318465 1084.629101 
C 426.462939 1090.484627 423.172877 1098.427539 423.172877 1106.708503 
C 423.172877 1114.989467 426.462939 1122.932379 432.318465 1128.787905 
C 438.173991 1134.643431 446.116903 1137.933493 454.397867 1137.933493 
z
" clip-path="url(#pfce1e12e33)" style="fill: #ff6700; stroke: #ff6700; stroke-opacity: 0.6; stroke-width: 7.046726"/>
    <path d="M 772.128027 1193.106756 
C 780.408991 1193.106756 788.351903 1189.816694 794.207429 1183.961168 
C 800.062955 1178.105642 803.353017 1170.16273 803.353017 1161.881766 
C 803.353017 1153.600802 800.062955 1145.65789 794.207429 1139.802364 
C 788.351903 1133.946838 780.408991 1130.656776 772.128027 1130.656776 
C 763.847062 1130.656776 755.90415 1133.946838 750.048624 1139.802364 
C 744.193099 1145.65789 740.903037 1153.600802 740.903037 1161.881766 
C 740.903037 1170.16273 744.193099 1178.105642 750.048624 1183.961168 
C 755.90415 1189.816694 763.847062 1193.106756 772.128027 1193.106756 
z
" clip-path="url(#pfce1e12e33)" style="fill: #ff6700; stroke: #ff6700; stroke-opacity: 0.6; stroke-width: 7.046726"/>
    <path d="M 247.014234 902.999349 
C 257.539156 902.999349 267.634421 898.817754 275.076664 891.37551 
C 282.518908 883.933267 286.700503 873.838002 286.700503 863.31308 
C 286.700503 852.788158 282.518908 842.692893 275.076664 835.250649 
C 267.634421 827.808406 257.539156 823.62681 247.014234 823.62681 
C 236.489312 823.62681 226.394047 827.808406 218.951803 835.250649 
C 211.50956 842.692893 207.327964 852.788158 207.327964 863.31308 
C 207.327964 873.838002 211.50956 883.933267 218.951803 891.37551 
C 226.394047 898.817754 236.489312 902.999349 247.014234 902.999349 
z
" clip-path="url(#pfce1e12e33)" style="fill: #ff6700; stroke: #ff6700; stroke-opacity: 0.6; stroke-width: 8.956232"/>
    <path d="M 1161.881766 751.084895 
C 1174.250015 751.084895 1186.113358 746.170938 1194.859031 737.425265 
C 1203.604704 728.679592 1208.518661 716.816249 1208.518661 704.448 
C 1208.518661 692.079751 1203.604704 680.216408 1194.859031 671.470735 
C 1186.113358 662.725062 1174.250015 657.811105 1161.881766 657.811105 
C 1149.513517 657.811105 1137.650174 662.725062 1128.904501 671.470735 
C 1120.158828 680.216408 1115.244871 692.079751 1115.244871 704.448 
C 1115.244871 716.816249 1120.158828 728.679592 1128.904501 737.425265 
C 1137.650174 746.170938 1149.513517 751.084895 1161.881766 751.084895 
z
" clip-path="url(#pfce1e12e33)" style="fill: #ff6700; stroke: #ff6700; stroke-opacity: 0.6; stroke-width: 10.52482"/>
    <path d="M 772.128027 296.763606 
C 785.321714 296.763606 797.976799 291.521698 807.306145 282.192352 
C 816.635491 272.863006 821.877398 260.207921 821.877398 247.014234 
C 821.877398 233.820546 816.635491 221.165462 807.306145 211.836116 
C 797.976799 202.50677 785.321714 197.264862 772.128027 197.264862 
C 758.934339 197.264862 746.279254 202.50677 736.949908 211.836116 
C 727.620562 221.165462 722.378655 233.820546 722.378655 247.014234 
C 722.378655 260.207921 727.620562 272.863006 736.949908 282.192352 
C 746.279254 291.521698 758.934339 296.763606 772.128027 296.763606 
z
" clip-path="url(#pfce1e12e33)" style="fill: #ff6700; stroke: #ff6700; stroke-opacity: 0.6; stroke-width: 11.227231"/>
    <path d="M 247.014234 571.563682 
C 253.904412 571.563682 260.513315 568.826185 265.385407 563.954093 
C 270.257499 559.082001 272.994996 552.473099 272.994996 545.58292 
C 272.994996 538.692742 270.257499 532.083839 265.385407 527.211747 
C 260.513315 522.339655 253.904412 519.602158 247.014234 519.602158 
C 240.124055 519.602158 233.515153 522.339655 228.643061 527.211747 
C 223.770969 532.083839 221.033472 538.692742 221.033472 545.58292 
C 221.033472 552.473099 223.770969 559.082001 228.643061 563.954093 
C 233.515153 568.826185 240.124055 571.563682 247.014234 571.563682 
z
" clip-path="url(#pfce1e12e33)" style="fill: #ff6700; stroke: #ff6700; stroke-opacity: 0.6; stroke-width: 5.86323"/>
    <path d="M 454.397867 341.873767 
C 464.922789 341.873767 475.018054 337.692171 482.460297 330.249927 
C 489.902541 322.807684 494.084137 312.712419 494.084137 302.187497 
C 494.084137 291.662575 489.902541 281.56731 482.460297 274.125067 
C 475.018054 266.682823 464.922789 262.501227 454.397867 262.501227 
C 443.872945 262.501227 433.77768 266.682823 426.335437 274.125067 
C 418.893193 281.56731 414.711597 291.662575 414.711597 302.187497 
C 414.711597 312.712419 418.893193 322.807684 426.335437 330.249927 
C 433.77768 337.692171 443.872945 341.873767 454.397867 341.873767 
z
" clip-path="url(#pfce1e12e33)" style="fill: #ff6700; stroke: #ff6700; stroke-opacity: 0.6; stroke-width: 8.956232"/>
    <path d="M 1051.53524 1046.317957 
C 1063.018871 1046.317957 1074.033708 1041.755462 1082.153862 1033.635308 
C 1090.274015 1025.515155 1094.83651 1014.500318 1094.83651 1003.016686 
C 1094.83651 991.533055 1090.274015 980.518218 1082.153862 972.398065 
C 1074.033708 964.277911 1063.018871 959.715416 1051.53524 959.715416 
C 1040.051609 959.715416 1029.036771 964.277911 1020.916618 972.398065 
C 1012.796465 980.518218 1008.23397 991.533055 1008.23397 1003.016686 
C 1008.23397 1014.500318 1012.796465 1025.515155 1020.916618 1033.635308 
C 1029.036771 1041.755462 1040.051609 1046.317957 1051.53524 1046.317957 
z
" clip-path="url(#pfce1e12e33)" style="fill: #ff6700; stroke: #ff6700; stroke-opacity: 0.6; stroke-width: 9.77205"/>
   </g>
   <g id="patch_3">
    <path d="M 0 1408.896 
L 0 -0 
" style="fill: none; stroke: #262626; stroke-width: 1.25; stroke-linejoin: miter; stroke-linecap: square"/>
   </g>
   <g id="patch_4">
    <path d="M 1408.896 1408.896 
L 1408.896 -0 
" style="fill: none; stroke: #262626; stroke-width: 1.25; stroke-linejoin: miter; stroke-linecap: square"/>
   </g>
   <g id="patch_5">
    <path d="M 0 1408.896 
L 1408.896 1408.896 
" style="fill: none; stroke: #262626; stroke-width: 1.25; stroke-linejoin: miter; stroke-linecap: square"/>
   </g>
   <g id="patch_6">
    <path d="M 0 -0 
L 1408.896 -0 
" style="fill: none; stroke: #262626; stroke-width: 1.25; stroke-linejoin: miter; stroke-linecap: square"/>
   </g>
   <g id="text_1">
    <g clip-path="url(#pfce1e12e33)">
     <!-- Women's health -->
     <g transform="translate(923.361177 395.673314) scale(0.36 -0.36)">
      <defs>
       <path id="ArialMT-57" d="M 1294 0 
L 78 4581 
L 700 4581 
L 1397 1578 
Q 1509 1106 1591 641 
Q 1766 1375 1797 1488 
L 2669 4581 
L 3400 4581 
L 4056 2263 
Q 4303 1400 4413 641 
Q 4500 1075 4641 1638 
L 5359 4581 
L 5969 4581 
L 4713 0 
L 4128 0 
L 3163 3491 
Q 3041 3928 3019 4028 
Q 2947 3713 2884 3491 
L 1913 0 
L 1294 0 
z
" transform="scale(0.015625)"/>
       <path id="ArialMT-6f" d="M 213 1659 
Q 213 2581 725 3025 
Q 1153 3394 1769 3394 
Q 2453 3394 2887 2945 
Q 3322 2497 3322 1706 
Q 3322 1066 3130 698 
Q 2938 331 2570 128 
Q 2203 -75 1769 -75 
Q 1072 -75 642 372 
Q 213 819 213 1659 
z
M 791 1659 
Q 791 1022 1069 705 
Q 1347 388 1769 388 
Q 2188 388 2466 706 
Q 2744 1025 2744 1678 
Q 2744 2294 2464 2611 
Q 2184 2928 1769 2928 
Q 1347 2928 1069 2612 
Q 791 2297 791 1659 
z
" transform="scale(0.015625)"/>
       <path id="ArialMT-6d" d="M 422 0 
L 422 3319 
L 925 3319 
L 925 2853 
Q 1081 3097 1340 3245 
Q 1600 3394 1931 3394 
Q 2300 3394 2536 3241 
Q 2772 3088 2869 2813 
Q 3263 3394 3894 3394 
Q 4388 3394 4653 3120 
Q 4919 2847 4919 2278 
L 4919 0 
L 4359 0 
L 4359 2091 
Q 4359 2428 4304 2576 
Q 4250 2725 4106 2815 
Q 3963 2906 3769 2906 
Q 3419 2906 3187 2673 
Q 2956 2441 2956 1928 
L 2956 0 
L 2394 0 
L 2394 2156 
Q 2394 2531 2256 2718 
Q 2119 2906 1806 2906 
Q 1569 2906 1367 2781 
Q 1166 2656 1075 2415 
Q 984 2175 984 1722 
L 984 0 
L 422 0 
z
" transform="scale(0.015625)"/>
       <path id="ArialMT-65" d="M 2694 1069 
L 3275 997 
Q 3138 488 2766 206 
Q 2394 -75 1816 -75 
Q 1088 -75 661 373 
Q 234 822 234 1631 
Q 234 2469 665 2931 
Q 1097 3394 1784 3394 
Q 2450 3394 2872 2941 
Q 3294 2488 3294 1666 
Q 3294 1616 3291 1516 
L 816 1516 
Q 847 969 1125 678 
Q 1403 388 1819 388 
Q 2128 388 2347 550 
Q 2566 713 2694 1069 
z
M 847 1978 
L 2700 1978 
Q 2663 2397 2488 2606 
Q 2219 2931 1791 2931 
Q 1403 2931 1139 2672 
Q 875 2413 847 1978 
z
" transform="scale(0.015625)"/>
       <path id="ArialMT-6e" d="M 422 0 
L 422 3319 
L 928 3319 
L 928 2847 
Q 1294 3394 1984 3394 
Q 2284 3394 2536 3286 
Q 2788 3178 2913 3003 
Q 3038 2828 3088 2588 
Q 3119 2431 3119 2041 
L 3119 0 
L 2556 0 
L 2556 2019 
Q 2556 2363 2490 2533 
Q 2425 2703 2258 2804 
Q 2091 2906 1866 2906 
Q 1506 2906 1245 2678 
Q 984 2450 984 1813 
L 984 0 
L 422 0 
z
" transform="scale(0.015625)"/>
       <path id="ArialMT-27" d="M 425 2959 
L 281 3816 
L 281 4581 
L 922 4581 
L 922 3816 
L 772 2959 
L 425 2959 
z
" transform="scale(0.015625)"/>
       <path id="ArialMT-73" d="M 197 991 
L 753 1078 
Q 800 744 1014 566 
Q 1228 388 1613 388 
Q 2000 388 2187 545 
Q 2375 703 2375 916 
Q 2375 1106 2209 1216 
Q 2094 1291 1634 1406 
Q 1016 1563 777 1677 
Q 538 1791 414 1992 
Q 291 2194 291 2438 
Q 291 2659 392 2848 
Q 494 3038 669 3163 
Q 800 3259 1026 3326 
Q 1253 3394 1513 3394 
Q 1903 3394 2198 3281 
Q 2494 3169 2634 2976 
Q 2775 2784 2828 2463 
L 2278 2388 
Q 2241 2644 2061 2787 
Q 1881 2931 1553 2931 
Q 1166 2931 1000 2803 
Q 834 2675 834 2503 
Q 834 2394 903 2306 
Q 972 2216 1119 2156 
Q 1203 2125 1616 2013 
Q 2213 1853 2448 1751 
Q 2684 1650 2818 1456 
Q 2953 1263 2953 975 
Q 2953 694 2789 445 
Q 2625 197 2315 61 
Q 2006 -75 1616 -75 
Q 969 -75 630 194 
Q 291 463 197 991 
z
" transform="scale(0.015625)"/>
       <path id="ArialMT-20" transform="scale(0.015625)"/>
       <path id="ArialMT-68" d="M 422 0 
L 422 4581 
L 984 4581 
L 984 2938 
Q 1378 3394 1978 3394 
Q 2347 3394 2619 3248 
Q 2891 3103 3008 2847 
Q 3125 2591 3125 2103 
L 3125 0 
L 2563 0 
L 2563 2103 
Q 2563 2525 2380 2717 
Q 2197 2909 1863 2909 
Q 1613 2909 1392 2779 
Q 1172 2650 1078 2428 
Q 984 2206 984 1816 
L 984 0 
L 422 0 
z
" transform="scale(0.015625)"/>
       <path id="ArialMT-61" d="M 2588 409 
Q 2275 144 1986 34 
Q 1697 -75 1366 -75 
Q 819 -75 525 192 
Q 231 459 231 875 
Q 231 1119 342 1320 
Q 453 1522 633 1644 
Q 813 1766 1038 1828 
Q 1203 1872 1538 1913 
Q 2219 1994 2541 2106 
Q 2544 2222 2544 2253 
Q 2544 2597 2384 2738 
Q 2169 2928 1744 2928 
Q 1347 2928 1158 2789 
Q 969 2650 878 2297 
L 328 2372 
Q 403 2725 575 2942 
Q 747 3159 1072 3276 
Q 1397 3394 1825 3394 
Q 2250 3394 2515 3294 
Q 2781 3194 2906 3042 
Q 3031 2891 3081 2659 
Q 3109 2516 3109 2141 
L 3109 1391 
Q 3109 606 3145 398 
Q 3181 191 3288 0 
L 2700 0 
Q 2613 175 2588 409 
z
M 2541 1666 
Q 2234 1541 1622 1453 
Q 1275 1403 1131 1340 
Q 988 1278 909 1158 
Q 831 1038 831 891 
Q 831 666 1001 516 
Q 1172 366 1500 366 
Q 1825 366 2078 508 
Q 2331 650 2450 897 
Q 2541 1088 2541 1459 
L 2541 1666 
z
" transform="scale(0.015625)"/>
       <path id="ArialMT-6c" d="M 409 0 
L 409 4581 
L 972 4581 
L 972 0 
L 409 0 
z
" transform="scale(0.015625)"/>
       <path id="ArialMT-74" d="M 1650 503 
L 1731 6 
Q 1494 -44 1306 -44 
Q 1000 -44 831 53 
Q 663 150 594 308 
Q 525 466 525 972 
L 525 2881 
L 113 2881 
L 113 3319 
L 525 3319 
L 525 4141 
L 1084 4478 
L 1084 3319 
L 1650 3319 
L 1650 2881 
L 1084 2881 
L 1084 941 
Q 1084 700 1114 631 
Q 1144 563 1211 522 
Q 1278 481 1403 481 
Q 1497 481 1650 503 
z
" transform="scale(0.015625)"/>
      </defs>
      <use xlink:href="#ArialMT-57"/>
      <use xlink:href="#ArialMT-6f" transform="translate(92.634766 0)"/>
      <use xlink:href="#ArialMT-6d" transform="translate(148.25 0)"/>
      <use xlink:href="#ArialMT-65" transform="translate(231.550781 0)"/>
      <use xlink:href="#ArialMT-6e" transform="translate(287.166016 0)"/>
      <use xlink:href="#ArialMT-27" transform="translate(342.78125 0)"/>
      <use xlink:href="#ArialMT-73" transform="translate(361.873047 0)"/>
      <use xlink:href="#ArialMT-20" transform="translate(411.873047 0)"/>
      <use xlink:href="#ArialMT-68" transform="translate(439.65625 0)"/>
      <use xlink:href="#ArialMT-65" transform="translate(495.271484 0)"/>
      <use xlink:href="#ArialMT-61" transform="translate(550.886719 0)"/>
      <use xlink:href="#ArialMT-6c" transform="translate(606.501953 0)"/>
      <use xlink:href="#ArialMT-74" transform="translate(628.71875 0)"/>
      <use xlink:href="#ArialMT-68" transform="translate(656.501953 0)"/>
     </g>
    </g>
    <g clip-path="url(#pfce1e12e33)">
     <!-- &amp; pregnancy -->
     <g transform="translate(950.47649 434.276564) scale(0.36 -0.36)">
      <defs>
       <path id="ArialMT-26" d="M 3041 541 
Q 2763 231 2434 76 
Q 2106 -78 1725 -78 
Q 1022 -78 609 397 
Q 275 784 275 1263 
Q 275 1688 548 2030 
Q 822 2372 1366 2631 
Q 1056 2988 953 3209 
Q 850 3431 850 3638 
Q 850 4050 1173 4354 
Q 1497 4659 1988 4659 
Q 2456 4659 2754 4371 
Q 3053 4084 3053 3681 
Q 3053 3028 2188 2566 
L 3009 1519 
Q 3150 1794 3228 2156 
L 3813 2031 
Q 3663 1431 3406 1044 
Q 3722 625 4122 341 
L 3744 -106 
Q 3403 113 3041 541 
z
M 1897 2928 
Q 2263 3144 2370 3306 
Q 2478 3469 2478 3666 
Q 2478 3900 2329 4048 
Q 2181 4197 1959 4197 
Q 1731 4197 1579 4050 
Q 1428 3903 1428 3691 
Q 1428 3584 1483 3467 
Q 1538 3350 1647 3219 
L 1897 2928 
z
M 2688 984 
L 1656 2263 
Q 1200 1991 1040 1758 
Q 881 1525 881 1297 
Q 881 1019 1103 719 
Q 1325 419 1731 419 
Q 1984 419 2254 576 
Q 2525 734 2688 984 
z
" transform="scale(0.015625)"/>
       <path id="ArialMT-70" d="M 422 -1272 
L 422 3319 
L 934 3319 
L 934 2888 
Q 1116 3141 1344 3267 
Q 1572 3394 1897 3394 
Q 2322 3394 2647 3175 
Q 2972 2956 3137 2557 
Q 3303 2159 3303 1684 
Q 3303 1175 3120 767 
Q 2938 359 2589 142 
Q 2241 -75 1856 -75 
Q 1575 -75 1351 44 
Q 1128 163 984 344 
L 984 -1272 
L 422 -1272 
z
M 931 1641 
Q 931 1000 1190 694 
Q 1450 388 1819 388 
Q 2194 388 2461 705 
Q 2728 1022 2728 1688 
Q 2728 2322 2467 2637 
Q 2206 2953 1844 2953 
Q 1484 2953 1207 2617 
Q 931 2281 931 1641 
z
" transform="scale(0.015625)"/>
       <path id="ArialMT-72" d="M 416 0 
L 416 3319 
L 922 3319 
L 922 2816 
Q 1116 3169 1280 3281 
Q 1444 3394 1641 3394 
Q 1925 3394 2219 3213 
L 2025 2691 
Q 1819 2813 1613 2813 
Q 1428 2813 1281 2702 
Q 1134 2591 1072 2394 
Q 978 2094 978 1738 
L 978 0 
L 416 0 
z
" transform="scale(0.015625)"/>
       <path id="ArialMT-67" d="M 319 -275 
L 866 -356 
Q 900 -609 1056 -725 
Q 1266 -881 1628 -881 
Q 2019 -881 2231 -725 
Q 2444 -569 2519 -288 
Q 2563 -116 2559 434 
Q 2191 0 1641 0 
Q 956 0 581 494 
Q 206 988 206 1678 
Q 206 2153 378 2554 
Q 550 2956 876 3175 
Q 1203 3394 1644 3394 
Q 2231 3394 2613 2919 
L 2613 3319 
L 3131 3319 
L 3131 450 
Q 3131 -325 2973 -648 
Q 2816 -972 2473 -1159 
Q 2131 -1347 1631 -1347 
Q 1038 -1347 672 -1080 
Q 306 -813 319 -275 
z
M 784 1719 
Q 784 1066 1043 766 
Q 1303 466 1694 466 
Q 2081 466 2343 764 
Q 2606 1063 2606 1700 
Q 2606 2309 2336 2618 
Q 2066 2928 1684 2928 
Q 1309 2928 1046 2623 
Q 784 2319 784 1719 
z
" transform="scale(0.015625)"/>
       <path id="ArialMT-63" d="M 2588 1216 
L 3141 1144 
Q 3050 572 2676 248 
Q 2303 -75 1759 -75 
Q 1078 -75 664 370 
Q 250 816 250 1647 
Q 250 2184 428 2587 
Q 606 2991 970 3192 
Q 1334 3394 1763 3394 
Q 2303 3394 2647 3120 
Q 2991 2847 3088 2344 
L 2541 2259 
Q 2463 2594 2264 2762 
Q 2066 2931 1784 2931 
Q 1359 2931 1093 2626 
Q 828 2322 828 1663 
Q 828 994 1084 691 
Q 1341 388 1753 388 
Q 2084 388 2306 591 
Q 2528 794 2588 1216 
z
" transform="scale(0.015625)"/>
       <path id="ArialMT-79" d="M 397 -1278 
L 334 -750 
Q 519 -800 656 -800 
Q 844 -800 956 -737 
Q 1069 -675 1141 -563 
Q 1194 -478 1313 -144 
Q 1328 -97 1363 -6 
L 103 3319 
L 709 3319 
L 1400 1397 
Q 1534 1031 1641 628 
Q 1738 1016 1872 1384 
L 2581 3319 
L 3144 3319 
L 1881 -56 
Q 1678 -603 1566 -809 
Q 1416 -1088 1222 -1217 
Q 1028 -1347 759 -1347 
Q 597 -1347 397 -1278 
z
" transform="scale(0.015625)"/>
      </defs>
      <use xlink:href="#ArialMT-26"/>
      <use xlink:href="#ArialMT-20" transform="translate(66.699219 0)"/>
      <use xlink:href="#ArialMT-70" transform="translate(94.482422 0)"/>
      <use xlink:href="#ArialMT-72" transform="translate(150.097656 0)"/>
      <use xlink:href="#ArialMT-65" transform="translate(183.398438 0)"/>
      <use xlink:href="#ArialMT-67" transform="translate(239.013672 0)"/>
      <use xlink:href="#ArialMT-6e" transform="translate(294.628906 0)"/>
      <use xlink:href="#ArialMT-61" transform="translate(350.244141 0)"/>
      <use xlink:href="#ArialMT-6e" transform="translate(405.859375 0)"/>
      <use xlink:href="#ArialMT-63" transform="translate(461.474609 0)"/>
      <use xlink:href="#ArialMT-79" transform="translate(511.474609 0)"/>
     </g>
    </g>
   </g>
   <g id="text_2">
    <g clip-path="url(#pfce1e12e33)">
     <!-- Mental health -->
     <g transform="translate(346.335992 1116.015066) scale(0.36 -0.36)">
      <defs>
       <path id="ArialMT-4d" d="M 475 0 
L 475 4581 
L 1388 4581 
L 2472 1338 
Q 2622 884 2691 659 
Q 2769 909 2934 1394 
L 4031 4581 
L 4847 4581 
L 4847 0 
L 4263 0 
L 4263 3834 
L 2931 0 
L 2384 0 
L 1059 3900 
L 1059 0 
L 475 0 
z
" transform="scale(0.015625)"/>
      </defs>
      <use xlink:href="#ArialMT-4d"/>
      <use xlink:href="#ArialMT-65" transform="translate(83.300781 0)"/>
      <use xlink:href="#ArialMT-6e" transform="translate(138.916016 0)"/>
      <use xlink:href="#ArialMT-74" transform="translate(194.53125 0)"/>
      <use xlink:href="#ArialMT-61" transform="translate(222.314453 0)"/>
      <use xlink:href="#ArialMT-6c" transform="translate(277.929688 0)"/>
      <use xlink:href="#ArialMT-20" transform="translate(300.146484 0)"/>
      <use xlink:href="#ArialMT-68" transform="translate(327.929688 0)"/>
      <use xlink:href="#ArialMT-65" transform="translate(383.544922 0)"/>
      <use xlink:href="#ArialMT-61" transform="translate(439.160156 0)"/>
      <use xlink:href="#ArialMT-6c" transform="translate(494.775391 0)"/>
      <use xlink:href="#ArialMT-74" transform="translate(516.992188 0)"/>
      <use xlink:href="#ArialMT-68" transform="translate(544.775391 0)"/>
     </g>
    </g>
   </g>
   <g id="text_3">
    <g clip-path="url(#pfce1e12e33)">
     <!-- Family issues -->
     <g transform="translate(663.112714 1170.977391) scale(0.36 -0.36)">
      <defs>
       <path id="ArialMT-46" d="M 525 0 
L 525 4581 
L 3616 4581 
L 3616 4041 
L 1131 4041 
L 1131 2622 
L 3281 2622 
L 3281 2081 
L 1131 2081 
L 1131 0 
L 525 0 
z
" transform="scale(0.015625)"/>
       <path id="ArialMT-69" d="M 425 3934 
L 425 4581 
L 988 4581 
L 988 3934 
L 425 3934 
z
M 425 0 
L 425 3319 
L 988 3319 
L 988 0 
L 425 0 
z
" transform="scale(0.015625)"/>
       <path id="ArialMT-75" d="M 2597 0 
L 2597 488 
Q 2209 -75 1544 -75 
Q 1250 -75 995 37 
Q 741 150 617 320 
Q 494 491 444 738 
Q 409 903 409 1263 
L 409 3319 
L 972 3319 
L 972 1478 
Q 972 1038 1006 884 
Q 1059 663 1231 536 
Q 1403 409 1656 409 
Q 1909 409 2131 539 
Q 2353 669 2445 892 
Q 2538 1116 2538 1541 
L 2538 3319 
L 3100 3319 
L 3100 0 
L 2597 0 
z
" transform="scale(0.015625)"/>
      </defs>
      <use xlink:href="#ArialMT-46"/>
      <use xlink:href="#ArialMT-61" transform="translate(61.083984 0)"/>
      <use xlink:href="#ArialMT-6d" transform="translate(116.699219 0)"/>
      <use xlink:href="#ArialMT-69" transform="translate(200 0)"/>
      <use xlink:href="#ArialMT-6c" transform="translate(222.216797 0)"/>
      <use xlink:href="#ArialMT-79" transform="translate(244.433594 0)"/>
      <use xlink:href="#ArialMT-20" transform="translate(294.433594 0)"/>
      <use xlink:href="#ArialMT-69" transform="translate(322.216797 0)"/>
      <use xlink:href="#ArialMT-73" transform="translate(344.433594 0)"/>
      <use xlink:href="#ArialMT-73" transform="translate(394.433594 0)"/>
      <use xlink:href="#ArialMT-75" transform="translate(444.433594 0)"/>
      <use xlink:href="#ArialMT-65" transform="translate(500.048828 0)"/>
      <use xlink:href="#ArialMT-73" transform="translate(555.664062 0)"/>
     </g>
    </g>
   </g>
   <g id="text_4">
    <g clip-path="url(#pfce1e12e33)">
     <!-- Medication, disease, -->
     <g transform="translate(82.932984 853.37033) scale(0.36 -0.36)">
      <defs>
       <path id="ArialMT-64" d="M 2575 0 
L 2575 419 
Q 2259 -75 1647 -75 
Q 1250 -75 917 144 
Q 584 363 401 755 
Q 219 1147 219 1656 
Q 219 2153 384 2558 
Q 550 2963 881 3178 
Q 1213 3394 1622 3394 
Q 1922 3394 2156 3267 
Q 2391 3141 2538 2938 
L 2538 4581 
L 3097 4581 
L 3097 0 
L 2575 0 
z
M 797 1656 
Q 797 1019 1065 703 
Q 1334 388 1700 388 
Q 2069 388 2326 689 
Q 2584 991 2584 1609 
Q 2584 2291 2321 2609 
Q 2059 2928 1675 2928 
Q 1300 2928 1048 2622 
Q 797 2316 797 1656 
z
" transform="scale(0.015625)"/>
       <path id="ArialMT-2c" d="M 569 0 
L 569 641 
L 1209 641 
L 1209 0 
Q 1209 -353 1084 -570 
Q 959 -788 688 -906 
L 531 -666 
Q 709 -588 793 -436 
Q 878 -284 888 0 
L 569 0 
z
" transform="scale(0.015625)"/>
      </defs>
      <use xlink:href="#ArialMT-4d"/>
      <use xlink:href="#ArialMT-65" transform="translate(83.300781 0)"/>
      <use xlink:href="#ArialMT-64" transform="translate(138.916016 0)"/>
      <use xlink:href="#ArialMT-69" transform="translate(194.53125 0)"/>
      <use xlink:href="#ArialMT-63" transform="translate(216.748047 0)"/>
      <use xlink:href="#ArialMT-61" transform="translate(266.748047 0)"/>
      <use xlink:href="#ArialMT-74" transform="translate(322.363281 0)"/>
      <use xlink:href="#ArialMT-69" transform="translate(350.146484 0)"/>
      <use xlink:href="#ArialMT-6f" transform="translate(372.363281 0)"/>
      <use xlink:href="#ArialMT-6e" transform="translate(427.978516 0)"/>
      <use xlink:href="#ArialMT-2c" transform="translate(483.59375 0)"/>
      <use xlink:href="#ArialMT-20" transform="translate(511.376953 0)"/>
      <use xlink:href="#ArialMT-64" transform="translate(539.160156 0)"/>
      <use xlink:href="#ArialMT-69" transform="translate(594.775391 0)"/>
      <use xlink:href="#ArialMT-73" transform="translate(616.992188 0)"/>
      <use xlink:href="#ArialMT-65" transform="translate(666.992188 0)"/>
      <use xlink:href="#ArialMT-61" transform="translate(722.607422 0)"/>
      <use xlink:href="#ArialMT-73" transform="translate(778.222656 0)"/>
      <use xlink:href="#ArialMT-65" transform="translate(828.222656 0)"/>
      <use xlink:href="#ArialMT-2c" transform="translate(883.837891 0)"/>
     </g>
    </g>
    <g clip-path="url(#pfce1e12e33)">
     <!-- or injury -->
     <g transform="translate(182.998921 891.44708) scale(0.36 -0.36)">
      <defs>
       <path id="ArialMT-6a" d="M 419 3928 
L 419 4581 
L 981 4581 
L 981 3928 
L 419 3928 
z
M -294 -1288 
L -188 -809 
Q -19 -853 78 -853 
Q 250 -853 334 -739 
Q 419 -625 419 -169 
L 419 3319 
L 981 3319 
L 981 -181 
Q 981 -794 822 -1034 
Q 619 -1347 147 -1347 
Q -81 -1347 -294 -1288 
z
" transform="scale(0.015625)"/>
      </defs>
      <use xlink:href="#ArialMT-6f"/>
      <use xlink:href="#ArialMT-72" transform="translate(55.615234 0)"/>
      <use xlink:href="#ArialMT-20" transform="translate(88.916016 0)"/>
      <use xlink:href="#ArialMT-69" transform="translate(116.699219 0)"/>
      <use xlink:href="#ArialMT-6e" transform="translate(138.916016 0)"/>
      <use xlink:href="#ArialMT-6a" transform="translate(194.53125 0)"/>
      <use xlink:href="#ArialMT-75" transform="translate(216.748047 0)"/>
      <use xlink:href="#ArialMT-72" transform="translate(272.363281 0)"/>
      <use xlink:href="#ArialMT-79" transform="translate(305.664062 0)"/>
     </g>
    </g>
   </g>
   <g id="text_5">
    <g clip-path="url(#pfce1e12e33)">
     <!-- Physical inactivity -->
     <g transform="translate(1020.837704 713.543625) scale(0.36 -0.36)">
      <defs>
       <path id="ArialMT-50" d="M 494 0 
L 494 4581 
L 2222 4581 
Q 2678 4581 2919 4538 
Q 3256 4481 3484 4323 
Q 3713 4166 3852 3881 
Q 3991 3597 3991 3256 
Q 3991 2672 3619 2267 
Q 3247 1863 2275 1863 
L 1100 1863 
L 1100 0 
L 494 0 
z
M 1100 2403 
L 2284 2403 
Q 2872 2403 3119 2622 
Q 3366 2841 3366 3238 
Q 3366 3525 3220 3729 
Q 3075 3934 2838 4000 
Q 2684 4041 2272 4041 
L 1100 4041 
L 1100 2403 
z
" transform="scale(0.015625)"/>
       <path id="ArialMT-76" d="M 1344 0 
L 81 3319 
L 675 3319 
L 1388 1331 
Q 1503 1009 1600 663 
Q 1675 925 1809 1294 
L 2547 3319 
L 3125 3319 
L 1869 0 
L 1344 0 
z
" transform="scale(0.015625)"/>
      </defs>
      <use xlink:href="#ArialMT-50"/>
      <use xlink:href="#ArialMT-68" transform="translate(66.699219 0)"/>
      <use xlink:href="#ArialMT-79" transform="translate(122.314453 0)"/>
      <use xlink:href="#ArialMT-73" transform="translate(172.314453 0)"/>
      <use xlink:href="#ArialMT-69" transform="translate(222.314453 0)"/>
      <use xlink:href="#ArialMT-63" transform="translate(244.53125 0)"/>
      <use xlink:href="#ArialMT-61" transform="translate(294.53125 0)"/>
      <use xlink:href="#ArialMT-6c" transform="translate(350.146484 0)"/>
      <use xlink:href="#ArialMT-20" transform="translate(372.363281 0)"/>
      <use xlink:href="#ArialMT-69" transform="translate(400.146484 0)"/>
      <use xlink:href="#ArialMT-6e" transform="translate(422.363281 0)"/>
      <use xlink:href="#ArialMT-61" transform="translate(477.978516 0)"/>
      <use xlink:href="#ArialMT-63" transform="translate(533.59375 0)"/>
      <use xlink:href="#ArialMT-74" transform="translate(583.59375 0)"/>
      <use xlink:href="#ArialMT-69" transform="translate(611.376953 0)"/>
      <use xlink:href="#ArialMT-76" transform="translate(633.59375 0)"/>
      <use xlink:href="#ArialMT-69" transform="translate(683.59375 0)"/>
      <use xlink:href="#ArialMT-74" transform="translate(705.810547 0)"/>
      <use xlink:href="#ArialMT-79" transform="translate(733.59375 0)"/>
     </g>
    </g>
   </g>
   <g id="text_6">
    <g clip-path="url(#pfce1e12e33)">
     <!-- Eating habits -->
     <g transform="translate(668.062714 256.109859) scale(0.36 -0.36)">
      <defs>
       <path id="ArialMT-45" d="M 506 0 
L 506 4581 
L 3819 4581 
L 3819 4041 
L 1113 4041 
L 1113 2638 
L 3647 2638 
L 3647 2100 
L 1113 2100 
L 1113 541 
L 3925 541 
L 3925 0 
L 506 0 
z
" transform="scale(0.015625)"/>
       <path id="ArialMT-62" d="M 941 0 
L 419 0 
L 419 4581 
L 981 4581 
L 981 2947 
Q 1338 3394 1891 3394 
Q 2197 3394 2470 3270 
Q 2744 3147 2920 2923 
Q 3097 2700 3197 2384 
Q 3297 2069 3297 1709 
Q 3297 856 2875 390 
Q 2453 -75 1863 -75 
Q 1275 -75 941 416 
L 941 0 
z
M 934 1684 
Q 934 1088 1097 822 
Q 1363 388 1816 388 
Q 2184 388 2453 708 
Q 2722 1028 2722 1663 
Q 2722 2313 2464 2622 
Q 2206 2931 1841 2931 
Q 1472 2931 1203 2611 
Q 934 2291 934 1684 
z
" transform="scale(0.015625)"/>
      </defs>
      <use xlink:href="#ArialMT-45"/>
      <use xlink:href="#ArialMT-61" transform="translate(66.699219 0)"/>
      <use xlink:href="#ArialMT-74" transform="translate(122.314453 0)"/>
      <use xlink:href="#ArialMT-69" transform="translate(150.097656 0)"/>
      <use xlink:href="#ArialMT-6e" transform="translate(172.314453 0)"/>
      <use xlink:href="#ArialMT-67" transform="translate(227.929688 0)"/>
      <use xlink:href="#ArialMT-20" transform="translate(283.544922 0)"/>
      <use xlink:href="#ArialMT-68" transform="translate(311.328125 0)"/>
      <use xlink:href="#ArialMT-61" transform="translate(366.943359 0)"/>
      <use xlink:href="#ArialMT-62" transform="translate(422.558594 0)"/>
      <use xlink:href="#ArialMT-69" transform="translate(478.173828 0)"/>
      <use xlink:href="#ArialMT-74" transform="translate(500.390625 0)"/>
      <use xlink:href="#ArialMT-73" transform="translate(528.173828 0)"/>
     </g>
    </g>
   </g>
   <g id="text_7">
    <g clip-path="url(#pfce1e12e33)">
     <!-- Schedule -->
     <g transform="translate(171.959859 554.889483) scale(0.36 -0.36)">
      <defs>
       <path id="ArialMT-53" d="M 288 1472 
L 859 1522 
Q 900 1178 1048 958 
Q 1197 738 1509 602 
Q 1822 466 2213 466 
Q 2559 466 2825 569 
Q 3091 672 3220 851 
Q 3350 1031 3350 1244 
Q 3350 1459 3225 1620 
Q 3100 1781 2813 1891 
Q 2628 1963 1997 2114 
Q 1366 2266 1113 2400 
Q 784 2572 623 2826 
Q 463 3081 463 3397 
Q 463 3744 659 4045 
Q 856 4347 1234 4503 
Q 1613 4659 2075 4659 
Q 2584 4659 2973 4495 
Q 3363 4331 3572 4012 
Q 3781 3694 3797 3291 
L 3216 3247 
Q 3169 3681 2898 3903 
Q 2628 4125 2100 4125 
Q 1550 4125 1298 3923 
Q 1047 3722 1047 3438 
Q 1047 3191 1225 3031 
Q 1400 2872 2139 2705 
Q 2878 2538 3153 2413 
Q 3553 2228 3743 1945 
Q 3934 1663 3934 1294 
Q 3934 928 3725 604 
Q 3516 281 3123 101 
Q 2731 -78 2241 -78 
Q 1619 -78 1198 103 
Q 778 284 539 648 
Q 300 1013 288 1472 
z
" transform="scale(0.015625)"/>
      </defs>
      <use xlink:href="#ArialMT-53"/>
      <use xlink:href="#ArialMT-63" transform="translate(66.699219 0)"/>
      <use xlink:href="#ArialMT-68" transform="translate(116.699219 0)"/>
      <use xlink:href="#ArialMT-65" transform="translate(172.314453 0)"/>
      <use xlink:href="#ArialMT-64" transform="translate(227.929688 0)"/>
      <use xlink:href="#ArialMT-75" transform="translate(283.544922 0)"/>
      <use xlink:href="#ArialMT-6c" transform="translate(339.160156 0)"/>
      <use xlink:href="#ArialMT-65" transform="translate(361.376953 0)"/>
     </g>
    </g>
   </g>
   <g id="text_8">
    <g clip-path="url(#pfce1e12e33)">
     <!-- Smoking cessation -->
     <g transform="translate(303.330054 311.502497) scale(0.36 -0.36)">
      <defs>
       <path id="ArialMT-6b" d="M 425 0 
L 425 4581 
L 988 4581 
L 988 1969 
L 2319 3319 
L 3047 3319 
L 1778 2088 
L 3175 0 
L 2481 0 
L 1384 1697 
L 988 1316 
L 988 0 
L 425 0 
z
" transform="scale(0.015625)"/>
      </defs>
      <use xlink:href="#ArialMT-53"/>
      <use xlink:href="#ArialMT-6d" transform="translate(66.699219 0)"/>
      <use xlink:href="#ArialMT-6f" transform="translate(150 0)"/>
      <use xlink:href="#ArialMT-6b" transform="translate(205.615234 0)"/>
      <use xlink:href="#ArialMT-69" transform="translate(255.615234 0)"/>
      <use xlink:href="#ArialMT-6e" transform="translate(277.832031 0)"/>
      <use xlink:href="#ArialMT-67" transform="translate(333.447266 0)"/>
      <use xlink:href="#ArialMT-20" transform="translate(389.0625 0)"/>
      <use xlink:href="#ArialMT-63" transform="translate(416.845703 0)"/>
      <use xlink:href="#ArialMT-65" transform="translate(466.845703 0)"/>
      <use xlink:href="#ArialMT-73" transform="translate(522.460938 0)"/>
      <use xlink:href="#ArialMT-73" transform="translate(572.460938 0)"/>
      <use xlink:href="#ArialMT-61" transform="translate(622.460938 0)"/>
      <use xlink:href="#ArialMT-74" transform="translate(678.076172 0)"/>
      <use xlink:href="#ArialMT-69" transform="translate(705.859375 0)"/>
      <use xlink:href="#ArialMT-6f" transform="translate(728.076172 0)"/>
      <use xlink:href="#ArialMT-6e" transform="translate(783.691406 0)"/>
     </g>
    </g>
   </g>
   <g id="text_9">
    <g clip-path="url(#pfce1e12e33)">
     <!-- Lifestyle, -->
     <g transform="translate(980.505552 993.293311) scale(0.36 -0.36)">
      <defs>
       <path id="ArialMT-4c" d="M 469 0 
L 469 4581 
L 1075 4581 
L 1075 541 
L 3331 541 
L 3331 0 
L 469 0 
z
" transform="scale(0.015625)"/>
       <path id="ArialMT-66" d="M 556 0 
L 556 2881 
L 59 2881 
L 59 3319 
L 556 3319 
L 556 3672 
Q 556 4006 616 4169 
Q 697 4388 901 4523 
Q 1106 4659 1475 4659 
Q 1713 4659 2000 4603 
L 1916 4113 
Q 1741 4144 1584 4144 
Q 1328 4144 1222 4034 
Q 1116 3925 1116 3625 
L 1116 3319 
L 1763 3319 
L 1763 2881 
L 1116 2881 
L 1116 0 
L 556 0 
z
" transform="scale(0.015625)"/>
      </defs>
      <use xlink:href="#ArialMT-4c"/>
      <use xlink:href="#ArialMT-69" transform="translate(55.615234 0)"/>
      <use xlink:href="#ArialMT-66" transform="translate(77.832031 0)"/>
      <use xlink:href="#ArialMT-65" transform="translate(105.615234 0)"/>
      <use xlink:href="#ArialMT-73" transform="translate(161.230469 0)"/>
      <use xlink:href="#ArialMT-74" transform="translate(211.230469 0)"/>
      <use xlink:href="#ArialMT-79" transform="translate(239.013672 0)"/>
      <use xlink:href="#ArialMT-6c" transform="translate(289.013672 0)"/>
      <use xlink:href="#ArialMT-65" transform="translate(311.230469 0)"/>
      <use xlink:href="#ArialMT-2c" transform="translate(366.845703 0)"/>
     </g>
    </g>
    <g clip-path="url(#pfce1e12e33)">
     <!-- circumstances -->
     <g transform="translate(936.509615 1031.791936) scale(0.36 -0.36)">
      <use xlink:href="#ArialMT-63"/>
      <use xlink:href="#ArialMT-69" transform="translate(50 0)"/>
      <use xlink:href="#ArialMT-72" transform="translate(72.216797 0)"/>
      <use xlink:href="#ArialMT-63" transform="translate(105.517578 0)"/>
      <use xlink:href="#ArialMT-75" transform="translate(155.517578 0)"/>
      <use xlink:href="#ArialMT-6d" transform="translate(211.132812 0)"/>
      <use xlink:href="#ArialMT-73" transform="translate(294.433594 0)"/>
      <use xlink:href="#ArialMT-74" transform="translate(344.433594 0)"/>
      <use xlink:href="#ArialMT-61" transform="translate(372.216797 0)"/>
      <use xlink:href="#ArialMT-6e" transform="translate(427.832031 0)"/>
      <use xlink:href="#ArialMT-63" transform="translate(483.447266 0)"/>
      <use xlink:href="#ArialMT-65" transform="translate(533.447266 0)"/>
      <use xlink:href="#ArialMT-73" transform="translate(589.0625 0)"/>
     </g>
    </g>
   </g>
  </g>
 </g>
 <defs>
  <clipPath id="pfce1e12e33">
   <rect x="0" y="-0" width="1408.896" height="1408.896"/>
  </clipPath>
 </defs>
</svg>
