<?xml version="1.0" encoding="utf-8" standalone="no"?>
<!DOCTYPE svg PUBLIC "-//W3C//DTD SVG 1.1//EN"
  "http://www.w3.org/Graphics/SVG/1.1/DTD/svg11.dtd">
<svg xmlns:xlink="http://www.w3.org/1999/xlink" width="1423.296pt" height="1423.296pt" viewBox="0 0 1423.296 1423.296" xmlns="http://www.w3.org/2000/svg" version="1.1">
 <metadata>
  <rdf:RDF xmlns:dc="http://purl.org/dc/elements/1.1/" xmlns:cc="http://creativecommons.org/ns#" xmlns:rdf="http://www.w3.org/1999/02/22-rdf-syntax-ns#">
   <cc:Work>
    <dc:type rdf:resource="http://purl.org/dc/dcmitype/StillImage"/>
    <dc:date>2025-09-10T15:22:15.878774</dc:date>
    <dc:format>image/svg+xml</dc:format>
    <dc:creator>
     <cc:Agent>
      <dc:title>Matplotlib v3.10.1, https://matplotlib.org/</dc:title>
     </cc:Agent>
    </dc:creator>
   </cc:Work>
  </rdf:RDF>
 </metadata>
 <defs>
  <style type="text/css">*{stroke-linejoin: round; stroke-linecap: butt}</style>
 </defs>
 <g id="figure_1">
  <g id="patch_1">
   <path d="M 0 1423.296 
L 1423.296 1423.296 
L 1423.296 0 
L 0 0 
L 0 1423.296 
z
" style="fill: none"/>
  </g>
  <g id="axes_1">
   <g id="patch_2">
    <path d="M 7.2 1416.096 
L 1416.096 1416.096 
L 1416.096 7.2 
L 7.2 7.2 
L 7.2 1416.096 
z
" style="fill: none"/>
   </g>
   <g id="matplotlib.axis_1">
    <g id="xtick_1"/>
    <g id="xtick_2"/>
    <g id="xtick_3"/>
    <g id="xtick_4"/>
    <g id="xtick_5"/>
    <g id="xtick_6"/>
   </g>
   <g id="matplotlib.axis_2">
    <g id="ytick_1"/>
    <g id="ytick_2"/>
    <g id="ytick_3"/>
    <g id="ytick_4"/>
    <g id="ytick_5"/>
    <g id="ytick_6"/>
    <g id="ytick_7"/>
   </g>
   <g id="patch_3">
    <path d="M 261.289911 875.513906 
Q 502.264849 1045.315673 758.165258 1159.640586 
" clip-path="url(#pc853b3a353)" style="fill: none; stroke: #008000; stroke-opacity: 0.7; stroke-width: 12.981481; stroke-linecap: round"/>
    <path d="M 755.328951 1156.182933 
L 758.165258 1159.640586 
L 753.697352 1159.83504 
z
" clip-path="url(#pc853b3a353)" style="fill: #008000; fill-opacity: 0.7; stroke: #008000; stroke-opacity: 0.7; stroke-width: 12.981481; stroke-linecap: round"/>
   </g>
   <g id="patch_4">
    <path d="M 260.454202 864.504584 
Q 546.936935 588.066182 770.569112 266.812634 
" clip-path="url(#pc853b3a353)" style="fill: none; stroke: #008000; stroke-opacity: 0.7; stroke-width: 5.976195; stroke-linecap: round"/>
    <path d="M 766.642364 268.952879 
L 770.569112 266.812634 
L 769.925259 271.238179 
z
" clip-path="url(#pc853b3a353)" style="fill: #008000; fill-opacity: 0.7; stroke: #008000; stroke-opacity: 0.7; stroke-width: 5.976195; stroke-linecap: round"/>
   </g>
   <g id="patch_5">
    <path d="M 258.000067 862.720752 
Q 385.166891 600.021598 457.805423 323.854656 
" clip-path="url(#pc853b3a353)" style="fill: none; stroke: #008000; stroke-opacity: 0.7; stroke-width: 5.634897; stroke-linecap: round"/>
    <path d="M 454.853722 327.214338 
L 457.805423 323.854656 
L 458.722147 328.231826 
z
" clip-path="url(#pc853b3a353)" style="fill: #008000; fill-opacity: 0.7; stroke: #008000; stroke-opacity: 0.7; stroke-width: 5.634897; stroke-linecap: round"/>
   </g>
   <g id="patch_6">
    <path d="M 772.25235 1164.08094 
Q 531.277412 994.279173 270.096081 877.59498 
" clip-path="url(#pc853b3a353)" style="fill: none; stroke: #008000; stroke-opacity: 0.7; stroke-width: 7.80814; stroke-linecap: round"/>
    <path d="M 272.932388 881.052632 
L 270.096081 877.59498 
L 274.563987 877.400525 
z
" clip-path="url(#pc853b3a353)" style="fill: #008000; fill-opacity: 0.7; stroke: #008000; stroke-opacity: 0.7; stroke-width: 7.80814; stroke-linecap: round"/>
   </g>
   <g id="patch_7">
    <path d="M 262.559188 555.098595 
Q 703.85217 677.117987 1155.927929 710.679455 
" clip-path="url(#pc853b3a353)" style="fill: none; stroke: #008000; stroke-opacity: 0.7; stroke-width: 4.053503; stroke-linecap: round"/>
    <path d="M 1152.086977 708.388804 
L 1155.927929 710.679455 
L 1151.790837 712.377827 
z
" clip-path="url(#pc853b3a353)" style="fill: #008000; fill-opacity: 0.7; stroke: #008000; stroke-opacity: 0.7; stroke-width: 4.053503; stroke-linecap: round"/>
   </g>
   <g id="patch_8">
    <path d="M 1160.736812 709.332326 
Q 719.44383 587.312933 267.735657 553.778754 
" clip-path="url(#pc853b3a353)" style="fill: none; stroke: #008000; stroke-opacity: 0.7; stroke-width: 4.383187; stroke-linecap: round"/>
    <path d="M 271.57661 556.069405 
L 267.735657 553.778754 
L 271.872749 552.080383 
z
" clip-path="url(#pc853b3a353)" style="fill: #008000; fill-opacity: 0.7; stroke: #008000; stroke-opacity: 0.7; stroke-width: 4.383187; stroke-linecap: round"/>
   </g>
   <g id="patch_9">
    <path d="M 1166.879854 703.270689 
Q 1128.050543 557.138449 1064.513458 425.039088 
" clip-path="url(#pc853b3a353)" style="fill: none; stroke: #008000; stroke-opacity: 0.7; stroke-width: 4.130321; stroke-linecap: round"/>
    <path d="M 1064.444895 429.510698 
L 1064.513458 425.039088 
L 1068.049608 427.776905 
z
" clip-path="url(#pc853b3a353)" style="fill: #008000; fill-opacity: 0.7; stroke: #008000; stroke-opacity: 0.7; stroke-width: 4.130321; stroke-linecap: round"/>
   </g>
   <g id="patch_10">
    <path d="M 773.088058 260.22273 
Q 486.605325 536.661131 263.833001 856.679479 
" clip-path="url(#pc853b3a353)" style="fill: none; stroke: #008000; stroke-opacity: 0.7; stroke-width: 7.32232; stroke-linecap: round"/>
    <path d="M 267.759749 854.539234 
L 263.833001 856.679479 
L 264.476854 852.253933 
z
" clip-path="url(#pc853b3a353)" style="fill: #008000; fill-opacity: 0.7; stroke: #008000; stroke-opacity: 0.7; stroke-width: 7.32232; stroke-linecap: round"/>
   </g>
   <g id="patch_11">
    <path d="M 770.695394 254.862126 
Q 617.847595 266.740604 485.837695 302.751395 
" clip-path="url(#pc853b3a353)" style="fill: none; stroke: #008000; stroke-opacity: 0.7; stroke-width: 14.735893; stroke-linecap: round"/>
    <path d="M 490.223035 303.628203 
L 485.837695 302.751395 
L 489.170345 299.769208 
z
" clip-path="url(#pc853b3a353)" style="fill: #008000; fill-opacity: 0.7; stroke: #008000; stroke-opacity: 0.7; stroke-width: 14.735893; stroke-linecap: round"/>
   </g>
   <g id="patch_12">
    <path d="M 781.515896 262.593427 
Q 882.031344 645.890693 1052.975422 998.361489 
" clip-path="url(#pc853b3a353)" style="fill: none; stroke: #008000; stroke-opacity: 0.7; stroke-width: 4.043812; stroke-linecap: round"/>
    <path d="M 1053.029451 993.889679 
L 1052.975422 998.361489 
L 1049.430392 995.63518 
z
" clip-path="url(#pc853b3a353)" style="fill: #008000; fill-opacity: 0.7; stroke: #008000; stroke-opacity: 0.7; stroke-width: 4.043812; stroke-linecap: round"/>
   </g>
   <g id="patch_13">
    <path d="M 457.812034 317.179825 
Q 330.645209 579.878979 257.649092 857.405436 
" clip-path="url(#pc853b3a353)" style="fill: none; stroke: #008000; stroke-opacity: 0.7; stroke-width: 4.377551; stroke-linecap: round"/>
    <path d="M 260.600794 854.045755 
L 257.649092 857.405436 
L 256.732368 853.028266 
z
" clip-path="url(#pc853b3a353)" style="fill: #008000; fill-opacity: 0.7; stroke: #008000; stroke-opacity: 0.7; stroke-width: 4.377551; stroke-linecap: round"/>
   </g>
   <g id="patch_14">
    <path d="M 470.2305 308.739604 
Q 623.078298 296.861126 763.654594 258.513521 
" clip-path="url(#pc853b3a353)" style="fill: none; stroke: #008000; stroke-opacity: 0.7; stroke-width: 6.793911; stroke-linecap: round"/>
    <path d="M 759.269254 257.636713 
L 763.654594 258.513521 
L 760.321944 261.495708 
z
" clip-path="url(#pc853b3a353)" style="fill: #008000; fill-opacity: 0.7; stroke: #008000; stroke-opacity: 0.7; stroke-width: 6.793911; stroke-linecap: round"/>
   </g>
   <g id="patch_15">
    <path d="M 466.535891 316.499013 
Q 725.773927 689.10423 1048.697366 1000.546841 
" clip-path="url(#pc853b3a353)" style="fill: none; stroke: #008000; stroke-opacity: 0.7; stroke-width: 4.720053; stroke-linecap: round"/>
    <path d="M 1047.206613 996.330486 
L 1048.697366 1000.546841 
L 1044.429829 999.209631 
z
" clip-path="url(#pc853b3a353)" style="fill: #008000; fill-opacity: 0.7; stroke: #008000; stroke-opacity: 0.7; stroke-width: 4.720053; stroke-linecap: round"/>
   </g>
   <g id="patch_16">
    <path d="M 469.943552 1116.208864 
Q 617.847915 1156.555451 766.004177 1168.069299 
" clip-path="url(#pc853b3a353)" style="fill: none; stroke: #008000; stroke-opacity: 0.7; stroke-width: 4.208895; stroke-linecap: round"/>
    <path d="M 762.171163 1165.765389 
L 766.004177 1168.069299 
L 761.86124 1169.753365 
z
" clip-path="url(#pc853b3a353)" style="fill: #008000; fill-opacity: 0.7; stroke: #008000; stroke-opacity: 0.7; stroke-width: 4.208895; stroke-linecap: round"/>
   </g>
   <g id="patch_17">
    <path d="M 1053.797216 1003.105171 
Q 794.55918 630.499953 472.15191 319.55516 
" clip-path="url(#pc853b3a353)" style="fill: none; stroke: #008000; stroke-opacity: 0.7; stroke-width: 5.36146; stroke-linecap: round"/>
    <path d="M 473.642663 323.771515 
L 472.15191 319.55516 
L 476.419446 320.892371 
z
" clip-path="url(#pc853b3a353)" style="fill: #008000; fill-opacity: 0.7; stroke: #008000; stroke-opacity: 0.7; stroke-width: 5.36146; stroke-linecap: round"/>
   </g>
   <g id="PathCollection_1">
    <path d="M 254.214234 917.149975 
C 266.582483 917.149975 278.445826 912.236018 287.191499 903.490345 
C 295.937172 894.744672 300.851129 882.881329 300.851129 870.51308 
C 300.851129 858.144831 295.937172 846.281488 287.191499 837.535815 
C 278.445826 828.790142 266.582483 823.876185 254.214234 823.876185 
C 241.845985 823.876185 229.982642 828.790142 221.236969 837.535815 
C 212.491296 846.281488 207.577339 858.144831 207.577339 870.51308 
C 207.577339 882.881329 212.491296 894.744672 221.236969 903.490345 
C 229.982642 912.236018 241.845985 917.149975 254.214234 917.149975 
z
" clip-path="url(#pc853b3a353)" style="fill: #ff6700; stroke: #ff6700; stroke-opacity: 0.6; stroke-width: 10.52482"/>
    <path d="M 779.328027 1204.788908 
C 788.797671 1204.788908 797.880739 1201.026579 804.576789 1194.330529 
C 811.272839 1187.634479 815.035169 1178.551411 815.035169 1169.081766 
C 815.035169 1159.612121 811.272839 1150.529054 804.576789 1143.833004 
C 797.880739 1137.136954 788.797671 1133.374624 779.328027 1133.374624 
C 769.858382 1133.374624 760.775314 1137.136954 754.079264 1143.833004 
C 747.383214 1150.529054 743.620884 1159.612121 743.620884 1169.081766 
C 743.620884 1178.551411 747.383214 1187.634479 754.079264 1194.330529 
C 760.775314 1201.026579 769.858382 1204.788908 779.328027 1204.788908 
z
" clip-path="url(#pc853b3a353)" style="fill: #ff6700; stroke: #ff6700; stroke-opacity: 0.6; stroke-width: 8.058239"/>
    <path d="M 254.214234 584.00791 
C 262.495198 584.00791 270.43811 580.717848 276.293636 574.862322 
C 282.149162 569.006796 285.439224 561.063884 285.439224 552.78292 
C 285.439224 544.501956 282.149162 536.559044 276.293636 530.703518 
C 270.43811 524.847992 262.495198 521.55793 254.214234 521.55793 
C 245.93327 521.55793 237.990358 524.847992 232.134832 530.703518 
C 226.279306 536.559044 222.989244 544.501956 222.989244 552.78292 
C 222.989244 561.063884 226.279306 569.006796 232.134832 574.862322 
C 237.990358 580.717848 245.93327 584.00791 254.214234 584.00791 
z
" clip-path="url(#pc853b3a353)" style="fill: #ff6700; stroke: #ff6700; stroke-opacity: 0.6; stroke-width: 7.046726"/>
    <path d="M 1169.081766 747.355142 
C 1178.551411 747.355142 1187.634479 743.592812 1194.330529 736.896762 
C 1201.026579 730.200712 1204.788908 721.117645 1204.788908 711.648 
C 1204.788908 702.178355 1201.026579 693.095288 1194.330529 686.399238 
C 1187.634479 679.703188 1178.551411 675.940858 1169.081766 675.940858 
C 1159.612121 675.940858 1150.529054 679.703188 1143.833004 686.399238 
C 1137.136954 693.095288 1133.374624 702.178355 1133.374624 711.648 
C 1133.374624 721.117645 1137.136954 730.200712 1143.833004 736.896762 
C 1150.529054 743.592812 1159.612121 747.355142 1169.081766 747.355142 
z
" clip-path="url(#pc853b3a353)" style="fill: #ff6700; stroke: #ff6700; stroke-opacity: 0.6; stroke-width: 8.058239"/>
    <path d="M 779.328027 297.515504 
C 790.811658 297.515504 801.826495 292.953009 809.946648 284.832856 
C 818.066802 276.712702 822.629297 265.697865 822.629297 254.214234 
C 822.629297 242.730603 818.066802 231.715765 809.946648 223.595612 
C 801.826495 215.475459 790.811658 210.912964 779.328027 210.912964 
C 767.844396 210.912964 756.829558 215.475459 748.709405 223.595612 
C 740.589251 231.715765 736.026756 242.730603 736.026756 254.214234 
C 736.026756 265.697865 740.589251 276.712702 748.709405 284.832856 
C 756.829558 292.953009 767.844396 297.515504 779.328027 297.515504 
z
" clip-path="url(#pc853b3a353)" style="fill: #ff6700; stroke: #ff6700; stroke-opacity: 0.6; stroke-width: 9.77205"/>
    <path d="M 461.597867 356.024392 
C 473.966116 356.024392 485.829459 351.110435 494.575132 342.364762 
C 503.320805 333.619089 508.234762 321.755746 508.234762 309.387497 
C 508.234762 297.019248 503.320805 285.155905 494.575132 276.410232 
C 485.829459 267.664559 473.966116 262.750602 461.597867 262.750602 
C 449.229618 262.750602 437.366275 267.664559 428.620602 276.410232 
C 419.874929 285.155905 414.960972 297.019248 414.960972 309.387497 
C 414.960972 321.755746 419.874929 333.619089 428.620602 342.364762 
C 437.366275 351.110435 449.229618 356.024392 461.597867 356.024392 
z
" clip-path="url(#pc853b3a353)" style="fill: #ff6700; stroke: #ff6700; stroke-opacity: 0.6; stroke-width: 10.52482"/>
    <path d="M 461.597867 1139.889265 
C 468.488046 1139.889265 475.096948 1137.151768 479.96904 1132.279676 
C 484.841132 1127.407584 487.578629 1120.798682 487.578629 1113.908503 
C 487.578629 1107.018324 484.841132 1100.409422 479.96904 1095.53733 
C 475.096948 1090.665238 468.488046 1087.927741 461.597867 1087.927741 
C 454.707688 1087.927741 448.098786 1090.665238 443.226694 1095.53733 
C 438.354602 1100.409422 435.617105 1107.018324 435.617105 1113.908503 
C 435.617105 1120.798682 438.354602 1127.407584 443.226694 1132.279676 
C 448.098786 1137.151768 454.707688 1139.889265 461.597867 1139.889265 
z
" clip-path="url(#pc853b3a353)" style="fill: #ff6700; stroke: #ff6700; stroke-opacity: 0.6; stroke-width: 5.86323"/>
    <path d="M 1058.73524 439.060076 
C 1065.625418 439.060076 1072.234321 436.322579 1077.106413 431.450487 
C 1081.978505 426.578395 1084.716002 419.969492 1084.716002 413.079314 
C 1084.716002 406.189135 1081.978505 399.580233 1077.106413 394.708141 
C 1072.234321 389.836048 1065.625418 387.098551 1058.73524 387.098551 
C 1051.845061 387.098551 1045.236159 389.836048 1040.364067 394.708141 
C 1035.491975 399.580233 1032.754478 406.189135 1032.754478 413.079314 
C 1032.754478 419.969492 1035.491975 426.578395 1040.364067 431.450487 
C 1045.236159 436.322579 1051.845061 439.060076 1058.73524 439.060076 
z
" clip-path="url(#pc853b3a353)" style="fill: #ff6700; stroke: #ff6700; stroke-opacity: 0.6; stroke-width: 5.86323"/>
    <path d="M 1058.73524 1045.923829 
C 1068.204885 1045.923829 1077.287952 1042.161499 1083.984002 1035.465449 
C 1090.680052 1028.769399 1094.442382 1019.686331 1094.442382 1010.216686 
C 1094.442382 1000.747042 1090.680052 991.663974 1083.984002 984.967924 
C 1077.287952 978.271874 1068.204885 974.509544 1058.73524 974.509544 
C 1049.265595 974.509544 1040.182528 978.271874 1033.486477 984.967924 
C 1026.790427 991.663974 1023.028098 1000.747042 1023.028098 1010.216686 
C 1023.028098 1019.686331 1026.790427 1028.769399 1033.486477 1035.465449 
C 1040.182528 1042.161499 1049.265595 1045.923829 1058.73524 1045.923829 
z
" clip-path="url(#pc853b3a353)" style="fill: #ff6700; stroke: #ff6700; stroke-opacity: 0.6; stroke-width: 8.058239"/>
   </g>
   <g id="patch_18">
    <path d="M 7.2 1416.096 
L 7.2 7.2 
" style="fill: none; stroke: #262626; stroke-width: 1.25; stroke-linejoin: miter; stroke-linecap: square"/>
   </g>
   <g id="patch_19">
    <path d="M 1416.096 1416.096 
L 1416.096 7.2 
" style="fill: none; stroke: #262626; stroke-width: 1.25; stroke-linejoin: miter; stroke-linecap: square"/>
   </g>
   <g id="patch_20">
    <path d="M 7.2 1416.096 
L 1416.096 1416.096 
" style="fill: none; stroke: #262626; stroke-width: 1.25; stroke-linejoin: miter; stroke-linecap: square"/>
   </g>
   <g id="patch_21">
    <path d="M 7.2 7.2 
L 1416.096 7.2 
" style="fill: none; stroke: #262626; stroke-width: 1.25; stroke-linejoin: miter; stroke-linecap: square"/>
   </g>
   <g id="text_1">
    <g clip-path="url(#pc853b3a353)">
     <!-- Mental health -->
     <g transform="translate(146.152359 879.819642) scale(0.36 -0.36)">
      <defs>
       <path id="ArialMT-4d" d="M 475 0 
L 475 4581 
L 1388 4581 
L 2472 1338 
Q 2622 884 2691 659 
Q 2769 909 2934 1394 
L 4031 4581 
L 4847 4581 
L 4847 0 
L 4263 0 
L 4263 3834 
L 2931 0 
L 2384 0 
L 1059 3900 
L 1059 0 
L 475 0 
z
" transform="scale(0.015625)"/>
       <path id="ArialMT-65" d="M 2694 1069 
L 3275 997 
Q 3138 488 2766 206 
Q 2394 -75 1816 -75 
Q 1088 -75 661 373 
Q 234 822 234 1631 
Q 234 2469 665 2931 
Q 1097 3394 1784 3394 
Q 2450 3394 2872 2941 
Q 3294 2488 3294 1666 
Q 3294 1616 3291 1516 
L 816 1516 
Q 847 969 1125 678 
Q 1403 388 1819 388 
Q 2128 388 2347 550 
Q 2566 713 2694 1069 
z
M 847 1978 
L 2700 1978 
Q 2663 2397 2488 2606 
Q 2219 2931 1791 2931 
Q 1403 2931 1139 2672 
Q 875 2413 847 1978 
z
" transform="scale(0.015625)"/>
       <path id="ArialMT-6e" d="M 422 0 
L 422 3319 
L 928 3319 
L 928 2847 
Q 1294 3394 1984 3394 
Q 2284 3394 2536 3286 
Q 2788 3178 2913 3003 
Q 3038 2828 3088 2588 
Q 3119 2431 3119 2041 
L 3119 0 
L 2556 0 
L 2556 2019 
Q 2556 2363 2490 2533 
Q 2425 2703 2258 2804 
Q 2091 2906 1866 2906 
Q 1506 2906 1245 2678 
Q 984 2450 984 1813 
L 984 0 
L 422 0 
z
" transform="scale(0.015625)"/>
       <path id="ArialMT-74" d="M 1650 503 
L 1731 6 
Q 1494 -44 1306 -44 
Q 1000 -44 831 53 
Q 663 150 594 308 
Q 525 466 525 972 
L 525 2881 
L 113 2881 
L 113 3319 
L 525 3319 
L 525 4141 
L 1084 4478 
L 1084 3319 
L 1650 3319 
L 1650 2881 
L 1084 2881 
L 1084 941 
Q 1084 700 1114 631 
Q 1144 563 1211 522 
Q 1278 481 1403 481 
Q 1497 481 1650 503 
z
" transform="scale(0.015625)"/>
       <path id="ArialMT-61" d="M 2588 409 
Q 2275 144 1986 34 
Q 1697 -75 1366 -75 
Q 819 -75 525 192 
Q 231 459 231 875 
Q 231 1119 342 1320 
Q 453 1522 633 1644 
Q 813 1766 1038 1828 
Q 1203 1872 1538 1913 
Q 2219 1994 2541 2106 
Q 2544 2222 2544 2253 
Q 2544 2597 2384 2738 
Q 2169 2928 1744 2928 
Q 1347 2928 1158 2789 
Q 969 2650 878 2297 
L 328 2372 
Q 403 2725 575 2942 
Q 747 3159 1072 3276 
Q 1397 3394 1825 3394 
Q 2250 3394 2515 3294 
Q 2781 3194 2906 3042 
Q 3031 2891 3081 2659 
Q 3109 2516 3109 2141 
L 3109 1391 
Q 3109 606 3145 398 
Q 3181 191 3288 0 
L 2700 0 
Q 2613 175 2588 409 
z
M 2541 1666 
Q 2234 1541 1622 1453 
Q 1275 1403 1131 1340 
Q 988 1278 909 1158 
Q 831 1038 831 891 
Q 831 666 1001 516 
Q 1172 366 1500 366 
Q 1825 366 2078 508 
Q 2331 650 2450 897 
Q 2541 1088 2541 1459 
L 2541 1666 
z
" transform="scale(0.015625)"/>
       <path id="ArialMT-6c" d="M 409 0 
L 409 4581 
L 972 4581 
L 972 0 
L 409 0 
z
" transform="scale(0.015625)"/>
       <path id="ArialMT-20" transform="scale(0.015625)"/>
       <path id="ArialMT-68" d="M 422 0 
L 422 4581 
L 984 4581 
L 984 2938 
Q 1378 3394 1978 3394 
Q 2347 3394 2619 3248 
Q 2891 3103 3008 2847 
Q 3125 2591 3125 2103 
L 3125 0 
L 2563 0 
L 2563 2103 
Q 2563 2525 2380 2717 
Q 2197 2909 1863 2909 
Q 1613 2909 1392 2779 
Q 1172 2650 1078 2428 
Q 984 2206 984 1816 
L 984 0 
L 422 0 
z
" transform="scale(0.015625)"/>
      </defs>
      <use xlink:href="#ArialMT-4d"/>
      <use xlink:href="#ArialMT-65" transform="translate(83.300781 0)"/>
      <use xlink:href="#ArialMT-6e" transform="translate(138.916016 0)"/>
      <use xlink:href="#ArialMT-74" transform="translate(194.53125 0)"/>
      <use xlink:href="#ArialMT-61" transform="translate(222.314453 0)"/>
      <use xlink:href="#ArialMT-6c" transform="translate(277.929688 0)"/>
      <use xlink:href="#ArialMT-20" transform="translate(300.146484 0)"/>
      <use xlink:href="#ArialMT-68" transform="translate(327.929688 0)"/>
      <use xlink:href="#ArialMT-65" transform="translate(383.544922 0)"/>
      <use xlink:href="#ArialMT-61" transform="translate(439.160156 0)"/>
      <use xlink:href="#ArialMT-6c" transform="translate(494.775391 0)"/>
      <use xlink:href="#ArialMT-74" transform="translate(516.992188 0)"/>
      <use xlink:href="#ArialMT-68" transform="translate(544.775391 0)"/>
     </g>
    </g>
   </g>
   <g id="text_2">
    <g clip-path="url(#pc853b3a353)">
     <!-- Family issues -->
     <g transform="translate(670.312714 1178.177391) scale(0.36 -0.36)">
      <defs>
       <path id="ArialMT-46" d="M 525 0 
L 525 4581 
L 3616 4581 
L 3616 4041 
L 1131 4041 
L 1131 2622 
L 3281 2622 
L 3281 2081 
L 1131 2081 
L 1131 0 
L 525 0 
z
" transform="scale(0.015625)"/>
       <path id="ArialMT-6d" d="M 422 0 
L 422 3319 
L 925 3319 
L 925 2853 
Q 1081 3097 1340 3245 
Q 1600 3394 1931 3394 
Q 2300 3394 2536 3241 
Q 2772 3088 2869 2813 
Q 3263 3394 3894 3394 
Q 4388 3394 4653 3120 
Q 4919 2847 4919 2278 
L 4919 0 
L 4359 0 
L 4359 2091 
Q 4359 2428 4304 2576 
Q 4250 2725 4106 2815 
Q 3963 2906 3769 2906 
Q 3419 2906 3187 2673 
Q 2956 2441 2956 1928 
L 2956 0 
L 2394 0 
L 2394 2156 
Q 2394 2531 2256 2718 
Q 2119 2906 1806 2906 
Q 1569 2906 1367 2781 
Q 1166 2656 1075 2415 
Q 984 2175 984 1722 
L 984 0 
L 422 0 
z
" transform="scale(0.015625)"/>
       <path id="ArialMT-69" d="M 425 3934 
L 425 4581 
L 988 4581 
L 988 3934 
L 425 3934 
z
M 425 0 
L 425 3319 
L 988 3319 
L 988 0 
L 425 0 
z
" transform="scale(0.015625)"/>
       <path id="ArialMT-79" d="M 397 -1278 
L 334 -750 
Q 519 -800 656 -800 
Q 844 -800 956 -737 
Q 1069 -675 1141 -563 
Q 1194 -478 1313 -144 
Q 1328 -97 1363 -6 
L 103 3319 
L 709 3319 
L 1400 1397 
Q 1534 1031 1641 628 
Q 1738 1016 1872 1384 
L 2581 3319 
L 3144 3319 
L 1881 -56 
Q 1678 -603 1566 -809 
Q 1416 -1088 1222 -1217 
Q 1028 -1347 759 -1347 
Q 597 -1347 397 -1278 
z
" transform="scale(0.015625)"/>
       <path id="ArialMT-73" d="M 197 991 
L 753 1078 
Q 800 744 1014 566 
Q 1228 388 1613 388 
Q 2000 388 2187 545 
Q 2375 703 2375 916 
Q 2375 1106 2209 1216 
Q 2094 1291 1634 1406 
Q 1016 1563 777 1677 
Q 538 1791 414 1992 
Q 291 2194 291 2438 
Q 291 2659 392 2848 
Q 494 3038 669 3163 
Q 800 3259 1026 3326 
Q 1253 3394 1513 3394 
Q 1903 3394 2198 3281 
Q 2494 3169 2634 2976 
Q 2775 2784 2828 2463 
L 2278 2388 
Q 2241 2644 2061 2787 
Q 1881 2931 1553 2931 
Q 1166 2931 1000 2803 
Q 834 2675 834 2503 
Q 834 2394 903 2306 
Q 972 2216 1119 2156 
Q 1203 2125 1616 2013 
Q 2213 1853 2448 1751 
Q 2684 1650 2818 1456 
Q 2953 1263 2953 975 
Q 2953 694 2789 445 
Q 2625 197 2315 61 
Q 2006 -75 1616 -75 
Q 969 -75 630 194 
Q 291 463 197 991 
z
" transform="scale(0.015625)"/>
       <path id="ArialMT-75" d="M 2597 0 
L 2597 488 
Q 2209 -75 1544 -75 
Q 1250 -75 995 37 
Q 741 150 617 320 
Q 494 491 444 738 
Q 409 903 409 1263 
L 409 3319 
L 972 3319 
L 972 1478 
Q 972 1038 1006 884 
Q 1059 663 1231 536 
Q 1403 409 1656 409 
Q 1909 409 2131 539 
Q 2353 669 2445 892 
Q 2538 1116 2538 1541 
L 2538 3319 
L 3100 3319 
L 3100 0 
L 2597 0 
z
" transform="scale(0.015625)"/>
      </defs>
      <use xlink:href="#ArialMT-46"/>
      <use xlink:href="#ArialMT-61" transform="translate(61.083984 0)"/>
      <use xlink:href="#ArialMT-6d" transform="translate(116.699219 0)"/>
      <use xlink:href="#ArialMT-69" transform="translate(200 0)"/>
      <use xlink:href="#ArialMT-6c" transform="translate(222.216797 0)"/>
      <use xlink:href="#ArialMT-79" transform="translate(244.433594 0)"/>
      <use xlink:href="#ArialMT-20" transform="translate(294.433594 0)"/>
      <use xlink:href="#ArialMT-69" transform="translate(322.216797 0)"/>
      <use xlink:href="#ArialMT-73" transform="translate(344.433594 0)"/>
      <use xlink:href="#ArialMT-73" transform="translate(394.433594 0)"/>
      <use xlink:href="#ArialMT-75" transform="translate(444.433594 0)"/>
      <use xlink:href="#ArialMT-65" transform="translate(500.048828 0)"/>
      <use xlink:href="#ArialMT-73" transform="translate(555.664062 0)"/>
     </g>
    </g>
   </g>
   <g id="text_3">
    <g clip-path="url(#pc853b3a353)">
     <!-- Medication, disease, -->
     <g transform="translate(90.132984 542.84017) scale(0.36 -0.36)">
      <defs>
       <path id="ArialMT-64" d="M 2575 0 
L 2575 419 
Q 2259 -75 1647 -75 
Q 1250 -75 917 144 
Q 584 363 401 755 
Q 219 1147 219 1656 
Q 219 2153 384 2558 
Q 550 2963 881 3178 
Q 1213 3394 1622 3394 
Q 1922 3394 2156 3267 
Q 2391 3141 2538 2938 
L 2538 4581 
L 3097 4581 
L 3097 0 
L 2575 0 
z
M 797 1656 
Q 797 1019 1065 703 
Q 1334 388 1700 388 
Q 2069 388 2326 689 
Q 2584 991 2584 1609 
Q 2584 2291 2321 2609 
Q 2059 2928 1675 2928 
Q 1300 2928 1048 2622 
Q 797 2316 797 1656 
z
" transform="scale(0.015625)"/>
       <path id="ArialMT-63" d="M 2588 1216 
L 3141 1144 
Q 3050 572 2676 248 
Q 2303 -75 1759 -75 
Q 1078 -75 664 370 
Q 250 816 250 1647 
Q 250 2184 428 2587 
Q 606 2991 970 3192 
Q 1334 3394 1763 3394 
Q 2303 3394 2647 3120 
Q 2991 2847 3088 2344 
L 2541 2259 
Q 2463 2594 2264 2762 
Q 2066 2931 1784 2931 
Q 1359 2931 1093 2626 
Q 828 2322 828 1663 
Q 828 994 1084 691 
Q 1341 388 1753 388 
Q 2084 388 2306 591 
Q 2528 794 2588 1216 
z
" transform="scale(0.015625)"/>
       <path id="ArialMT-6f" d="M 213 1659 
Q 213 2581 725 3025 
Q 1153 3394 1769 3394 
Q 2453 3394 2887 2945 
Q 3322 2497 3322 1706 
Q 3322 1066 3130 698 
Q 2938 331 2570 128 
Q 2203 -75 1769 -75 
Q 1072 -75 642 372 
Q 213 819 213 1659 
z
M 791 1659 
Q 791 1022 1069 705 
Q 1347 388 1769 388 
Q 2188 388 2466 706 
Q 2744 1025 2744 1678 
Q 2744 2294 2464 2611 
Q 2184 2928 1769 2928 
Q 1347 2928 1069 2612 
Q 791 2297 791 1659 
z
" transform="scale(0.015625)"/>
       <path id="ArialMT-2c" d="M 569 0 
L 569 641 
L 1209 641 
L 1209 0 
Q 1209 -353 1084 -570 
Q 959 -788 688 -906 
L 531 -666 
Q 709 -588 793 -436 
Q 878 -284 888 0 
L 569 0 
z
" transform="scale(0.015625)"/>
      </defs>
      <use xlink:href="#ArialMT-4d"/>
      <use xlink:href="#ArialMT-65" transform="translate(83.300781 0)"/>
      <use xlink:href="#ArialMT-64" transform="translate(138.916016 0)"/>
      <use xlink:href="#ArialMT-69" transform="translate(194.53125 0)"/>
      <use xlink:href="#ArialMT-63" transform="translate(216.748047 0)"/>
      <use xlink:href="#ArialMT-61" transform="translate(266.748047 0)"/>
      <use xlink:href="#ArialMT-74" transform="translate(322.363281 0)"/>
      <use xlink:href="#ArialMT-69" transform="translate(350.146484 0)"/>
      <use xlink:href="#ArialMT-6f" transform="translate(372.363281 0)"/>
      <use xlink:href="#ArialMT-6e" transform="translate(427.978516 0)"/>
      <use xlink:href="#ArialMT-2c" transform="translate(483.59375 0)"/>
      <use xlink:href="#ArialMT-20" transform="translate(511.376953 0)"/>
      <use xlink:href="#ArialMT-64" transform="translate(539.160156 0)"/>
      <use xlink:href="#ArialMT-69" transform="translate(594.775391 0)"/>
      <use xlink:href="#ArialMT-73" transform="translate(616.992188 0)"/>
      <use xlink:href="#ArialMT-65" transform="translate(666.992188 0)"/>
      <use xlink:href="#ArialMT-61" transform="translate(722.607422 0)"/>
      <use xlink:href="#ArialMT-73" transform="translate(778.222656 0)"/>
      <use xlink:href="#ArialMT-65" transform="translate(828.222656 0)"/>
      <use xlink:href="#ArialMT-2c" transform="translate(883.837891 0)"/>
     </g>
    </g>
    <g clip-path="url(#pc853b3a353)">
     <!-- or injury -->
     <g transform="translate(190.198921 580.91692) scale(0.36 -0.36)">
      <defs>
       <path id="ArialMT-72" d="M 416 0 
L 416 3319 
L 922 3319 
L 922 2816 
Q 1116 3169 1280 3281 
Q 1444 3394 1641 3394 
Q 1925 3394 2219 3213 
L 2025 2691 
Q 1819 2813 1613 2813 
Q 1428 2813 1281 2702 
Q 1134 2591 1072 2394 
Q 978 2094 978 1738 
L 978 0 
L 416 0 
z
" transform="scale(0.015625)"/>
       <path id="ArialMT-6a" d="M 419 3928 
L 419 4581 
L 981 4581 
L 981 3928 
L 419 3928 
z
M -294 -1288 
L -188 -809 
Q -19 -853 78 -853 
Q 250 -853 334 -739 
Q 419 -625 419 -169 
L 419 3319 
L 981 3319 
L 981 -181 
Q 981 -794 822 -1034 
Q 619 -1347 147 -1347 
Q -81 -1347 -294 -1288 
z
" transform="scale(0.015625)"/>
      </defs>
      <use xlink:href="#ArialMT-6f"/>
      <use xlink:href="#ArialMT-72" transform="translate(55.615234 0)"/>
      <use xlink:href="#ArialMT-20" transform="translate(88.916016 0)"/>
      <use xlink:href="#ArialMT-69" transform="translate(116.699219 0)"/>
      <use xlink:href="#ArialMT-6e" transform="translate(138.916016 0)"/>
      <use xlink:href="#ArialMT-6a" transform="translate(194.53125 0)"/>
      <use xlink:href="#ArialMT-75" transform="translate(216.748047 0)"/>
      <use xlink:href="#ArialMT-72" transform="translate(272.363281 0)"/>
      <use xlink:href="#ArialMT-79" transform="translate(305.664062 0)"/>
     </g>
    </g>
   </g>
   <g id="text_4">
    <g clip-path="url(#pc853b3a353)">
     <!-- Physical inactivity -->
     <g transform="translate(1028.037704 720.743625) scale(0.36 -0.36)">
      <defs>
       <path id="ArialMT-50" d="M 494 0 
L 494 4581 
L 2222 4581 
Q 2678 4581 2919 4538 
Q 3256 4481 3484 4323 
Q 3713 4166 3852 3881 
Q 3991 3597 3991 3256 
Q 3991 2672 3619 2267 
Q 3247 1863 2275 1863 
L 1100 1863 
L 1100 0 
L 494 0 
z
M 1100 2403 
L 2284 2403 
Q 2872 2403 3119 2622 
Q 3366 2841 3366 3238 
Q 3366 3525 3220 3729 
Q 3075 3934 2838 4000 
Q 2684 4041 2272 4041 
L 1100 4041 
L 1100 2403 
z
" transform="scale(0.015625)"/>
       <path id="ArialMT-76" d="M 1344 0 
L 81 3319 
L 675 3319 
L 1388 1331 
Q 1503 1009 1600 663 
Q 1675 925 1809 1294 
L 2547 3319 
L 3125 3319 
L 1869 0 
L 1344 0 
z
" transform="scale(0.015625)"/>
      </defs>
      <use xlink:href="#ArialMT-50"/>
      <use xlink:href="#ArialMT-68" transform="translate(66.699219 0)"/>
      <use xlink:href="#ArialMT-79" transform="translate(122.314453 0)"/>
      <use xlink:href="#ArialMT-73" transform="translate(172.314453 0)"/>
      <use xlink:href="#ArialMT-69" transform="translate(222.314453 0)"/>
      <use xlink:href="#ArialMT-63" transform="translate(244.53125 0)"/>
      <use xlink:href="#ArialMT-61" transform="translate(294.53125 0)"/>
      <use xlink:href="#ArialMT-6c" transform="translate(350.146484 0)"/>
      <use xlink:href="#ArialMT-20" transform="translate(372.363281 0)"/>
      <use xlink:href="#ArialMT-69" transform="translate(400.146484 0)"/>
      <use xlink:href="#ArialMT-6e" transform="translate(422.363281 0)"/>
      <use xlink:href="#ArialMT-61" transform="translate(477.978516 0)"/>
      <use xlink:href="#ArialMT-63" transform="translate(533.59375 0)"/>
      <use xlink:href="#ArialMT-74" transform="translate(583.59375 0)"/>
      <use xlink:href="#ArialMT-69" transform="translate(611.376953 0)"/>
      <use xlink:href="#ArialMT-76" transform="translate(633.59375 0)"/>
      <use xlink:href="#ArialMT-69" transform="translate(683.59375 0)"/>
      <use xlink:href="#ArialMT-74" transform="translate(705.810547 0)"/>
      <use xlink:href="#ArialMT-79" transform="translate(733.59375 0)"/>
     </g>
    </g>
   </g>
   <g id="text_5">
    <g clip-path="url(#pc853b3a353)">
     <!-- Eating habits -->
     <g transform="translate(675.262714 263.309859) scale(0.36 -0.36)">
      <defs>
       <path id="ArialMT-45" d="M 506 0 
L 506 4581 
L 3819 4581 
L 3819 4041 
L 1113 4041 
L 1113 2638 
L 3647 2638 
L 3647 2100 
L 1113 2100 
L 1113 541 
L 3925 541 
L 3925 0 
L 506 0 
z
" transform="scale(0.015625)"/>
       <path id="ArialMT-67" d="M 319 -275 
L 866 -356 
Q 900 -609 1056 -725 
Q 1266 -881 1628 -881 
Q 2019 -881 2231 -725 
Q 2444 -569 2519 -288 
Q 2563 -116 2559 434 
Q 2191 0 1641 0 
Q 956 0 581 494 
Q 206 988 206 1678 
Q 206 2153 378 2554 
Q 550 2956 876 3175 
Q 1203 3394 1644 3394 
Q 2231 3394 2613 2919 
L 2613 3319 
L 3131 3319 
L 3131 450 
Q 3131 -325 2973 -648 
Q 2816 -972 2473 -1159 
Q 2131 -1347 1631 -1347 
Q 1038 -1347 672 -1080 
Q 306 -813 319 -275 
z
M 784 1719 
Q 784 1066 1043 766 
Q 1303 466 1694 466 
Q 2081 466 2343 764 
Q 2606 1063 2606 1700 
Q 2606 2309 2336 2618 
Q 2066 2928 1684 2928 
Q 1309 2928 1046 2623 
Q 784 2319 784 1719 
z
" transform="scale(0.015625)"/>
       <path id="ArialMT-62" d="M 941 0 
L 419 0 
L 419 4581 
L 981 4581 
L 981 2947 
Q 1338 3394 1891 3394 
Q 2197 3394 2470 3270 
Q 2744 3147 2920 2923 
Q 3097 2700 3197 2384 
Q 3297 2069 3297 1709 
Q 3297 856 2875 390 
Q 2453 -75 1863 -75 
Q 1275 -75 941 416 
L 941 0 
z
M 934 1684 
Q 934 1088 1097 822 
Q 1363 388 1816 388 
Q 2184 388 2453 708 
Q 2722 1028 2722 1663 
Q 2722 2313 2464 2622 
Q 2206 2931 1841 2931 
Q 1472 2931 1203 2611 
Q 934 2291 934 1684 
z
" transform="scale(0.015625)"/>
      </defs>
      <use xlink:href="#ArialMT-45"/>
      <use xlink:href="#ArialMT-61" transform="translate(66.699219 0)"/>
      <use xlink:href="#ArialMT-74" transform="translate(122.314453 0)"/>
      <use xlink:href="#ArialMT-69" transform="translate(150.097656 0)"/>
      <use xlink:href="#ArialMT-6e" transform="translate(172.314453 0)"/>
      <use xlink:href="#ArialMT-67" transform="translate(227.929688 0)"/>
      <use xlink:href="#ArialMT-20" transform="translate(283.544922 0)"/>
      <use xlink:href="#ArialMT-68" transform="translate(311.328125 0)"/>
      <use xlink:href="#ArialMT-61" transform="translate(366.943359 0)"/>
      <use xlink:href="#ArialMT-62" transform="translate(422.558594 0)"/>
      <use xlink:href="#ArialMT-69" transform="translate(478.173828 0)"/>
      <use xlink:href="#ArialMT-74" transform="translate(500.390625 0)"/>
      <use xlink:href="#ArialMT-73" transform="translate(528.173828 0)"/>
     </g>
    </g>
   </g>
   <g id="text_6">
    <g clip-path="url(#pc853b3a353)">
     <!-- Schedule -->
     <g transform="translate(386.543492 318.694059) scale(0.36 -0.36)">
      <defs>
       <path id="ArialMT-53" d="M 288 1472 
L 859 1522 
Q 900 1178 1048 958 
Q 1197 738 1509 602 
Q 1822 466 2213 466 
Q 2559 466 2825 569 
Q 3091 672 3220 851 
Q 3350 1031 3350 1244 
Q 3350 1459 3225 1620 
Q 3100 1781 2813 1891 
Q 2628 1963 1997 2114 
Q 1366 2266 1113 2400 
Q 784 2572 623 2826 
Q 463 3081 463 3397 
Q 463 3744 659 4045 
Q 856 4347 1234 4503 
Q 1613 4659 2075 4659 
Q 2584 4659 2973 4495 
Q 3363 4331 3572 4012 
Q 3781 3694 3797 3291 
L 3216 3247 
Q 3169 3681 2898 3903 
Q 2628 4125 2100 4125 
Q 1550 4125 1298 3923 
Q 1047 3722 1047 3438 
Q 1047 3191 1225 3031 
Q 1400 2872 2139 2705 
Q 2878 2538 3153 2413 
Q 3553 2228 3743 1945 
Q 3934 1663 3934 1294 
Q 3934 928 3725 604 
Q 3516 281 3123 101 
Q 2731 -78 2241 -78 
Q 1619 -78 1198 103 
Q 778 284 539 648 
Q 300 1013 288 1472 
z
" transform="scale(0.015625)"/>
      </defs>
      <use xlink:href="#ArialMT-53"/>
      <use xlink:href="#ArialMT-63" transform="translate(66.699219 0)"/>
      <use xlink:href="#ArialMT-68" transform="translate(116.699219 0)"/>
      <use xlink:href="#ArialMT-65" transform="translate(172.314453 0)"/>
      <use xlink:href="#ArialMT-64" transform="translate(227.929688 0)"/>
      <use xlink:href="#ArialMT-75" transform="translate(283.544922 0)"/>
      <use xlink:href="#ArialMT-6c" transform="translate(339.160156 0)"/>
      <use xlink:href="#ArialMT-65" transform="translate(361.376953 0)"/>
     </g>
    </g>
   </g>
   <g id="text_7">
    <g clip-path="url(#pc853b3a353)">
     <!-- Treatment -->
     <g transform="translate(380.251929 1104.176691) scale(0.36 -0.36)">
      <defs>
       <path id="ArialMT-54" d="M 1659 0 
L 1659 4041 
L 150 4041 
L 150 4581 
L 3781 4581 
L 3781 4041 
L 2266 4041 
L 2266 0 
L 1659 0 
z
" transform="scale(0.015625)"/>
      </defs>
      <use xlink:href="#ArialMT-54"/>
      <use xlink:href="#ArialMT-72" transform="translate(57.333984 0)"/>
      <use xlink:href="#ArialMT-65" transform="translate(90.634766 0)"/>
      <use xlink:href="#ArialMT-61" transform="translate(146.25 0)"/>
      <use xlink:href="#ArialMT-74" transform="translate(201.865234 0)"/>
      <use xlink:href="#ArialMT-6d" transform="translate(229.648438 0)"/>
      <use xlink:href="#ArialMT-65" transform="translate(312.949219 0)"/>
      <use xlink:href="#ArialMT-6e" transform="translate(368.564453 0)"/>
      <use xlink:href="#ArialMT-74" transform="translate(424.179688 0)"/>
     </g>
    </g>
    <g clip-path="url(#pc853b3a353)">
     <!-- discontinuation -->
     <g transform="translate(341.520992 1142.253441) scale(0.36 -0.36)">
      <use xlink:href="#ArialMT-64"/>
      <use xlink:href="#ArialMT-69" transform="translate(55.615234 0)"/>
      <use xlink:href="#ArialMT-73" transform="translate(77.832031 0)"/>
      <use xlink:href="#ArialMT-63" transform="translate(127.832031 0)"/>
      <use xlink:href="#ArialMT-6f" transform="translate(177.832031 0)"/>
      <use xlink:href="#ArialMT-6e" transform="translate(233.447266 0)"/>
      <use xlink:href="#ArialMT-74" transform="translate(289.0625 0)"/>
      <use xlink:href="#ArialMT-69" transform="translate(316.845703 0)"/>
      <use xlink:href="#ArialMT-6e" transform="translate(339.0625 0)"/>
      <use xlink:href="#ArialMT-75" transform="translate(394.677734 0)"/>
      <use xlink:href="#ArialMT-61" transform="translate(450.292969 0)"/>
      <use xlink:href="#ArialMT-74" transform="translate(505.908203 0)"/>
      <use xlink:href="#ArialMT-69" transform="translate(533.691406 0)"/>
      <use xlink:href="#ArialMT-6f" transform="translate(555.908203 0)"/>
      <use xlink:href="#ArialMT-6e" transform="translate(611.523438 0)"/>
     </g>
    </g>
   </g>
   <g id="text_8">
    <g clip-path="url(#pc853b3a353)">
     <!-- Pandemic -->
     <g transform="translate(978.697115 422.385876) scale(0.36 -0.36)">
      <use xlink:href="#ArialMT-50"/>
      <use xlink:href="#ArialMT-61" transform="translate(66.699219 0)"/>
      <use xlink:href="#ArialMT-6e" transform="translate(122.314453 0)"/>
      <use xlink:href="#ArialMT-64" transform="translate(177.929688 0)"/>
      <use xlink:href="#ArialMT-65" transform="translate(233.544922 0)"/>
      <use xlink:href="#ArialMT-6d" transform="translate(289.160156 0)"/>
      <use xlink:href="#ArialMT-69" transform="translate(372.460938 0)"/>
      <use xlink:href="#ArialMT-63" transform="translate(394.677734 0)"/>
     </g>
    </g>
   </g>
   <g id="text_9">
    <g clip-path="url(#pc853b3a353)">
     <!-- Lifestyle, -->
     <g transform="translate(987.705552 1000.493311) scale(0.36 -0.36)">
      <defs>
       <path id="ArialMT-4c" d="M 469 0 
L 469 4581 
L 1075 4581 
L 1075 541 
L 3331 541 
L 3331 0 
L 469 0 
z
" transform="scale(0.015625)"/>
       <path id="ArialMT-66" d="M 556 0 
L 556 2881 
L 59 2881 
L 59 3319 
L 556 3319 
L 556 3672 
Q 556 4006 616 4169 
Q 697 4388 901 4523 
Q 1106 4659 1475 4659 
Q 1713 4659 2000 4603 
L 1916 4113 
Q 1741 4144 1584 4144 
Q 1328 4144 1222 4034 
Q 1116 3925 1116 3625 
L 1116 3319 
L 1763 3319 
L 1763 2881 
L 1116 2881 
L 1116 0 
L 556 0 
z
" transform="scale(0.015625)"/>
      </defs>
      <use xlink:href="#ArialMT-4c"/>
      <use xlink:href="#ArialMT-69" transform="translate(55.615234 0)"/>
      <use xlink:href="#ArialMT-66" transform="translate(77.832031 0)"/>
      <use xlink:href="#ArialMT-65" transform="translate(105.615234 0)"/>
      <use xlink:href="#ArialMT-73" transform="translate(161.230469 0)"/>
      <use xlink:href="#ArialMT-74" transform="translate(211.230469 0)"/>
      <use xlink:href="#ArialMT-79" transform="translate(239.013672 0)"/>
      <use xlink:href="#ArialMT-6c" transform="translate(289.013672 0)"/>
      <use xlink:href="#ArialMT-65" transform="translate(311.230469 0)"/>
      <use xlink:href="#ArialMT-2c" transform="translate(366.845703 0)"/>
     </g>
    </g>
    <g clip-path="url(#pc853b3a353)">
     <!-- circumstances -->
     <g transform="translate(943.709615 1038.991936) scale(0.36 -0.36)">
      <use xlink:href="#ArialMT-63"/>
      <use xlink:href="#ArialMT-69" transform="translate(50 0)"/>
      <use xlink:href="#ArialMT-72" transform="translate(72.216797 0)"/>
      <use xlink:href="#ArialMT-63" transform="translate(105.517578 0)"/>
      <use xlink:href="#ArialMT-75" transform="translate(155.517578 0)"/>
      <use xlink:href="#ArialMT-6d" transform="translate(211.132812 0)"/>
      <use xlink:href="#ArialMT-73" transform="translate(294.433594 0)"/>
      <use xlink:href="#ArialMT-74" transform="translate(344.433594 0)"/>
      <use xlink:href="#ArialMT-61" transform="translate(372.216797 0)"/>
      <use xlink:href="#ArialMT-6e" transform="translate(427.832031 0)"/>
      <use xlink:href="#ArialMT-63" transform="translate(483.447266 0)"/>
      <use xlink:href="#ArialMT-65" transform="translate(533.447266 0)"/>
      <use xlink:href="#ArialMT-73" transform="translate(589.0625 0)"/>
     </g>
    </g>
   </g>
  </g>
 </g>
 <defs>
  <clipPath id="pc853b3a353">
   <rect x="7.2" y="7.2" width="1408.896" height="1408.896"/>
  </clipPath>
 </defs>
</svg>
