<?xml version="1.0" encoding="utf-8" standalone="no"?>
<!DOCTYPE svg PUBLIC "-//W3C//DTD SVG 1.1//EN"
  "http://www.w3.org/Graphics/SVG/1.1/DTD/svg11.dtd">
<svg xmlns:xlink="http://www.w3.org/1999/xlink" width="1850.4pt" height="1850.4pt" viewBox="0 0 1850.4 1850.4" xmlns="http://www.w3.org/2000/svg" version="1.1">
 <metadata>
  <rdf:RDF xmlns:dc="http://purl.org/dc/elements/1.1/" xmlns:cc="http://creativecommons.org/ns#" xmlns:rdf="http://www.w3.org/1999/02/22-rdf-syntax-ns#">
   <cc:Work>
    <dc:type rdf:resource="http://purl.org/dc/dcmitype/StillImage"/>
    <dc:date>2025-09-04T15:28:06.914253</dc:date>
    <dc:format>image/svg+xml</dc:format>
    <dc:creator>
     <cc:Agent>
      <dc:title>Matplotlib v3.10.1, https://matplotlib.org/</dc:title>
     </cc:Agent>
    </dc:creator>
   </cc:Work>
  </rdf:RDF>
 </metadata>
 <defs>
  <style type="text/css">*{stroke-linejoin: round; stroke-linecap: butt}</style>
 </defs>
 <g id="figure_1">
  <g id="patch_1">
   <path d="M 0 1850.4 
L 1850.4 1850.4 
L 1850.4 -0 
L 0 -0 
z
" style="fill: #f0f0f0"/>
  </g>
  <g id="axes_1">
   <g id="patch_2">
    <path d="M 36 1814.4 
L 1814.4 1814.4 
L 1814.4 36 
L 36 36 
z
" style="fill: #ffffff"/>
   </g>
   <g id="patch_3">
    <path d="M 739.572538 352.614258 
Q 434.424106 558.515188 349.755758 916.76411 
" clip-path="url(#p92cb47922b)" style="fill: none; stroke: #ff0000; stroke-opacity: 0.5; stroke-width: 4.615211; stroke-linecap: round"/>
   </g>
   <g id="patch_4">
    <path d="M 754.839799 350.951263 
Q 925.200706 416.014697 1095.561613 350.950724 
" clip-path="url(#p92cb47922b)" style="fill: none; stroke: #ff0000; stroke-opacity: 0.5; stroke-width: 5.506043; stroke-linecap: round"/>
   </g>
   <g id="patch_5">
    <path d="M 738.450898 350.186147 
Q 560.22694 402.83732 462.564378 560.94473 
" clip-path="url(#p92cb47922b)" style="fill: none; stroke: #008000; stroke-opacity: 0.5; stroke-width: 4.796008; stroke-linecap: round"/>
   </g>
   <g id="patch_6">
    <path d="M 753.365268 353.414006 
Q 1026.471309 584.170799 1383.680202 568.754258 
" clip-path="url(#p92cb47922b)" style="fill: none; stroke: #ff0000; stroke-opacity: 0.5; stroke-width: 6.398861; stroke-linecap: round"/>
   </g>
   <g id="patch_7">
    <path d="M 356.440673 925.755182 
Q 623.770453 941.47072 831.889878 772.951725 
" clip-path="url(#p92cb47922b)" style="fill: none; stroke: #ff0000; stroke-opacity: 0.5; stroke-width: 4.089968; stroke-linecap: round"/>
   </g>
   <g id="patch_8">
    <path d="M 1096.639834 352.920048 
Q 889.855151 506.319767 840.211343 758.960183 
" clip-path="url(#p92cb47922b)" style="fill: none; stroke: #008000; stroke-opacity: 0.5; stroke-width: 4.176739; stroke-linecap: round"/>
   </g>
   <g id="patch_9">
    <path d="M 1108.120149 355.19831 
Q 1205.782728 513.305698 1384.006704 565.956848 
" clip-path="url(#p92cb47922b)" style="fill: none; stroke: #ff0000; stroke-opacity: 0.5; stroke-width: 5.170376; stroke-linecap: round"/>
   </g>
   <g id="patch_10">
    <path d="M 464.578982 574.06427 
Q 696.194259 775.663403 1003.155625 767.731134 
" clip-path="url(#p92cb47922b)" style="fill: none; stroke: #ff0000; stroke-opacity: 0.5; stroke-width: 4.002494; stroke-linecap: round"/>
   </g>
   <g id="patch_11">
    <path d="M 1391.693841 576.985341 
Q 1379.111084 767.896202 1497.205259 918.42567 
" clip-path="url(#p92cb47922b)" style="fill: none; stroke: #ff0000; stroke-opacity: 0.5; stroke-width: 4.051796; stroke-linecap: round"/>
   </g>
   <g id="patch_12">
    <path d="M 1003.71974 1079.848525 
Q 925.200031 1051.374587 846.680322 1079.848503 
" clip-path="url(#p92cb47922b)" style="fill: none; stroke: #008000; stroke-opacity: 0.5; stroke-width: 13.090843; stroke-linecap: round"/>
   </g>
   <g id="patch_13">
    <path d="M 1010.442709 1091.482996 
Q 976.875493 1310.453708 1098.812573 1495.402578 
" clip-path="url(#p92cb47922b)" style="fill: none; stroke: #008000; stroke-opacity: 0.5; stroke-width: 5.398557; stroke-linecap: round"/>
   </g>
   <g id="patch_14">
    <path d="M 1010.693118 1074.346995 
Q 985.529406 892.074603 845.236731 773.018689 
" clip-path="url(#p92cb47922b)" style="fill: none; stroke: #008000; stroke-opacity: 0.5; stroke-width: 5.393654; stroke-linecap: round"/>
   </g>
   <g id="patch_15">
    <path d="M 1006.545523 1076.063489 
Q 911.812657 954.78639 760.50645 926.701322 
" clip-path="url(#p92cb47922b)" style="fill: none; stroke: #008000; stroke-opacity: 0.5; stroke-width: 12.133643; stroke-linecap: round"/>
   </g>
   <g id="patch_16">
    <path d="M 1017.487582 1089.476484 
Q 1163.713926 1255.794891 1383.720272 1281.120356 
" clip-path="url(#p92cb47922b)" style="fill: none; stroke: #008000; stroke-opacity: 0.5; stroke-width: 4.793189; stroke-linecap: round"/>
   </g>
   <g id="patch_17">
    <path d="M 1003.151239 1082.668752 
Q 696.190412 1074.737981 464.575673 1276.33861 
" clip-path="url(#p92cb47922b)" style="fill: none; stroke: #008000; stroke-opacity: 0.5; stroke-width: 8.221613; stroke-linecap: round"/>
   </g>
   <g id="patch_18">
    <path d="M 1018.414639 1077.32853 
Q 1083.953523 1019.900381 1097.23602 933.778629 
" clip-path="url(#p92cb47922b)" style="fill: none; stroke: #008000; stroke-opacity: 0.5; stroke-width: 12.263269; stroke-linecap: round"/>
   </g>
   <g id="patch_19">
    <path d="M 1004.823008 1088.056274 
Q 798.038326 1241.455993 748.394517 1494.096409 
" clip-path="url(#p92cb47922b)" style="fill: none; stroke: #008000; stroke-opacity: 0.5; stroke-width: 4.387828; stroke-linecap: round"/>
   </g>
   <g id="patch_20">
    <path d="M 840.21223 1091.444334 
Q 889.857444 1344.083862 1096.64353 1497.482695 
" clip-path="url(#p92cb47922b)" style="fill: none; stroke: #008000; stroke-opacity: 0.5; stroke-width: 4.167282; stroke-linecap: round"/>
   </g>
   <g id="patch_21">
    <path d="M 841.735065 1074.863547 
Q 898.537618 925.199969 841.735042 775.536392 
" clip-path="url(#p92cb47922b)" style="fill: none; stroke: #008000; stroke-opacity: 0.5; stroke-width: 8.853452; stroke-linecap: round"/>
   </g>
   <g id="patch_22">
    <path d="M 837.404528 1074.352905 
Q 824.121396 988.231502 758.581876 930.803702 
" clip-path="url(#p92cb47922b)" style="fill: none; stroke: #008000; stroke-opacity: 0.5; stroke-width: 8.279878; stroke-linecap: round"/>
   </g>
   <g id="patch_23">
    <path d="M 829.977632 1083.868133 
Q 609.971913 1109.194795 463.746195 1275.514399 
" clip-path="url(#p92cb47922b)" style="fill: none; stroke: #008000; stroke-opacity: 0.5; stroke-width: 6.296371; stroke-linecap: round"/>
   </g>
   <g id="patch_24">
    <path d="M 847.114002 1081.432833 
Q 998.420739 1053.348639 1093.154136 932.072413 
" clip-path="url(#p92cb47922b)" style="fill: none; stroke: #008000; stroke-opacity: 0.5; stroke-width: 8.879037; stroke-linecap: round"/>
   </g>
   <g id="patch_25">
    <path d="M 845.235239 1077.382577 
Q 985.528527 958.326998 1010.692851 776.054942 
" clip-path="url(#p92cb47922b)" style="fill: none; stroke: #008000; stroke-opacity: 0.5; stroke-width: 6.060367; stroke-linecap: round"/>
   </g>
   <g id="patch_26">
    <path d="M 833.776837 1090.130812 
Q 711.838566 1275.079422 745.404589 1494.049873 
" clip-path="url(#p92cb47922b)" style="fill: none; stroke: #008000; stroke-opacity: 0.5; stroke-width: 4.167282; stroke-linecap: round"/>
   </g>
   <g id="patch_27">
    <path d="M 1097.034732 1496.985994 
Q 823.928691 1266.229201 466.719798 1281.645742 
" clip-path="url(#p92cb47922b)" style="fill: none; stroke: #008000; stroke-opacity: 0.5; stroke-width: 4.778416; stroke-linecap: round"/>
   </g>
   <g id="patch_28">
    <path d="M 1110.827462 1497.785742 
Q 1415.975894 1291.884812 1500.644242 933.63589 
" clip-path="url(#p92cb47922b)" style="fill: none; stroke: #ff0000; stroke-opacity: 0.5; stroke-width: 4.602145; stroke-linecap: round"/>
   </g>
   <g id="patch_29">
    <path d="M 1105.790417 1494.218273 
Q 1201.584717 1117.066944 1015.970332 775.062912 
" clip-path="url(#p92cb47922b)" style="fill: none; stroke: #008000; stroke-opacity: 0.5; stroke-width: 4.069956; stroke-linecap: round"/>
   </g>
   <g id="patch_30">
    <path d="M 1095.560201 1499.448737 
Q 925.199294 1434.385303 754.838387 1499.449276 
" clip-path="url(#p92cb47922b)" style="fill: none; stroke: #008000; stroke-opacity: 0.5; stroke-width: 5.478927; stroke-linecap: round"/>
   </g>
   <g id="patch_31">
    <path d="M 831.985361 773.07147 
Q 766.446477 830.499619 753.16398 916.621371 
" clip-path="url(#p92cb47922b)" style="fill: none; stroke: #008000; stroke-opacity: 0.5; stroke-width: 4.751092; stroke-linecap: round"/>
   </g>
   <g id="patch_32">
    <path d="M 843.854477 774.336511 
Q 938.587343 895.61361 1089.89355 923.698678 
" clip-path="url(#p92cb47922b)" style="fill: none; stroke: #008000; stroke-opacity: 0.5; stroke-width: 6.010484; stroke-linecap: round"/>
   </g>
   <g id="patch_33">
    <path d="M 846.68026 770.551475 
Q 925.199969 799.025413 1003.719678 770.551497 
" clip-path="url(#p92cb47922b)" style="fill: none; stroke: #008000; stroke-opacity: 0.5; stroke-width: 10.243469; stroke-linecap: round"/>
   </g>
   <g id="patch_34">
    <path d="M 744.410419 929.407335 
Q 536.098651 1046.85993 460.749535 1273.821469 
" clip-path="url(#p92cb47922b)" style="fill: none; stroke: #008000; stroke-opacity: 0.5; stroke-width: 6.586311; stroke-linecap: round"/>
   </g>
   <g id="patch_35">
    <path d="M 760.043439 928.350602 
Q 925.198337 991.337075 1090.353235 928.351871 
" clip-path="url(#p92cb47922b)" style="fill: none; stroke: #008000; stroke-opacity: 0.5; stroke-width: 14.404094; stroke-linecap: round"/>
   </g>
   <g id="patch_36">
    <path d="M 466.654577 1280.917435 
Q 848.066528 1228.914916 1092.938524 931.901391 
" clip-path="url(#p92cb47922b)" style="fill: none; stroke: #008000; stroke-opacity: 0.5; stroke-width: 5.290161; stroke-linecap: round"/>
   </g>
   <g id="patch_37">
    <path d="M 1106.484557 928.361159 
Q 1300.513552 1002.87592 1494.542548 928.359728 
" clip-path="url(#p92cb47922b)" style="fill: none; stroke: #ff0000; stroke-opacity: 0.5; stroke-width: 4.334714; stroke-linecap: round"/>
   </g>
   <g id="patch_38">
    <path d="M 1091.512763 930.423018 
Q 809.835368 1145.227165 748.243509 1494.067143 
" clip-path="url(#p92cb47922b)" style="fill: none; stroke: #008000; stroke-opacity: 0.5; stroke-width: 4.897607; stroke-linecap: round"/>
   </g>
   <g id="matplotlib.axis_1">
    <g id="xtick_1"/>
    <g id="xtick_2"/>
    <g id="xtick_3"/>
    <g id="xtick_4"/>
    <g id="xtick_5"/>
    <g id="xtick_6"/>
    <g id="xtick_7"/>
   </g>
   <g id="matplotlib.axis_2">
    <g id="ytick_1"/>
    <g id="ytick_2"/>
    <g id="ytick_3"/>
    <g id="ytick_4"/>
    <g id="ytick_5"/>
   </g>
   <g id="PathCollection_1">
    <path d="M 746.772785 383.152742 
C 756.14913 383.152742 765.142707 379.42748 771.772785 372.797403 
C 778.402862 366.167325 782.128124 357.173748 782.128124 347.797403 
C 782.128124 338.421057 778.402862 329.42748 771.772785 322.797403 
C 765.142707 316.167325 756.14913 312.442064 746.772785 312.442064 
C 737.396439 312.442064 728.402862 316.167325 721.772785 322.797403 
C 715.142707 329.42748 711.417446 338.421057 711.417446 347.797403 
C 711.417446 357.173748 715.142707 366.167325 721.772785 372.797403 
C 728.402862 379.42748 737.396439 383.152742 746.772785 383.152742 
z
" clip-path="url(#p92cb47922b)" style="fill: #ff6700; stroke: #ff6700; stroke-opacity: 0.5; stroke-width: 11.968268"/>
    <path d="M 347.797403 952.586128 
C 355.060289 952.586128 362.026683 949.700553 367.162319 944.564917 
C 372.297955 939.429281 375.18353 932.462886 375.18353 925.2 
C 375.18353 917.937114 372.297955 910.970719 367.162319 905.835083 
C 362.026683 900.699447 355.060289 897.813872 347.797403 897.813872 
C 340.534517 897.813872 333.568122 900.699447 328.432486 905.835083 
C 323.29685 910.970719 320.411275 917.937114 320.411275 925.2 
C 320.411275 932.462886 323.29685 939.429281 328.432486 944.564917 
C 333.568122 949.700553 340.534517 952.586128 347.797403 952.586128 
z
" clip-path="url(#p92cb47922b)" style="fill: #ff6700; stroke: #ff6700; stroke-opacity: 0.5; stroke-width: 9.270581"/>
    <path d="M 1103.627215 379.420179 
C 1112.013674 379.420179 1120.057773 376.088204 1125.987895 370.158082 
C 1131.918017 364.227961 1135.249992 356.183861 1135.249992 347.797403 
C 1135.249992 339.410944 1131.918017 331.366844 1125.987895 325.436723 
C 1120.057773 319.506601 1112.013674 316.174626 1103.627215 316.174626 
C 1095.240757 316.174626 1087.196657 319.506601 1081.266535 325.436723 
C 1075.336414 331.366844 1072.004439 339.410944 1072.004439 347.797403 
C 1072.004439 356.183861 1075.336414 364.227961 1081.266535 370.158082 
C 1087.196657 376.088204 1095.240757 379.420179 1103.627215 379.420179 
z
" clip-path="url(#p92cb47922b)" style="fill: #ff6700; stroke: #ff6700; stroke-opacity: 0.5; stroke-width: 10.704745"/>
    <path d="M 458.071486 595.731697 
C 465.334372 595.731697 472.300767 592.846122 477.436403 587.710486 
C 482.572039 582.57485 485.457614 575.608456 485.457614 568.34557 
C 485.457614 561.082684 482.572039 554.116289 477.436403 548.980653 
C 472.300767 543.845017 465.334372 540.959442 458.071486 540.959442 
C 450.8086 540.959442 443.842205 543.845017 438.706569 548.980653 
C 433.570933 554.116289 430.685358 561.082684 430.685358 568.34557 
C 430.685358 575.608456 433.570933 582.57485 438.706569 587.710486 
C 443.842205 592.846122 450.8086 595.731697 458.071486 595.731697 
z
" clip-path="url(#p92cb47922b)" style="fill: #ff6700; stroke: #ff6700; stroke-opacity: 0.5; stroke-width: 9.270581"/>
    <path d="M 1392.328514 599.968346 
C 1400.714972 599.968346 1408.759072 596.636371 1414.689194 590.706249 
C 1420.619315 584.776128 1423.95129 576.732028 1423.95129 568.34557 
C 1423.95129 559.959111 1420.619315 551.915011 1414.689194 545.98489 
C 1408.759072 540.054768 1400.714972 536.722793 1392.328514 536.722793 
C 1383.942056 536.722793 1375.897956 540.054768 1369.967834 545.98489 
C 1364.037713 551.915011 1360.705737 559.959111 1360.705737 568.34557 
C 1360.705737 576.732028 1364.037713 584.776128 1369.967834 590.706249 
C 1375.897956 596.636371 1383.942056 599.968346 1392.328514 599.968346 
z
" clip-path="url(#p92cb47922b)" style="fill: #ff6700; stroke: #ff6700; stroke-opacity: 0.5; stroke-width: 10.704745"/>
    <path d="M 1011.81039 1130.367793 
C 1024.390077 1130.367793 1036.456227 1125.369831 1045.351409 1116.474648 
C 1054.246592 1107.579466 1059.244555 1095.513316 1059.244555 1082.933629 
C 1059.244555 1070.353941 1054.246592 1058.287791 1045.351409 1049.392609 
C 1036.456227 1040.497426 1024.390077 1035.499464 1011.81039 1035.499464 
C 999.230702 1035.499464 987.164552 1040.497426 978.26937 1049.392609 
C 969.374188 1058.287791 964.376225 1070.353941 964.376225 1082.933629 
C 964.376225 1095.513316 969.374188 1107.579466 978.26937 1116.474648 
C 987.164552 1125.369831 999.230702 1130.367793 1011.81039 1130.367793 
z
" clip-path="url(#p92cb47922b)" style="fill: #2900cb; stroke: #2900cb; stroke-opacity: 0.5; stroke-width: 16.057117"/>
    <path d="M 838.58961 1130.367793 
C 851.169298 1130.367793 863.235448 1125.369831 872.13063 1116.474648 
C 881.025812 1107.579466 886.023775 1095.513316 886.023775 1082.933629 
C 886.023775 1070.353941 881.025812 1058.287791 872.13063 1049.392609 
C 863.235448 1040.497426 851.169298 1035.499464 838.58961 1035.499464 
C 826.009923 1035.499464 813.943773 1040.497426 805.048591 1049.392609 
C 796.153408 1058.287791 791.155445 1070.353941 791.155445 1082.933629 
C 791.155445 1095.513316 796.153408 1107.579466 805.048591 1116.474648 
C 813.943773 1125.369831 826.009923 1130.367793 838.58961 1130.367793 
z
" clip-path="url(#p92cb47922b)" style="fill: #2900cb; stroke: #2900cb; stroke-opacity: 0.5; stroke-width: 16.057117"/>
    <path d="M 1103.627215 1544.435599 
C 1114.721457 1544.435599 1125.362801 1540.02781 1133.207614 1532.182996 
C 1141.052428 1524.338183 1145.460217 1513.696839 1145.460217 1502.602597 
C 1145.460217 1491.508356 1141.052428 1480.867012 1133.207614 1473.022198 
C 1125.362801 1465.177385 1114.721457 1460.769596 1103.627215 1460.769596 
C 1092.532974 1460.769596 1081.89163 1465.177385 1074.046816 1473.022198 
C 1066.202003 1480.867012 1061.794214 1491.508356 1061.794214 1502.602597 
C 1061.794214 1513.696839 1066.202003 1524.338183 1074.046816 1532.182996 
C 1081.89163 1540.02781 1092.532974 1544.435599 1103.627215 1544.435599 
z
" clip-path="url(#p92cb47922b)" style="fill: #ff6700; stroke: #ff6700; stroke-opacity: 0.5; stroke-width: 14.161046"/>
    <path d="M 838.58961 812.187731 
C 850.449854 812.187731 861.825929 807.475606 870.212387 799.089148 
C 878.598845 790.70269 883.31097 779.326615 883.31097 767.466371 
C 883.31097 755.606128 878.598845 744.230053 870.212387 735.843595 
C 861.825929 727.457136 850.449854 722.745012 838.58961 722.745012 
C 826.729367 722.745012 815.353292 727.457136 806.966834 735.843595 
C 798.580375 744.230053 793.868251 755.606128 793.868251 767.466371 
C 793.868251 779.326615 798.580375 790.70269 806.966834 799.089148 
C 815.353292 807.475606 826.729367 812.187731 838.58961 812.187731 
z
" clip-path="url(#p92cb47922b)" style="fill: #2900cb; stroke: #2900cb; stroke-opacity: 0.5; stroke-width: 15.138795"/>
    <path d="M 751.979221 963.929833 
C 762.250493 963.929833 772.102463 959.849014 779.365349 952.586128 
C 786.628235 945.323242 790.709054 935.471272 790.709054 925.2 
C 790.709054 914.928728 786.628235 905.076758 779.365349 897.813872 
C 772.102463 890.550986 762.250493 886.470167 751.979221 886.470167 
C 741.707949 886.470167 731.855979 890.550986 724.593093 897.813872 
C 717.330207 905.076758 713.249387 914.928728 713.249387 925.2 
C 713.249387 935.471272 717.330207 945.323242 724.593093 952.586128 
C 731.855979 959.849014 741.707949 963.929833 751.979221 963.929833 
z
" clip-path="url(#p92cb47922b)" style="fill: #2900cb; stroke: #2900cb; stroke-opacity: 0.5; stroke-width: 13.110581"/>
    <path d="M 1392.328514 1304.41511 
C 1398.258635 1304.41511 1403.946673 1302.059048 1408.139902 1297.865819 
C 1412.333131 1293.672589 1414.689194 1287.984552 1414.689194 1282.05443 
C 1414.689194 1276.124309 1412.333131 1270.436271 1408.139902 1266.243042 
C 1403.946673 1262.049813 1398.258635 1259.693751 1392.328514 1259.693751 
C 1386.398392 1259.693751 1380.710355 1262.049813 1376.517126 1266.243042 
C 1372.323896 1270.436271 1369.967834 1276.124309 1369.967834 1282.05443 
C 1369.967834 1287.984552 1372.323896 1293.672589 1376.517126 1297.865819 
C 1380.710355 1302.059048 1386.398392 1304.41511 1392.328514 1304.41511 
z
" clip-path="url(#p92cb47922b)" style="fill: #ff6700; stroke: #ff6700; stroke-opacity: 0.5; stroke-width: 7.569398"/>
    <path d="M 458.071486 1320.784264 
C 468.342758 1320.784264 478.194728 1316.703444 485.457614 1309.440558 
C 492.7205 1302.177672 496.80132 1292.325702 496.80132 1282.05443 
C 496.80132 1271.783158 492.7205 1261.931189 485.457614 1254.668303 
C 478.194728 1247.405417 468.342758 1243.324597 458.071486 1243.324597 
C 447.800214 1243.324597 437.948244 1247.405417 430.685358 1254.668303 
C 423.422472 1261.931189 419.341653 1271.783158 419.341653 1282.05443 
C 419.341653 1292.325702 423.422472 1302.177672 430.685358 1309.440558 
C 437.948244 1316.703444 447.800214 1320.784264 458.071486 1320.784264 
z
" clip-path="url(#p92cb47922b)" style="fill: #ff6700; stroke: #ff6700; stroke-opacity: 0.5; stroke-width: 13.110581"/>
    <path d="M 1098.420779 969.92136 
C 1110.281022 969.92136 1121.657097 965.209235 1130.043556 956.822777 
C 1138.430014 948.436318 1143.142139 937.060243 1143.142139 925.2 
C 1143.142139 913.339757 1138.430014 901.963682 1130.043556 893.577223 
C 1121.657097 885.190765 1110.281022 880.47864 1098.420779 880.47864 
C 1086.560536 880.47864 1075.184461 885.190765 1066.798003 893.577223 
C 1058.411544 901.963682 1053.69942 913.339757 1053.69942 925.2 
C 1053.69942 937.060243 1058.411544 948.436318 1066.798003 956.822777 
C 1075.184461 965.209235 1086.560536 969.92136 1098.420779 969.92136 
z
" clip-path="url(#p92cb47922b)" style="fill: #2900cb; stroke: #2900cb; stroke-opacity: 0.5; stroke-width: 15.138795"/>
    <path d="M 746.772785 1537.957936 
C 756.14913 1537.957936 765.142707 1534.232675 771.772785 1527.602597 
C 778.402862 1520.97252 782.128124 1511.978943 782.128124 1502.602597 
C 782.128124 1493.226252 778.402862 1484.232675 771.772785 1477.602597 
C 765.142707 1470.97252 756.14913 1467.247258 746.772785 1467.247258 
C 737.396439 1467.247258 728.402862 1470.97252 721.772785 1477.602597 
C 715.142707 1484.232675 711.417446 1493.226252 711.417446 1502.602597 
C 711.417446 1511.978943 715.142707 1520.97252 721.772785 1527.602597 
C 728.402862 1534.232675 737.396439 1537.957936 746.772785 1537.957936 
z
" clip-path="url(#p92cb47922b)" style="fill: #ff6700; stroke: #ff6700; stroke-opacity: 0.5; stroke-width: 11.968268"/>
    <path d="M 1011.81039 802.821711 
C 1021.186735 802.821711 1030.180312 799.096449 1036.81039 792.466371 
C 1043.440467 785.836294 1047.165729 776.842717 1047.165729 767.466371 
C 1047.165729 758.090026 1043.440467 749.096449 1036.81039 742.466371 
C 1030.180312 735.836294 1021.186735 732.111032 1011.81039 732.111032 
C 1002.434044 732.111032 993.440467 735.836294 986.81039 742.466371 
C 980.180312 749.096449 976.455051 758.090026 976.455051 767.466371 
C 976.455051 776.842717 980.180312 785.836294 986.81039 792.466371 
C 993.440467 799.096449 1002.434044 802.821711 1011.81039 802.821711 
z
" clip-path="url(#p92cb47922b)" style="fill: #2900cb; stroke: #2900cb; stroke-opacity: 0.5; stroke-width: 11.968268"/>
    <path d="M 1502.602597 956.822777 
C 1510.989056 956.822777 1519.033156 953.490801 1524.963277 947.56068 
C 1530.893399 941.630558 1534.225374 933.586458 1534.225374 925.2 
C 1534.225374 916.813542 1530.893399 908.769442 1524.963277 902.83932 
C 1519.033156 896.909199 1510.989056 893.577223 1502.602597 893.577223 
C 1494.216139 893.577223 1486.172039 896.909199 1480.241918 902.83932 
C 1474.311796 908.769442 1470.979821 916.813542 1470.979821 925.2 
C 1470.979821 933.586458 1474.311796 941.630558 1480.241918 947.56068 
C 1486.172039 953.490801 1494.216139 956.822777 1502.602597 956.822777 
z
" clip-path="url(#p92cb47922b)" style="fill: #ff6700; stroke: #ff6700; stroke-opacity: 0.5; stroke-width: 10.704745"/>
   </g>
   <g id="patch_39">
    <path d="M 36 1814.4 
L 36 36 
" style="fill: none; stroke: #000000; stroke-width: 0.8; stroke-linejoin: miter; stroke-linecap: square"/>
   </g>
   <g id="patch_40">
    <path d="M 1814.4 1814.4 
L 1814.4 36 
" style="fill: none; stroke: #000000; stroke-width: 0.8; stroke-linejoin: miter; stroke-linecap: square"/>
   </g>
   <g id="patch_41">
    <path d="M 36 1814.4 
L 1814.4 1814.4 
" style="fill: none; stroke: #000000; stroke-width: 0.8; stroke-linejoin: miter; stroke-linecap: square"/>
   </g>
   <g id="patch_42">
    <path d="M 36 36 
L 1814.4 36 
" style="fill: none; stroke: #000000; stroke-width: 0.8; stroke-linejoin: miter; stroke-linecap: square"/>
   </g>
   <g id="text_1">
    <g clip-path="url(#p92cb47922b)">
     <!-- Eating habits -->
     <g transform="translate(615.310285 358.834903) scale(0.4 -0.4)">
      <defs>
       <path id="DejaVuSans-45" d="M 628 4666 
L 3578 4666 
L 3578 4134 
L 1259 4134 
L 1259 2753 
L 3481 2753 
L 3481 2222 
L 1259 2222 
L 1259 531 
L 3634 531 
L 3634 0 
L 628 0 
L 628 4666 
z
" transform="scale(0.015625)"/>
       <path id="DejaVuSans-61" d="M 2194 1759 
Q 1497 1759 1228 1600 
Q 959 1441 959 1056 
Q 959 750 1161 570 
Q 1363 391 1709 391 
Q 2188 391 2477 730 
Q 2766 1069 2766 1631 
L 2766 1759 
L 2194 1759 
z
M 3341 1997 
L 3341 0 
L 2766 0 
L 2766 531 
Q 2569 213 2275 61 
Q 1981 -91 1556 -91 
Q 1019 -91 701 211 
Q 384 513 384 1019 
Q 384 1609 779 1909 
Q 1175 2209 1959 2209 
L 2766 2209 
L 2766 2266 
Q 2766 2663 2505 2880 
Q 2244 3097 1772 3097 
Q 1472 3097 1187 3025 
Q 903 2953 641 2809 
L 641 3341 
Q 956 3463 1253 3523 
Q 1550 3584 1831 3584 
Q 2591 3584 2966 3190 
Q 3341 2797 3341 1997 
z
" transform="scale(0.015625)"/>
       <path id="DejaVuSans-74" d="M 1172 4494 
L 1172 3500 
L 2356 3500 
L 2356 3053 
L 1172 3053 
L 1172 1153 
Q 1172 725 1289 603 
Q 1406 481 1766 481 
L 2356 481 
L 2356 0 
L 1766 0 
Q 1100 0 847 248 
Q 594 497 594 1153 
L 594 3053 
L 172 3053 
L 172 3500 
L 594 3500 
L 594 4494 
L 1172 4494 
z
" transform="scale(0.015625)"/>
       <path id="DejaVuSans-69" d="M 603 3500 
L 1178 3500 
L 1178 0 
L 603 0 
L 603 3500 
z
M 603 4863 
L 1178 4863 
L 1178 4134 
L 603 4134 
L 603 4863 
z
" transform="scale(0.015625)"/>
       <path id="DejaVuSans-6e" d="M 3513 2113 
L 3513 0 
L 2938 0 
L 2938 2094 
Q 2938 2591 2744 2837 
Q 2550 3084 2163 3084 
Q 1697 3084 1428 2787 
Q 1159 2491 1159 1978 
L 1159 0 
L 581 0 
L 581 3500 
L 1159 3500 
L 1159 2956 
Q 1366 3272 1645 3428 
Q 1925 3584 2291 3584 
Q 2894 3584 3203 3211 
Q 3513 2838 3513 2113 
z
" transform="scale(0.015625)"/>
       <path id="DejaVuSans-67" d="M 2906 1791 
Q 2906 2416 2648 2759 
Q 2391 3103 1925 3103 
Q 1463 3103 1205 2759 
Q 947 2416 947 1791 
Q 947 1169 1205 825 
Q 1463 481 1925 481 
Q 2391 481 2648 825 
Q 2906 1169 2906 1791 
z
M 3481 434 
Q 3481 -459 3084 -895 
Q 2688 -1331 1869 -1331 
Q 1566 -1331 1297 -1286 
Q 1028 -1241 775 -1147 
L 775 -588 
Q 1028 -725 1275 -790 
Q 1522 -856 1778 -856 
Q 2344 -856 2625 -561 
Q 2906 -266 2906 331 
L 2906 616 
Q 2728 306 2450 153 
Q 2172 0 1784 0 
Q 1141 0 747 490 
Q 353 981 353 1791 
Q 353 2603 747 3093 
Q 1141 3584 1784 3584 
Q 2172 3584 2450 3431 
Q 2728 3278 2906 2969 
L 2906 3500 
L 3481 3500 
L 3481 434 
z
" transform="scale(0.015625)"/>
       <path id="DejaVuSans-20" transform="scale(0.015625)"/>
       <path id="DejaVuSans-68" d="M 3513 2113 
L 3513 0 
L 2938 0 
L 2938 2094 
Q 2938 2591 2744 2837 
Q 2550 3084 2163 3084 
Q 1697 3084 1428 2787 
Q 1159 2491 1159 1978 
L 1159 0 
L 581 0 
L 581 4863 
L 1159 4863 
L 1159 2956 
Q 1366 3272 1645 3428 
Q 1925 3584 2291 3584 
Q 2894 3584 3203 3211 
Q 3513 2838 3513 2113 
z
" transform="scale(0.015625)"/>
       <path id="DejaVuSans-62" d="M 3116 1747 
Q 3116 2381 2855 2742 
Q 2594 3103 2138 3103 
Q 1681 3103 1420 2742 
Q 1159 2381 1159 1747 
Q 1159 1113 1420 752 
Q 1681 391 2138 391 
Q 2594 391 2855 752 
Q 3116 1113 3116 1747 
z
M 1159 2969 
Q 1341 3281 1617 3432 
Q 1894 3584 2278 3584 
Q 2916 3584 3314 3078 
Q 3713 2572 3713 1747 
Q 3713 922 3314 415 
Q 2916 -91 2278 -91 
Q 1894 -91 1617 61 
Q 1341 213 1159 525 
L 1159 0 
L 581 0 
L 581 4863 
L 1159 4863 
L 1159 2969 
z
" transform="scale(0.015625)"/>
       <path id="DejaVuSans-73" d="M 2834 3397 
L 2834 2853 
Q 2591 2978 2328 3040 
Q 2066 3103 1784 3103 
Q 1356 3103 1142 2972 
Q 928 2841 928 2578 
Q 928 2378 1081 2264 
Q 1234 2150 1697 2047 
L 1894 2003 
Q 2506 1872 2764 1633 
Q 3022 1394 3022 966 
Q 3022 478 2636 193 
Q 2250 -91 1575 -91 
Q 1294 -91 989 -36 
Q 684 19 347 128 
L 347 722 
Q 666 556 975 473 
Q 1284 391 1588 391 
Q 1994 391 2212 530 
Q 2431 669 2431 922 
Q 2431 1156 2273 1281 
Q 2116 1406 1581 1522 
L 1381 1569 
Q 847 1681 609 1914 
Q 372 2147 372 2553 
Q 372 3047 722 3315 
Q 1072 3584 1716 3584 
Q 2034 3584 2315 3537 
Q 2597 3491 2834 3397 
z
" transform="scale(0.015625)"/>
      </defs>
      <use xlink:href="#DejaVuSans-45"/>
      <use xlink:href="#DejaVuSans-61" transform="translate(63.183594 0)"/>
      <use xlink:href="#DejaVuSans-74" transform="translate(124.462891 0)"/>
      <use xlink:href="#DejaVuSans-69" transform="translate(163.671875 0)"/>
      <use xlink:href="#DejaVuSans-6e" transform="translate(191.455078 0)"/>
      <use xlink:href="#DejaVuSans-67" transform="translate(254.833984 0)"/>
      <use xlink:href="#DejaVuSans-20" transform="translate(318.310547 0)"/>
      <use xlink:href="#DejaVuSans-68" transform="translate(350.097656 0)"/>
      <use xlink:href="#DejaVuSans-61" transform="translate(413.476562 0)"/>
      <use xlink:href="#DejaVuSans-62" transform="translate(474.755859 0)"/>
      <use xlink:href="#DejaVuSans-69" transform="translate(538.232422 0)"/>
      <use xlink:href="#DejaVuSans-74" transform="translate(566.015625 0)"/>
      <use xlink:href="#DejaVuSans-73" transform="translate(605.224609 0)"/>
     </g>
    </g>
   </g>
   <g id="text_2">
    <g clip-path="url(#p92cb47922b)">
     <!-- Medication, disease, or injury -->
     <g transform="translate(53.697403 936.2375) scale(0.4 -0.4)">
      <defs>
       <path id="DejaVuSans-4d" d="M 628 4666 
L 1569 4666 
L 2759 1491 
L 3956 4666 
L 4897 4666 
L 4897 0 
L 4281 0 
L 4281 4097 
L 3078 897 
L 2444 897 
L 1241 4097 
L 1241 0 
L 628 0 
L 628 4666 
z
" transform="scale(0.015625)"/>
       <path id="DejaVuSans-65" d="M 3597 1894 
L 3597 1613 
L 953 1613 
Q 991 1019 1311 708 
Q 1631 397 2203 397 
Q 2534 397 2845 478 
Q 3156 559 3463 722 
L 3463 178 
Q 3153 47 2828 -22 
Q 2503 -91 2169 -91 
Q 1331 -91 842 396 
Q 353 884 353 1716 
Q 353 2575 817 3079 
Q 1281 3584 2069 3584 
Q 2775 3584 3186 3129 
Q 3597 2675 3597 1894 
z
M 3022 2063 
Q 3016 2534 2758 2815 
Q 2500 3097 2075 3097 
Q 1594 3097 1305 2825 
Q 1016 2553 972 2059 
L 3022 2063 
z
" transform="scale(0.015625)"/>
       <path id="DejaVuSans-64" d="M 2906 2969 
L 2906 4863 
L 3481 4863 
L 3481 0 
L 2906 0 
L 2906 525 
Q 2725 213 2448 61 
Q 2172 -91 1784 -91 
Q 1150 -91 751 415 
Q 353 922 353 1747 
Q 353 2572 751 3078 
Q 1150 3584 1784 3584 
Q 2172 3584 2448 3432 
Q 2725 3281 2906 2969 
z
M 947 1747 
Q 947 1113 1208 752 
Q 1469 391 1925 391 
Q 2381 391 2643 752 
Q 2906 1113 2906 1747 
Q 2906 2381 2643 2742 
Q 2381 3103 1925 3103 
Q 1469 3103 1208 2742 
Q 947 2381 947 1747 
z
" transform="scale(0.015625)"/>
       <path id="DejaVuSans-63" d="M 3122 3366 
L 3122 2828 
Q 2878 2963 2633 3030 
Q 2388 3097 2138 3097 
Q 1578 3097 1268 2742 
Q 959 2388 959 1747 
Q 959 1106 1268 751 
Q 1578 397 2138 397 
Q 2388 397 2633 464 
Q 2878 531 3122 666 
L 3122 134 
Q 2881 22 2623 -34 
Q 2366 -91 2075 -91 
Q 1284 -91 818 406 
Q 353 903 353 1747 
Q 353 2603 823 3093 
Q 1294 3584 2113 3584 
Q 2378 3584 2631 3529 
Q 2884 3475 3122 3366 
z
" transform="scale(0.015625)"/>
       <path id="DejaVuSans-6f" d="M 1959 3097 
Q 1497 3097 1228 2736 
Q 959 2375 959 1747 
Q 959 1119 1226 758 
Q 1494 397 1959 397 
Q 2419 397 2687 759 
Q 2956 1122 2956 1747 
Q 2956 2369 2687 2733 
Q 2419 3097 1959 3097 
z
M 1959 3584 
Q 2709 3584 3137 3096 
Q 3566 2609 3566 1747 
Q 3566 888 3137 398 
Q 2709 -91 1959 -91 
Q 1206 -91 779 398 
Q 353 888 353 1747 
Q 353 2609 779 3096 
Q 1206 3584 1959 3584 
z
" transform="scale(0.015625)"/>
       <path id="DejaVuSans-2c" d="M 750 794 
L 1409 794 
L 1409 256 
L 897 -744 
L 494 -744 
L 750 256 
L 750 794 
z
" transform="scale(0.015625)"/>
       <path id="DejaVuSans-72" d="M 2631 2963 
Q 2534 3019 2420 3045 
Q 2306 3072 2169 3072 
Q 1681 3072 1420 2755 
Q 1159 2438 1159 1844 
L 1159 0 
L 581 0 
L 581 3500 
L 1159 3500 
L 1159 2956 
Q 1341 3275 1631 3429 
Q 1922 3584 2338 3584 
Q 2397 3584 2469 3576 
Q 2541 3569 2628 3553 
L 2631 2963 
z
" transform="scale(0.015625)"/>
       <path id="DejaVuSans-6a" d="M 603 3500 
L 1178 3500 
L 1178 -63 
Q 1178 -731 923 -1031 
Q 669 -1331 103 -1331 
L -116 -1331 
L -116 -844 
L 38 -844 
Q 366 -844 484 -692 
Q 603 -541 603 -63 
L 603 3500 
z
M 603 4863 
L 1178 4863 
L 1178 4134 
L 603 4134 
L 603 4863 
z
" transform="scale(0.015625)"/>
       <path id="DejaVuSans-75" d="M 544 1381 
L 544 3500 
L 1119 3500 
L 1119 1403 
Q 1119 906 1312 657 
Q 1506 409 1894 409 
Q 2359 409 2629 706 
Q 2900 1003 2900 1516 
L 2900 3500 
L 3475 3500 
L 3475 0 
L 2900 0 
L 2900 538 
Q 2691 219 2414 64 
Q 2138 -91 1772 -91 
Q 1169 -91 856 284 
Q 544 659 544 1381 
z
M 1991 3584 
L 1991 3584 
z
" transform="scale(0.015625)"/>
       <path id="DejaVuSans-79" d="M 2059 -325 
Q 1816 -950 1584 -1140 
Q 1353 -1331 966 -1331 
L 506 -1331 
L 506 -850 
L 844 -850 
Q 1081 -850 1212 -737 
Q 1344 -625 1503 -206 
L 1606 56 
L 191 3500 
L 800 3500 
L 1894 763 
L 2988 3500 
L 3597 3500 
L 2059 -325 
z
" transform="scale(0.015625)"/>
      </defs>
      <use xlink:href="#DejaVuSans-4d"/>
      <use xlink:href="#DejaVuSans-65" transform="translate(86.279297 0)"/>
      <use xlink:href="#DejaVuSans-64" transform="translate(147.802734 0)"/>
      <use xlink:href="#DejaVuSans-69" transform="translate(211.279297 0)"/>
      <use xlink:href="#DejaVuSans-63" transform="translate(239.0625 0)"/>
      <use xlink:href="#DejaVuSans-61" transform="translate(294.042969 0)"/>
      <use xlink:href="#DejaVuSans-74" transform="translate(355.322266 0)"/>
      <use xlink:href="#DejaVuSans-69" transform="translate(394.53125 0)"/>
      <use xlink:href="#DejaVuSans-6f" transform="translate(422.314453 0)"/>
      <use xlink:href="#DejaVuSans-6e" transform="translate(483.496094 0)"/>
      <use xlink:href="#DejaVuSans-2c" transform="translate(546.875 0)"/>
      <use xlink:href="#DejaVuSans-20" transform="translate(578.662109 0)"/>
      <use xlink:href="#DejaVuSans-64" transform="translate(610.449219 0)"/>
      <use xlink:href="#DejaVuSans-69" transform="translate(673.925781 0)"/>
      <use xlink:href="#DejaVuSans-73" transform="translate(701.708984 0)"/>
      <use xlink:href="#DejaVuSans-65" transform="translate(753.808594 0)"/>
      <use xlink:href="#DejaVuSans-61" transform="translate(815.332031 0)"/>
      <use xlink:href="#DejaVuSans-73" transform="translate(876.611328 0)"/>
      <use xlink:href="#DejaVuSans-65" transform="translate(928.710938 0)"/>
      <use xlink:href="#DejaVuSans-2c" transform="translate(990.234375 0)"/>
      <use xlink:href="#DejaVuSans-20" transform="translate(1022.021484 0)"/>
      <use xlink:href="#DejaVuSans-6f" transform="translate(1053.808594 0)"/>
      <use xlink:href="#DejaVuSans-72" transform="translate(1114.990234 0)"/>
      <use xlink:href="#DejaVuSans-20" transform="translate(1156.103516 0)"/>
      <use xlink:href="#DejaVuSans-69" transform="translate(1187.890625 0)"/>
      <use xlink:href="#DejaVuSans-6e" transform="translate(1215.673828 0)"/>
      <use xlink:href="#DejaVuSans-6a" transform="translate(1279.052734 0)"/>
      <use xlink:href="#DejaVuSans-75" transform="translate(1306.835938 0)"/>
      <use xlink:href="#DejaVuSans-72" transform="translate(1370.214844 0)"/>
      <use xlink:href="#DejaVuSans-79" transform="translate(1411.328125 0)"/>
     </g>
    </g>
   </g>
   <g id="text_3">
    <g clip-path="url(#p92cb47922b)">
     <!-- Pandemic -->
     <g transform="translate(1006.49909 358.834903) scale(0.4 -0.4)">
      <defs>
       <path id="DejaVuSans-50" d="M 1259 4147 
L 1259 2394 
L 2053 2394 
Q 2494 2394 2734 2622 
Q 2975 2850 2975 3272 
Q 2975 3691 2734 3919 
Q 2494 4147 2053 4147 
L 1259 4147 
z
M 628 4666 
L 2053 4666 
Q 2838 4666 3239 4311 
Q 3641 3956 3641 3272 
Q 3641 2581 3239 2228 
Q 2838 1875 2053 1875 
L 1259 1875 
L 1259 0 
L 628 0 
L 628 4666 
z
" transform="scale(0.015625)"/>
       <path id="DejaVuSans-6d" d="M 3328 2828 
Q 3544 3216 3844 3400 
Q 4144 3584 4550 3584 
Q 5097 3584 5394 3201 
Q 5691 2819 5691 2113 
L 5691 0 
L 5113 0 
L 5113 2094 
Q 5113 2597 4934 2840 
Q 4756 3084 4391 3084 
Q 3944 3084 3684 2787 
Q 3425 2491 3425 1978 
L 3425 0 
L 2847 0 
L 2847 2094 
Q 2847 2600 2669 2842 
Q 2491 3084 2119 3084 
Q 1678 3084 1418 2786 
Q 1159 2488 1159 1978 
L 1159 0 
L 581 0 
L 581 3500 
L 1159 3500 
L 1159 2956 
Q 1356 3278 1631 3431 
Q 1906 3584 2284 3584 
Q 2666 3584 2933 3390 
Q 3200 3197 3328 2828 
z
" transform="scale(0.015625)"/>
      </defs>
      <use xlink:href="#DejaVuSans-50"/>
      <use xlink:href="#DejaVuSans-61" transform="translate(55.802734 0)"/>
      <use xlink:href="#DejaVuSans-6e" transform="translate(117.082031 0)"/>
      <use xlink:href="#DejaVuSans-64" transform="translate(180.460938 0)"/>
      <use xlink:href="#DejaVuSans-65" transform="translate(243.9375 0)"/>
      <use xlink:href="#DejaVuSans-6d" transform="translate(305.460938 0)"/>
      <use xlink:href="#DejaVuSans-69" transform="translate(402.873047 0)"/>
      <use xlink:href="#DejaVuSans-63" transform="translate(430.65625 0)"/>
     </g>
    </g>
   </g>
   <g id="text_4">
    <g clip-path="url(#p92cb47922b)">
     <!-- Schedule -->
     <g transform="translate(366.162111 579.38307) scale(0.4 -0.4)">
      <defs>
       <path id="DejaVuSans-53" d="M 3425 4513 
L 3425 3897 
Q 3066 4069 2747 4153 
Q 2428 4238 2131 4238 
Q 1616 4238 1336 4038 
Q 1056 3838 1056 3469 
Q 1056 3159 1242 3001 
Q 1428 2844 1947 2747 
L 2328 2669 
Q 3034 2534 3370 2195 
Q 3706 1856 3706 1288 
Q 3706 609 3251 259 
Q 2797 -91 1919 -91 
Q 1588 -91 1214 -16 
Q 841 59 441 206 
L 441 856 
Q 825 641 1194 531 
Q 1563 422 1919 422 
Q 2459 422 2753 634 
Q 3047 847 3047 1241 
Q 3047 1584 2836 1778 
Q 2625 1972 2144 2069 
L 1759 2144 
Q 1053 2284 737 2584 
Q 422 2884 422 3419 
Q 422 4038 858 4394 
Q 1294 4750 2059 4750 
Q 2388 4750 2728 4690 
Q 3069 4631 3425 4513 
z
" transform="scale(0.015625)"/>
       <path id="DejaVuSans-6c" d="M 603 4863 
L 1178 4863 
L 1178 0 
L 603 0 
L 603 4863 
z
" transform="scale(0.015625)"/>
      </defs>
      <use xlink:href="#DejaVuSans-53"/>
      <use xlink:href="#DejaVuSans-63" transform="translate(63.476562 0)"/>
      <use xlink:href="#DejaVuSans-68" transform="translate(118.457031 0)"/>
      <use xlink:href="#DejaVuSans-65" transform="translate(181.835938 0)"/>
      <use xlink:href="#DejaVuSans-64" transform="translate(243.359375 0)"/>
      <use xlink:href="#DejaVuSans-75" transform="translate(306.835938 0)"/>
      <use xlink:href="#DejaVuSans-6c" transform="translate(370.214844 0)"/>
      <use xlink:href="#DejaVuSans-65" transform="translate(397.998047 0)"/>
     </g>
    </g>
   </g>
   <g id="text_5">
    <g clip-path="url(#p92cb47922b)">
     <!-- Women's health &amp; pregnancy -->
     <g transform="translate(1097.225389 579.38307) scale(0.4 -0.4)">
      <defs>
       <path id="DejaVuSans-57" d="M 213 4666 
L 850 4666 
L 1831 722 
L 2809 4666 
L 3519 4666 
L 4500 722 
L 5478 4666 
L 6119 4666 
L 4947 0 
L 4153 0 
L 3169 4050 
L 2175 0 
L 1381 0 
L 213 4666 
z
" transform="scale(0.015625)"/>
       <path id="DejaVuSans-27" d="M 1147 4666 
L 1147 2931 
L 616 2931 
L 616 4666 
L 1147 4666 
z
" transform="scale(0.015625)"/>
       <path id="DejaVuSans-26" d="M 1556 2509 
Q 1272 2256 1139 2004 
Q 1006 1753 1006 1478 
Q 1006 1022 1337 719 
Q 1669 416 2169 416 
Q 2466 416 2725 514 
Q 2984 613 3213 813 
L 1556 2509 
z
M 1997 2859 
L 3584 1234 
Q 3769 1513 3872 1830 
Q 3975 2147 3994 2503 
L 4575 2503 
Q 4538 2091 4375 1687 
Q 4213 1284 3922 891 
L 4794 0 
L 4006 0 
L 3559 459 
Q 3234 181 2878 45 
Q 2522 -91 2113 -91 
Q 1359 -91 881 339 
Q 403 769 403 1441 
Q 403 1841 612 2192 
Q 822 2544 1241 2853 
Q 1091 3050 1012 3245 
Q 934 3441 934 3628 
Q 934 4134 1281 4442 
Q 1628 4750 2203 4750 
Q 2463 4750 2720 4694 
Q 2978 4638 3244 4525 
L 3244 3956 
Q 2972 4103 2725 4179 
Q 2478 4256 2266 4256 
Q 1938 4256 1733 4082 
Q 1528 3909 1528 3634 
Q 1528 3475 1620 3314 
Q 1713 3153 1997 2859 
z
" transform="scale(0.015625)"/>
       <path id="DejaVuSans-70" d="M 1159 525 
L 1159 -1331 
L 581 -1331 
L 581 3500 
L 1159 3500 
L 1159 2969 
Q 1341 3281 1617 3432 
Q 1894 3584 2278 3584 
Q 2916 3584 3314 3078 
Q 3713 2572 3713 1747 
Q 3713 922 3314 415 
Q 2916 -91 2278 -91 
Q 1894 -91 1617 61 
Q 1341 213 1159 525 
z
M 3116 1747 
Q 3116 2381 2855 2742 
Q 2594 3103 2138 3103 
Q 1681 3103 1420 2742 
Q 1159 2381 1159 1747 
Q 1159 1113 1420 752 
Q 1681 391 2138 391 
Q 2594 391 2855 752 
Q 3116 1113 3116 1747 
z
" transform="scale(0.015625)"/>
      </defs>
      <use xlink:href="#DejaVuSans-57"/>
      <use xlink:href="#DejaVuSans-6f" transform="translate(93.001953 0)"/>
      <use xlink:href="#DejaVuSans-6d" transform="translate(154.183594 0)"/>
      <use xlink:href="#DejaVuSans-65" transform="translate(251.595703 0)"/>
      <use xlink:href="#DejaVuSans-6e" transform="translate(313.119141 0)"/>
      <use xlink:href="#DejaVuSans-27" transform="translate(376.498047 0)"/>
      <use xlink:href="#DejaVuSans-73" transform="translate(403.988281 0)"/>
      <use xlink:href="#DejaVuSans-20" transform="translate(456.087891 0)"/>
      <use xlink:href="#DejaVuSans-68" transform="translate(487.875 0)"/>
      <use xlink:href="#DejaVuSans-65" transform="translate(551.253906 0)"/>
      <use xlink:href="#DejaVuSans-61" transform="translate(612.777344 0)"/>
      <use xlink:href="#DejaVuSans-6c" transform="translate(674.056641 0)"/>
      <use xlink:href="#DejaVuSans-74" transform="translate(701.839844 0)"/>
      <use xlink:href="#DejaVuSans-68" transform="translate(741.048828 0)"/>
      <use xlink:href="#DejaVuSans-20" transform="translate(804.427734 0)"/>
      <use xlink:href="#DejaVuSans-26" transform="translate(836.214844 0)"/>
      <use xlink:href="#DejaVuSans-20" transform="translate(914.193359 0)"/>
      <use xlink:href="#DejaVuSans-70" transform="translate(945.980469 0)"/>
      <use xlink:href="#DejaVuSans-72" transform="translate(1009.457031 0)"/>
      <use xlink:href="#DejaVuSans-65" transform="translate(1048.320312 0)"/>
      <use xlink:href="#DejaVuSans-67" transform="translate(1109.84375 0)"/>
      <use xlink:href="#DejaVuSans-6e" transform="translate(1173.320312 0)"/>
      <use xlink:href="#DejaVuSans-61" transform="translate(1236.699219 0)"/>
      <use xlink:href="#DejaVuSans-6e" transform="translate(1297.978516 0)"/>
      <use xlink:href="#DejaVuSans-63" transform="translate(1361.357422 0)"/>
      <use xlink:href="#DejaVuSans-79" transform="translate(1416.337891 0)"/>
     </g>
    </g>
   </g>
   <g id="text_6">
    <g clip-path="url(#p92cb47922b)">
     <!-- Emotional eating score (1-10) -->
     <g transform="translate(714.20414 1093.971129) scale(0.4 -0.4)">
      <defs>
       <path id="DejaVuSans-28" d="M 1984 4856 
Q 1566 4138 1362 3434 
Q 1159 2731 1159 2009 
Q 1159 1288 1364 580 
Q 1569 -128 1984 -844 
L 1484 -844 
Q 1016 -109 783 600 
Q 550 1309 550 2009 
Q 550 2706 781 3412 
Q 1013 4119 1484 4856 
L 1984 4856 
z
" transform="scale(0.015625)"/>
       <path id="DejaVuSans-31" d="M 794 531 
L 1825 531 
L 1825 4091 
L 703 3866 
L 703 4441 
L 1819 4666 
L 2450 4666 
L 2450 531 
L 3481 531 
L 3481 0 
L 794 0 
L 794 531 
z
" transform="scale(0.015625)"/>
       <path id="DejaVuSans-2d" d="M 313 2009 
L 1997 2009 
L 1997 1497 
L 313 1497 
L 313 2009 
z
" transform="scale(0.015625)"/>
       <path id="DejaVuSans-30" d="M 2034 4250 
Q 1547 4250 1301 3770 
Q 1056 3291 1056 2328 
Q 1056 1369 1301 889 
Q 1547 409 2034 409 
Q 2525 409 2770 889 
Q 3016 1369 3016 2328 
Q 3016 3291 2770 3770 
Q 2525 4250 2034 4250 
z
M 2034 4750 
Q 2819 4750 3233 4129 
Q 3647 3509 3647 2328 
Q 3647 1150 3233 529 
Q 2819 -91 2034 -91 
Q 1250 -91 836 529 
Q 422 1150 422 2328 
Q 422 3509 836 4129 
Q 1250 4750 2034 4750 
z
" transform="scale(0.015625)"/>
       <path id="DejaVuSans-29" d="M 513 4856 
L 1013 4856 
Q 1481 4119 1714 3412 
Q 1947 2706 1947 2009 
Q 1947 1309 1714 600 
Q 1481 -109 1013 -844 
L 513 -844 
Q 928 -128 1133 580 
Q 1338 1288 1338 2009 
Q 1338 2731 1133 3434 
Q 928 4138 513 4856 
z
" transform="scale(0.015625)"/>
      </defs>
      <use xlink:href="#DejaVuSans-45"/>
      <use xlink:href="#DejaVuSans-6d" transform="translate(63.183594 0)"/>
      <use xlink:href="#DejaVuSans-6f" transform="translate(160.595703 0)"/>
      <use xlink:href="#DejaVuSans-74" transform="translate(221.777344 0)"/>
      <use xlink:href="#DejaVuSans-69" transform="translate(260.986328 0)"/>
      <use xlink:href="#DejaVuSans-6f" transform="translate(288.769531 0)"/>
      <use xlink:href="#DejaVuSans-6e" transform="translate(349.951172 0)"/>
      <use xlink:href="#DejaVuSans-61" transform="translate(413.330078 0)"/>
      <use xlink:href="#DejaVuSans-6c" transform="translate(474.609375 0)"/>
      <use xlink:href="#DejaVuSans-20" transform="translate(502.392578 0)"/>
      <use xlink:href="#DejaVuSans-65" transform="translate(534.179688 0)"/>
      <use xlink:href="#DejaVuSans-61" transform="translate(595.703125 0)"/>
      <use xlink:href="#DejaVuSans-74" transform="translate(656.982422 0)"/>
      <use xlink:href="#DejaVuSans-69" transform="translate(696.191406 0)"/>
      <use xlink:href="#DejaVuSans-6e" transform="translate(723.974609 0)"/>
      <use xlink:href="#DejaVuSans-67" transform="translate(787.353516 0)"/>
      <use xlink:href="#DejaVuSans-20" transform="translate(850.830078 0)"/>
      <use xlink:href="#DejaVuSans-73" transform="translate(882.617188 0)"/>
      <use xlink:href="#DejaVuSans-63" transform="translate(934.716797 0)"/>
      <use xlink:href="#DejaVuSans-6f" transform="translate(989.697266 0)"/>
      <use xlink:href="#DejaVuSans-72" transform="translate(1050.878906 0)"/>
      <use xlink:href="#DejaVuSans-65" transform="translate(1089.742188 0)"/>
      <use xlink:href="#DejaVuSans-20" transform="translate(1151.265625 0)"/>
      <use xlink:href="#DejaVuSans-28" transform="translate(1183.052734 0)"/>
      <use xlink:href="#DejaVuSans-31" transform="translate(1222.066406 0)"/>
      <use xlink:href="#DejaVuSans-2d" transform="translate(1285.689453 0)"/>
      <use xlink:href="#DejaVuSans-31" transform="translate(1321.773438 0)"/>
      <use xlink:href="#DejaVuSans-30" transform="translate(1385.396484 0)"/>
      <use xlink:href="#DejaVuSans-29" transform="translate(1449.019531 0)"/>
     </g>
    </g>
   </g>
   <g id="text_7">
    <g clip-path="url(#p92cb47922b)">
     <!-- Emotional eating (y/n) -->
     <g transform="translate(615.211485 1093.971129) scale(0.4 -0.4)">
      <defs>
       <path id="DejaVuSans-2f" d="M 1625 4666 
L 2156 4666 
L 531 -594 
L 0 -594 
L 1625 4666 
z
" transform="scale(0.015625)"/>
      </defs>
      <use xlink:href="#DejaVuSans-45"/>
      <use xlink:href="#DejaVuSans-6d" transform="translate(63.183594 0)"/>
      <use xlink:href="#DejaVuSans-6f" transform="translate(160.595703 0)"/>
      <use xlink:href="#DejaVuSans-74" transform="translate(221.777344 0)"/>
      <use xlink:href="#DejaVuSans-69" transform="translate(260.986328 0)"/>
      <use xlink:href="#DejaVuSans-6f" transform="translate(288.769531 0)"/>
      <use xlink:href="#DejaVuSans-6e" transform="translate(349.951172 0)"/>
      <use xlink:href="#DejaVuSans-61" transform="translate(413.330078 0)"/>
      <use xlink:href="#DejaVuSans-6c" transform="translate(474.609375 0)"/>
      <use xlink:href="#DejaVuSans-20" transform="translate(502.392578 0)"/>
      <use xlink:href="#DejaVuSans-65" transform="translate(534.179688 0)"/>
      <use xlink:href="#DejaVuSans-61" transform="translate(595.703125 0)"/>
      <use xlink:href="#DejaVuSans-74" transform="translate(656.982422 0)"/>
      <use xlink:href="#DejaVuSans-69" transform="translate(696.191406 0)"/>
      <use xlink:href="#DejaVuSans-6e" transform="translate(723.974609 0)"/>
      <use xlink:href="#DejaVuSans-67" transform="translate(787.353516 0)"/>
      <use xlink:href="#DejaVuSans-20" transform="translate(850.830078 0)"/>
      <use xlink:href="#DejaVuSans-28" transform="translate(882.617188 0)"/>
      <use xlink:href="#DejaVuSans-79" transform="translate(921.630859 0)"/>
      <use xlink:href="#DejaVuSans-2f" transform="translate(980.810547 0)"/>
      <use xlink:href="#DejaVuSans-6e" transform="translate(1014.501953 0)"/>
      <use xlink:href="#DejaVuSans-29" transform="translate(1077.880859 0)"/>
     </g>
    </g>
   </g>
   <g id="text_8">
    <g clip-path="url(#p92cb47922b)">
     <!-- Family issues -->
     <g transform="translate(971.11159 1513.640097) scale(0.4 -0.4)">
      <defs>
       <path id="DejaVuSans-46" d="M 628 4666 
L 3309 4666 
L 3309 4134 
L 1259 4134 
L 1259 2759 
L 3109 2759 
L 3109 2228 
L 1259 2228 
L 1259 0 
L 628 0 
L 628 4666 
z
" transform="scale(0.015625)"/>
      </defs>
      <use xlink:href="#DejaVuSans-46"/>
      <use xlink:href="#DejaVuSans-61" transform="translate(48.394531 0)"/>
      <use xlink:href="#DejaVuSans-6d" transform="translate(109.673828 0)"/>
      <use xlink:href="#DejaVuSans-69" transform="translate(207.085938 0)"/>
      <use xlink:href="#DejaVuSans-6c" transform="translate(234.869141 0)"/>
      <use xlink:href="#DejaVuSans-79" transform="translate(262.652344 0)"/>
      <use xlink:href="#DejaVuSans-20" transform="translate(321.832031 0)"/>
      <use xlink:href="#DejaVuSans-69" transform="translate(353.619141 0)"/>
      <use xlink:href="#DejaVuSans-73" transform="translate(381.402344 0)"/>
      <use xlink:href="#DejaVuSans-73" transform="translate(433.501953 0)"/>
      <use xlink:href="#DejaVuSans-75" transform="translate(485.601562 0)"/>
      <use xlink:href="#DejaVuSans-65" transform="translate(548.980469 0)"/>
      <use xlink:href="#DejaVuSans-73" transform="translate(610.503906 0)"/>
     </g>
    </g>
   </g>
   <g id="text_9">
    <g clip-path="url(#p92cb47922b)">
     <!-- Hunger (y/n) -->
     <g transform="translate(711.761485 778.503871) scale(0.4 -0.4)">
      <defs>
       <path id="DejaVuSans-48" d="M 628 4666 
L 1259 4666 
L 1259 2753 
L 3553 2753 
L 3553 4666 
L 4184 4666 
L 4184 0 
L 3553 0 
L 3553 2222 
L 1259 2222 
L 1259 0 
L 628 0 
L 628 4666 
z
" transform="scale(0.015625)"/>
      </defs>
      <use xlink:href="#DejaVuSans-48"/>
      <use xlink:href="#DejaVuSans-75" transform="translate(75.195312 0)"/>
      <use xlink:href="#DejaVuSans-6e" transform="translate(138.574219 0)"/>
      <use xlink:href="#DejaVuSans-67" transform="translate(201.953125 0)"/>
      <use xlink:href="#DejaVuSans-65" transform="translate(265.429688 0)"/>
      <use xlink:href="#DejaVuSans-72" transform="translate(326.953125 0)"/>
      <use xlink:href="#DejaVuSans-20" transform="translate(368.066406 0)"/>
      <use xlink:href="#DejaVuSans-28" transform="translate(399.853516 0)"/>
      <use xlink:href="#DejaVuSans-79" transform="translate(438.867188 0)"/>
      <use xlink:href="#DejaVuSans-2f" transform="translate(498.046875 0)"/>
      <use xlink:href="#DejaVuSans-6e" transform="translate(531.738281 0)"/>
      <use xlink:href="#DejaVuSans-29" transform="translate(595.117188 0)"/>
     </g>
    </g>
   </g>
   <g id="text_10">
    <g clip-path="url(#p92cb47922b)">
     <!-- Impulse control score (1-10) -->
     <g transform="translate(469.832346 936.2375) scale(0.4 -0.4)">
      <defs>
       <path id="DejaVuSans-49" d="M 628 4666 
L 1259 4666 
L 1259 0 
L 628 0 
L 628 4666 
z
" transform="scale(0.015625)"/>
      </defs>
      <use xlink:href="#DejaVuSans-49"/>
      <use xlink:href="#DejaVuSans-6d" transform="translate(29.492188 0)"/>
      <use xlink:href="#DejaVuSans-70" transform="translate(126.904297 0)"/>
      <use xlink:href="#DejaVuSans-75" transform="translate(190.380859 0)"/>
      <use xlink:href="#DejaVuSans-6c" transform="translate(253.759766 0)"/>
      <use xlink:href="#DejaVuSans-73" transform="translate(281.542969 0)"/>
      <use xlink:href="#DejaVuSans-65" transform="translate(333.642578 0)"/>
      <use xlink:href="#DejaVuSans-20" transform="translate(395.166016 0)"/>
      <use xlink:href="#DejaVuSans-63" transform="translate(426.953125 0)"/>
      <use xlink:href="#DejaVuSans-6f" transform="translate(481.933594 0)"/>
      <use xlink:href="#DejaVuSans-6e" transform="translate(543.115234 0)"/>
      <use xlink:href="#DejaVuSans-74" transform="translate(606.494141 0)"/>
      <use xlink:href="#DejaVuSans-72" transform="translate(645.703125 0)"/>
      <use xlink:href="#DejaVuSans-6f" transform="translate(684.566406 0)"/>
      <use xlink:href="#DejaVuSans-6c" transform="translate(745.748047 0)"/>
      <use xlink:href="#DejaVuSans-20" transform="translate(773.53125 0)"/>
      <use xlink:href="#DejaVuSans-73" transform="translate(805.318359 0)"/>
      <use xlink:href="#DejaVuSans-63" transform="translate(857.417969 0)"/>
      <use xlink:href="#DejaVuSans-6f" transform="translate(912.398438 0)"/>
      <use xlink:href="#DejaVuSans-72" transform="translate(973.580078 0)"/>
      <use xlink:href="#DejaVuSans-65" transform="translate(1012.443359 0)"/>
      <use xlink:href="#DejaVuSans-20" transform="translate(1073.966797 0)"/>
      <use xlink:href="#DejaVuSans-28" transform="translate(1105.753906 0)"/>
      <use xlink:href="#DejaVuSans-31" transform="translate(1144.767578 0)"/>
      <use xlink:href="#DejaVuSans-2d" transform="translate(1208.390625 0)"/>
      <use xlink:href="#DejaVuSans-31" transform="translate(1244.474609 0)"/>
      <use xlink:href="#DejaVuSans-30" transform="translate(1308.097656 0)"/>
      <use xlink:href="#DejaVuSans-29" transform="translate(1371.720703 0)"/>
     </g>
    </g>
   </g>
   <g id="text_11">
    <g clip-path="url(#p92cb47922b)">
     <!-- Lifestyle, circumstances -->
     <g transform="translate(1151.219139 1293.09193) scale(0.4 -0.4)">
      <defs>
       <path id="DejaVuSans-4c" d="M 628 4666 
L 1259 4666 
L 1259 531 
L 3531 531 
L 3531 0 
L 628 0 
L 628 4666 
z
" transform="scale(0.015625)"/>
       <path id="DejaVuSans-66" d="M 2375 4863 
L 2375 4384 
L 1825 4384 
Q 1516 4384 1395 4259 
Q 1275 4134 1275 3809 
L 1275 3500 
L 2222 3500 
L 2222 3053 
L 1275 3053 
L 1275 0 
L 697 0 
L 697 3053 
L 147 3053 
L 147 3500 
L 697 3500 
L 697 3744 
Q 697 4328 969 4595 
Q 1241 4863 1831 4863 
L 2375 4863 
z
" transform="scale(0.015625)"/>
      </defs>
      <use xlink:href="#DejaVuSans-4c"/>
      <use xlink:href="#DejaVuSans-69" transform="translate(55.712891 0)"/>
      <use xlink:href="#DejaVuSans-66" transform="translate(83.496094 0)"/>
      <use xlink:href="#DejaVuSans-65" transform="translate(118.701172 0)"/>
      <use xlink:href="#DejaVuSans-73" transform="translate(180.224609 0)"/>
      <use xlink:href="#DejaVuSans-74" transform="translate(232.324219 0)"/>
      <use xlink:href="#DejaVuSans-79" transform="translate(271.533203 0)"/>
      <use xlink:href="#DejaVuSans-6c" transform="translate(330.712891 0)"/>
      <use xlink:href="#DejaVuSans-65" transform="translate(358.496094 0)"/>
      <use xlink:href="#DejaVuSans-2c" transform="translate(420.019531 0)"/>
      <use xlink:href="#DejaVuSans-20" transform="translate(451.806641 0)"/>
      <use xlink:href="#DejaVuSans-63" transform="translate(483.59375 0)"/>
      <use xlink:href="#DejaVuSans-69" transform="translate(538.574219 0)"/>
      <use xlink:href="#DejaVuSans-72" transform="translate(566.357422 0)"/>
      <use xlink:href="#DejaVuSans-63" transform="translate(605.220703 0)"/>
      <use xlink:href="#DejaVuSans-75" transform="translate(660.201172 0)"/>
      <use xlink:href="#DejaVuSans-6d" transform="translate(723.580078 0)"/>
      <use xlink:href="#DejaVuSans-73" transform="translate(820.992188 0)"/>
      <use xlink:href="#DejaVuSans-74" transform="translate(873.091797 0)"/>
      <use xlink:href="#DejaVuSans-61" transform="translate(912.300781 0)"/>
      <use xlink:href="#DejaVuSans-6e" transform="translate(973.580078 0)"/>
      <use xlink:href="#DejaVuSans-63" transform="translate(1036.958984 0)"/>
      <use xlink:href="#DejaVuSans-65" transform="translate(1091.939453 0)"/>
      <use xlink:href="#DejaVuSans-73" transform="translate(1153.462891 0)"/>
     </g>
    </g>
   </g>
   <g id="text_12">
    <g clip-path="url(#p92cb47922b)">
     <!-- Mental health -->
     <g transform="translate(320.515236 1293.09193) scale(0.4 -0.4)">
      <use xlink:href="#DejaVuSans-4d"/>
      <use xlink:href="#DejaVuSans-65" transform="translate(86.279297 0)"/>
      <use xlink:href="#DejaVuSans-6e" transform="translate(147.802734 0)"/>
      <use xlink:href="#DejaVuSans-74" transform="translate(211.181641 0)"/>
      <use xlink:href="#DejaVuSans-61" transform="translate(250.390625 0)"/>
      <use xlink:href="#DejaVuSans-6c" transform="translate(311.669922 0)"/>
      <use xlink:href="#DejaVuSans-20" transform="translate(339.453125 0)"/>
      <use xlink:href="#DejaVuSans-68" transform="translate(371.240234 0)"/>
      <use xlink:href="#DejaVuSans-65" transform="translate(434.619141 0)"/>
      <use xlink:href="#DejaVuSans-61" transform="translate(496.142578 0)"/>
      <use xlink:href="#DejaVuSans-6c" transform="translate(557.421875 0)"/>
      <use xlink:href="#DejaVuSans-74" transform="translate(585.205078 0)"/>
      <use xlink:href="#DejaVuSans-68" transform="translate(624.414062 0)"/>
     </g>
    </g>
   </g>
   <g id="text_13">
    <g clip-path="url(#p92cb47922b)">
     <!-- Quantity control score (1-10) -->
     <g transform="translate(808.883279 936.2375) scale(0.4 -0.4)">
      <defs>
       <path id="DejaVuSans-51" d="M 2522 4238 
Q 1834 4238 1429 3725 
Q 1025 3213 1025 2328 
Q 1025 1447 1429 934 
Q 1834 422 2522 422 
Q 3209 422 3611 934 
Q 4013 1447 4013 2328 
Q 4013 3213 3611 3725 
Q 3209 4238 2522 4238 
z
M 3406 84 
L 4238 -825 
L 3475 -825 
L 2784 -78 
Q 2681 -84 2626 -87 
Q 2572 -91 2522 -91 
Q 1538 -91 948 567 
Q 359 1225 359 2328 
Q 359 3434 948 4092 
Q 1538 4750 2522 4750 
Q 3503 4750 4090 4092 
Q 4678 3434 4678 2328 
Q 4678 1516 4351 937 
Q 4025 359 3406 84 
z
" transform="scale(0.015625)"/>
      </defs>
      <use xlink:href="#DejaVuSans-51"/>
      <use xlink:href="#DejaVuSans-75" transform="translate(78.710938 0)"/>
      <use xlink:href="#DejaVuSans-61" transform="translate(142.089844 0)"/>
      <use xlink:href="#DejaVuSans-6e" transform="translate(203.369141 0)"/>
      <use xlink:href="#DejaVuSans-74" transform="translate(266.748047 0)"/>
      <use xlink:href="#DejaVuSans-69" transform="translate(305.957031 0)"/>
      <use xlink:href="#DejaVuSans-74" transform="translate(333.740234 0)"/>
      <use xlink:href="#DejaVuSans-79" transform="translate(372.949219 0)"/>
      <use xlink:href="#DejaVuSans-20" transform="translate(432.128906 0)"/>
      <use xlink:href="#DejaVuSans-63" transform="translate(463.916016 0)"/>
      <use xlink:href="#DejaVuSans-6f" transform="translate(518.896484 0)"/>
      <use xlink:href="#DejaVuSans-6e" transform="translate(580.078125 0)"/>
      <use xlink:href="#DejaVuSans-74" transform="translate(643.457031 0)"/>
      <use xlink:href="#DejaVuSans-72" transform="translate(682.666016 0)"/>
      <use xlink:href="#DejaVuSans-6f" transform="translate(721.529297 0)"/>
      <use xlink:href="#DejaVuSans-6c" transform="translate(782.710938 0)"/>
      <use xlink:href="#DejaVuSans-20" transform="translate(810.494141 0)"/>
      <use xlink:href="#DejaVuSans-73" transform="translate(842.28125 0)"/>
      <use xlink:href="#DejaVuSans-63" transform="translate(894.380859 0)"/>
      <use xlink:href="#DejaVuSans-6f" transform="translate(949.361328 0)"/>
      <use xlink:href="#DejaVuSans-72" transform="translate(1010.542969 0)"/>
      <use xlink:href="#DejaVuSans-65" transform="translate(1049.40625 0)"/>
      <use xlink:href="#DejaVuSans-20" transform="translate(1110.929688 0)"/>
      <use xlink:href="#DejaVuSans-28" transform="translate(1142.716797 0)"/>
      <use xlink:href="#DejaVuSans-31" transform="translate(1181.730469 0)"/>
      <use xlink:href="#DejaVuSans-2d" transform="translate(1245.353516 0)"/>
      <use xlink:href="#DejaVuSans-31" transform="translate(1281.4375 0)"/>
      <use xlink:href="#DejaVuSans-30" transform="translate(1345.060547 0)"/>
      <use xlink:href="#DejaVuSans-29" transform="translate(1408.683594 0)"/>
     </g>
    </g>
   </g>
   <g id="text_14">
    <g clip-path="url(#p92cb47922b)">
     <!-- Treatment discontinuation or relapse -->
     <g transform="translate(378.29466 1513.640097) scale(0.4 -0.4)">
      <defs>
       <path id="DejaVuSans-54" d="M -19 4666 
L 3928 4666 
L 3928 4134 
L 2272 4134 
L 2272 0 
L 1638 0 
L 1638 4134 
L -19 4134 
L -19 4666 
z
" transform="scale(0.015625)"/>
      </defs>
      <use xlink:href="#DejaVuSans-54"/>
      <use xlink:href="#DejaVuSans-72" transform="translate(46.333984 0)"/>
      <use xlink:href="#DejaVuSans-65" transform="translate(85.197266 0)"/>
      <use xlink:href="#DejaVuSans-61" transform="translate(146.720703 0)"/>
      <use xlink:href="#DejaVuSans-74" transform="translate(208 0)"/>
      <use xlink:href="#DejaVuSans-6d" transform="translate(247.208984 0)"/>
      <use xlink:href="#DejaVuSans-65" transform="translate(344.621094 0)"/>
      <use xlink:href="#DejaVuSans-6e" transform="translate(406.144531 0)"/>
      <use xlink:href="#DejaVuSans-74" transform="translate(469.523438 0)"/>
      <use xlink:href="#DejaVuSans-20" transform="translate(508.732422 0)"/>
      <use xlink:href="#DejaVuSans-64" transform="translate(540.519531 0)"/>
      <use xlink:href="#DejaVuSans-69" transform="translate(603.996094 0)"/>
      <use xlink:href="#DejaVuSans-73" transform="translate(631.779297 0)"/>
      <use xlink:href="#DejaVuSans-63" transform="translate(683.878906 0)"/>
      <use xlink:href="#DejaVuSans-6f" transform="translate(738.859375 0)"/>
      <use xlink:href="#DejaVuSans-6e" transform="translate(800.041016 0)"/>
      <use xlink:href="#DejaVuSans-74" transform="translate(863.419922 0)"/>
      <use xlink:href="#DejaVuSans-69" transform="translate(902.628906 0)"/>
      <use xlink:href="#DejaVuSans-6e" transform="translate(930.412109 0)"/>
      <use xlink:href="#DejaVuSans-75" transform="translate(993.791016 0)"/>
      <use xlink:href="#DejaVuSans-61" transform="translate(1057.169922 0)"/>
      <use xlink:href="#DejaVuSans-74" transform="translate(1118.449219 0)"/>
      <use xlink:href="#DejaVuSans-69" transform="translate(1157.658203 0)"/>
      <use xlink:href="#DejaVuSans-6f" transform="translate(1185.441406 0)"/>
      <use xlink:href="#DejaVuSans-6e" transform="translate(1246.623047 0)"/>
      <use xlink:href="#DejaVuSans-20" transform="translate(1310.001953 0)"/>
      <use xlink:href="#DejaVuSans-6f" transform="translate(1341.789062 0)"/>
      <use xlink:href="#DejaVuSans-72" transform="translate(1402.970703 0)"/>
      <use xlink:href="#DejaVuSans-20" transform="translate(1444.083984 0)"/>
      <use xlink:href="#DejaVuSans-72" transform="translate(1475.871094 0)"/>
      <use xlink:href="#DejaVuSans-65" transform="translate(1514.734375 0)"/>
      <use xlink:href="#DejaVuSans-6c" transform="translate(1576.257812 0)"/>
      <use xlink:href="#DejaVuSans-61" transform="translate(1604.041016 0)"/>
      <use xlink:href="#DejaVuSans-70" transform="translate(1665.320312 0)"/>
      <use xlink:href="#DejaVuSans-73" transform="translate(1728.796875 0)"/>
      <use xlink:href="#DejaVuSans-65" transform="translate(1780.896484 0)"/>
     </g>
    </g>
   </g>
   <g id="text_15">
    <g clip-path="url(#p92cb47922b)">
     <!-- Satiety (y/n) -->
     <g transform="translate(888.263515 778.503871) scale(0.4 -0.4)">
      <use xlink:href="#DejaVuSans-53"/>
      <use xlink:href="#DejaVuSans-61" transform="translate(63.476562 0)"/>
      <use xlink:href="#DejaVuSans-74" transform="translate(124.755859 0)"/>
      <use xlink:href="#DejaVuSans-69" transform="translate(163.964844 0)"/>
      <use xlink:href="#DejaVuSans-65" transform="translate(191.748047 0)"/>
      <use xlink:href="#DejaVuSans-74" transform="translate(253.271484 0)"/>
      <use xlink:href="#DejaVuSans-79" transform="translate(292.480469 0)"/>
      <use xlink:href="#DejaVuSans-20" transform="translate(351.660156 0)"/>
      <use xlink:href="#DejaVuSans-28" transform="translate(383.447266 0)"/>
      <use xlink:href="#DejaVuSans-79" transform="translate(422.460938 0)"/>
      <use xlink:href="#DejaVuSans-2f" transform="translate(481.640625 0)"/>
      <use xlink:href="#DejaVuSans-6e" transform="translate(515.332031 0)"/>
      <use xlink:href="#DejaVuSans-29" transform="translate(578.710938 0)"/>
     </g>
    </g>
   </g>
   <g id="text_16">
    <g clip-path="url(#p92cb47922b)">
     <!-- Physical inactivity -->
     <g transform="translate(1322.936972 936.2375) scale(0.4 -0.4)">
      <defs>
       <path id="DejaVuSans-76" d="M 191 3500 
L 800 3500 
L 1894 563 
L 2988 3500 
L 3597 3500 
L 2284 0 
L 1503 0 
L 191 3500 
z
" transform="scale(0.015625)"/>
      </defs>
      <use xlink:href="#DejaVuSans-50"/>
      <use xlink:href="#DejaVuSans-68" transform="translate(60.302734 0)"/>
      <use xlink:href="#DejaVuSans-79" transform="translate(123.681641 0)"/>
      <use xlink:href="#DejaVuSans-73" transform="translate(182.861328 0)"/>
      <use xlink:href="#DejaVuSans-69" transform="translate(234.960938 0)"/>
      <use xlink:href="#DejaVuSans-63" transform="translate(262.744141 0)"/>
      <use xlink:href="#DejaVuSans-61" transform="translate(317.724609 0)"/>
      <use xlink:href="#DejaVuSans-6c" transform="translate(379.003906 0)"/>
      <use xlink:href="#DejaVuSans-20" transform="translate(406.787109 0)"/>
      <use xlink:href="#DejaVuSans-69" transform="translate(438.574219 0)"/>
      <use xlink:href="#DejaVuSans-6e" transform="translate(466.357422 0)"/>
      <use xlink:href="#DejaVuSans-61" transform="translate(529.736328 0)"/>
      <use xlink:href="#DejaVuSans-63" transform="translate(591.015625 0)"/>
      <use xlink:href="#DejaVuSans-74" transform="translate(645.996094 0)"/>
      <use xlink:href="#DejaVuSans-69" transform="translate(685.205078 0)"/>
      <use xlink:href="#DejaVuSans-76" transform="translate(712.988281 0)"/>
      <use xlink:href="#DejaVuSans-69" transform="translate(772.167969 0)"/>
      <use xlink:href="#DejaVuSans-74" transform="translate(799.951172 0)"/>
      <use xlink:href="#DejaVuSans-79" transform="translate(839.160156 0)"/>
     </g>
    </g>
   </g>
  </g>
 </g>
 <defs>
  <clipPath id="p92cb47922b">
   <rect x="36" y="36" width="1778.4" height="1778.4"/>
  </clipPath>
 </defs>
</svg>
