<?xml version="1.0" encoding="utf-8" standalone="no"?>
<!DOCTYPE svg PUBLIC "-//W3C//DTD SVG 1.1//EN"
  "http://www.w3.org/Graphics/SVG/1.1/DTD/svg11.dtd">
<svg xmlns:xlink="http://www.w3.org/1999/xlink" width="1418.4pt" height="1418.4pt" viewBox="0 0 1418.4 1418.4" xmlns="http://www.w3.org/2000/svg" version="1.1">
 <metadata>
  <rdf:RDF xmlns:dc="http://purl.org/dc/elements/1.1/" xmlns:cc="http://creativecommons.org/ns#" xmlns:rdf="http://www.w3.org/1999/02/22-rdf-syntax-ns#">
   <cc:Work>
    <dc:type rdf:resource="http://purl.org/dc/dcmitype/StillImage"/>
    <dc:date>2025-09-09T12:57:14.189245</dc:date>
    <dc:format>image/svg+xml</dc:format>
    <dc:creator>
     <cc:Agent>
      <dc:title>Matplotlib v3.10.1, https://matplotlib.org/</dc:title>
     </cc:Agent>
    </dc:creator>
   </cc:Work>
  </rdf:RDF>
 </metadata>
 <defs>
  <style type="text/css">*{stroke-linejoin: round; stroke-linecap: butt}</style>
 </defs>
 <g id="figure_1">
  <g id="patch_1">
   <path d="M 0 1418.4 
L 1418.4 1418.4 
L 1418.4 0 
L 0 0 
L 0 1418.4 
z
" style="fill: none"/>
  </g>
  <g id="axes_1">
   <g id="patch_2">
    <path d="M 0 1418.4 
L 1418.4 1418.4 
L 1418.4 -0 
L 0 -0 
L 0 1418.4 
z
" style="fill: none"/>
   </g>
   <g id="patch_3">
    <path d="M 1086.916651 460.481012 
Q 624.933074 621.015762 395.900689 1053.15506 
" clip-path="url(#p137f6f8006)" style="fill: none; stroke: #ff0000; stroke-opacity: 0.6; stroke-width: 2.913938; stroke-linecap: round"/>
   </g>
   <g id="patch_4">
    <path d="M 1094.397569 466.295938 
Q 1085.105045 597.465245 1164.421811 702.348969 
" clip-path="url(#p137f6f8006)" style="fill: none; stroke: #ff0000; stroke-opacity: 0.6; stroke-width: 4.361688; stroke-linecap: round"/>
   </g>
   <g id="patch_5">
    <path d="M 1089.06842 451.456696 
Q 904.435629 263.599167 641.434414 249.109181 
" clip-path="url(#p137f6f8006)" style="fill: none; stroke: #ff0000; stroke-opacity: 0.6; stroke-width: 4.716554; stroke-linecap: round"/>
   </g>
   <g id="patch_6">
    <path d="M 1091.011151 450.029822 
Q 1027.318962 334.172325 903.112196 288.870528 
" clip-path="url(#p137f6f8006)" style="fill: none; stroke: #ff0000; stroke-opacity: 0.6; stroke-width: 3.055232; stroke-linecap: round"/>
   </g>
   <g id="patch_7">
    <path d="M 1091.93149 465.720341 
Q 997.658795 709.200303 1091.931725 952.680266 
" clip-path="url(#p137f6f8006)" style="fill: none; stroke: #ff0000; stroke-opacity: 0.6; stroke-width: 3.977804; stroke-linecap: round"/>
   </g>
   <g id="patch_8">
    <path d="M 399.402129 1065.093112 
Q 629.532824 1194.086343 886.51301 1134.416953 
" clip-path="url(#p137f6f8006)" style="fill: none; stroke: #008000; stroke-opacity: 0.6; stroke-width: 4.972636; stroke-linecap: round"/>
   </g>
   <g id="patch_9">
    <path d="M 397.21654 1054.006115 
Q 671.697566 702.024915 633.554771 257.305133 
" clip-path="url(#p137f6f8006)" style="fill: none; stroke: #008000; stroke-opacity: 0.6; stroke-width: 6.458458; stroke-linecap: round"/>
   </g>
   <g id="patch_10">
    <path d="M 392.618419 1052.192123 
Q 413.774293 791.733078 254.010741 584.943043 
" clip-path="url(#p137f6f8006)" style="fill: none; stroke: #008000; stroke-opacity: 0.6; stroke-width: 3.486169; stroke-linecap: round"/>
   </g>
   <g id="patch_11">
    <path d="M 395.055133 1052.760441 
Q 529.331189 709.19894 395.054304 365.637438 
" clip-path="url(#p137f6f8006)" style="fill: none; stroke: #ff0000; stroke-opacity: 0.6; stroke-width: 3.338233; stroke-linecap: round"/>
   </g>
   <g id="patch_12">
    <path d="M 397.936118 1066.993981 
Q 491.835437 1160.597315 624.13707 1169.246603 
" clip-path="url(#p137f6f8006)" style="fill: none; stroke: #008000; stroke-opacity: 0.6; stroke-width: 3.432616; stroke-linecap: round"/>
   </g>
   <g id="patch_13">
    <path d="M 1162.671715 714.230897 
Q 950.348379 867.576895 896.669238 1123.925748 
" clip-path="url(#p137f6f8006)" style="fill: none; stroke: #ff0000; stroke-opacity: 0.6; stroke-width: 3.325719; stroke-linecap: round"/>
   </g>
   <g id="patch_14">
    <path d="M 1161.297492 707.17331 
Q 683.434737 593.692283 256.203347 835.981373 
" clip-path="url(#p137f6f8006)" style="fill: none; stroke: #008000; stroke-opacity: 0.6; stroke-width: 3.885745; stroke-linecap: round"/>
   </g>
   <g id="patch_15">
    <path d="M 1165.679159 701.538377 
Q 991.282946 373.970922 640.973087 251.506288 
" clip-path="url(#p137f6f8006)" style="fill: none; stroke: #008000; stroke-opacity: 0.6; stroke-width: 4.088701; stroke-linecap: round"/>
   </g>
   <g id="patch_16">
    <path d="M 1162.197275 704.904215 
Q 734.965922 462.614866 257.103203 576.095634 
" clip-path="url(#p137f6f8006)" style="fill: none; stroke: #008000; stroke-opacity: 0.6; stroke-width: 2.875895; stroke-linecap: round"/>
   </g>
   <g id="patch_17">
    <path d="M 1163.69575 702.975416 
Q 849.804087 380.729947 400.523579 357.993264 
" clip-path="url(#p137f6f8006)" style="fill: none; stroke: #ff0000; stroke-opacity: 0.6; stroke-width: 3.774893; stroke-linecap: round"/>
   </g>
   <g id="patch_18">
    <path d="M 1167.991759 700.71496 
Q 1114.312662 444.366079 901.98937 291.020052 
" clip-path="url(#p137f6f8006)" style="fill: none; stroke: #008000; stroke-opacity: 0.6; stroke-width: 3.504233; stroke-linecap: round"/>
   </g>
   <g id="patch_19">
    <path d="M 1164.42169 716.051191 
Q 1085.104992 820.934935 1094.397583 952.104263 
" clip-path="url(#p137f6f8006)" style="fill: none; stroke: #008000; stroke-opacity: 0.6; stroke-width: 3.592353; stroke-linecap: round"/>
   </g>
   <g id="patch_20">
    <path d="M 625.730028 253.700846 
Q 325.084386 469.392464 250.39473 831.790437 
" clip-path="url(#p137f6f8006)" style="fill: none; stroke: #ff0000; stroke-opacity: 0.6; stroke-width: 3.452093; stroke-linecap: round"/>
   </g>
   <g id="patch_21">
    <path d="M 624.605707 251.518649 
Q 376.910357 338.987583 252.732098 570.468676 
" clip-path="url(#p137f6f8006)" style="fill: none; stroke: #008000; stroke-opacity: 0.6; stroke-width: 5.339414; stroke-linecap: round"/>
   </g>
   <g id="patch_22">
    <path d="M 624.141153 249.15313 
Q 491.838928 257.801107 397.939017 351.403129 
" clip-path="url(#p137f6f8006)" style="fill: none; stroke: #ff0000; stroke-opacity: 0.6; stroke-width: 3.894275; stroke-linecap: round"/>
   </g>
   <g id="patch_23">
    <path d="M 629.594846 256.729913 
Q 451.770155 709.200346 629.595118 1161.670779 
" clip-path="url(#p137f6f8006)" style="fill: none; stroke: #008000; stroke-opacity: 0.6; stroke-width: 2.917747; stroke-linecap: round"/>
   </g>
   <g id="patch_24">
    <path d="M 634.496011 257.173677 
Q 724.210491 695.436687 1088.044907 955.721954 
" clip-path="url(#p137f6f8006)" style="fill: none; stroke: #008000; stroke-opacity: 0.6; stroke-width: 3.754622; stroke-linecap: round"/>
   </g>
   <g id="patch_25">
    <path d="M 1087.579908 956.442594 
Q 695.534381 734.381554 257.103845 838.252855 
" clip-path="url(#p137f6f8006)" style="fill: none; stroke: #ff0000; stroke-opacity: 0.6; stroke-width: 3.530326; stroke-linecap: round"/>
   </g>
   <g id="patch_26">
    <path d="M 1089.084052 954.513582 
Q 747.099963 603.052702 257.328176 578.529495 
" clip-path="url(#p137f6f8006)" style="fill: none; stroke: #008000; stroke-opacity: 0.6; stroke-width: 3.256981; stroke-linecap: round"/>
   </g>
   <g id="patch_27">
    <path d="M 1091.071462 953.074774 
Q 862.03912 520.935425 400.055587 360.400624 
" clip-path="url(#p137f6f8006)" style="fill: none; stroke: #ff0000; stroke-opacity: 0.6; stroke-width: 3.067842; stroke-linecap: round"/>
   </g>
   <g id="patch_28">
    <path d="M 1086.456176 961.164467 
Q 823.454701 975.653878 638.82165 1163.510832 
" clip-path="url(#p137f6f8006)" style="fill: none; stroke: #008000; stroke-opacity: 0.6; stroke-width: 3.058674; stroke-linecap: round"/>
   </g>
   <g id="patch_29">
    <path d="M 255.705104 573.053669 
Q 361.756125 494.785923 390.097701 366.063797 
" clip-path="url(#p137f6f8006)" style="fill: none; stroke: #ff0000; stroke-opacity: 0.6; stroke-width: 2.957814; stroke-linecap: round"/>
   </g>
   <g id="patch_30">
    <path d="M 386.539227 364.404509 
Q 226.775808 571.194584 247.931815 831.653669 
" clip-path="url(#p137f6f8006)" style="fill: none; stroke: #ff0000; stroke-opacity: 0.6; stroke-width: 3.347331; stroke-linecap: round"/>
   </g>
   <g id="patch_31">
    <path d="M 391.101408 366.207914 
Q 352.95849 810.927732 627.439392 1162.908969 
" clip-path="url(#p137f6f8006)" style="fill: none; stroke: #ff0000; stroke-opacity: 0.6; stroke-width: 2.876338; stroke-linecap: round"/>
   </g>
   <g id="matplotlib.axis_1">
    <g id="xtick_1"/>
    <g id="xtick_2"/>
    <g id="xtick_3"/>
    <g id="xtick_4"/>
    <g id="xtick_5"/>
    <g id="xtick_6"/>
   </g>
   <g id="matplotlib.axis_2">
    <g id="ytick_1"/>
    <g id="ytick_2"/>
    <g id="ytick_3"/>
    <g id="ytick_4"/>
    <g id="ytick_5"/>
    <g id="ytick_6"/>
    <g id="ytick_7"/>
   </g>
   <g id="PathCollection_1">
    <path d="M 1095.102382 500.965369 
C 1106.586013 500.965369 1117.60085 496.402874 1125.721003 488.282721 
C 1133.841157 480.162567 1138.403652 469.14773 1138.403652 457.664099 
C 1138.403652 446.180468 1133.841157 435.16563 1125.721003 427.045477 
C 1117.60085 418.925324 1106.586013 414.362829 1095.102382 414.362829 
C 1083.61875 414.362829 1072.603913 418.925324 1064.48376 427.045477 
C 1056.363606 435.16563 1051.801111 446.180468 1051.801111 457.664099 
C 1051.801111 469.14773 1056.363606 480.162567 1064.48376 488.282721 
C 1072.603913 496.402874 1083.61875 500.965369 1095.102382 500.965369 
z
" clip-path="url(#p137f6f8006)" style="fill: #ff6700; stroke: #ff6700; stroke-opacity: 0.6; stroke-width: 9.77205"/>
    <path d="M 391.869684 1107.453244 
C 404.237933 1107.453244 416.101276 1102.539287 424.846949 1093.793614 
C 433.592622 1085.047941 438.506579 1073.184598 438.506579 1060.816349 
C 438.506579 1048.4481 433.592622 1036.584757 424.846949 1027.839084 
C 416.101276 1019.093411 404.237933 1014.179454 391.869684 1014.179454 
C 379.501435 1014.179454 367.638092 1019.093411 358.892419 1027.839084 
C 350.146746 1036.584757 345.232789 1048.4481 345.232789 1060.816349 
C 345.232789 1073.184598 350.146746 1085.047941 358.892419 1093.793614 
C 367.638092 1102.539287 379.501435 1107.453244 391.869684 1107.453244 
z
" clip-path="url(#p137f6f8006)" style="fill: #ff6700; stroke: #ff6700; stroke-opacity: 0.6; stroke-width: 10.52482"/>
    <path d="M 1169.719481 761.878269 
C 1183.689921 761.878269 1197.090049 756.327754 1206.968642 746.449161 
C 1216.847235 736.570568 1222.397749 723.17044 1222.397749 709.2 
C 1222.397749 695.22956 1216.847235 681.829432 1206.968642 671.950839 
C 1197.090049 662.072246 1183.689921 656.521731 1169.719481 656.521731 
C 1155.74904 656.521731 1142.348912 662.072246 1132.470319 671.950839 
C 1122.591726 681.829432 1117.041212 695.22956 1117.041212 709.2 
C 1117.041212 723.17044 1122.591726 736.570568 1132.470319 746.449161 
C 1142.348912 756.327754 1155.74904 761.878269 1169.719481 761.878269 
z
" clip-path="url(#p137f6f8006)" style="fill: #ff6700; stroke: #ff6700; stroke-opacity: 0.6; stroke-width: 11.888212"/>
    <path d="M 632.786465 301.358788 
C 646.756905 301.358788 660.157033 295.808274 670.035626 285.929681 
C 679.914219 276.051088 685.464733 262.65096 685.464733 248.680519 
C 685.464733 234.710079 679.914219 221.309951 670.035626 211.431358 
C 660.157033 201.552765 646.756905 196.002251 632.786465 196.002251 
C 618.816025 196.002251 605.415897 201.552765 595.537304 211.431358 
C 585.658711 221.309951 580.108196 234.710079 580.108196 248.680519 
C 580.108196 262.65096 585.658711 276.051088 595.537304 285.929681 
C 605.415897 295.808274 618.816025 301.358788 632.786465 301.358788 
z
" clip-path="url(#p137f6f8006)" style="fill: #ff6700; stroke: #ff6700; stroke-opacity: 0.6; stroke-width: 11.888212"/>
    <path d="M 894.941486 317.214059 
C 903.22245 317.214059 911.165363 313.923997 917.020888 308.068471 
C 922.876414 302.212945 926.166476 294.270033 926.166476 285.989069 
C 926.166476 277.708105 922.876414 269.765193 917.020888 263.909667 
C 911.165363 258.054141 903.22245 254.764079 894.941486 254.764079 
C 886.660522 254.764079 878.71761 258.054141 872.862084 263.909667 
C 867.006558 269.765193 863.716496 277.708105 863.716496 285.989069 
C 863.716496 294.270033 867.006558 302.212945 872.862084 308.068471 
C 878.71761 313.923997 886.660522 317.214059 894.941486 317.214059 
z
" clip-path="url(#p137f6f8006)" style="fill: #ff6700; stroke: #ff6700; stroke-opacity: 0.6; stroke-width: 7.046726"/>
    <path d="M 1095.102382 1010.485273 
C 1108.296069 1010.485273 1120.951154 1005.243365 1130.2805 995.914019 
C 1139.609846 986.584673 1144.851753 973.929589 1144.851753 960.735901 
C 1144.851753 947.542214 1139.609846 934.887129 1130.2805 925.557783 
C 1120.951154 916.228437 1108.296069 910.986529 1095.102382 910.986529 
C 1081.908694 910.986529 1069.253609 916.228437 1059.924263 925.557783 
C 1050.594917 934.887129 1045.35301 947.542214 1045.35301 960.735901 
C 1045.35301 973.929589 1050.594917 986.584673 1059.924263 995.914019 
C 1069.253609 1005.243365 1081.908694 1010.485273 1095.102382 1010.485273 
z
" clip-path="url(#p137f6f8006)" style="fill: #ff6700; stroke: #ff6700; stroke-opacity: 0.6; stroke-width: 11.227231"/>
    <path d="M 894.941486 1163.635921 
C 903.22245 1163.635921 911.165363 1160.345859 917.020888 1154.490333 
C 922.876414 1148.634807 926.166476 1140.691895 926.166476 1132.410931 
C 926.166476 1124.129967 922.876414 1116.187055 917.020888 1110.331529 
C 911.165363 1104.476003 903.22245 1101.185941 894.941486 1101.185941 
C 886.660522 1101.185941 878.71761 1104.476003 872.862084 1110.331529 
C 867.006558 1116.187055 863.716496 1124.129967 863.716496 1132.410931 
C 863.716496 1140.691895 867.006558 1148.634807 872.862084 1154.490333 
C 878.71761 1160.345859 886.660522 1163.635921 894.941486 1163.635921 
z
" clip-path="url(#p137f6f8006)" style="fill: #ff6700; stroke: #ff6700; stroke-opacity: 0.6; stroke-width: 7.046726"/>
    <path d="M 248.680519 621.423759 
C 260.164151 621.423759 271.178988 616.861264 279.299141 608.741111 
C 287.419295 600.620958 291.98179 589.60612 291.98179 578.122489 
C 291.98179 566.638858 287.419295 555.624021 279.299141 547.503867 
C 271.178988 539.383714 260.164151 534.821219 248.680519 534.821219 
C 237.196888 534.821219 226.182051 539.383714 218.061898 547.503867 
C 209.941744 555.624021 205.379249 566.638858 205.379249 578.122489 
C 205.379249 589.60612 209.941744 600.620958 218.061898 608.741111 
C 226.182051 616.861264 237.196888 621.423759 248.680519 621.423759 
z
" clip-path="url(#p137f6f8006)" style="fill: #ff6700; stroke: #ff6700; stroke-opacity: 0.6; stroke-width: 9.77205"/>
    <path d="M 391.869684 407.333023 
C 405.063372 407.333023 417.718456 402.091115 427.047802 392.761769 
C 436.377148 383.432423 441.619056 370.777339 441.619056 357.583651 
C 441.619056 344.389964 436.377148 331.734879 427.047802 322.405533 
C 417.718456 313.076187 405.063372 307.834279 391.869684 307.834279 
C 378.675996 307.834279 366.020912 313.076187 356.691566 322.405533 
C 347.36222 331.734879 342.120312 344.389964 342.120312 357.583651 
C 342.120312 370.777339 347.36222 383.432423 356.691566 392.761769 
C 366.020912 402.091115 378.675996 407.333023 391.869684 407.333023 
z
" clip-path="url(#p137f6f8006)" style="fill: #ff6700; stroke: #ff6700; stroke-opacity: 0.6; stroke-width: 11.227231"/>
    <path d="M 632.786465 1209.40575 
C 643.311386 1209.40575 653.406652 1205.224154 660.848895 1197.781911 
C 668.291139 1190.339667 672.472734 1180.244402 672.472734 1169.719481 
C 672.472734 1159.194559 668.291139 1149.099294 660.848895 1141.65705 
C 653.406652 1134.214807 643.311386 1130.033211 632.786465 1130.033211 
C 622.261543 1130.033211 612.166278 1134.214807 604.724034 1141.65705 
C 597.281791 1149.099294 593.100195 1159.194559 593.100195 1169.719481 
C 593.100195 1180.244402 597.281791 1190.339667 604.724034 1197.781911 
C 612.166278 1205.224154 622.261543 1209.40575 632.786465 1209.40575 
z
" clip-path="url(#p137f6f8006)" style="fill: #ff6700; stroke: #ff6700; stroke-opacity: 0.6; stroke-width: 8.956232"/>
    <path d="M 248.680519 879.96378 
C 259.205441 879.96378 269.300706 875.782185 276.74295 868.339941 
C 284.185193 860.897698 288.366789 850.802433 288.366789 840.277511 
C 288.366789 829.752589 284.185193 819.657324 276.74295 812.21508 
C 269.300706 804.772837 259.205441 800.591241 248.680519 800.591241 
C 238.155598 800.591241 228.060333 804.772837 220.618089 812.21508 
C 213.175846 819.657324 208.99425 829.752589 208.99425 840.277511 
C 208.99425 850.802433 213.175846 860.897698 220.618089 868.339941 
C 228.060333 875.782185 238.155598 879.96378 248.680519 879.96378 
z
" clip-path="url(#p137f6f8006)" style="fill: #ff6700; stroke: #ff6700; stroke-opacity: 0.6; stroke-width: 8.956232"/>
   </g>
   <g id="patch_32">
    <path d="M 0 1418.4 
L 0 -0 
" style="fill: none; stroke: #000000; stroke-width: 0.8; stroke-linejoin: miter; stroke-linecap: square"/>
   </g>
   <g id="patch_33">
    <path d="M 1418.4 1418.4 
L 1418.4 -0 
" style="fill: none; stroke: #000000; stroke-width: 0.8; stroke-linejoin: miter; stroke-linecap: square"/>
   </g>
   <g id="patch_34">
    <path d="M 0 1418.4 
L 1418.4 1418.4 
" style="fill: none; stroke: #000000; stroke-width: 0.8; stroke-linejoin: miter; stroke-linecap: square"/>
   </g>
   <g id="patch_35">
    <path d="M 0 -0 
L 1418.4 -0 
" style="fill: none; stroke: #000000; stroke-width: 0.8; stroke-linejoin: miter; stroke-linecap: square"/>
   </g>
   <g id="text_1">
    <g clip-path="url(#p137f6f8006)">
     <!-- Women's health &amp; pregnancy -->
     <g transform="translate(860.868944 466.979099) scale(0.36 -0.36)">
      <defs>
       <path id="ArialMT-57" d="M 1294 0 
L 78 4581 
L 700 4581 
L 1397 1578 
Q 1509 1106 1591 641 
Q 1766 1375 1797 1488 
L 2669 4581 
L 3400 4581 
L 4056 2263 
Q 4303 1400 4413 641 
Q 4500 1075 4641 1638 
L 5359 4581 
L 5969 4581 
L 4713 0 
L 4128 0 
L 3163 3491 
Q 3041 3928 3019 4028 
Q 2947 3713 2884 3491 
L 1913 0 
L 1294 0 
z
" transform="scale(0.015625)"/>
       <path id="ArialMT-6f" d="M 213 1659 
Q 213 2581 725 3025 
Q 1153 3394 1769 3394 
Q 2453 3394 2887 2945 
Q 3322 2497 3322 1706 
Q 3322 1066 3130 698 
Q 2938 331 2570 128 
Q 2203 -75 1769 -75 
Q 1072 -75 642 372 
Q 213 819 213 1659 
z
M 791 1659 
Q 791 1022 1069 705 
Q 1347 388 1769 388 
Q 2188 388 2466 706 
Q 2744 1025 2744 1678 
Q 2744 2294 2464 2611 
Q 2184 2928 1769 2928 
Q 1347 2928 1069 2612 
Q 791 2297 791 1659 
z
" transform="scale(0.015625)"/>
       <path id="ArialMT-6d" d="M 422 0 
L 422 3319 
L 925 3319 
L 925 2853 
Q 1081 3097 1340 3245 
Q 1600 3394 1931 3394 
Q 2300 3394 2536 3241 
Q 2772 3088 2869 2813 
Q 3263 3394 3894 3394 
Q 4388 3394 4653 3120 
Q 4919 2847 4919 2278 
L 4919 0 
L 4359 0 
L 4359 2091 
Q 4359 2428 4304 2576 
Q 4250 2725 4106 2815 
Q 3963 2906 3769 2906 
Q 3419 2906 3187 2673 
Q 2956 2441 2956 1928 
L 2956 0 
L 2394 0 
L 2394 2156 
Q 2394 2531 2256 2718 
Q 2119 2906 1806 2906 
Q 1569 2906 1367 2781 
Q 1166 2656 1075 2415 
Q 984 2175 984 1722 
L 984 0 
L 422 0 
z
" transform="scale(0.015625)"/>
       <path id="ArialMT-65" d="M 2694 1069 
L 3275 997 
Q 3138 488 2766 206 
Q 2394 -75 1816 -75 
Q 1088 -75 661 373 
Q 234 822 234 1631 
Q 234 2469 665 2931 
Q 1097 3394 1784 3394 
Q 2450 3394 2872 2941 
Q 3294 2488 3294 1666 
Q 3294 1616 3291 1516 
L 816 1516 
Q 847 969 1125 678 
Q 1403 388 1819 388 
Q 2128 388 2347 550 
Q 2566 713 2694 1069 
z
M 847 1978 
L 2700 1978 
Q 2663 2397 2488 2606 
Q 2219 2931 1791 2931 
Q 1403 2931 1139 2672 
Q 875 2413 847 1978 
z
" transform="scale(0.015625)"/>
       <path id="ArialMT-6e" d="M 422 0 
L 422 3319 
L 928 3319 
L 928 2847 
Q 1294 3394 1984 3394 
Q 2284 3394 2536 3286 
Q 2788 3178 2913 3003 
Q 3038 2828 3088 2588 
Q 3119 2431 3119 2041 
L 3119 0 
L 2556 0 
L 2556 2019 
Q 2556 2363 2490 2533 
Q 2425 2703 2258 2804 
Q 2091 2906 1866 2906 
Q 1506 2906 1245 2678 
Q 984 2450 984 1813 
L 984 0 
L 422 0 
z
" transform="scale(0.015625)"/>
       <path id="ArialMT-27" d="M 425 2959 
L 281 3816 
L 281 4581 
L 922 4581 
L 922 3816 
L 772 2959 
L 425 2959 
z
" transform="scale(0.015625)"/>
       <path id="ArialMT-73" d="M 197 991 
L 753 1078 
Q 800 744 1014 566 
Q 1228 388 1613 388 
Q 2000 388 2187 545 
Q 2375 703 2375 916 
Q 2375 1106 2209 1216 
Q 2094 1291 1634 1406 
Q 1016 1563 777 1677 
Q 538 1791 414 1992 
Q 291 2194 291 2438 
Q 291 2659 392 2848 
Q 494 3038 669 3163 
Q 800 3259 1026 3326 
Q 1253 3394 1513 3394 
Q 1903 3394 2198 3281 
Q 2494 3169 2634 2976 
Q 2775 2784 2828 2463 
L 2278 2388 
Q 2241 2644 2061 2787 
Q 1881 2931 1553 2931 
Q 1166 2931 1000 2803 
Q 834 2675 834 2503 
Q 834 2394 903 2306 
Q 972 2216 1119 2156 
Q 1203 2125 1616 2013 
Q 2213 1853 2448 1751 
Q 2684 1650 2818 1456 
Q 2953 1263 2953 975 
Q 2953 694 2789 445 
Q 2625 197 2315 61 
Q 2006 -75 1616 -75 
Q 969 -75 630 194 
Q 291 463 197 991 
z
" transform="scale(0.015625)"/>
       <path id="ArialMT-20" transform="scale(0.015625)"/>
       <path id="ArialMT-68" d="M 422 0 
L 422 4581 
L 984 4581 
L 984 2938 
Q 1378 3394 1978 3394 
Q 2347 3394 2619 3248 
Q 2891 3103 3008 2847 
Q 3125 2591 3125 2103 
L 3125 0 
L 2563 0 
L 2563 2103 
Q 2563 2525 2380 2717 
Q 2197 2909 1863 2909 
Q 1613 2909 1392 2779 
Q 1172 2650 1078 2428 
Q 984 2206 984 1816 
L 984 0 
L 422 0 
z
" transform="scale(0.015625)"/>
       <path id="ArialMT-61" d="M 2588 409 
Q 2275 144 1986 34 
Q 1697 -75 1366 -75 
Q 819 -75 525 192 
Q 231 459 231 875 
Q 231 1119 342 1320 
Q 453 1522 633 1644 
Q 813 1766 1038 1828 
Q 1203 1872 1538 1913 
Q 2219 1994 2541 2106 
Q 2544 2222 2544 2253 
Q 2544 2597 2384 2738 
Q 2169 2928 1744 2928 
Q 1347 2928 1158 2789 
Q 969 2650 878 2297 
L 328 2372 
Q 403 2725 575 2942 
Q 747 3159 1072 3276 
Q 1397 3394 1825 3394 
Q 2250 3394 2515 3294 
Q 2781 3194 2906 3042 
Q 3031 2891 3081 2659 
Q 3109 2516 3109 2141 
L 3109 1391 
Q 3109 606 3145 398 
Q 3181 191 3288 0 
L 2700 0 
Q 2613 175 2588 409 
z
M 2541 1666 
Q 2234 1541 1622 1453 
Q 1275 1403 1131 1340 
Q 988 1278 909 1158 
Q 831 1038 831 891 
Q 831 666 1001 516 
Q 1172 366 1500 366 
Q 1825 366 2078 508 
Q 2331 650 2450 897 
Q 2541 1088 2541 1459 
L 2541 1666 
z
" transform="scale(0.015625)"/>
       <path id="ArialMT-6c" d="M 409 0 
L 409 4581 
L 972 4581 
L 972 0 
L 409 0 
z
" transform="scale(0.015625)"/>
       <path id="ArialMT-74" d="M 1650 503 
L 1731 6 
Q 1494 -44 1306 -44 
Q 1000 -44 831 53 
Q 663 150 594 308 
Q 525 466 525 972 
L 525 2881 
L 113 2881 
L 113 3319 
L 525 3319 
L 525 4141 
L 1084 4478 
L 1084 3319 
L 1650 3319 
L 1650 2881 
L 1084 2881 
L 1084 941 
Q 1084 700 1114 631 
Q 1144 563 1211 522 
Q 1278 481 1403 481 
Q 1497 481 1650 503 
z
" transform="scale(0.015625)"/>
       <path id="ArialMT-26" d="M 3041 541 
Q 2763 231 2434 76 
Q 2106 -78 1725 -78 
Q 1022 -78 609 397 
Q 275 784 275 1263 
Q 275 1688 548 2030 
Q 822 2372 1366 2631 
Q 1056 2988 953 3209 
Q 850 3431 850 3638 
Q 850 4050 1173 4354 
Q 1497 4659 1988 4659 
Q 2456 4659 2754 4371 
Q 3053 4084 3053 3681 
Q 3053 3028 2188 2566 
L 3009 1519 
Q 3150 1794 3228 2156 
L 3813 2031 
Q 3663 1431 3406 1044 
Q 3722 625 4122 341 
L 3744 -106 
Q 3403 113 3041 541 
z
M 1897 2928 
Q 2263 3144 2370 3306 
Q 2478 3469 2478 3666 
Q 2478 3900 2329 4048 
Q 2181 4197 1959 4197 
Q 1731 4197 1579 4050 
Q 1428 3903 1428 3691 
Q 1428 3584 1483 3467 
Q 1538 3350 1647 3219 
L 1897 2928 
z
M 2688 984 
L 1656 2263 
Q 1200 1991 1040 1758 
Q 881 1525 881 1297 
Q 881 1019 1103 719 
Q 1325 419 1731 419 
Q 1984 419 2254 576 
Q 2525 734 2688 984 
z
" transform="scale(0.015625)"/>
       <path id="ArialMT-70" d="M 422 -1272 
L 422 3319 
L 934 3319 
L 934 2888 
Q 1116 3141 1344 3267 
Q 1572 3394 1897 3394 
Q 2322 3394 2647 3175 
Q 2972 2956 3137 2557 
Q 3303 2159 3303 1684 
Q 3303 1175 3120 767 
Q 2938 359 2589 142 
Q 2241 -75 1856 -75 
Q 1575 -75 1351 44 
Q 1128 163 984 344 
L 984 -1272 
L 422 -1272 
z
M 931 1641 
Q 931 1000 1190 694 
Q 1450 388 1819 388 
Q 2194 388 2461 705 
Q 2728 1022 2728 1688 
Q 2728 2322 2467 2637 
Q 2206 2953 1844 2953 
Q 1484 2953 1207 2617 
Q 931 2281 931 1641 
z
" transform="scale(0.015625)"/>
       <path id="ArialMT-72" d="M 416 0 
L 416 3319 
L 922 3319 
L 922 2816 
Q 1116 3169 1280 3281 
Q 1444 3394 1641 3394 
Q 1925 3394 2219 3213 
L 2025 2691 
Q 1819 2813 1613 2813 
Q 1428 2813 1281 2702 
Q 1134 2591 1072 2394 
Q 978 2094 978 1738 
L 978 0 
L 416 0 
z
" transform="scale(0.015625)"/>
       <path id="ArialMT-67" d="M 319 -275 
L 866 -356 
Q 900 -609 1056 -725 
Q 1266 -881 1628 -881 
Q 2019 -881 2231 -725 
Q 2444 -569 2519 -288 
Q 2563 -116 2559 434 
Q 2191 0 1641 0 
Q 956 0 581 494 
Q 206 988 206 1678 
Q 206 2153 378 2554 
Q 550 2956 876 3175 
Q 1203 3394 1644 3394 
Q 2231 3394 2613 2919 
L 2613 3319 
L 3131 3319 
L 3131 450 
Q 3131 -325 2973 -648 
Q 2816 -972 2473 -1159 
Q 2131 -1347 1631 -1347 
Q 1038 -1347 672 -1080 
Q 306 -813 319 -275 
z
M 784 1719 
Q 784 1066 1043 766 
Q 1303 466 1694 466 
Q 2081 466 2343 764 
Q 2606 1063 2606 1700 
Q 2606 2309 2336 2618 
Q 2066 2928 1684 2928 
Q 1309 2928 1046 2623 
Q 784 2319 784 1719 
z
" transform="scale(0.015625)"/>
       <path id="ArialMT-63" d="M 2588 1216 
L 3141 1144 
Q 3050 572 2676 248 
Q 2303 -75 1759 -75 
Q 1078 -75 664 370 
Q 250 816 250 1647 
Q 250 2184 428 2587 
Q 606 2991 970 3192 
Q 1334 3394 1763 3394 
Q 2303 3394 2647 3120 
Q 2991 2847 3088 2344 
L 2541 2259 
Q 2463 2594 2264 2762 
Q 2066 2931 1784 2931 
Q 1359 2931 1093 2626 
Q 828 2322 828 1663 
Q 828 994 1084 691 
Q 1341 388 1753 388 
Q 2084 388 2306 591 
Q 2528 794 2588 1216 
z
" transform="scale(0.015625)"/>
       <path id="ArialMT-79" d="M 397 -1278 
L 334 -750 
Q 519 -800 656 -800 
Q 844 -800 956 -737 
Q 1069 -675 1141 -563 
Q 1194 -478 1313 -144 
Q 1328 -97 1363 -6 
L 103 3319 
L 709 3319 
L 1400 1397 
Q 1534 1031 1641 628 
Q 1738 1016 1872 1384 
L 2581 3319 
L 3144 3319 
L 1881 -56 
Q 1678 -603 1566 -809 
Q 1416 -1088 1222 -1217 
Q 1028 -1347 759 -1347 
Q 597 -1347 397 -1278 
z
" transform="scale(0.015625)"/>
      </defs>
      <use xlink:href="#ArialMT-57"/>
      <use xlink:href="#ArialMT-6f" transform="translate(92.634766 0)"/>
      <use xlink:href="#ArialMT-6d" transform="translate(148.25 0)"/>
      <use xlink:href="#ArialMT-65" transform="translate(231.550781 0)"/>
      <use xlink:href="#ArialMT-6e" transform="translate(287.166016 0)"/>
      <use xlink:href="#ArialMT-27" transform="translate(342.78125 0)"/>
      <use xlink:href="#ArialMT-73" transform="translate(361.873047 0)"/>
      <use xlink:href="#ArialMT-20" transform="translate(411.873047 0)"/>
      <use xlink:href="#ArialMT-68" transform="translate(439.65625 0)"/>
      <use xlink:href="#ArialMT-65" transform="translate(495.271484 0)"/>
      <use xlink:href="#ArialMT-61" transform="translate(550.886719 0)"/>
      <use xlink:href="#ArialMT-6c" transform="translate(606.501953 0)"/>
      <use xlink:href="#ArialMT-74" transform="translate(628.71875 0)"/>
      <use xlink:href="#ArialMT-68" transform="translate(656.501953 0)"/>
      <use xlink:href="#ArialMT-20" transform="translate(712.117188 0)"/>
      <use xlink:href="#ArialMT-26" transform="translate(739.900391 0)"/>
      <use xlink:href="#ArialMT-20" transform="translate(806.599609 0)"/>
      <use xlink:href="#ArialMT-70" transform="translate(834.382812 0)"/>
      <use xlink:href="#ArialMT-72" transform="translate(889.998047 0)"/>
      <use xlink:href="#ArialMT-65" transform="translate(923.298828 0)"/>
      <use xlink:href="#ArialMT-67" transform="translate(978.914062 0)"/>
      <use xlink:href="#ArialMT-6e" transform="translate(1034.529297 0)"/>
      <use xlink:href="#ArialMT-61" transform="translate(1090.144531 0)"/>
      <use xlink:href="#ArialMT-6e" transform="translate(1145.759766 0)"/>
      <use xlink:href="#ArialMT-63" transform="translate(1201.375 0)"/>
      <use xlink:href="#ArialMT-79" transform="translate(1251.375 0)"/>
     </g>
    </g>
   </g>
   <g id="text_2">
    <g clip-path="url(#p137f6f8006)">
     <!-- Mental health -->
     <g transform="translate(283.807809 1070.122911) scale(0.36 -0.36)">
      <defs>
       <path id="ArialMT-4d" d="M 475 0 
L 475 4581 
L 1388 4581 
L 2472 1338 
Q 2622 884 2691 659 
Q 2769 909 2934 1394 
L 4031 4581 
L 4847 4581 
L 4847 0 
L 4263 0 
L 4263 3834 
L 2931 0 
L 2384 0 
L 1059 3900 
L 1059 0 
L 475 0 
z
" transform="scale(0.015625)"/>
      </defs>
      <use xlink:href="#ArialMT-4d"/>
      <use xlink:href="#ArialMT-65" transform="translate(83.300781 0)"/>
      <use xlink:href="#ArialMT-6e" transform="translate(138.916016 0)"/>
      <use xlink:href="#ArialMT-74" transform="translate(194.53125 0)"/>
      <use xlink:href="#ArialMT-61" transform="translate(222.314453 0)"/>
      <use xlink:href="#ArialMT-6c" transform="translate(277.929688 0)"/>
      <use xlink:href="#ArialMT-20" transform="translate(300.146484 0)"/>
      <use xlink:href="#ArialMT-68" transform="translate(327.929688 0)"/>
      <use xlink:href="#ArialMT-65" transform="translate(383.544922 0)"/>
      <use xlink:href="#ArialMT-61" transform="translate(439.160156 0)"/>
      <use xlink:href="#ArialMT-6c" transform="translate(494.775391 0)"/>
      <use xlink:href="#ArialMT-74" transform="translate(516.992188 0)"/>
      <use xlink:href="#ArialMT-68" transform="translate(544.775391 0)"/>
     </g>
    </g>
   </g>
   <g id="text_3">
    <g clip-path="url(#p137f6f8006)">
     <!-- Physical inactivity -->
     <g transform="translate(1028.675418 718.295625) scale(0.36 -0.36)">
      <defs>
       <path id="ArialMT-50" d="M 494 0 
L 494 4581 
L 2222 4581 
Q 2678 4581 2919 4538 
Q 3256 4481 3484 4323 
Q 3713 4166 3852 3881 
Q 3991 3597 3991 3256 
Q 3991 2672 3619 2267 
Q 3247 1863 2275 1863 
L 1100 1863 
L 1100 0 
L 494 0 
z
M 1100 2403 
L 2284 2403 
Q 2872 2403 3119 2622 
Q 3366 2841 3366 3238 
Q 3366 3525 3220 3729 
Q 3075 3934 2838 4000 
Q 2684 4041 2272 4041 
L 1100 4041 
L 1100 2403 
z
" transform="scale(0.015625)"/>
       <path id="ArialMT-69" d="M 425 3934 
L 425 4581 
L 988 4581 
L 988 3934 
L 425 3934 
z
M 425 0 
L 425 3319 
L 988 3319 
L 988 0 
L 425 0 
z
" transform="scale(0.015625)"/>
       <path id="ArialMT-76" d="M 1344 0 
L 81 3319 
L 675 3319 
L 1388 1331 
Q 1503 1009 1600 663 
Q 1675 925 1809 1294 
L 2547 3319 
L 3125 3319 
L 1869 0 
L 1344 0 
z
" transform="scale(0.015625)"/>
      </defs>
      <use xlink:href="#ArialMT-50"/>
      <use xlink:href="#ArialMT-68" transform="translate(66.699219 0)"/>
      <use xlink:href="#ArialMT-79" transform="translate(122.314453 0)"/>
      <use xlink:href="#ArialMT-73" transform="translate(172.314453 0)"/>
      <use xlink:href="#ArialMT-69" transform="translate(222.314453 0)"/>
      <use xlink:href="#ArialMT-63" transform="translate(244.53125 0)"/>
      <use xlink:href="#ArialMT-61" transform="translate(294.53125 0)"/>
      <use xlink:href="#ArialMT-6c" transform="translate(350.146484 0)"/>
      <use xlink:href="#ArialMT-20" transform="translate(372.363281 0)"/>
      <use xlink:href="#ArialMT-69" transform="translate(400.146484 0)"/>
      <use xlink:href="#ArialMT-6e" transform="translate(422.363281 0)"/>
      <use xlink:href="#ArialMT-61" transform="translate(477.978516 0)"/>
      <use xlink:href="#ArialMT-63" transform="translate(533.59375 0)"/>
      <use xlink:href="#ArialMT-74" transform="translate(583.59375 0)"/>
      <use xlink:href="#ArialMT-69" transform="translate(611.376953 0)"/>
      <use xlink:href="#ArialMT-76" transform="translate(633.59375 0)"/>
      <use xlink:href="#ArialMT-69" transform="translate(683.59375 0)"/>
      <use xlink:href="#ArialMT-74" transform="translate(705.810547 0)"/>
      <use xlink:href="#ArialMT-79" transform="translate(733.59375 0)"/>
     </g>
    </g>
   </g>
   <g id="text_4">
    <g clip-path="url(#p137f6f8006)">
     <!-- Eating habits -->
     <g transform="translate(528.721152 257.776144) scale(0.36 -0.36)">
      <defs>
       <path id="ArialMT-45" d="M 506 0 
L 506 4581 
L 3819 4581 
L 3819 4041 
L 1113 4041 
L 1113 2638 
L 3647 2638 
L 3647 2100 
L 1113 2100 
L 1113 541 
L 3925 541 
L 3925 0 
L 506 0 
z
" transform="scale(0.015625)"/>
       <path id="ArialMT-62" d="M 941 0 
L 419 0 
L 419 4581 
L 981 4581 
L 981 2947 
Q 1338 3394 1891 3394 
Q 2197 3394 2470 3270 
Q 2744 3147 2920 2923 
Q 3097 2700 3197 2384 
Q 3297 2069 3297 1709 
Q 3297 856 2875 390 
Q 2453 -75 1863 -75 
Q 1275 -75 941 416 
L 941 0 
z
M 934 1684 
Q 934 1088 1097 822 
Q 1363 388 1816 388 
Q 2184 388 2453 708 
Q 2722 1028 2722 1663 
Q 2722 2313 2464 2622 
Q 2206 2931 1841 2931 
Q 1472 2931 1203 2611 
Q 934 2291 934 1684 
z
" transform="scale(0.015625)"/>
      </defs>
      <use xlink:href="#ArialMT-45"/>
      <use xlink:href="#ArialMT-61" transform="translate(66.699219 0)"/>
      <use xlink:href="#ArialMT-74" transform="translate(122.314453 0)"/>
      <use xlink:href="#ArialMT-69" transform="translate(150.097656 0)"/>
      <use xlink:href="#ArialMT-6e" transform="translate(172.314453 0)"/>
      <use xlink:href="#ArialMT-67" transform="translate(227.929688 0)"/>
      <use xlink:href="#ArialMT-20" transform="translate(283.544922 0)"/>
      <use xlink:href="#ArialMT-68" transform="translate(311.328125 0)"/>
      <use xlink:href="#ArialMT-61" transform="translate(366.943359 0)"/>
      <use xlink:href="#ArialMT-62" transform="translate(422.558594 0)"/>
      <use xlink:href="#ArialMT-69" transform="translate(478.173828 0)"/>
      <use xlink:href="#ArialMT-74" transform="translate(500.390625 0)"/>
      <use xlink:href="#ArialMT-73" transform="translate(528.173828 0)"/>
     </g>
    </g>
   </g>
   <g id="text_5">
    <g clip-path="url(#p137f6f8006)">
     <!-- Pandemic -->
     <g transform="translate(814.903361 295.295631) scale(0.36 -0.36)">
      <defs>
       <path id="ArialMT-64" d="M 2575 0 
L 2575 419 
Q 2259 -75 1647 -75 
Q 1250 -75 917 144 
Q 584 363 401 755 
Q 219 1147 219 1656 
Q 219 2153 384 2558 
Q 550 2963 881 3178 
Q 1213 3394 1622 3394 
Q 1922 3394 2156 3267 
Q 2391 3141 2538 2938 
L 2538 4581 
L 3097 4581 
L 3097 0 
L 2575 0 
z
M 797 1656 
Q 797 1019 1065 703 
Q 1334 388 1700 388 
Q 2069 388 2326 689 
Q 2584 991 2584 1609 
Q 2584 2291 2321 2609 
Q 2059 2928 1675 2928 
Q 1300 2928 1048 2622 
Q 797 2316 797 1656 
z
" transform="scale(0.015625)"/>
      </defs>
      <use xlink:href="#ArialMT-50"/>
      <use xlink:href="#ArialMT-61" transform="translate(66.699219 0)"/>
      <use xlink:href="#ArialMT-6e" transform="translate(122.314453 0)"/>
      <use xlink:href="#ArialMT-64" transform="translate(177.929688 0)"/>
      <use xlink:href="#ArialMT-65" transform="translate(233.544922 0)"/>
      <use xlink:href="#ArialMT-6d" transform="translate(289.160156 0)"/>
      <use xlink:href="#ArialMT-69" transform="translate(372.460938 0)"/>
      <use xlink:href="#ArialMT-63" transform="translate(394.677734 0)"/>
     </g>
    </g>
   </g>
   <g id="text_6">
    <g clip-path="url(#p137f6f8006)">
     <!-- Lifestyle, circumstances -->
     <g transform="translate(904.046444 970.050901) scale(0.36 -0.36)">
      <defs>
       <path id="ArialMT-4c" d="M 469 0 
L 469 4581 
L 1075 4581 
L 1075 541 
L 3331 541 
L 3331 0 
L 469 0 
z
" transform="scale(0.015625)"/>
       <path id="ArialMT-66" d="M 556 0 
L 556 2881 
L 59 2881 
L 59 3319 
L 556 3319 
L 556 3672 
Q 556 4006 616 4169 
Q 697 4388 901 4523 
Q 1106 4659 1475 4659 
Q 1713 4659 2000 4603 
L 1916 4113 
Q 1741 4144 1584 4144 
Q 1328 4144 1222 4034 
Q 1116 3925 1116 3625 
L 1116 3319 
L 1763 3319 
L 1763 2881 
L 1116 2881 
L 1116 0 
L 556 0 
z
" transform="scale(0.015625)"/>
       <path id="ArialMT-2c" d="M 569 0 
L 569 641 
L 1209 641 
L 1209 0 
Q 1209 -353 1084 -570 
Q 959 -788 688 -906 
L 531 -666 
Q 709 -588 793 -436 
Q 878 -284 888 0 
L 569 0 
z
" transform="scale(0.015625)"/>
       <path id="ArialMT-75" d="M 2597 0 
L 2597 488 
Q 2209 -75 1544 -75 
Q 1250 -75 995 37 
Q 741 150 617 320 
Q 494 491 444 738 
Q 409 903 409 1263 
L 409 3319 
L 972 3319 
L 972 1478 
Q 972 1038 1006 884 
Q 1059 663 1231 536 
Q 1403 409 1656 409 
Q 1909 409 2131 539 
Q 2353 669 2445 892 
Q 2538 1116 2538 1541 
L 2538 3319 
L 3100 3319 
L 3100 0 
L 2597 0 
z
" transform="scale(0.015625)"/>
      </defs>
      <use xlink:href="#ArialMT-4c"/>
      <use xlink:href="#ArialMT-69" transform="translate(55.615234 0)"/>
      <use xlink:href="#ArialMT-66" transform="translate(77.832031 0)"/>
      <use xlink:href="#ArialMT-65" transform="translate(105.615234 0)"/>
      <use xlink:href="#ArialMT-73" transform="translate(161.230469 0)"/>
      <use xlink:href="#ArialMT-74" transform="translate(211.230469 0)"/>
      <use xlink:href="#ArialMT-79" transform="translate(239.013672 0)"/>
      <use xlink:href="#ArialMT-6c" transform="translate(289.013672 0)"/>
      <use xlink:href="#ArialMT-65" transform="translate(311.230469 0)"/>
      <use xlink:href="#ArialMT-2c" transform="translate(366.845703 0)"/>
      <use xlink:href="#ArialMT-20" transform="translate(394.628906 0)"/>
      <use xlink:href="#ArialMT-63" transform="translate(422.412109 0)"/>
      <use xlink:href="#ArialMT-69" transform="translate(472.412109 0)"/>
      <use xlink:href="#ArialMT-72" transform="translate(494.628906 0)"/>
      <use xlink:href="#ArialMT-63" transform="translate(527.929688 0)"/>
      <use xlink:href="#ArialMT-75" transform="translate(577.929688 0)"/>
      <use xlink:href="#ArialMT-6d" transform="translate(633.544922 0)"/>
      <use xlink:href="#ArialMT-73" transform="translate(716.845703 0)"/>
      <use xlink:href="#ArialMT-74" transform="translate(766.845703 0)"/>
      <use xlink:href="#ArialMT-61" transform="translate(794.628906 0)"/>
      <use xlink:href="#ArialMT-6e" transform="translate(850.244141 0)"/>
      <use xlink:href="#ArialMT-63" transform="translate(905.859375 0)"/>
      <use xlink:href="#ArialMT-65" transform="translate(955.859375 0)"/>
      <use xlink:href="#ArialMT-73" transform="translate(1011.474609 0)"/>
     </g>
    </g>
   </g>
   <g id="text_7">
    <g clip-path="url(#p137f6f8006)">
     <!-- Family issues -->
     <g transform="translate(785.926174 1141.506556) scale(0.36 -0.36)">
      <defs>
       <path id="ArialMT-46" d="M 525 0 
L 525 4581 
L 3616 4581 
L 3616 4041 
L 1131 4041 
L 1131 2622 
L 3281 2622 
L 3281 2081 
L 1131 2081 
L 1131 0 
L 525 0 
z
" transform="scale(0.015625)"/>
      </defs>
      <use xlink:href="#ArialMT-46"/>
      <use xlink:href="#ArialMT-61" transform="translate(61.083984 0)"/>
      <use xlink:href="#ArialMT-6d" transform="translate(116.699219 0)"/>
      <use xlink:href="#ArialMT-69" transform="translate(200 0)"/>
      <use xlink:href="#ArialMT-6c" transform="translate(222.216797 0)"/>
      <use xlink:href="#ArialMT-79" transform="translate(244.433594 0)"/>
      <use xlink:href="#ArialMT-20" transform="translate(294.433594 0)"/>
      <use xlink:href="#ArialMT-69" transform="translate(322.216797 0)"/>
      <use xlink:href="#ArialMT-73" transform="translate(344.433594 0)"/>
      <use xlink:href="#ArialMT-73" transform="translate(394.433594 0)"/>
      <use xlink:href="#ArialMT-75" transform="translate(444.433594 0)"/>
      <use xlink:href="#ArialMT-65" transform="translate(500.048828 0)"/>
      <use xlink:href="#ArialMT-73" transform="translate(555.664062 0)"/>
     </g>
    </g>
   </g>
   <g id="text_8">
    <g clip-path="url(#p137f6f8006)">
     <!-- Schedule -->
     <g transform="translate(173.626144 587.429052) scale(0.36 -0.36)">
      <defs>
       <path id="ArialMT-53" d="M 288 1472 
L 859 1522 
Q 900 1178 1048 958 
Q 1197 738 1509 602 
Q 1822 466 2213 466 
Q 2559 466 2825 569 
Q 3091 672 3220 851 
Q 3350 1031 3350 1244 
Q 3350 1459 3225 1620 
Q 3100 1781 2813 1891 
Q 2628 1963 1997 2114 
Q 1366 2266 1113 2400 
Q 784 2572 623 2826 
Q 463 3081 463 3397 
Q 463 3744 659 4045 
Q 856 4347 1234 4503 
Q 1613 4659 2075 4659 
Q 2584 4659 2973 4495 
Q 3363 4331 3572 4012 
Q 3781 3694 3797 3291 
L 3216 3247 
Q 3169 3681 2898 3903 
Q 2628 4125 2100 4125 
Q 1550 4125 1298 3923 
Q 1047 3722 1047 3438 
Q 1047 3191 1225 3031 
Q 1400 2872 2139 2705 
Q 2878 2538 3153 2413 
Q 3553 2228 3743 1945 
Q 3934 1663 3934 1294 
Q 3934 928 3725 604 
Q 3516 281 3123 101 
Q 2731 -78 2241 -78 
Q 1619 -78 1198 103 
Q 778 284 539 648 
Q 300 1013 288 1472 
z
" transform="scale(0.015625)"/>
      </defs>
      <use xlink:href="#ArialMT-53"/>
      <use xlink:href="#ArialMT-63" transform="translate(66.699219 0)"/>
      <use xlink:href="#ArialMT-68" transform="translate(116.699219 0)"/>
      <use xlink:href="#ArialMT-65" transform="translate(172.314453 0)"/>
      <use xlink:href="#ArialMT-64" transform="translate(227.929688 0)"/>
      <use xlink:href="#ArialMT-75" transform="translate(283.544922 0)"/>
      <use xlink:href="#ArialMT-6c" transform="translate(339.160156 0)"/>
      <use xlink:href="#ArialMT-65" transform="translate(361.376953 0)"/>
     </g>
    </g>
   </g>
   <g id="text_9">
    <g clip-path="url(#p137f6f8006)">
     <!-- Smoking cessation -->
     <g transform="translate(240.801871 366.898651) scale(0.36 -0.36)">
      <defs>
       <path id="ArialMT-6b" d="M 425 0 
L 425 4581 
L 988 4581 
L 988 1969 
L 2319 3319 
L 3047 3319 
L 1778 2088 
L 3175 0 
L 2481 0 
L 1384 1697 
L 988 1316 
L 988 0 
L 425 0 
z
" transform="scale(0.015625)"/>
      </defs>
      <use xlink:href="#ArialMT-53"/>
      <use xlink:href="#ArialMT-6d" transform="translate(66.699219 0)"/>
      <use xlink:href="#ArialMT-6f" transform="translate(150 0)"/>
      <use xlink:href="#ArialMT-6b" transform="translate(205.615234 0)"/>
      <use xlink:href="#ArialMT-69" transform="translate(255.615234 0)"/>
      <use xlink:href="#ArialMT-6e" transform="translate(277.832031 0)"/>
      <use xlink:href="#ArialMT-67" transform="translate(333.447266 0)"/>
      <use xlink:href="#ArialMT-20" transform="translate(389.0625 0)"/>
      <use xlink:href="#ArialMT-63" transform="translate(416.845703 0)"/>
      <use xlink:href="#ArialMT-65" transform="translate(466.845703 0)"/>
      <use xlink:href="#ArialMT-73" transform="translate(522.460938 0)"/>
      <use xlink:href="#ArialMT-73" transform="translate(572.460938 0)"/>
      <use xlink:href="#ArialMT-61" transform="translate(622.460938 0)"/>
      <use xlink:href="#ArialMT-74" transform="translate(678.076172 0)"/>
      <use xlink:href="#ArialMT-69" transform="translate(705.859375 0)"/>
      <use xlink:href="#ArialMT-6f" transform="translate(728.076172 0)"/>
      <use xlink:href="#ArialMT-6e" transform="translate(783.691406 0)"/>
     </g>
    </g>
   </g>
   <g id="text_10">
    <g clip-path="url(#p137f6f8006)">
     <!-- Treatment discontinuation or relapse -->
     <g transform="translate(341.32709 1179.026043) scale(0.36 -0.36)">
      <defs>
       <path id="ArialMT-54" d="M 1659 0 
L 1659 4041 
L 150 4041 
L 150 4581 
L 3781 4581 
L 3781 4041 
L 2266 4041 
L 2266 0 
L 1659 0 
z
" transform="scale(0.015625)"/>
      </defs>
      <use xlink:href="#ArialMT-54"/>
      <use xlink:href="#ArialMT-72" transform="translate(57.333984 0)"/>
      <use xlink:href="#ArialMT-65" transform="translate(90.634766 0)"/>
      <use xlink:href="#ArialMT-61" transform="translate(146.25 0)"/>
      <use xlink:href="#ArialMT-74" transform="translate(201.865234 0)"/>
      <use xlink:href="#ArialMT-6d" transform="translate(229.648438 0)"/>
      <use xlink:href="#ArialMT-65" transform="translate(312.949219 0)"/>
      <use xlink:href="#ArialMT-6e" transform="translate(368.564453 0)"/>
      <use xlink:href="#ArialMT-74" transform="translate(424.179688 0)"/>
      <use xlink:href="#ArialMT-20" transform="translate(451.962891 0)"/>
      <use xlink:href="#ArialMT-64" transform="translate(479.746094 0)"/>
      <use xlink:href="#ArialMT-69" transform="translate(535.361328 0)"/>
      <use xlink:href="#ArialMT-73" transform="translate(557.578125 0)"/>
      <use xlink:href="#ArialMT-63" transform="translate(607.578125 0)"/>
      <use xlink:href="#ArialMT-6f" transform="translate(657.578125 0)"/>
      <use xlink:href="#ArialMT-6e" transform="translate(713.193359 0)"/>
      <use xlink:href="#ArialMT-74" transform="translate(768.808594 0)"/>
      <use xlink:href="#ArialMT-69" transform="translate(796.591797 0)"/>
      <use xlink:href="#ArialMT-6e" transform="translate(818.808594 0)"/>
      <use xlink:href="#ArialMT-75" transform="translate(874.423828 0)"/>
      <use xlink:href="#ArialMT-61" transform="translate(930.039062 0)"/>
      <use xlink:href="#ArialMT-74" transform="translate(985.654297 0)"/>
      <use xlink:href="#ArialMT-69" transform="translate(1013.4375 0)"/>
      <use xlink:href="#ArialMT-6f" transform="translate(1035.654297 0)"/>
      <use xlink:href="#ArialMT-6e" transform="translate(1091.269531 0)"/>
      <use xlink:href="#ArialMT-20" transform="translate(1146.884766 0)"/>
      <use xlink:href="#ArialMT-6f" transform="translate(1174.667969 0)"/>
      <use xlink:href="#ArialMT-72" transform="translate(1230.283203 0)"/>
      <use xlink:href="#ArialMT-20" transform="translate(1263.583984 0)"/>
      <use xlink:href="#ArialMT-72" transform="translate(1291.367188 0)"/>
      <use xlink:href="#ArialMT-65" transform="translate(1324.667969 0)"/>
      <use xlink:href="#ArialMT-6c" transform="translate(1380.283203 0)"/>
      <use xlink:href="#ArialMT-61" transform="translate(1402.5 0)"/>
      <use xlink:href="#ArialMT-70" transform="translate(1458.115234 0)"/>
      <use xlink:href="#ArialMT-73" transform="translate(1513.730469 0)"/>
      <use xlink:href="#ArialMT-65" transform="translate(1563.730469 0)"/>
     </g>
    </g>
   </g>
   <g id="text_11">
    <g clip-path="url(#p137f6f8006)">
     <!-- Medication, disease, or injury -->
     <g transform="translate(15.583332 849.373136) scale(0.36 -0.36)">
      <defs>
       <path id="ArialMT-6a" d="M 419 3928 
L 419 4581 
L 981 4581 
L 981 3928 
L 419 3928 
z
M -294 -1288 
L -188 -809 
Q -19 -853 78 -853 
Q 250 -853 334 -739 
Q 419 -625 419 -169 
L 419 3319 
L 981 3319 
L 981 -181 
Q 981 -794 822 -1034 
Q 619 -1347 147 -1347 
Q -81 -1347 -294 -1288 
z
" transform="scale(0.015625)"/>
      </defs>
      <use xlink:href="#ArialMT-4d"/>
      <use xlink:href="#ArialMT-65" transform="translate(83.300781 0)"/>
      <use xlink:href="#ArialMT-64" transform="translate(138.916016 0)"/>
      <use xlink:href="#ArialMT-69" transform="translate(194.53125 0)"/>
      <use xlink:href="#ArialMT-63" transform="translate(216.748047 0)"/>
      <use xlink:href="#ArialMT-61" transform="translate(266.748047 0)"/>
      <use xlink:href="#ArialMT-74" transform="translate(322.363281 0)"/>
      <use xlink:href="#ArialMT-69" transform="translate(350.146484 0)"/>
      <use xlink:href="#ArialMT-6f" transform="translate(372.363281 0)"/>
      <use xlink:href="#ArialMT-6e" transform="translate(427.978516 0)"/>
      <use xlink:href="#ArialMT-2c" transform="translate(483.59375 0)"/>
      <use xlink:href="#ArialMT-20" transform="translate(511.376953 0)"/>
      <use xlink:href="#ArialMT-64" transform="translate(539.160156 0)"/>
      <use xlink:href="#ArialMT-69" transform="translate(594.775391 0)"/>
      <use xlink:href="#ArialMT-73" transform="translate(616.992188 0)"/>
      <use xlink:href="#ArialMT-65" transform="translate(666.992188 0)"/>
      <use xlink:href="#ArialMT-61" transform="translate(722.607422 0)"/>
      <use xlink:href="#ArialMT-73" transform="translate(778.222656 0)"/>
      <use xlink:href="#ArialMT-65" transform="translate(828.222656 0)"/>
      <use xlink:href="#ArialMT-2c" transform="translate(883.837891 0)"/>
      <use xlink:href="#ArialMT-20" transform="translate(911.621094 0)"/>
      <use xlink:href="#ArialMT-6f" transform="translate(939.404297 0)"/>
      <use xlink:href="#ArialMT-72" transform="translate(995.019531 0)"/>
      <use xlink:href="#ArialMT-20" transform="translate(1028.320312 0)"/>
      <use xlink:href="#ArialMT-69" transform="translate(1056.103516 0)"/>
      <use xlink:href="#ArialMT-6e" transform="translate(1078.320312 0)"/>
      <use xlink:href="#ArialMT-6a" transform="translate(1133.935547 0)"/>
      <use xlink:href="#ArialMT-75" transform="translate(1156.152344 0)"/>
      <use xlink:href="#ArialMT-72" transform="translate(1211.767578 0)"/>
      <use xlink:href="#ArialMT-79" transform="translate(1245.068359 0)"/>
     </g>
    </g>
   </g>
  </g>
 </g>
 <defs>
  <clipPath id="p137f6f8006">
   <rect x="0" y="-0" width="1418.4" height="1418.4"/>
  </clipPath>
 </defs>
</svg>
